G04*
G04 #@! TF.GenerationSoftware,Altium Limited,Altium Designer,22.8.2 (66)*
G04*
G04 Layer_Color=65535*
%FSLAX42Y42*%
%MOMM*%
G71*
G04*
G04 #@! TF.SameCoordinates,889D92F3-8E91-4399-9715-C869CBAF0A79*
G04*
G04*
G04 #@! TF.FilePolarity,Positive*
G04*
G01*
G75*
%ADD10C,0.20*%
%ADD11C,0.61*%
%ADD12C,0.13*%
%ADD13C,0.40*%
%ADD14C,0.25*%
D10*
X3460Y850D02*
G03*
X3460Y850I-10J0D01*
G01*
X920Y3040D02*
G03*
X920Y3040I-10J0D01*
G01*
X1485Y2500D02*
G03*
X1485Y2500I-10J0D01*
G01*
Y1150D02*
G03*
X1485Y1150I-10J0D01*
G01*
X1088Y5912D02*
G03*
X1088Y5912I-10J0D01*
G01*
X11890Y6442D02*
G03*
X11890Y6442I-10J0D01*
G01*
X11956Y1731D02*
G03*
X11956Y1731I-10J0D01*
G01*
D11*
X8670Y280D02*
G03*
X8670Y280I-25J0D01*
G01*
X10570D02*
G03*
X10570Y280I-25J0D01*
G01*
D12*
X2350Y2500D02*
G03*
X2350Y2500I-400J0D01*
G01*
Y1150D02*
G03*
X2350Y1150I-400J0D01*
G01*
X3030Y923D02*
Y2777D01*
Y923D02*
X7335Y923D01*
X3030Y2777D02*
X7335Y2777D01*
X7335Y910D02*
Y2764D01*
X12047Y2112D02*
Y2671D01*
X12072Y2696D01*
X12047Y2721D02*
X12072Y2696D01*
X12047Y2721D02*
Y3280D01*
X12098D01*
Y3229D02*
Y3280D01*
Y3229D02*
X12402D01*
Y3280D01*
X12453D01*
Y2721D02*
Y3280D01*
X12428Y2696D02*
X12453Y2721D01*
X12428Y2696D02*
X12453Y2671D01*
Y2112D02*
Y2671D01*
X12402Y2112D02*
X12453D01*
X12402D02*
Y2163D01*
X12098D02*
X12402D01*
X12098Y2112D02*
Y2163D01*
X12047Y2112D02*
X12098D01*
X225Y2950D02*
X1175D01*
X225Y750D02*
Y2950D01*
Y750D02*
X1175D01*
Y2950D01*
X7875Y3200D02*
X8250D01*
X9050D02*
X9425D01*
X9050Y400D02*
X9425D01*
X7875D02*
X8250D01*
X9425D02*
Y3200D01*
X7875Y400D02*
Y3200D01*
X9775D02*
X10150D01*
X10950D02*
X11325D01*
X10950Y400D02*
X11325D01*
X9775D02*
X10150D01*
X11325D02*
Y3200D01*
X9775Y400D02*
Y3200D01*
X12025Y8192D02*
Y9208D01*
X12275D01*
Y8192D02*
Y9208D01*
X12025Y8192D02*
X12275D01*
X308Y4963D02*
Y8044D01*
X958D01*
X308Y4963D02*
X958D01*
Y8044D01*
X12650Y4310D02*
Y7390D01*
X12000Y4310D02*
X12650D01*
X12000Y7390D02*
X12650D01*
X12000Y4310D02*
Y7390D01*
X773Y4690D02*
X930Y4533D01*
X770Y4690D02*
X773D01*
X930Y3570D02*
Y4533D01*
X370Y3570D02*
Y4533D01*
X620Y3470D02*
X720D01*
X670Y3420D02*
Y3520D01*
X370Y3570D02*
X930D01*
X370Y4533D02*
X507Y4690D01*
X770D01*
X12242Y3988D02*
X12358D01*
X12242Y3812D02*
X12358D01*
X12155Y1752D02*
X12545D01*
X12155Y1248D02*
X12545D01*
X12295Y788D02*
X12411D01*
X12295Y612D02*
X12411D01*
D13*
X12174Y8117D02*
G03*
X12174Y8117I-20J0D01*
G01*
D14*
X12645Y2505D02*
X12612D01*
X12595Y2489D01*
Y2422D01*
X12612Y2405D01*
X12645D01*
X12662Y2422D01*
Y2489D01*
X12645Y2505D01*
X12712Y2405D02*
Y2489D01*
Y2455D01*
X12695D01*
X12729D01*
X12712D01*
Y2489D01*
X12729Y2505D01*
X12795Y2405D02*
Y2489D01*
Y2455D01*
X12779D01*
X12812D01*
X12795D01*
Y2489D01*
X12812Y2505D01*
X12665Y3005D02*
X12632D01*
X12615Y2989D01*
Y2922D01*
X12632Y2905D01*
X12665D01*
X12682Y2922D01*
Y2989D01*
X12665Y3005D01*
X12715Y2905D02*
Y2972D01*
X12765D01*
X12782Y2955D01*
Y2905D01*
X4425Y7875D02*
Y7977D01*
X4476Y8028D01*
X4527Y7977D01*
Y7875D01*
Y7952D01*
X4425D01*
X4578Y7977D02*
Y7901D01*
X4603Y7875D01*
X4679D01*
Y7977D01*
X4755Y8002D02*
Y7977D01*
X4730D01*
X4781D01*
X4755D01*
Y7901D01*
X4781Y7875D01*
X4882D02*
X4933D01*
X4959Y7901D01*
Y7952D01*
X4933Y7977D01*
X4882D01*
X4857Y7952D01*
Y7901D01*
X4882Y7875D01*
X5009Y7977D02*
Y7901D01*
X5035Y7875D01*
X5060Y7901D01*
X5086Y7875D01*
X5111Y7901D01*
Y7977D01*
X5187D02*
X5238D01*
X5263Y7952D01*
Y7875D01*
X5187D01*
X5162Y7901D01*
X5187Y7926D01*
X5263D01*
X5314Y7977D02*
Y7875D01*
Y7926D01*
X5340Y7952D01*
X5365Y7977D01*
X5390D01*
X5543Y7875D02*
X5492D01*
X5466Y7901D01*
Y7952D01*
X5492Y7977D01*
X5543D01*
X5568Y7952D01*
Y7926D01*
X5466D01*
X5873Y8002D02*
X5847Y8028D01*
X5797D01*
X5771Y8002D01*
Y7901D01*
X5797Y7875D01*
X5847D01*
X5873Y7901D01*
X6000Y7875D02*
X5949D01*
X5924Y7901D01*
Y7952D01*
X5949Y7977D01*
X6000D01*
X6025Y7952D01*
Y7926D01*
X5924D01*
X6076Y7875D02*
Y7977D01*
X6152D01*
X6177Y7952D01*
Y7875D01*
X6254Y8002D02*
Y7977D01*
X6228D01*
X6279D01*
X6254D01*
Y7901D01*
X6279Y7875D01*
X6431D02*
X6381D01*
X6355Y7901D01*
Y7952D01*
X6381Y7977D01*
X6431D01*
X6457Y7952D01*
Y7926D01*
X6355D01*
X6508Y7977D02*
Y7875D01*
Y7926D01*
X6533Y7952D01*
X6558Y7977D01*
X6584D01*
X6838Y7875D02*
X6888D01*
X6914Y7901D01*
Y7952D01*
X6888Y7977D01*
X6838D01*
X6812Y7952D01*
Y7901D01*
X6838Y7875D01*
X6990D02*
Y8002D01*
Y7952D01*
X6965D01*
X7015D01*
X6990D01*
Y8002D01*
X7015Y8028D01*
X7345D02*
X7244D01*
Y7875D01*
X7345D01*
X7244Y7952D02*
X7295D01*
X7396Y7977D02*
X7498Y7875D01*
X7447Y7926D01*
X7498Y7977D01*
X7396Y7875D01*
X7650Y7977D02*
X7574D01*
X7549Y7952D01*
Y7901D01*
X7574Y7875D01*
X7650D01*
X7777D02*
X7726D01*
X7701Y7901D01*
Y7952D01*
X7726Y7977D01*
X7777D01*
X7803Y7952D01*
Y7926D01*
X7701D01*
X7853Y7875D02*
X7904D01*
X7879D01*
Y8028D01*
X7853D01*
X7980Y7875D02*
X8031D01*
X8006D01*
Y8028D01*
X7980D01*
X8183Y7875D02*
X8133D01*
X8107Y7901D01*
Y7952D01*
X8133Y7977D01*
X8183D01*
X8209Y7952D01*
Y7926D01*
X8107D01*
X8260Y7875D02*
Y7977D01*
X8336D01*
X8361Y7952D01*
Y7875D01*
X8513Y7977D02*
X8437D01*
X8412Y7952D01*
Y7901D01*
X8437Y7875D01*
X8513D01*
X8640D02*
X8590D01*
X8564Y7901D01*
Y7952D01*
X8590Y7977D01*
X8640D01*
X8666Y7952D01*
Y7926D01*
X8564D01*
X5075Y8428D02*
Y8301D01*
X5101Y8275D01*
X5152D01*
X5177Y8301D01*
Y8428D01*
X5228Y8275D02*
X5304D01*
X5329Y8301D01*
X5304Y8326D01*
X5253D01*
X5228Y8352D01*
X5253Y8377D01*
X5329D01*
X5456Y8275D02*
X5405D01*
X5380Y8301D01*
Y8352D01*
X5405Y8377D01*
X5456D01*
X5482Y8352D01*
Y8326D01*
X5380D01*
X5532Y8377D02*
Y8275D01*
Y8326D01*
X5558Y8352D01*
X5583Y8377D01*
X5609D01*
X5837Y8428D02*
X5888D01*
X5863D01*
Y8275D01*
X5837D01*
X5888D01*
X5964D02*
Y8377D01*
X6040D01*
X6066Y8352D01*
Y8275D01*
X6142Y8402D02*
Y8377D01*
X6116D01*
X6167D01*
X6142D01*
Y8301D01*
X6167Y8275D01*
X6320D02*
X6269D01*
X6243Y8301D01*
Y8352D01*
X6269Y8377D01*
X6320D01*
X6345Y8352D01*
Y8326D01*
X6243D01*
X6396Y8377D02*
Y8275D01*
Y8326D01*
X6421Y8352D01*
X6447Y8377D01*
X6472D01*
X6574Y8275D02*
Y8402D01*
Y8352D01*
X6548D01*
X6599D01*
X6574D01*
Y8402D01*
X6599Y8428D01*
X6700Y8377D02*
X6751D01*
X6777Y8352D01*
Y8275D01*
X6700D01*
X6675Y8301D01*
X6700Y8326D01*
X6777D01*
X6929Y8377D02*
X6853D01*
X6827Y8352D01*
Y8301D01*
X6853Y8275D01*
X6929D01*
X7056D02*
X7005D01*
X6980Y8301D01*
Y8352D01*
X7005Y8377D01*
X7056D01*
X7081Y8352D01*
Y8326D01*
X6980D01*
X7284Y8428D02*
Y8326D01*
X7335Y8275D01*
X7386Y8326D01*
Y8428D01*
X7437Y8275D02*
X7488D01*
X7462D01*
Y8428D01*
X7437Y8402D01*
X7564Y8275D02*
Y8301D01*
X7589D01*
Y8275D01*
X7564D01*
X7691Y8402D02*
X7716Y8428D01*
X7767D01*
X7792Y8402D01*
Y8301D01*
X7767Y8275D01*
X7716D01*
X7691Y8301D01*
Y8402D01*
X4625Y7629D02*
Y7502D01*
X4651Y7476D01*
X4702D01*
X4727Y7502D01*
Y7629D01*
X4778Y7476D02*
Y7578D01*
X4854D01*
X4879Y7552D01*
Y7476D01*
X4930D02*
X4981D01*
X4955D01*
Y7578D01*
X4930D01*
X5057D02*
X5108Y7476D01*
X5159Y7578D01*
X5286Y7476D02*
X5235D01*
X5209Y7502D01*
Y7552D01*
X5235Y7578D01*
X5286D01*
X5311Y7552D01*
Y7527D01*
X5209D01*
X5362Y7578D02*
Y7476D01*
Y7527D01*
X5387Y7552D01*
X5413Y7578D01*
X5438D01*
X5514Y7476D02*
X5590D01*
X5616Y7502D01*
X5590Y7527D01*
X5540D01*
X5514Y7552D01*
X5540Y7578D01*
X5616D01*
X5666Y7476D02*
X5717D01*
X5692D01*
Y7578D01*
X5666D01*
X5819Y7603D02*
Y7578D01*
X5793D01*
X5844D01*
X5819D01*
Y7502D01*
X5844Y7476D01*
X5920Y7578D02*
Y7502D01*
X5946Y7476D01*
X6022D01*
Y7451D01*
X5997Y7425D01*
X5971D01*
X6022Y7476D02*
Y7578D01*
X6250Y7476D02*
X6301D01*
X6327Y7502D01*
Y7552D01*
X6301Y7578D01*
X6250D01*
X6225Y7552D01*
Y7502D01*
X6250Y7476D01*
X6403D02*
Y7603D01*
Y7552D01*
X6377D01*
X6428D01*
X6403D01*
Y7603D01*
X6428Y7629D01*
X6657Y7476D02*
Y7629D01*
X6733D01*
X6758Y7603D01*
Y7552D01*
X6733Y7527D01*
X6657D01*
X6885Y7476D02*
X6834D01*
X6809Y7502D01*
Y7552D01*
X6834Y7578D01*
X6885D01*
X6911Y7552D01*
Y7527D01*
X6809D01*
X6961Y7476D02*
Y7578D01*
X7038D01*
X7063Y7552D01*
Y7476D01*
X7114D02*
Y7578D01*
X7190D01*
X7215Y7552D01*
Y7476D01*
X7266D02*
X7342D01*
X7368Y7502D01*
X7342Y7527D01*
X7292D01*
X7266Y7552D01*
X7292Y7578D01*
X7368D01*
X7418D02*
Y7502D01*
X7444Y7476D01*
X7520D01*
Y7451D01*
X7495Y7425D01*
X7469D01*
X7520Y7476D02*
Y7578D01*
X7571Y7476D02*
X7622D01*
X7596D01*
Y7629D01*
X7571D01*
X7698Y7578D02*
X7749Y7476D01*
X7799Y7578D01*
X7876D02*
X7926D01*
X7952Y7552D01*
Y7476D01*
X7876D01*
X7850Y7502D01*
X7876Y7527D01*
X7952D01*
X8003Y7476D02*
Y7578D01*
X8079D01*
X8104Y7552D01*
Y7476D01*
X8155D02*
X8206D01*
X8180D01*
Y7578D01*
X8155D01*
X8307D02*
X8358D01*
X8383Y7552D01*
Y7476D01*
X8307D01*
X8282Y7502D01*
X8307Y7527D01*
X8383D01*
X5175Y8675D02*
Y8777D01*
X5226Y8828D01*
X5277Y8777D01*
Y8675D01*
Y8752D01*
X5175D01*
X5328Y8777D02*
Y8701D01*
X5353Y8675D01*
X5429D01*
Y8777D01*
X5505Y8802D02*
Y8777D01*
X5480D01*
X5531D01*
X5505D01*
Y8701D01*
X5531Y8675D01*
X5632D02*
X5683D01*
X5709Y8701D01*
Y8752D01*
X5683Y8777D01*
X5632D01*
X5607Y8752D01*
Y8701D01*
X5632Y8675D01*
X5759D02*
Y8777D01*
X5836D01*
X5861Y8752D01*
Y8675D01*
X5937D02*
X5988D01*
X6013Y8701D01*
Y8752D01*
X5988Y8777D01*
X5937D01*
X5912Y8752D01*
Y8701D01*
X5937Y8675D01*
X6064D02*
Y8777D01*
X6090D01*
X6115Y8752D01*
Y8675D01*
Y8752D01*
X6140Y8777D01*
X6166Y8752D01*
Y8675D01*
X6242D02*
X6293D01*
X6318Y8701D01*
Y8752D01*
X6293Y8777D01*
X6242D01*
X6216Y8752D01*
Y8701D01*
X6242Y8675D01*
X6369Y8777D02*
Y8701D01*
X6394Y8675D01*
X6470D01*
Y8777D01*
X6521Y8675D02*
X6597D01*
X6623Y8701D01*
X6597Y8726D01*
X6547D01*
X6521Y8752D01*
X6547Y8777D01*
X6623D01*
X6927Y8802D02*
X6902Y8828D01*
X6851D01*
X6826Y8802D01*
Y8701D01*
X6851Y8675D01*
X6902D01*
X6927Y8701D01*
Y8752D01*
X6877D01*
X7004Y8675D02*
X7054D01*
X7080Y8701D01*
Y8752D01*
X7054Y8777D01*
X7004D01*
X6978Y8752D01*
Y8701D01*
X7004Y8675D01*
X7131D02*
Y8828D01*
Y8726D02*
X7207Y8777D01*
X7131Y8726D02*
X7207Y8675D01*
X7308Y8777D02*
X7359D01*
X7384Y8752D01*
Y8675D01*
X7308D01*
X7283Y8701D01*
X7308Y8726D01*
X7384D01*
X7435Y8777D02*
Y8675D01*
Y8726D01*
X7461Y8752D01*
X7486Y8777D01*
X7511D01*
X7613Y8802D02*
Y8777D01*
X7588D01*
X7638D01*
X7613D01*
Y8701D01*
X7638Y8675D01*
X2027Y1625D02*
X1925D01*
X2027Y1727D01*
Y1752D01*
X2002Y1778D01*
X1951D01*
X1925Y1752D01*
X2179Y1625D02*
X2078D01*
X2179Y1727D01*
Y1752D01*
X2154Y1778D01*
X2103D01*
X2078Y1752D01*
X2230Y1727D02*
Y1651D01*
X2255Y1625D01*
X2332D01*
Y1727D01*
X2484Y1778D02*
X2382D01*
Y1702D01*
X2433D01*
X2382D01*
Y1625D01*
X1925Y2975D02*
X1976D01*
X1951D01*
Y3128D01*
X1925Y3102D01*
X2052D02*
X2078Y3128D01*
X2129D01*
X2154Y3102D01*
Y3001D01*
X2129Y2975D01*
X2078D01*
X2052Y3001D01*
Y3102D01*
X2205D02*
X2230Y3128D01*
X2281D01*
X2306Y3102D01*
Y3001D01*
X2281Y2975D01*
X2230D01*
X2205Y3001D01*
Y3102D01*
X2357Y3077D02*
Y3001D01*
X2382Y2975D01*
X2459D01*
Y3077D01*
X2611Y3128D02*
X2509D01*
Y3052D01*
X2560D01*
X2509D01*
Y2975D01*
X12442Y8359D02*
X12425Y8375D01*
X12392D01*
X12375Y8359D01*
Y8292D01*
X12392Y8275D01*
X12425D01*
X12442Y8292D01*
Y8325D01*
X12409D01*
X12475Y8275D02*
Y8375D01*
X12542Y8275D01*
Y8375D01*
X12575D02*
Y8275D01*
X12625D01*
X12642Y8292D01*
Y8359D01*
X12625Y8375D01*
X12575D01*
X12442Y9109D02*
X12425Y9125D01*
X12392D01*
X12375Y9109D01*
Y9092D01*
X12392Y9075D01*
X12425D01*
X12442Y9059D01*
Y9042D01*
X12425Y9025D01*
X12392D01*
X12375Y9042D01*
X12542Y9109D02*
X12525Y9125D01*
X12492D01*
X12475Y9109D01*
Y9042D01*
X12492Y9025D01*
X12525D01*
X12542Y9042D01*
X12575Y9125D02*
Y9025D01*
X12642D01*
X12442Y8859D02*
X12425Y8875D01*
X12392D01*
X12375Y8859D01*
Y8842D01*
X12392Y8825D01*
X12425D01*
X12442Y8809D01*
Y8792D01*
X12425Y8775D01*
X12392D01*
X12375Y8792D01*
X12475Y8875D02*
Y8775D01*
X12525D01*
X12542Y8792D01*
Y8859D01*
X12525Y8875D01*
X12475D01*
X12575Y8775D02*
Y8842D01*
X12609Y8875D01*
X12642Y8842D01*
Y8775D01*
Y8825D01*
X12575D01*
X12442Y8625D02*
X12375D01*
Y8575D01*
X12409Y8592D01*
X12425D01*
X12442Y8575D01*
Y8542D01*
X12425Y8525D01*
X12392D01*
X12375Y8542D01*
X12475Y8625D02*
Y8559D01*
X12509Y8525D01*
X12542Y8559D01*
Y8625D01*
X7975Y3551D02*
X7949Y3576D01*
X7898D01*
X7873Y3551D01*
Y3525D01*
X7898Y3500D01*
X7949D01*
X7975Y3475D01*
Y3449D01*
X7949Y3424D01*
X7898D01*
X7873Y3449D01*
X8127Y3424D02*
X8025D01*
X8127Y3525D01*
Y3551D01*
X8102Y3576D01*
X8051D01*
X8025Y3551D01*
X9875D02*
X9849Y3576D01*
X9798D01*
X9773Y3551D01*
Y3525D01*
X9798Y3500D01*
X9849D01*
X9875Y3475D01*
Y3449D01*
X9849Y3424D01*
X9798D01*
X9773Y3449D01*
X9925Y3551D02*
X9951Y3576D01*
X10002D01*
X10027Y3551D01*
Y3525D01*
X10002Y3500D01*
X9976D01*
X10002D01*
X10027Y3475D01*
Y3449D01*
X10002Y3424D01*
X9951D01*
X9925Y3449D01*
X222Y3074D02*
Y3226D01*
X298D01*
X324Y3201D01*
Y3150D01*
X298Y3125D01*
X222D01*
X476Y3201D02*
X451Y3226D01*
X400D01*
X375Y3201D01*
Y3175D01*
X400Y3150D01*
X451D01*
X476Y3125D01*
Y3099D01*
X451Y3074D01*
X400D01*
X375Y3099D01*
X527Y3074D02*
X578D01*
X552D01*
Y3226D01*
X527Y3201D01*
X12125Y9426D02*
X12074D01*
X12099D01*
Y9299D01*
X12074Y9274D01*
X12048D01*
X12023Y9299D01*
X12252Y9274D02*
Y9426D01*
X12175Y9350D01*
X12277D01*
X1575Y1751D02*
X1549Y1776D01*
X1498D01*
X1473Y1751D01*
Y1649D01*
X1498Y1624D01*
X1549D01*
X1575Y1649D01*
X1727Y1624D02*
X1625D01*
X1727Y1725D01*
Y1751D01*
X1702Y1776D01*
X1651D01*
X1625Y1751D01*
X1600Y3101D02*
X1575Y3126D01*
X1524D01*
X1498Y3101D01*
Y2999D01*
X1524Y2974D01*
X1575D01*
X1600Y2999D01*
X1651Y2974D02*
X1702D01*
X1676D01*
Y3126D01*
X1651Y3101D01*
X425Y8326D02*
X374D01*
X399D01*
Y8199D01*
X374Y8174D01*
X348D01*
X323Y8199D01*
X577Y8174D02*
X475D01*
X577Y8275D01*
Y8301D01*
X552Y8326D01*
X501D01*
X475Y8301D01*
X12075Y7676D02*
X12024D01*
X12049D01*
Y7549D01*
X12024Y7524D01*
X11998D01*
X11973Y7549D01*
X12125Y7651D02*
X12151Y7676D01*
X12202D01*
X12227Y7651D01*
Y7625D01*
X12202Y7600D01*
X12176D01*
X12202D01*
X12227Y7575D01*
Y7549D01*
X12202Y7524D01*
X12151D01*
X12125Y7549D01*
X3017Y486D02*
Y613D01*
X3042Y638D01*
X3093D01*
X3118Y613D01*
Y486D01*
X3169Y638D02*
X3220D01*
X3195D01*
Y486D01*
X3169Y511D01*
X12423Y1126D02*
Y999D01*
X12448Y974D01*
X12499D01*
X12525Y999D01*
Y1126D01*
X12677Y974D02*
X12575D01*
X12677Y1075D01*
Y1101D01*
X12652Y1126D01*
X12601D01*
X12575Y1101D01*
X12250Y3547D02*
X12225Y3572D01*
X12174D01*
X12148Y3547D01*
Y3521D01*
X12174Y3496D01*
X12225D01*
X12250Y3471D01*
Y3445D01*
X12225Y3420D01*
X12174D01*
X12148Y3445D01*
X12301Y3420D02*
X12352D01*
X12326D01*
Y3572D01*
X12301Y3547D01*
X12123Y324D02*
Y476D01*
X12199D01*
X12225Y451D01*
Y400D01*
X12199Y375D01*
X12123D01*
X12174D02*
X12225Y324D01*
X12377D02*
X12275D01*
X12377Y425D01*
Y451D01*
X12352Y476D01*
X12301D01*
X12275Y451D01*
X12198Y4074D02*
Y4226D01*
X12275D01*
X12300Y4201D01*
Y4150D01*
X12275Y4125D01*
X12198D01*
X12249D02*
X12300Y4074D01*
X12351D02*
X12402D01*
X12376D01*
Y4226D01*
X12351Y4201D01*
X900Y3476D02*
X849D01*
X875D01*
Y3349D01*
X849Y3324D01*
X824D01*
X798Y3349D01*
X951Y3324D02*
X1002D01*
X976D01*
Y3476D01*
X951Y3451D01*
M02*
