G04*
G04 #@! TF.GenerationSoftware,Altium Limited,Altium Designer,22.8.2 (66)*
G04*
G04 Layer_Physical_Order=1*
G04 Layer_Color=255*
%FSLAX42Y42*%
%MOMM*%
G71*
G04*
G04 #@! TF.SameCoordinates,889D92F3-8E91-4399-9715-C869CBAF0A79*
G04*
G04*
G04 #@! TF.FilePolarity,Positive*
G04*
G01*
G75*
%ADD15R,1.13X1.77*%
G04:AMPARAMS|DCode=16|XSize=1.97mm|YSize=0.6mm|CornerRadius=0.08mm|HoleSize=0mm|Usage=FLASHONLY|Rotation=0.000|XOffset=0mm|YOffset=0mm|HoleType=Round|Shape=RoundedRectangle|*
%AMROUNDEDRECTD16*
21,1,1.97,0.45,0,0,0.0*
21,1,1.82,0.60,0,0,0.0*
1,1,0.15,0.91,-0.23*
1,1,0.15,-0.91,-0.23*
1,1,0.15,-0.91,0.23*
1,1,0.15,0.91,0.23*
%
%ADD16ROUNDEDRECTD16*%
%ADD34C,0.35*%
%ADD35C,4.00*%
%ADD36C,1.53*%
%ADD37R,1.53X1.53*%
%ADD38C,1.68*%
%ADD39C,1.51*%
%ADD40R,1.51X1.51*%
%ADD41O,7.40X3.70*%
%ADD42C,1.20*%
%ADD43R,1.20X1.20*%
%ADD44C,3.50*%
%ADD45C,1.58*%
%ADD46R,1.58X1.58*%
%ADD47C,4.12*%
%ADD48R,4.00X4.00*%
%ADD49C,1.27*%
D15*
X12153Y3900D02*
D03*
X12447D02*
D03*
X12206Y700D02*
D03*
X12500D02*
D03*
D16*
X12103Y1691D02*
D03*
Y1564D02*
D03*
Y1436D02*
D03*
Y1310D02*
D03*
X12597D02*
D03*
Y1436D02*
D03*
Y1564D02*
D03*
Y1691D02*
D03*
D34*
X5510Y2290D02*
X5550Y2250D01*
X8600D01*
X5510Y2290D02*
Y2612D01*
X5750Y2400D02*
X5790Y2360D01*
X8575D01*
X5750Y2400D02*
Y2598D01*
X8600Y2250D02*
X8650Y2200D01*
X4360Y1190D02*
Y2563D01*
Y1190D02*
X4500Y1050D01*
X4360Y2661D02*
Y3310D01*
X4450Y3400D01*
X4360Y2563D02*
Y2661D01*
X6526Y273D02*
X6600Y200D01*
X11500D01*
X6526Y273D02*
Y1088D01*
X11500Y200D02*
X11550Y250D01*
Y1250D01*
X11610Y1310D01*
X12103D01*
X1850Y1500D02*
X3400D01*
X3478Y1578D02*
Y2612D01*
X3400Y1500D02*
X3478Y1578D01*
X1775Y1425D02*
X1850Y1500D01*
X8575Y2360D02*
X10440D01*
X10550Y2250D01*
X5750Y2598D02*
X5765Y2612D01*
X8650Y590D02*
Y2200D01*
X10550Y590D02*
Y2250D01*
X11710Y1691D02*
X12103D01*
X11650Y1750D02*
Y3300D01*
Y1750D02*
X11710Y1691D01*
X11550Y1500D02*
X11614Y1436D01*
X12103D01*
X11550Y1500D02*
Y2950D01*
X11490Y3010D02*
X11550Y2950D01*
X10550Y3010D02*
X11490D01*
X12400Y2950D02*
X12454Y3004D01*
X12250Y2950D02*
X12400D01*
X12454Y3004D02*
Y3906D01*
X12158Y6400D02*
X12750D01*
X12250Y2700D02*
X12760D01*
X11950Y700D02*
X12250D01*
X11950Y700D02*
X11950Y700D01*
X1304Y6404D02*
X12158D01*
X800Y6227D02*
X900Y6127D01*
X11927D01*
X12850Y2790D02*
Y6300D01*
Y6300D01*
X12750Y6400D02*
X12850Y6300D01*
X12290Y740D02*
Y1460D01*
X12250Y700D02*
X12290Y740D01*
X4450Y3400D02*
X11550D01*
X11650Y3300D01*
X11850Y2000D02*
Y4000D01*
X11900Y1950D02*
X12300D01*
X11850Y2000D02*
X11900Y1950D01*
X12158Y6400D02*
Y6404D01*
X12500Y2100D02*
X12750D01*
X12410Y2010D02*
X12500Y2100D01*
X12410Y1590D02*
Y2010D01*
X12850Y2200D02*
Y2790D01*
X12750Y2100D02*
X12850Y2200D01*
X12760Y2700D02*
X12850Y2790D01*
X12103Y1564D02*
X12186D01*
X12290Y1460D01*
X12350Y1500D02*
X12414Y1436D01*
X12350Y1500D02*
Y1900D01*
X12414Y1436D02*
X12597D01*
X12436Y1564D02*
X12597D01*
X12410Y1590D02*
X12436Y1564D01*
X8650Y3010D02*
X10550D01*
X12300Y1950D02*
X12350Y1900D01*
X12500Y700D02*
X12750D01*
X12800Y750D01*
Y1650D01*
X12760Y1691D02*
X12800Y1650D01*
X12597Y1691D02*
X12760D01*
X11950Y3900D02*
X12150D01*
X11850Y4000D02*
Y6050D01*
Y4000D02*
X11950Y3900D01*
X11927Y6127D02*
X12158D01*
X11850Y6050D02*
X11927Y6127D01*
X1150Y2800D02*
Y4350D01*
X1089Y2739D02*
X2161D01*
X1089D02*
X1150Y2800D01*
X905Y2739D02*
X1089D01*
X2200Y2500D02*
Y2700D01*
X2161Y2739D02*
X2200Y2700D01*
X650Y4390D02*
X1110D01*
X1150Y4350D01*
X890Y2500D02*
X905Y2485D01*
X650Y2550D02*
X700Y2500D01*
X890D01*
X650Y2550D02*
Y3890D01*
X1775Y1150D02*
Y1425D01*
X905Y1469D02*
X1731D01*
X1775Y1425D01*
X905Y2485D02*
X920Y2500D01*
X1700D01*
D35*
X11150Y3950D02*
D03*
Y9450D02*
D03*
X1850D02*
D03*
Y3950D02*
D03*
X650Y4390D02*
D03*
D36*
X7035Y1088D02*
D03*
X6781D02*
D03*
X6526D02*
D03*
X6272D02*
D03*
X6019D02*
D03*
X5765D02*
D03*
X5510D02*
D03*
X5256D02*
D03*
X5003D02*
D03*
X4749D02*
D03*
X4494D02*
D03*
X4240D02*
D03*
X3987D02*
D03*
X3733D02*
D03*
X7035Y2612D02*
D03*
X6781D02*
D03*
X6526D02*
D03*
X6272D02*
D03*
X6019D02*
D03*
X5765D02*
D03*
X5510D02*
D03*
X5256D02*
D03*
X5003D02*
D03*
X4749D02*
D03*
X4494D02*
D03*
X4240D02*
D03*
X3987D02*
D03*
X3733D02*
D03*
D37*
X3478Y1088D02*
D03*
Y2612D02*
D03*
D38*
X12250Y2696D02*
D03*
Y2442D02*
D03*
Y2950D02*
D03*
D39*
X905Y961D02*
D03*
Y1215D02*
D03*
Y1469D02*
D03*
Y1723D02*
D03*
Y2231D02*
D03*
Y2485D02*
D03*
X12150Y9081D02*
D03*
Y8827D02*
D03*
Y8573D02*
D03*
D40*
X905Y2739D02*
D03*
X12150Y8319D02*
D03*
D41*
X8650Y3010D02*
D03*
Y590D02*
D03*
X10550Y3010D02*
D03*
Y590D02*
D03*
D42*
X2200Y2500D02*
D03*
X2125Y1150D02*
D03*
D43*
X1700Y2500D02*
D03*
X1775Y1150D02*
D03*
D44*
X250Y9750D02*
D03*
X12750D02*
D03*
Y250D02*
D03*
X250D02*
D03*
D45*
X800Y7058D02*
D03*
X516Y6919D02*
D03*
X800Y6781D02*
D03*
X516Y6643D02*
D03*
X800Y6504D02*
D03*
X516Y6365D02*
D03*
X800Y6227D02*
D03*
X516Y6088D02*
D03*
X12158Y5296D02*
D03*
X12442Y5435D02*
D03*
X12158Y5573D02*
D03*
X12442Y5712D02*
D03*
X12158Y5850D02*
D03*
X12442Y5988D02*
D03*
X12158Y6127D02*
D03*
X12442Y6265D02*
D03*
D46*
X800Y5950D02*
D03*
X12158Y6404D02*
D03*
D47*
X658Y7754D02*
D03*
Y5254D02*
D03*
X12300Y4601D02*
D03*
Y7100D02*
D03*
D48*
X650Y3890D02*
D03*
D49*
X11950Y700D02*
D03*
X1300Y6400D02*
D03*
M02*
