M48
;Layer_Color=9474304
;FILE_FORMAT=4:2
METRIC,LZ
;TYPE=PLATED
T1F00S00C0.71
T2F00S00C0.85
T3F00S00C0.90
T4F00S00C1.00
T5F00S00C1.02
T6F00S00C1.05
T8F00S00C2.00
T9F00S00C3.00
T10F00S00C3.10
%
T01
X01195Y0007
X0013Y0064
T02
X001775Y00115
X002125
X0022Y0025
X0017
T03
X01225Y002442
Y002696
Y00295
T04
X000905Y000961
Y001215
Y001469
Y001723
Y002231
Y002485
Y002739
X01215Y008319
Y008573
Y008827
Y009081
T05
X003478Y001088
X003733
Y002612
X003478
X003987
X00424
X004494
X004749
X005003
X005256
X00551
X005765
X006019
X006272
X006526
X006781
X007035
Y001088
X006781
X006526
X006272
X006019
X005765
X00551
X005256
X005003
X004749
X004494
X00424
X003987
T06
X012158Y005296
Y005573
Y00585
Y006127
Y006404
X012442Y006265
Y005988
Y005712
Y005435
X0008Y00595
Y006227
Y006504
Y006781
Y007058
X000516Y006919
Y006643
Y006365
Y006088
T08
X00025Y00025
X01275
X00025Y00975
X01275
T09
X00065Y00389
X00185Y00395
X01115
X00065Y00439
X00185Y00945
X01115
T10
X0123Y004601
Y0071
X000658Y007754
Y005254
M30
