G04*
G04 #@! TF.GenerationSoftware,Altium Limited,Altium Designer,22.8.2 (66)*
G04*
G04 Layer_Physical_Order=2*
G04 Layer_Color=16711680*
%FSLAX42Y42*%
%MOMM*%
G71*
G04*
G04 #@! TF.SameCoordinates,889D92F3-8E91-4399-9715-C869CBAF0A79*
G04*
G04*
G04 #@! TF.FilePolarity,Positive*
G04*
G01*
G75*
%ADD34C,0.35*%
%ADD35C,4.00*%
%ADD36C,1.53*%
%ADD37R,1.53X1.53*%
%ADD38C,1.68*%
%ADD39C,1.51*%
%ADD40R,1.51X1.51*%
%ADD41O,7.40X3.70*%
%ADD42C,1.20*%
%ADD43R,1.20X1.20*%
%ADD44C,3.50*%
%ADD45C,1.58*%
%ADD46R,1.58X1.58*%
%ADD47C,4.12*%
%ADD48R,4.00X4.00*%
%ADD49C,1.27*%
G36*
X13000D02*
X0D01*
Y10000D01*
X13000D01*
Y0D01*
D02*
G37*
%LPC*%
G36*
X12770Y9950D02*
X12730D01*
X12692Y9943D01*
X12655Y9928D01*
X12622Y9906D01*
X12594Y9878D01*
X12572Y9845D01*
X12557Y9808D01*
X12550Y9770D01*
Y9730D01*
X12557Y9692D01*
X12572Y9655D01*
X12594Y9622D01*
X12622Y9594D01*
X12655Y9572D01*
X12692Y9557D01*
X12730Y9550D01*
X12770D01*
X12808Y9557D01*
X12845Y9572D01*
X12878Y9594D01*
X12906Y9622D01*
X12928Y9655D01*
X12943Y9692D01*
X12950Y9730D01*
Y9770D01*
X12943Y9808D01*
X12928Y9845D01*
X12906Y9878D01*
X12878Y9906D01*
X12845Y9928D01*
X12808Y9943D01*
X12770Y9950D01*
D02*
G37*
G36*
X270D02*
X230D01*
X192Y9943D01*
X155Y9928D01*
X122Y9906D01*
X94Y9878D01*
X72Y9845D01*
X57Y9808D01*
X50Y9770D01*
Y9730D01*
X57Y9692D01*
X72Y9655D01*
X94Y9622D01*
X122Y9594D01*
X155Y9572D01*
X192Y9557D01*
X230Y9550D01*
X270D01*
X308Y9557D01*
X345Y9572D01*
X378Y9594D01*
X406Y9622D01*
X428Y9655D01*
X443Y9692D01*
X450Y9730D01*
Y9770D01*
X443Y9808D01*
X428Y9845D01*
X406Y9878D01*
X378Y9906D01*
X345Y9928D01*
X308Y9943D01*
X270Y9950D01*
D02*
G37*
G36*
X11172Y9675D02*
X11128D01*
X11084Y9667D01*
X11043Y9650D01*
X11006Y9625D01*
X10975Y9594D01*
X10950Y9557D01*
X10933Y9516D01*
X10925Y9472D01*
Y9428D01*
X10933Y9384D01*
X10950Y9343D01*
X10975Y9306D01*
X11006Y9275D01*
X11043Y9250D01*
X11084Y9233D01*
X11128Y9225D01*
X11172D01*
X11216Y9233D01*
X11257Y9250D01*
X11294Y9275D01*
X11325Y9306D01*
X11350Y9343D01*
X11367Y9384D01*
X11375Y9428D01*
Y9472D01*
X11367Y9516D01*
X11350Y9557D01*
X11325Y9594D01*
X11294Y9625D01*
X11257Y9650D01*
X11216Y9667D01*
X11172Y9675D01*
D02*
G37*
G36*
X1872D02*
X1828D01*
X1784Y9667D01*
X1743Y9650D01*
X1706Y9625D01*
X1675Y9594D01*
X1650Y9557D01*
X1633Y9516D01*
X1625Y9472D01*
Y9428D01*
X1633Y9384D01*
X1650Y9343D01*
X1675Y9306D01*
X1706Y9275D01*
X1743Y9250D01*
X1784Y9233D01*
X1828Y9225D01*
X1872D01*
X1916Y9233D01*
X1957Y9250D01*
X1994Y9275D01*
X2025Y9306D01*
X2050Y9343D01*
X2067Y9384D01*
X2075Y9428D01*
Y9472D01*
X2067Y9516D01*
X2050Y9557D01*
X2025Y9594D01*
X1994Y9625D01*
X1957Y9650D01*
X1916Y9667D01*
X1872Y9675D01*
D02*
G37*
G36*
X12163Y9182D02*
X12137D01*
X12111Y9175D01*
X12088Y9162D01*
X12069Y9143D01*
X12059Y9125D01*
X11631D01*
X11614Y9121D01*
X11600Y9112D01*
X11519Y9031D01*
X11510Y9017D01*
X11506Y9000D01*
Y3668D01*
X11432Y3594D01*
X3150D01*
X3133Y3590D01*
X3119Y3581D01*
X3069Y3531D01*
X3060Y3517D01*
X3056Y3500D01*
Y1150D01*
X3060Y1133D01*
X3069Y1119D01*
X3131Y1057D01*
X3145Y1048D01*
X3162Y1044D01*
X3377D01*
Y986D01*
X3580D01*
Y1190D01*
X3377D01*
Y1132D01*
X3180D01*
X3144Y1168D01*
Y1350D01*
X3156Y1350D01*
X3160Y1333D01*
X3169Y1319D01*
X3219Y1269D01*
X3233Y1260D01*
X3250Y1256D01*
X3682D01*
X3689Y1249D01*
Y1180D01*
X3670Y1170D01*
X3651Y1151D01*
X3638Y1127D01*
X3631Y1101D01*
Y1075D01*
X3638Y1049D01*
X3651Y1025D01*
X3670Y1006D01*
X3693Y993D01*
X3719Y986D01*
X3746D01*
X3772Y993D01*
X3795Y1006D01*
X3814Y1025D01*
X3827Y1049D01*
X3834Y1075D01*
Y1101D01*
X3827Y1127D01*
X3814Y1151D01*
X3795Y1170D01*
X3776Y1180D01*
Y1268D01*
X3773Y1284D01*
X3763Y1298D01*
X3731Y1331D01*
X3717Y1340D01*
X3700Y1344D01*
X3268D01*
X3244Y1368D01*
Y3382D01*
X3268Y3406D01*
X11550D01*
X11567Y3410D01*
X11581Y3419D01*
X11681Y3519D01*
X11690Y3533D01*
X11694Y3550D01*
X11706Y3550D01*
Y418D01*
X11632Y344D01*
X1868Y344D01*
X1819Y393D01*
Y1065D01*
X1860D01*
Y1235D01*
X1690D01*
Y1065D01*
X1731D01*
Y375D01*
X1731Y375D01*
X1735Y358D01*
X1744Y344D01*
X1819Y269D01*
X1833Y260D01*
X1850Y256D01*
X11650Y256D01*
X11667Y260D01*
X11681Y269D01*
X11781Y369D01*
X11790Y383D01*
X11794Y400D01*
Y8482D01*
X11841Y8529D01*
X12059D01*
X12069Y8511D01*
X12088Y8492D01*
X12111Y8479D01*
X12137Y8472D01*
X12163D01*
X12189Y8479D01*
X12212Y8492D01*
X12231Y8511D01*
X12244Y8534D01*
X12251Y8560D01*
Y8586D01*
X12244Y8612D01*
X12231Y8635D01*
X12212Y8654D01*
X12189Y8667D01*
X12163Y8674D01*
X12137D01*
X12111Y8667D01*
X12088Y8654D01*
X12069Y8635D01*
X12059Y8617D01*
X11823D01*
X11806Y8613D01*
X11792Y8604D01*
X11719Y8531D01*
X11710Y8517D01*
X11706Y8500D01*
X11694Y8500D01*
Y8732D01*
X11745Y8783D01*
X12059D01*
X12069Y8765D01*
X12088Y8746D01*
X12111Y8733D01*
X12137Y8726D01*
X12163D01*
X12189Y8733D01*
X12212Y8746D01*
X12231Y8765D01*
X12244Y8788D01*
X12251Y8814D01*
Y8840D01*
X12244Y8866D01*
X12231Y8889D01*
X12212Y8908D01*
X12189Y8921D01*
X12163Y8928D01*
X12137D01*
X12111Y8921D01*
X12088Y8908D01*
X12069Y8889D01*
X12059Y8871D01*
X11727D01*
X11710Y8867D01*
X11696Y8858D01*
X11619Y8781D01*
X11610Y8767D01*
X11606Y8750D01*
X11594Y8750D01*
Y8982D01*
X11649Y9037D01*
X12059D01*
X12069Y9019D01*
X12088Y9000D01*
X12111Y8987D01*
X12137Y8980D01*
X12163D01*
X12189Y8987D01*
X12212Y9000D01*
X12231Y9019D01*
X12244Y9042D01*
X12251Y9068D01*
Y9094D01*
X12244Y9120D01*
X12231Y9143D01*
X12212Y9162D01*
X12189Y9175D01*
X12163Y9182D01*
D02*
G37*
G36*
X12251Y8420D02*
X12163D01*
Y8332D01*
X12251D01*
Y8420D01*
D02*
G37*
G36*
X12137D02*
X12049D01*
Y8332D01*
X12137D01*
Y8420D01*
D02*
G37*
G36*
X12251Y8306D02*
X12163D01*
Y8218D01*
X12251D01*
Y8306D01*
D02*
G37*
G36*
X12137D02*
X12049D01*
Y8218D01*
X12137D01*
Y8306D01*
D02*
G37*
G36*
X681Y7985D02*
X635D01*
X591Y7976D01*
X548Y7958D01*
X511Y7933D01*
X478Y7901D01*
X453Y7863D01*
X436Y7821D01*
X427Y7776D01*
Y7731D01*
X436Y7686D01*
X453Y7644D01*
X478Y7606D01*
X511Y7574D01*
X548Y7549D01*
X591Y7531D01*
X635Y7522D01*
X681D01*
X725Y7531D01*
X768Y7549D01*
X805Y7574D01*
X838Y7606D01*
X863Y7644D01*
X880Y7686D01*
X889Y7731D01*
Y7776D01*
X880Y7821D01*
X863Y7863D01*
X838Y7901D01*
X805Y7933D01*
X768Y7958D01*
X725Y7976D01*
X681Y7985D01*
D02*
G37*
G36*
X814Y7162D02*
X786D01*
X760Y7155D01*
X736Y7141D01*
X717Y7122D01*
X703Y7098D01*
X696Y7072D01*
Y7044D01*
X703Y7018D01*
X717Y6994D01*
X736Y6975D01*
X760Y6961D01*
X786Y6954D01*
X814D01*
X840Y6961D01*
X864Y6975D01*
X883Y6994D01*
X897Y7018D01*
X904Y7044D01*
Y7072D01*
X897Y7098D01*
X883Y7122D01*
X864Y7141D01*
X840Y7155D01*
X814Y7162D01*
D02*
G37*
G36*
X12323Y7331D02*
X12277D01*
X12233Y7322D01*
X12190Y7304D01*
X12153Y7279D01*
X12120Y7247D01*
X12095Y7209D01*
X12078Y7167D01*
X12069Y7122D01*
Y7077D01*
X12078Y7032D01*
X12095Y6990D01*
X12120Y6952D01*
X12153Y6920D01*
X12190Y6895D01*
X12233Y6877D01*
X12277Y6868D01*
X12323D01*
X12367Y6877D01*
X12410Y6895D01*
X12447Y6920D01*
X12480Y6952D01*
X12505Y6990D01*
X12522Y7032D01*
X12531Y7077D01*
Y7122D01*
X12522Y7167D01*
X12505Y7209D01*
X12480Y7247D01*
X12447Y7279D01*
X12410Y7304D01*
X12367Y7322D01*
X12323Y7331D01*
D02*
G37*
G36*
X530Y7024D02*
X502D01*
X476Y7017D01*
X452Y7003D01*
X433Y6983D01*
X419Y6960D01*
X412Y6933D01*
Y6906D01*
X419Y6879D01*
X433Y6856D01*
X452Y6836D01*
X476Y6822D01*
X502Y6815D01*
X530D01*
X556Y6822D01*
X580Y6836D01*
X599Y6856D01*
X613Y6879D01*
X620Y6906D01*
Y6933D01*
X613Y6960D01*
X599Y6983D01*
X580Y7003D01*
X556Y7017D01*
X530Y7024D01*
D02*
G37*
G36*
X814Y6885D02*
X786D01*
X760Y6878D01*
X736Y6864D01*
X717Y6845D01*
X703Y6821D01*
X696Y6795D01*
Y6767D01*
X703Y6741D01*
X717Y6717D01*
X736Y6698D01*
X760Y6684D01*
X786Y6677D01*
X814D01*
X840Y6684D01*
X864Y6698D01*
X883Y6717D01*
X897Y6741D01*
X904Y6767D01*
Y6795D01*
X897Y6821D01*
X883Y6845D01*
X864Y6864D01*
X840Y6878D01*
X814Y6885D01*
D02*
G37*
G36*
X530Y6747D02*
X502D01*
X476Y6740D01*
X452Y6726D01*
X433Y6706D01*
X419Y6683D01*
X412Y6656D01*
Y6629D01*
X419Y6602D01*
X433Y6579D01*
X452Y6559D01*
X476Y6545D01*
X502Y6538D01*
X530D01*
X556Y6545D01*
X580Y6559D01*
X599Y6579D01*
X613Y6602D01*
X620Y6629D01*
Y6656D01*
X613Y6683D01*
X599Y6706D01*
X580Y6726D01*
X556Y6740D01*
X530Y6747D01*
D02*
G37*
G36*
X814Y6608D02*
X786D01*
X760Y6601D01*
X736Y6587D01*
X717Y6568D01*
X703Y6544D01*
X696Y6518D01*
Y6490D01*
X703Y6464D01*
X717Y6440D01*
X736Y6421D01*
X760Y6407D01*
X786Y6400D01*
X814D01*
X840Y6407D01*
X864Y6421D01*
X883Y6440D01*
X897Y6464D01*
X904Y6490D01*
Y6518D01*
X897Y6544D01*
X883Y6568D01*
X864Y6587D01*
X840Y6601D01*
X814Y6608D01*
D02*
G37*
G36*
X12262Y6508D02*
X12054D01*
Y6300D01*
X12262D01*
Y6508D01*
D02*
G37*
G36*
X530Y6470D02*
X502D01*
X476Y6463D01*
X452Y6449D01*
X433Y6429D01*
X419Y6406D01*
X412Y6379D01*
Y6352D01*
X419Y6325D01*
X433Y6302D01*
X452Y6282D01*
X476Y6268D01*
X502Y6261D01*
X530D01*
X556Y6268D01*
X580Y6282D01*
X599Y6302D01*
X613Y6325D01*
X620Y6352D01*
Y6379D01*
X613Y6406D01*
X599Y6429D01*
X580Y6449D01*
X556Y6463D01*
X530Y6470D01*
D02*
G37*
G36*
X12456Y6370D02*
X12428D01*
X12402Y6363D01*
X12378Y6349D01*
X12359Y6329D01*
X12345Y6306D01*
X12338Y6279D01*
Y6252D01*
X12345Y6225D01*
X12359Y6202D01*
X12378Y6182D01*
X12402Y6168D01*
X12428Y6161D01*
X12456D01*
X12482Y6168D01*
X12506Y6182D01*
X12525Y6202D01*
X12539Y6225D01*
X12546Y6252D01*
Y6279D01*
X12539Y6306D01*
X12525Y6329D01*
X12506Y6349D01*
X12482Y6363D01*
X12456Y6370D01*
D02*
G37*
G36*
X814Y6331D02*
X786D01*
X760Y6324D01*
X736Y6310D01*
X717Y6291D01*
X703Y6267D01*
X696Y6241D01*
Y6213D01*
X703Y6187D01*
X717Y6163D01*
X736Y6144D01*
X760Y6130D01*
X786Y6123D01*
X814D01*
X840Y6130D01*
X864Y6144D01*
X883Y6163D01*
X897Y6187D01*
X904Y6213D01*
Y6241D01*
X897Y6267D01*
X883Y6291D01*
X864Y6310D01*
X840Y6324D01*
X814Y6331D01*
D02*
G37*
G36*
X12172Y6231D02*
X12144D01*
X12118Y6224D01*
X12094Y6210D01*
X12075Y6191D01*
X12061Y6167D01*
X12054Y6141D01*
Y6113D01*
X12061Y6087D01*
X12075Y6063D01*
X12094Y6044D01*
X12118Y6030D01*
X12144Y6023D01*
X12172D01*
X12198Y6030D01*
X12222Y6044D01*
X12241Y6063D01*
X12255Y6087D01*
X12262Y6113D01*
Y6141D01*
X12255Y6167D01*
X12241Y6191D01*
X12222Y6210D01*
X12198Y6224D01*
X12172Y6231D01*
D02*
G37*
G36*
X1312Y6489D02*
X1288D01*
X1266Y6483D01*
X1245Y6471D01*
X1229Y6455D01*
X1217Y6434D01*
X1211Y6412D01*
Y6388D01*
X1217Y6366D01*
X1229Y6345D01*
X1245Y6329D01*
X1256Y6323D01*
Y6018D01*
X1232Y5994D01*
X904D01*
Y6054D01*
X696D01*
Y5846D01*
X904D01*
Y5906D01*
X1250D01*
X1267Y5910D01*
X1281Y5919D01*
X1331Y5969D01*
X1340Y5983D01*
X1344Y6000D01*
Y6323D01*
X1355Y6329D01*
X1371Y6345D01*
X1383Y6366D01*
X1389Y6388D01*
Y6412D01*
X1383Y6434D01*
X1371Y6455D01*
X1355Y6471D01*
X1334Y6483D01*
X1312Y6489D01*
D02*
G37*
G36*
X530Y6193D02*
X502D01*
X476Y6186D01*
X452Y6172D01*
X433Y6152D01*
X419Y6129D01*
X412Y6102D01*
Y6075D01*
X419Y6048D01*
X433Y6025D01*
X452Y6005D01*
X476Y5991D01*
X502Y5984D01*
X530D01*
X556Y5991D01*
X580Y6005D01*
X599Y6025D01*
X613Y6048D01*
X620Y6075D01*
Y6102D01*
X613Y6129D01*
X599Y6152D01*
X580Y6172D01*
X556Y6186D01*
X530Y6193D01*
D02*
G37*
G36*
X12456Y6093D02*
X12428D01*
X12402Y6086D01*
X12378Y6072D01*
X12359Y6052D01*
X12345Y6029D01*
X12338Y6002D01*
Y5975D01*
X12345Y5948D01*
X12359Y5925D01*
X12378Y5905D01*
X12402Y5891D01*
X12428Y5884D01*
X12456D01*
X12482Y5891D01*
X12506Y5905D01*
X12525Y5925D01*
X12539Y5948D01*
X12546Y5975D01*
Y6002D01*
X12539Y6029D01*
X12525Y6052D01*
X12506Y6072D01*
X12482Y6086D01*
X12456Y6093D01*
D02*
G37*
G36*
X12172Y5954D02*
X12144D01*
X12118Y5947D01*
X12094Y5933D01*
X12075Y5914D01*
X12061Y5890D01*
X12054Y5864D01*
Y5836D01*
X12061Y5810D01*
X12075Y5786D01*
X12094Y5767D01*
X12118Y5753D01*
X12144Y5746D01*
X12172D01*
X12198Y5753D01*
X12222Y5767D01*
X12241Y5786D01*
X12255Y5810D01*
X12262Y5836D01*
Y5864D01*
X12255Y5890D01*
X12241Y5914D01*
X12222Y5933D01*
X12198Y5947D01*
X12172Y5954D01*
D02*
G37*
G36*
X12456Y5816D02*
X12428D01*
X12402Y5809D01*
X12378Y5795D01*
X12359Y5775D01*
X12345Y5752D01*
X12338Y5725D01*
Y5698D01*
X12345Y5671D01*
X12359Y5648D01*
X12378Y5628D01*
X12402Y5614D01*
X12428Y5607D01*
X12456D01*
X12482Y5614D01*
X12506Y5628D01*
X12525Y5648D01*
X12539Y5671D01*
X12546Y5698D01*
Y5725D01*
X12539Y5752D01*
X12525Y5775D01*
X12506Y5795D01*
X12482Y5809D01*
X12456Y5816D01*
D02*
G37*
G36*
X12172Y5677D02*
X12144D01*
X12118Y5670D01*
X12094Y5656D01*
X12075Y5637D01*
X12061Y5613D01*
X12054Y5587D01*
Y5559D01*
X12061Y5533D01*
X12075Y5509D01*
X12094Y5490D01*
X12118Y5476D01*
X12144Y5469D01*
X12172D01*
X12198Y5476D01*
X12222Y5490D01*
X12241Y5509D01*
X12255Y5533D01*
X12262Y5559D01*
Y5587D01*
X12255Y5613D01*
X12241Y5637D01*
X12222Y5656D01*
X12198Y5670D01*
X12172Y5677D01*
D02*
G37*
G36*
X12456Y5539D02*
X12428D01*
X12402Y5532D01*
X12378Y5518D01*
X12359Y5498D01*
X12345Y5475D01*
X12338Y5448D01*
Y5421D01*
X12345Y5394D01*
X12359Y5371D01*
X12378Y5351D01*
X12402Y5337D01*
X12428Y5330D01*
X12456D01*
X12482Y5337D01*
X12506Y5351D01*
X12525Y5371D01*
X12539Y5394D01*
X12546Y5421D01*
Y5448D01*
X12539Y5475D01*
X12525Y5498D01*
X12506Y5518D01*
X12482Y5532D01*
X12456Y5539D01*
D02*
G37*
G36*
X12172Y5400D02*
X12144D01*
X12118Y5393D01*
X12094Y5379D01*
X12075Y5360D01*
X12061Y5336D01*
X12054Y5310D01*
Y5282D01*
X12061Y5256D01*
X12075Y5232D01*
X12094Y5213D01*
X12118Y5199D01*
X12144Y5192D01*
X12172D01*
X12198Y5199D01*
X12222Y5213D01*
X12241Y5232D01*
X12255Y5256D01*
X12262Y5282D01*
Y5310D01*
X12255Y5336D01*
X12241Y5360D01*
X12222Y5379D01*
X12198Y5393D01*
X12172Y5400D01*
D02*
G37*
G36*
X681Y5486D02*
X635D01*
X591Y5477D01*
X548Y5459D01*
X511Y5434D01*
X478Y5402D01*
X453Y5364D01*
X436Y5322D01*
X427Y5277D01*
Y5232D01*
X436Y5187D01*
X453Y5145D01*
X478Y5107D01*
X511Y5075D01*
X548Y5050D01*
X591Y5032D01*
X635Y5023D01*
X681D01*
X725Y5032D01*
X768Y5050D01*
X805Y5075D01*
X838Y5107D01*
X863Y5145D01*
X880Y5187D01*
X889Y5232D01*
Y5277D01*
X880Y5322D01*
X863Y5364D01*
X838Y5402D01*
X805Y5434D01*
X768Y5459D01*
X725Y5477D01*
X681Y5486D01*
D02*
G37*
G36*
X12323Y4832D02*
X12277D01*
X12233Y4823D01*
X12190Y4805D01*
X12153Y4780D01*
X12120Y4748D01*
X12095Y4710D01*
X12078Y4668D01*
X12069Y4623D01*
Y4578D01*
X12078Y4533D01*
X12095Y4491D01*
X12120Y4453D01*
X12153Y4421D01*
X12190Y4396D01*
X12233Y4378D01*
X12277Y4369D01*
X12323D01*
X12367Y4378D01*
X12410Y4396D01*
X12447Y4421D01*
X12480Y4453D01*
X12505Y4491D01*
X12522Y4533D01*
X12531Y4578D01*
Y4623D01*
X12522Y4668D01*
X12505Y4710D01*
X12480Y4748D01*
X12447Y4780D01*
X12410Y4805D01*
X12367Y4823D01*
X12323Y4832D01*
D02*
G37*
G36*
X672Y4615D02*
X628D01*
X584Y4607D01*
X543Y4590D01*
X506Y4565D01*
X475Y4534D01*
X450Y4497D01*
X433Y4456D01*
X425Y4412D01*
Y4368D01*
X433Y4324D01*
X450Y4283D01*
X475Y4246D01*
X506Y4215D01*
X543Y4190D01*
X584Y4173D01*
X628Y4165D01*
X672D01*
X716Y4173D01*
X757Y4190D01*
X794Y4215D01*
X825Y4246D01*
X850Y4283D01*
X867Y4324D01*
X875Y4368D01*
Y4412D01*
X867Y4456D01*
X850Y4497D01*
X825Y4534D01*
X794Y4565D01*
X757Y4590D01*
X716Y4607D01*
X672Y4615D01*
D02*
G37*
G36*
X11172Y4175D02*
X11128D01*
X11084Y4167D01*
X11043Y4150D01*
X11006Y4125D01*
X10975Y4094D01*
X10950Y4057D01*
X10933Y4016D01*
X10925Y3972D01*
Y3928D01*
X10933Y3884D01*
X10950Y3843D01*
X10975Y3806D01*
X11006Y3775D01*
X11043Y3750D01*
X11084Y3733D01*
X11128Y3725D01*
X11172D01*
X11216Y3733D01*
X11257Y3750D01*
X11294Y3775D01*
X11325Y3806D01*
X11350Y3843D01*
X11367Y3884D01*
X11375Y3928D01*
Y3972D01*
X11367Y4016D01*
X11350Y4057D01*
X11325Y4094D01*
X11294Y4125D01*
X11257Y4150D01*
X11216Y4167D01*
X11172Y4175D01*
D02*
G37*
G36*
X1872D02*
X1828D01*
X1784Y4167D01*
X1743Y4150D01*
X1706Y4125D01*
X1675Y4094D01*
X1650Y4057D01*
X1633Y4016D01*
X1625Y3972D01*
Y3928D01*
X1633Y3884D01*
X1650Y3843D01*
X1675Y3806D01*
X1706Y3775D01*
X1743Y3750D01*
X1784Y3733D01*
X1828Y3725D01*
X1872D01*
X1916Y3733D01*
X1957Y3750D01*
X1994Y3775D01*
X2025Y3806D01*
X2050Y3843D01*
X2067Y3884D01*
X2075Y3928D01*
Y3972D01*
X2067Y4016D01*
X2050Y4057D01*
X2025Y4094D01*
X1994Y4125D01*
X1957Y4150D01*
X1916Y4167D01*
X1872Y4175D01*
D02*
G37*
G36*
X875Y4115D02*
X425D01*
Y3665D01*
X875D01*
Y4115D01*
D02*
G37*
G36*
X12264Y3059D02*
X12236D01*
X12208Y3052D01*
X12183Y3037D01*
X12163Y3017D01*
X12148Y2992D01*
X12141Y2964D01*
Y2936D01*
X12148Y2908D01*
X12163Y2883D01*
X12183Y2863D01*
X12208Y2848D01*
X12236Y2841D01*
X12264D01*
X12292Y2848D01*
X12317Y2863D01*
X12337Y2883D01*
X12352Y2908D01*
X12359Y2936D01*
Y2964D01*
X12352Y2992D01*
X12337Y3017D01*
X12317Y3037D01*
X12292Y3052D01*
X12264Y3059D01*
D02*
G37*
G36*
X10735Y3221D02*
X10365D01*
X10324Y3217D01*
X10284Y3205D01*
X10248Y3186D01*
X10216Y3159D01*
X10189Y3127D01*
X10170Y3091D01*
X10158Y3051D01*
X10154Y3010D01*
X10158Y2969D01*
X10170Y2929D01*
X10189Y2893D01*
X10216Y2861D01*
X10248Y2834D01*
X10284Y2815D01*
X10324Y2803D01*
X10365Y2799D01*
X10735D01*
X10776Y2803D01*
X10816Y2815D01*
X10852Y2834D01*
X10884Y2861D01*
X10911Y2893D01*
X10930Y2929D01*
X10942Y2969D01*
X10946Y3010D01*
X10942Y3051D01*
X10930Y3091D01*
X10911Y3127D01*
X10884Y3159D01*
X10852Y3186D01*
X10816Y3205D01*
X10776Y3217D01*
X10735Y3221D01*
D02*
G37*
G36*
X8835D02*
X8465D01*
X8424Y3217D01*
X8384Y3205D01*
X8348Y3186D01*
X8316Y3159D01*
X8289Y3127D01*
X8270Y3091D01*
X8258Y3054D01*
X6860D01*
X6843Y3050D01*
X6829Y3041D01*
X6750Y2961D01*
X6740Y2947D01*
X6737Y2931D01*
Y2704D01*
X6718Y2694D01*
X6699Y2675D01*
X6686Y2651D01*
X6679Y2625D01*
Y2599D01*
X6686Y2573D01*
X6699Y2549D01*
X6718Y2530D01*
X6741Y2517D01*
X6767Y2510D01*
X6794D01*
X6820Y2517D01*
X6843Y2530D01*
X6862Y2549D01*
X6875Y2573D01*
X6882Y2599D01*
Y2625D01*
X6875Y2651D01*
X6862Y2675D01*
X6843Y2694D01*
X6824Y2704D01*
Y2912D01*
X6878Y2966D01*
X8258D01*
X8270Y2929D01*
X8289Y2893D01*
X8316Y2861D01*
X8348Y2834D01*
X8384Y2815D01*
X8424Y2803D01*
X8465Y2799D01*
X8835D01*
X8876Y2803D01*
X8916Y2815D01*
X8952Y2834D01*
X8984Y2861D01*
X9011Y2893D01*
X9030Y2929D01*
X9042Y2969D01*
X9046Y3010D01*
X9042Y3051D01*
X9030Y3091D01*
X9011Y3127D01*
X8984Y3159D01*
X8952Y3186D01*
X8916Y3205D01*
X8876Y3217D01*
X8835Y3221D01*
D02*
G37*
G36*
X1006Y2840D02*
X804D01*
Y2638D01*
X1006D01*
Y2840D01*
D02*
G37*
G36*
X3746Y2714D02*
X3745D01*
Y2625D01*
X3834D01*
Y2625D01*
X3827Y2651D01*
X3814Y2675D01*
X3795Y2694D01*
X3772Y2707D01*
X3746Y2714D01*
D02*
G37*
G36*
X3720D02*
X3719D01*
X3693Y2707D01*
X3670Y2694D01*
X3651Y2675D01*
X3638Y2651D01*
X3631Y2625D01*
Y2625D01*
X3720D01*
Y2714D01*
D02*
G37*
G36*
X12264Y2805D02*
X12236D01*
X12208Y2798D01*
X12183Y2783D01*
X12163Y2763D01*
X12148Y2738D01*
X12141Y2710D01*
Y2682D01*
X12148Y2654D01*
X12163Y2629D01*
X12183Y2609D01*
X12208Y2594D01*
X12236Y2587D01*
X12264D01*
X12292Y2594D01*
X12317Y2609D01*
X12337Y2629D01*
X12352Y2654D01*
X12359Y2682D01*
Y2710D01*
X12352Y2738D01*
X12337Y2763D01*
X12317Y2783D01*
X12292Y2798D01*
X12264Y2805D01*
D02*
G37*
G36*
X7048Y2714D02*
X7021D01*
X6995Y2707D01*
X6972Y2694D01*
X6953Y2675D01*
X6940Y2651D01*
X6933Y2625D01*
Y2599D01*
X6940Y2573D01*
X6953Y2549D01*
X6972Y2530D01*
X6995Y2517D01*
X7021Y2510D01*
X7048D01*
X7074Y2517D01*
X7097Y2530D01*
X7116Y2549D01*
X7129Y2573D01*
X7136Y2599D01*
Y2625D01*
X7129Y2651D01*
X7116Y2675D01*
X7097Y2694D01*
X7074Y2707D01*
X7048Y2714D01*
D02*
G37*
G36*
X6540D02*
X6513D01*
X6487Y2707D01*
X6464Y2694D01*
X6445Y2675D01*
X6432Y2651D01*
X6425Y2625D01*
Y2599D01*
X6432Y2573D01*
X6445Y2549D01*
X6464Y2530D01*
X6487Y2517D01*
X6513Y2510D01*
X6540D01*
X6566Y2517D01*
X6589Y2530D01*
X6608Y2549D01*
X6621Y2573D01*
X6628Y2599D01*
Y2625D01*
X6621Y2651D01*
X6608Y2675D01*
X6589Y2694D01*
X6566Y2707D01*
X6540Y2714D01*
D02*
G37*
G36*
X6286D02*
X6259D01*
X6233Y2707D01*
X6210Y2694D01*
X6191Y2675D01*
X6178Y2651D01*
X6171Y2625D01*
Y2599D01*
X6178Y2573D01*
X6191Y2549D01*
X6210Y2530D01*
X6233Y2517D01*
X6259Y2510D01*
X6286D01*
X6312Y2517D01*
X6335Y2530D01*
X6354Y2549D01*
X6367Y2573D01*
X6374Y2599D01*
Y2625D01*
X6367Y2651D01*
X6354Y2675D01*
X6335Y2694D01*
X6312Y2707D01*
X6286Y2714D01*
D02*
G37*
G36*
X6032D02*
X6005D01*
X5979Y2707D01*
X5956Y2694D01*
X5937Y2675D01*
X5924Y2651D01*
X5917Y2625D01*
Y2599D01*
X5924Y2573D01*
X5937Y2549D01*
X5956Y2530D01*
X5979Y2517D01*
X6005Y2510D01*
X6032D01*
X6058Y2517D01*
X6081Y2530D01*
X6100Y2549D01*
X6113Y2573D01*
X6120Y2599D01*
Y2625D01*
X6113Y2651D01*
X6100Y2675D01*
X6081Y2694D01*
X6058Y2707D01*
X6032Y2714D01*
D02*
G37*
G36*
X5778D02*
X5751D01*
X5725Y2707D01*
X5702Y2694D01*
X5683Y2675D01*
X5670Y2651D01*
X5663Y2625D01*
Y2599D01*
X5670Y2573D01*
X5683Y2549D01*
X5702Y2530D01*
X5725Y2517D01*
X5751Y2510D01*
X5778D01*
X5804Y2517D01*
X5827Y2530D01*
X5846Y2549D01*
X5859Y2573D01*
X5866Y2599D01*
Y2625D01*
X5859Y2651D01*
X5846Y2675D01*
X5827Y2694D01*
X5804Y2707D01*
X5778Y2714D01*
D02*
G37*
G36*
X5524D02*
X5497D01*
X5471Y2707D01*
X5448Y2694D01*
X5429Y2675D01*
X5416Y2651D01*
X5409Y2625D01*
Y2599D01*
X5416Y2573D01*
X5429Y2549D01*
X5448Y2530D01*
X5471Y2517D01*
X5497Y2510D01*
X5524D01*
X5550Y2517D01*
X5573Y2530D01*
X5592Y2549D01*
X5605Y2573D01*
X5612Y2599D01*
Y2625D01*
X5605Y2651D01*
X5592Y2675D01*
X5573Y2694D01*
X5550Y2707D01*
X5524Y2714D01*
D02*
G37*
G36*
X5270D02*
X5243D01*
X5217Y2707D01*
X5194Y2694D01*
X5175Y2675D01*
X5162Y2651D01*
X5155Y2625D01*
Y2599D01*
X5162Y2573D01*
X5175Y2549D01*
X5194Y2530D01*
X5217Y2517D01*
X5243Y2510D01*
X5270D01*
X5296Y2517D01*
X5319Y2530D01*
X5338Y2549D01*
X5351Y2573D01*
X5358Y2599D01*
Y2625D01*
X5351Y2651D01*
X5338Y2675D01*
X5319Y2694D01*
X5296Y2707D01*
X5270Y2714D01*
D02*
G37*
G36*
X5016D02*
X4989D01*
X4963Y2707D01*
X4940Y2694D01*
X4921Y2675D01*
X4908Y2651D01*
X4901Y2625D01*
Y2599D01*
X4908Y2573D01*
X4921Y2549D01*
X4940Y2530D01*
X4963Y2517D01*
X4989Y2510D01*
X5016D01*
X5042Y2517D01*
X5065Y2530D01*
X5084Y2549D01*
X5097Y2573D01*
X5104Y2599D01*
Y2625D01*
X5097Y2651D01*
X5084Y2675D01*
X5065Y2694D01*
X5042Y2707D01*
X5016Y2714D01*
D02*
G37*
G36*
X4762D02*
X4735D01*
X4709Y2707D01*
X4686Y2694D01*
X4667Y2675D01*
X4654Y2651D01*
X4647Y2625D01*
Y2599D01*
X4654Y2573D01*
X4667Y2549D01*
X4686Y2530D01*
X4709Y2517D01*
X4735Y2510D01*
X4762D01*
X4788Y2517D01*
X4811Y2530D01*
X4830Y2549D01*
X4843Y2573D01*
X4850Y2599D01*
Y2625D01*
X4843Y2651D01*
X4830Y2675D01*
X4811Y2694D01*
X4788Y2707D01*
X4762Y2714D01*
D02*
G37*
G36*
X4508D02*
X4481D01*
X4455Y2707D01*
X4432Y2694D01*
X4413Y2675D01*
X4400Y2651D01*
X4393Y2625D01*
Y2599D01*
X4400Y2573D01*
X4413Y2549D01*
X4432Y2530D01*
X4455Y2517D01*
X4481Y2510D01*
X4508D01*
X4534Y2517D01*
X4557Y2530D01*
X4576Y2549D01*
X4589Y2573D01*
X4596Y2599D01*
Y2625D01*
X4589Y2651D01*
X4576Y2675D01*
X4557Y2694D01*
X4534Y2707D01*
X4508Y2714D01*
D02*
G37*
G36*
X4254D02*
X4227D01*
X4201Y2707D01*
X4178Y2694D01*
X4159Y2675D01*
X4146Y2651D01*
X4139Y2625D01*
Y2599D01*
X4146Y2573D01*
X4159Y2549D01*
X4178Y2530D01*
X4201Y2517D01*
X4227Y2510D01*
X4254D01*
X4280Y2517D01*
X4303Y2530D01*
X4322Y2549D01*
X4335Y2573D01*
X4342Y2599D01*
Y2625D01*
X4335Y2651D01*
X4322Y2675D01*
X4303Y2694D01*
X4280Y2707D01*
X4254Y2714D01*
D02*
G37*
G36*
X4000D02*
X3973D01*
X3947Y2707D01*
X3924Y2694D01*
X3905Y2675D01*
X3892Y2651D01*
X3885Y2625D01*
Y2599D01*
X3892Y2573D01*
X3905Y2549D01*
X3924Y2530D01*
X3947Y2517D01*
X3973Y2510D01*
X4000D01*
X4026Y2517D01*
X4049Y2530D01*
X4068Y2549D01*
X4081Y2573D01*
X4088Y2599D01*
Y2625D01*
X4081Y2651D01*
X4068Y2675D01*
X4049Y2694D01*
X4026Y2707D01*
X4000Y2714D01*
D02*
G37*
G36*
X3834Y2599D02*
X3745D01*
Y2510D01*
X3746D01*
X3772Y2517D01*
X3795Y2530D01*
X3814Y2549D01*
X3827Y2573D01*
X3834Y2599D01*
Y2599D01*
D02*
G37*
G36*
X3720D02*
X3631D01*
Y2599D01*
X3638Y2573D01*
X3651Y2549D01*
X3670Y2530D01*
X3693Y2517D01*
X3719Y2510D01*
X3720D01*
Y2599D01*
D02*
G37*
G36*
X3580Y2714D02*
X3377D01*
Y2510D01*
X3580D01*
Y2714D01*
D02*
G37*
G36*
X2211Y2585D02*
X2189D01*
X2167Y2580D01*
X2148Y2568D01*
X2132Y2552D01*
X2120Y2533D01*
X2115Y2511D01*
Y2489D01*
X2120Y2467D01*
X2132Y2448D01*
X2148Y2432D01*
X2167Y2420D01*
X2189Y2415D01*
X2211D01*
X2233Y2420D01*
X2252Y2432D01*
X2268Y2448D01*
X2280Y2467D01*
X2285Y2489D01*
Y2511D01*
X2280Y2533D01*
X2268Y2552D01*
X2252Y2568D01*
X2233Y2580D01*
X2211Y2585D01*
D02*
G37*
G36*
X1785D02*
X1615D01*
Y2415D01*
X1785D01*
Y2585D01*
D02*
G37*
G36*
X918Y2586D02*
X892D01*
X866Y2579D01*
X843Y2566D01*
X824Y2547D01*
X811Y2524D01*
X804Y2498D01*
Y2472D01*
X811Y2446D01*
X824Y2423D01*
X843Y2404D01*
X866Y2391D01*
X892Y2384D01*
X918D01*
X944Y2391D01*
X967Y2404D01*
X986Y2423D01*
X999Y2446D01*
X1006Y2472D01*
Y2498D01*
X999Y2524D01*
X986Y2547D01*
X967Y2566D01*
X944Y2579D01*
X918Y2586D01*
D02*
G37*
G36*
X12264Y2551D02*
X12236D01*
X12208Y2544D01*
X12183Y2529D01*
X12163Y2509D01*
X12148Y2484D01*
X12141Y2456D01*
Y2428D01*
X12148Y2400D01*
X12163Y2375D01*
X12183Y2355D01*
X12208Y2340D01*
X12236Y2333D01*
X12264D01*
X12292Y2340D01*
X12317Y2355D01*
X12337Y2375D01*
X12352Y2400D01*
X12359Y2428D01*
Y2456D01*
X12352Y2484D01*
X12337Y2509D01*
X12317Y2529D01*
X12292Y2544D01*
X12264Y2551D01*
D02*
G37*
G36*
X918Y2332D02*
X892D01*
X866Y2325D01*
X843Y2312D01*
X824Y2293D01*
X811Y2270D01*
X804Y2244D01*
Y2218D01*
X811Y2192D01*
X824Y2169D01*
X843Y2150D01*
X866Y2137D01*
X892Y2130D01*
X918D01*
X944Y2137D01*
X967Y2150D01*
X986Y2169D01*
X999Y2192D01*
X1006Y2218D01*
Y2244D01*
X999Y2270D01*
X986Y2293D01*
X967Y2312D01*
X944Y2325D01*
X918Y2332D01*
D02*
G37*
G36*
Y1824D02*
X892D01*
X866Y1817D01*
X843Y1804D01*
X824Y1785D01*
X811Y1762D01*
X804Y1736D01*
Y1710D01*
X811Y1684D01*
X824Y1661D01*
X843Y1642D01*
X866Y1629D01*
X892Y1622D01*
X918D01*
X944Y1629D01*
X967Y1642D01*
X986Y1661D01*
X999Y1684D01*
X1006Y1710D01*
Y1736D01*
X999Y1762D01*
X986Y1785D01*
X967Y1804D01*
X944Y1817D01*
X918Y1824D01*
D02*
G37*
G36*
Y1570D02*
X892D01*
X866Y1563D01*
X843Y1550D01*
X824Y1531D01*
X811Y1508D01*
X804Y1482D01*
Y1456D01*
X811Y1430D01*
X824Y1407D01*
X843Y1388D01*
X866Y1375D01*
X892Y1368D01*
X918D01*
X944Y1375D01*
X967Y1388D01*
X986Y1407D01*
X999Y1430D01*
X1006Y1456D01*
Y1482D01*
X999Y1508D01*
X986Y1531D01*
X967Y1550D01*
X944Y1563D01*
X918Y1570D01*
D02*
G37*
G36*
Y1316D02*
X918D01*
Y1228D01*
X1006D01*
Y1228D01*
X999Y1254D01*
X986Y1277D01*
X967Y1296D01*
X944Y1309D01*
X918Y1316D01*
D02*
G37*
G36*
X892D02*
X892D01*
X866Y1309D01*
X843Y1296D01*
X824Y1277D01*
X811Y1254D01*
X804Y1228D01*
Y1228D01*
X892D01*
Y1316D01*
D02*
G37*
G36*
X2138Y1235D02*
Y1163D01*
X2210D01*
X2205Y1183D01*
X2193Y1202D01*
X2177Y1218D01*
X2158Y1230D01*
X2138Y1235D01*
D02*
G37*
G36*
X2112D02*
X2092Y1230D01*
X2073Y1218D01*
X2057Y1202D01*
X2045Y1183D01*
X2040Y1163D01*
X2112D01*
Y1235D01*
D02*
G37*
G36*
X1006Y1202D02*
X918D01*
Y1114D01*
X918D01*
X944Y1121D01*
X967Y1134D01*
X986Y1153D01*
X999Y1176D01*
X1006Y1202D01*
Y1202D01*
D02*
G37*
G36*
X892D02*
X804D01*
Y1202D01*
X811Y1176D01*
X824Y1153D01*
X843Y1134D01*
X866Y1121D01*
X892Y1114D01*
X892D01*
Y1202D01*
D02*
G37*
G36*
X2210Y1137D02*
X2138D01*
Y1065D01*
X2158Y1070D01*
X2177Y1082D01*
X2193Y1098D01*
X2205Y1117D01*
X2210Y1137D01*
D02*
G37*
G36*
X2112D02*
X2040D01*
X2045Y1117D01*
X2057Y1098D01*
X2073Y1082D01*
X2092Y1070D01*
X2112Y1065D01*
Y1137D01*
D02*
G37*
G36*
X7048Y1190D02*
X7021D01*
X6995Y1183D01*
X6972Y1170D01*
X6953Y1151D01*
X6940Y1127D01*
X6933Y1101D01*
Y1075D01*
X6940Y1049D01*
X6953Y1025D01*
X6972Y1006D01*
X6995Y993D01*
X7021Y986D01*
X7048D01*
X7074Y993D01*
X7097Y1006D01*
X7116Y1025D01*
X7129Y1049D01*
X7136Y1075D01*
Y1101D01*
X7129Y1127D01*
X7116Y1151D01*
X7097Y1170D01*
X7074Y1183D01*
X7048Y1190D01*
D02*
G37*
G36*
X6794D02*
X6767D01*
X6741Y1183D01*
X6718Y1170D01*
X6699Y1151D01*
X6686Y1127D01*
X6679Y1101D01*
Y1075D01*
X6686Y1049D01*
X6699Y1025D01*
X6718Y1006D01*
X6741Y993D01*
X6767Y986D01*
X6794D01*
X6820Y993D01*
X6843Y1006D01*
X6862Y1025D01*
X6875Y1049D01*
X6882Y1075D01*
Y1101D01*
X6875Y1127D01*
X6862Y1151D01*
X6843Y1170D01*
X6820Y1183D01*
X6794Y1190D01*
D02*
G37*
G36*
X6540D02*
X6513D01*
X6487Y1183D01*
X6464Y1170D01*
X6445Y1151D01*
X6432Y1127D01*
X6425Y1101D01*
Y1075D01*
X6432Y1049D01*
X6445Y1025D01*
X6464Y1006D01*
X6487Y993D01*
X6513Y986D01*
X6540D01*
X6566Y993D01*
X6589Y1006D01*
X6608Y1025D01*
X6621Y1049D01*
X6628Y1075D01*
Y1101D01*
X6621Y1127D01*
X6608Y1151D01*
X6589Y1170D01*
X6566Y1183D01*
X6540Y1190D01*
D02*
G37*
G36*
X6286D02*
X6259D01*
X6233Y1183D01*
X6210Y1170D01*
X6191Y1151D01*
X6178Y1127D01*
X6171Y1101D01*
Y1075D01*
X6178Y1049D01*
X6191Y1025D01*
X6210Y1006D01*
X6233Y993D01*
X6259Y986D01*
X6286D01*
X6312Y993D01*
X6335Y1006D01*
X6354Y1025D01*
X6367Y1049D01*
X6374Y1075D01*
Y1101D01*
X6367Y1127D01*
X6354Y1151D01*
X6335Y1170D01*
X6312Y1183D01*
X6286Y1190D01*
D02*
G37*
G36*
X6032D02*
X6005D01*
X5979Y1183D01*
X5956Y1170D01*
X5937Y1151D01*
X5924Y1127D01*
X5917Y1101D01*
Y1075D01*
X5924Y1049D01*
X5937Y1025D01*
X5956Y1006D01*
X5979Y993D01*
X6005Y986D01*
X6032D01*
X6058Y993D01*
X6081Y1006D01*
X6100Y1025D01*
X6113Y1049D01*
X6120Y1075D01*
Y1101D01*
X6113Y1127D01*
X6100Y1151D01*
X6081Y1170D01*
X6058Y1183D01*
X6032Y1190D01*
D02*
G37*
G36*
X5778D02*
X5751D01*
X5725Y1183D01*
X5702Y1170D01*
X5683Y1151D01*
X5670Y1127D01*
X5663Y1101D01*
Y1075D01*
X5670Y1049D01*
X5683Y1025D01*
X5702Y1006D01*
X5725Y993D01*
X5751Y986D01*
X5778D01*
X5804Y993D01*
X5827Y1006D01*
X5846Y1025D01*
X5859Y1049D01*
X5866Y1075D01*
Y1101D01*
X5859Y1127D01*
X5846Y1151D01*
X5827Y1170D01*
X5804Y1183D01*
X5778Y1190D01*
D02*
G37*
G36*
X5524D02*
X5497D01*
X5471Y1183D01*
X5448Y1170D01*
X5429Y1151D01*
X5416Y1127D01*
X5409Y1101D01*
Y1075D01*
X5416Y1049D01*
X5429Y1025D01*
X5448Y1006D01*
X5471Y993D01*
X5497Y986D01*
X5524D01*
X5550Y993D01*
X5573Y1006D01*
X5592Y1025D01*
X5605Y1049D01*
X5612Y1075D01*
Y1101D01*
X5605Y1127D01*
X5592Y1151D01*
X5573Y1170D01*
X5550Y1183D01*
X5524Y1190D01*
D02*
G37*
G36*
X5270D02*
X5243D01*
X5217Y1183D01*
X5194Y1170D01*
X5175Y1151D01*
X5162Y1127D01*
X5155Y1101D01*
Y1075D01*
X5162Y1049D01*
X5175Y1025D01*
X5194Y1006D01*
X5217Y993D01*
X5243Y986D01*
X5270D01*
X5296Y993D01*
X5319Y1006D01*
X5338Y1025D01*
X5351Y1049D01*
X5358Y1075D01*
Y1101D01*
X5351Y1127D01*
X5338Y1151D01*
X5319Y1170D01*
X5296Y1183D01*
X5270Y1190D01*
D02*
G37*
G36*
X5016D02*
X4989D01*
X4963Y1183D01*
X4940Y1170D01*
X4921Y1151D01*
X4908Y1127D01*
X4901Y1101D01*
Y1075D01*
X4908Y1049D01*
X4921Y1025D01*
X4940Y1006D01*
X4963Y993D01*
X4989Y986D01*
X5016D01*
X5042Y993D01*
X5065Y1006D01*
X5084Y1025D01*
X5097Y1049D01*
X5104Y1075D01*
Y1101D01*
X5097Y1127D01*
X5084Y1151D01*
X5065Y1170D01*
X5042Y1183D01*
X5016Y1190D01*
D02*
G37*
G36*
X4762D02*
X4735D01*
X4709Y1183D01*
X4686Y1170D01*
X4667Y1151D01*
X4654Y1127D01*
X4647Y1101D01*
Y1075D01*
X4654Y1049D01*
X4667Y1025D01*
X4686Y1006D01*
X4709Y993D01*
X4735Y986D01*
X4762D01*
X4788Y993D01*
X4811Y1006D01*
X4830Y1025D01*
X4843Y1049D01*
X4850Y1075D01*
Y1101D01*
X4843Y1127D01*
X4830Y1151D01*
X4811Y1170D01*
X4788Y1183D01*
X4762Y1190D01*
D02*
G37*
G36*
X4508D02*
X4481D01*
X4455Y1183D01*
X4432Y1170D01*
X4413Y1151D01*
X4400Y1127D01*
X4393Y1101D01*
Y1075D01*
X4400Y1049D01*
X4413Y1025D01*
X4432Y1006D01*
X4455Y993D01*
X4481Y986D01*
X4508D01*
X4534Y993D01*
X4557Y1006D01*
X4576Y1025D01*
X4589Y1049D01*
X4596Y1075D01*
Y1101D01*
X4589Y1127D01*
X4576Y1151D01*
X4557Y1170D01*
X4534Y1183D01*
X4508Y1190D01*
D02*
G37*
G36*
X4254D02*
X4227D01*
X4201Y1183D01*
X4178Y1170D01*
X4159Y1151D01*
X4146Y1127D01*
X4139Y1101D01*
Y1075D01*
X4146Y1049D01*
X4159Y1025D01*
X4178Y1006D01*
X4201Y993D01*
X4227Y986D01*
X4254D01*
X4280Y993D01*
X4303Y1006D01*
X4322Y1025D01*
X4335Y1049D01*
X4342Y1075D01*
Y1101D01*
X4335Y1127D01*
X4322Y1151D01*
X4303Y1170D01*
X4280Y1183D01*
X4254Y1190D01*
D02*
G37*
G36*
X4000D02*
X3973D01*
X3947Y1183D01*
X3924Y1170D01*
X3905Y1151D01*
X3892Y1127D01*
X3885Y1101D01*
Y1075D01*
X3892Y1049D01*
X3905Y1025D01*
X3924Y1006D01*
X3947Y993D01*
X3973Y986D01*
X4000D01*
X4026Y993D01*
X4049Y1006D01*
X4068Y1025D01*
X4081Y1049D01*
X4088Y1075D01*
Y1101D01*
X4081Y1127D01*
X4068Y1151D01*
X4049Y1170D01*
X4026Y1183D01*
X4000Y1190D01*
D02*
G37*
G36*
X918Y1062D02*
X892D01*
X866Y1055D01*
X843Y1042D01*
X824Y1023D01*
X811Y1000D01*
X804Y974D01*
Y948D01*
X811Y922D01*
X824Y899D01*
X843Y880D01*
X866Y867D01*
X892Y860D01*
X918D01*
X944Y867D01*
X967Y880D01*
X986Y899D01*
X999Y922D01*
X1006Y948D01*
Y974D01*
X999Y1000D01*
X986Y1023D01*
X967Y1042D01*
X944Y1055D01*
X918Y1062D01*
D02*
G37*
G36*
X11963Y789D02*
Y713D01*
X12039D01*
X12033Y734D01*
X12021Y755D01*
X12005Y771D01*
X11984Y783D01*
X11963Y789D01*
D02*
G37*
G36*
X11937D02*
X11916Y783D01*
X11895Y771D01*
X11879Y755D01*
X11867Y734D01*
X11861Y713D01*
X11937D01*
Y789D01*
D02*
G37*
G36*
X12039Y687D02*
X11963D01*
Y611D01*
X11984Y617D01*
X12005Y629D01*
X12021Y645D01*
X12033Y666D01*
X12039Y687D01*
D02*
G37*
G36*
X11937D02*
X11861D01*
X11867Y666D01*
X11879Y645D01*
X11895Y629D01*
X11916Y617D01*
X11937Y611D01*
Y687D01*
D02*
G37*
G36*
X10735Y801D02*
X10365D01*
X10324Y797D01*
X10284Y785D01*
X10248Y766D01*
X10216Y739D01*
X10189Y707D01*
X10170Y671D01*
X10158Y631D01*
X10154Y590D01*
X10158Y549D01*
X10170Y509D01*
X10189Y473D01*
X10216Y441D01*
X10248Y414D01*
X10284Y395D01*
X10324Y383D01*
X10365Y379D01*
X10735D01*
X10776Y383D01*
X10816Y395D01*
X10852Y414D01*
X10884Y441D01*
X10911Y473D01*
X10930Y509D01*
X10942Y549D01*
X10946Y590D01*
X10942Y631D01*
X10930Y671D01*
X10911Y707D01*
X10884Y739D01*
X10852Y766D01*
X10816Y785D01*
X10776Y797D01*
X10735Y801D01*
D02*
G37*
G36*
X8835D02*
X8465D01*
X8424Y797D01*
X8384Y785D01*
X8348Y766D01*
X8316Y739D01*
X8289Y707D01*
X8270Y671D01*
X8258Y631D01*
X8254Y590D01*
X8258Y549D01*
X8270Y509D01*
X8289Y473D01*
X8316Y441D01*
X8348Y414D01*
X8384Y395D01*
X8424Y383D01*
X8465Y379D01*
X8835D01*
X8876Y383D01*
X8916Y395D01*
X8952Y414D01*
X8984Y441D01*
X9011Y473D01*
X9030Y509D01*
X9042Y549D01*
X9046Y590D01*
X9042Y631D01*
X9030Y671D01*
X9011Y707D01*
X8984Y739D01*
X8952Y766D01*
X8916Y785D01*
X8876Y797D01*
X8835Y801D01*
D02*
G37*
G36*
X12770Y450D02*
X12730D01*
X12692Y443D01*
X12655Y428D01*
X12622Y406D01*
X12594Y378D01*
X12572Y345D01*
X12557Y308D01*
X12550Y270D01*
Y230D01*
X12557Y192D01*
X12572Y155D01*
X12594Y122D01*
X12622Y94D01*
X12655Y72D01*
X12692Y57D01*
X12730Y50D01*
X12770D01*
X12808Y57D01*
X12845Y72D01*
X12878Y94D01*
X12906Y122D01*
X12928Y155D01*
X12943Y192D01*
X12950Y230D01*
Y270D01*
X12943Y308D01*
X12928Y345D01*
X12906Y378D01*
X12878Y406D01*
X12845Y428D01*
X12808Y443D01*
X12770Y450D01*
D02*
G37*
G36*
X270D02*
X230D01*
X192Y443D01*
X155Y428D01*
X122Y406D01*
X94Y378D01*
X72Y345D01*
X57Y308D01*
X50Y270D01*
Y230D01*
X57Y192D01*
X72Y155D01*
X94Y122D01*
X122Y94D01*
X155Y72D01*
X192Y57D01*
X230Y50D01*
X270D01*
X308Y57D01*
X345Y72D01*
X378Y94D01*
X406Y122D01*
X428Y155D01*
X443Y192D01*
X450Y230D01*
Y270D01*
X443Y308D01*
X428Y345D01*
X406Y378D01*
X378Y406D01*
X345Y428D01*
X308Y443D01*
X270Y450D01*
D02*
G37*
%LPD*%
D34*
X1850Y300D02*
X11650Y300D01*
X1775Y375D02*
Y1150D01*
X1775Y375D02*
X1850Y300D01*
X3733Y1088D02*
Y1268D01*
X3250Y1300D02*
X3700D01*
X3733Y1268D01*
X3200Y1350D02*
Y3400D01*
Y1350D02*
X3250Y1300D01*
X3200Y3400D02*
X3250Y3450D01*
X3100Y1150D02*
Y3500D01*
Y1150D02*
X3162Y1088D01*
X3100Y3500D02*
X3150Y3550D01*
X3250Y3450D02*
X11550D01*
X3162Y1088D02*
X3478D01*
X3150Y3550D02*
X11450D01*
X6781Y2931D02*
X6860Y3010D01*
X6781Y2612D02*
Y2931D01*
X6860Y3010D02*
X8650D01*
X1300Y6000D02*
Y6400D01*
X1250Y5950D02*
X1300Y6000D01*
X800Y5950D02*
X1250D01*
X11750Y400D02*
Y8500D01*
X11823Y8573D02*
X12150D01*
X11750Y8500D02*
X11823Y8573D01*
X11550Y3450D02*
X11650Y3550D01*
Y8750D01*
X11727Y8827D02*
X12150D01*
X11650Y8750D02*
X11727Y8827D01*
X11450Y3550D02*
X11550Y3650D01*
Y9000D01*
X11631Y9081D01*
X12150D01*
X11650Y300D02*
X11750Y400D01*
D35*
X11150Y3950D02*
D03*
Y9450D02*
D03*
X1850D02*
D03*
Y3950D02*
D03*
X650Y4390D02*
D03*
D36*
X7035Y1088D02*
D03*
X6781D02*
D03*
X6526D02*
D03*
X6272D02*
D03*
X6019D02*
D03*
X5765D02*
D03*
X5510D02*
D03*
X5256D02*
D03*
X5003D02*
D03*
X4749D02*
D03*
X4494D02*
D03*
X4240D02*
D03*
X3987D02*
D03*
X3733D02*
D03*
X7035Y2612D02*
D03*
X6781D02*
D03*
X6526D02*
D03*
X6272D02*
D03*
X6019D02*
D03*
X5765D02*
D03*
X5510D02*
D03*
X5256D02*
D03*
X5003D02*
D03*
X4749D02*
D03*
X4494D02*
D03*
X4240D02*
D03*
X3987D02*
D03*
X3733D02*
D03*
D37*
X3478Y1088D02*
D03*
Y2612D02*
D03*
D38*
X12250Y2696D02*
D03*
Y2442D02*
D03*
Y2950D02*
D03*
D39*
X905Y961D02*
D03*
Y1215D02*
D03*
Y1469D02*
D03*
Y1723D02*
D03*
Y2231D02*
D03*
Y2485D02*
D03*
X12150Y9081D02*
D03*
Y8827D02*
D03*
Y8573D02*
D03*
D40*
X905Y2739D02*
D03*
X12150Y8319D02*
D03*
D41*
X8650Y3010D02*
D03*
Y590D02*
D03*
X10550Y3010D02*
D03*
Y590D02*
D03*
D42*
X2200Y2500D02*
D03*
X2125Y1150D02*
D03*
D43*
X1700Y2500D02*
D03*
X1775Y1150D02*
D03*
D44*
X250Y9750D02*
D03*
X12750D02*
D03*
Y250D02*
D03*
X250D02*
D03*
D45*
X800Y7058D02*
D03*
X516Y6919D02*
D03*
X800Y6781D02*
D03*
X516Y6643D02*
D03*
X800Y6504D02*
D03*
X516Y6365D02*
D03*
X800Y6227D02*
D03*
X516Y6088D02*
D03*
X12158Y5296D02*
D03*
X12442Y5435D02*
D03*
X12158Y5573D02*
D03*
X12442Y5712D02*
D03*
X12158Y5850D02*
D03*
X12442Y5988D02*
D03*
X12158Y6127D02*
D03*
X12442Y6265D02*
D03*
D46*
X800Y5950D02*
D03*
X12158Y6404D02*
D03*
D47*
X658Y7754D02*
D03*
Y5254D02*
D03*
X12300Y4601D02*
D03*
Y7100D02*
D03*
D48*
X650Y3890D02*
D03*
D49*
X11950Y700D02*
D03*
X1300Y6400D02*
D03*
M02*
