M48
;Layer_Color=9474304
;FILE_FORMAT=4:2
METRIC,LZ
;TYPE=PLATED
T1F00S00C0.71
T2F00S00C0.81
T3F00S00C0.90
T4F00S00C1.00
T5F00S00C1.02
T6F00S00C1.05
T7F00S00C1.10
T8F00S00C1.30
T9F00S00C2.00
T10F00S00C3.00
T11F00S00C3.10
;TYPE=NON_PLATED
T12F00S00C3.20
%
T01
X00125Y0014
X0024Y00125
X002562Y003762
X002992Y003508
X00625Y00365
X00655Y0039
X0072Y0025
X00975Y0064
X0073Y0063
Y00745
X0069Y00415
X003578Y004522
X00395Y0053
X0075Y00895
X00925Y01225
X0093Y0132
X00905
T02
X0007Y00665
Y00685
Y00705
Y00845
Y00865
Y00885
T03
X0092Y010442
Y010696
Y01095
T04
X00075Y00055
Y000804
Y001058
Y001312
Y001566
X0007Y002146
Y0024
Y002654
Y002908
X00915Y006096
Y00635
Y006604
Y006858
T05
X001825Y001603
X002079
Y001857
X001825
Y002111
X002079
Y002365
X001825
Y002619
X002079
Y002873
X001825
Y003127
X002079
Y003381
X001825
Y003635
X002079
Y003889
X001825
X007921Y003887
Y003633
Y003379
Y003125
Y002871
Y002617
Y002363
Y002109
Y001855
Y001601
X008175
Y001855
Y002109
Y002363
Y002617
Y002871
Y003125
Y003379
Y003633
Y003887
Y004141
Y004395
Y004649
Y004903
Y005157
Y005411
Y005665
Y005919
Y006173
Y006427
Y006681
Y006935
Y007189
Y007443
Y007697
X007921
Y007443
Y007189
Y006935
Y006681
Y006427
Y006173
Y005919
Y005665
Y005411
Y005157
Y004903
Y004649
Y004395
Y004141
X002079Y004143
X001825
Y004397
X002079
Y004651
X001825
Y004905
X002079
Y005159
X001825
Y005413
X002079
Y005667
X001825
Y005921
X002079
Y006175
X001825
Y006429
X002079
Y006683
X001825
Y006937
X002079
Y007191
X001825
Y007445
X002079
Y007699
X001825
Y007953
X002079
Y008207
X001825
Y008461
X002079
Y008715
X001825
Y008969
X002079
Y009223
X001825
Y009477
X002079
Y009731
X001825
Y009985
X002079
Y010239
X001825
Y010493
X002079
X007921Y010491
Y010237
Y009983
Y009729
Y009475
Y009221
Y008967
Y008713
Y008459
Y008205
Y007951
X008175
Y008205
Y008459
Y008713
Y008967
Y009221
Y009475
Y009729
Y009983
Y010237
Y010491
T06
X006246Y014258
X006522
X0068
X007076
X007354
X007215Y014542
X006938
X006661
X006384
X003638Y014534
X003362
X003084
X002808
X002669Y01425
X002946
X003223
X0035
X003777
T07
X00075Y01055
Y01105
Y01155
X00915Y009218
Y008964
Y00871
Y008456
Y008202
Y007948
X00075Y01255
Y01305
Y01355
T08
X0007Y003825
Y004175
T09
X00025Y00025
X00975
Y01475
X00025
T10
X0092Y00129
Y00179
T11
X008049Y0144
X00555
X004472Y014392
X001974
T12
X002714Y003254
X007286
X005889Y005667
X002587Y010874
X007413Y010747
M30
