G04*
G04 #@! TF.GenerationSoftware,Altium Limited,Altium Designer,22.8.2 (66)*
G04*
G04 Layer_Color=65535*
%FSLAX42Y42*%
%MOMM*%
G71*
G04*
G04 #@! TF.SameCoordinates,BE524959-8ACB-43EF-997A-26B96313BF78*
G04*
G04*
G04 #@! TF.FilePolarity,Positive*
G04*
G01*
G75*
%ADD10C,0.20*%
%ADD11C,0.20*%
%ADD12C,0.30*%
%ADD13C,0.13*%
%ADD14C,0.25*%
D10*
X6475Y2475D02*
G03*
X6475Y2475I-25J0D01*
G01*
Y4225D02*
G03*
X6475Y4225I-25J0D01*
G01*
D11*
X4952Y870D02*
G03*
X4952Y870I-10J0D01*
G01*
X610Y4150D02*
G03*
X610Y4150I-10J0D01*
G01*
X3768Y4130D02*
G03*
X3768Y4130I-10J0D01*
G01*
X2906Y1631D02*
G03*
X2906Y1631I-10J0D01*
G01*
D12*
X2807Y3900D02*
G03*
X2807Y3900I-15J0D01*
G01*
D13*
X4550Y3873D02*
X4707Y4030D01*
X4550Y3870D02*
Y3873D01*
X4707Y4030D02*
X5670D01*
X4707Y3470D02*
X5670D01*
X5770Y3720D02*
Y3820D01*
X5720Y3770D02*
X5820D01*
X5670Y3470D02*
Y4030D01*
X4550Y3608D02*
X4707Y3470D01*
X4550Y3608D02*
Y3870D01*
X6860Y900D02*
Y2400D01*
X6810Y900D02*
X6860D01*
X6040D02*
X6810D01*
X6040D02*
Y2400D01*
X6860D01*
X6810Y900D02*
Y2400D01*
X6860Y2650D02*
Y4150D01*
X6810Y2650D02*
X6860D01*
X6040D02*
X6810D01*
X6040D02*
Y4150D01*
X6860D01*
X6810Y2650D02*
Y4150D01*
X2809Y100D02*
X5890D01*
X2809D02*
Y750D01*
X5890Y100D02*
Y750D01*
X2809D02*
X5890D01*
X673Y4570D02*
X2527D01*
X673Y265D02*
X673Y4570D01*
X2527Y265D02*
X2527Y4570D01*
X660Y265D02*
X2514D01*
X2809Y4900D02*
X5890D01*
Y4250D02*
Y4900D01*
X2809Y4250D02*
Y4900D01*
Y4250D02*
X5890D01*
X2865Y3775D02*
Y4025D01*
Y3775D02*
X4135D01*
Y4025D01*
X2865D02*
X4135D01*
X4842Y1062D02*
X4958D01*
X4842Y1238D02*
X4958D01*
X5025Y1697D02*
X5584D01*
X5000Y1722D02*
X5025Y1697D01*
X4975D02*
X5000Y1722D01*
X4416Y1697D02*
X4975D01*
X4416D02*
Y1748D01*
X4467D01*
Y2052D01*
X4416D02*
X4467D01*
X4416D02*
Y2103D01*
X4975D01*
X5000Y2078D01*
X5025Y2103D01*
X5584D01*
Y2052D02*
Y2103D01*
X5533Y2052D02*
X5584D01*
X5533Y1748D02*
Y2052D01*
Y1748D02*
X5584D01*
Y1697D02*
Y1748D01*
X3105Y1652D02*
X3495D01*
X3105Y1148D02*
X3495D01*
X3962Y1142D02*
Y1258D01*
X4138Y1142D02*
Y1258D01*
D14*
X6075Y4776D02*
X6024D01*
X6049D01*
Y4649D01*
X6024Y4624D01*
X5998D01*
X5973Y4649D01*
X6227Y4624D02*
X6125D01*
X6227Y4725D01*
Y4751D01*
X6202Y4776D01*
X6151D01*
X6125Y4751D01*
X4715Y1605D02*
X4689D01*
X4675Y1592D01*
Y1539D01*
X4689Y1525D01*
X4715D01*
X4729Y1539D01*
Y1592D01*
X4715Y1605D01*
X4755Y1525D02*
Y1579D01*
X4795D01*
X4809Y1565D01*
Y1525D01*
X5075Y3275D02*
X5109D01*
X5092D01*
Y3375D01*
X5075Y3359D01*
X5225Y3275D02*
X5159D01*
X5225Y3342D01*
Y3359D01*
X5209Y3375D01*
X5175D01*
X5159Y3359D01*
X5259Y3375D02*
Y3309D01*
X5292Y3275D01*
X5325Y3309D01*
Y3375D01*
X5215Y1605D02*
X5189D01*
X5175Y1592D01*
Y1539D01*
X5189Y1525D01*
X5215D01*
X5229Y1539D01*
Y1592D01*
X5215Y1605D01*
X5269Y1525D02*
Y1592D01*
Y1565D01*
X5255D01*
X5282D01*
X5269D01*
Y1592D01*
X5282Y1605D01*
X5335Y1525D02*
Y1592D01*
Y1565D01*
X5322D01*
X5349D01*
X5335D01*
Y1592D01*
X5349Y1605D01*
X5858Y2825D02*
X5845Y2839D01*
Y2865D01*
X5858Y2879D01*
X5871D01*
X5885Y2865D01*
Y2852D01*
Y2865D01*
X5898Y2879D01*
X5911D01*
X5925Y2865D01*
Y2839D01*
X5911Y2825D01*
X5925Y2905D02*
X5911D01*
Y2919D01*
X5925D01*
Y2905D01*
X5858Y2972D02*
X5845Y2985D01*
Y3012D01*
X5858Y3025D01*
X5871D01*
X5885Y3012D01*
Y2999D01*
Y3012D01*
X5898Y3025D01*
X5911D01*
X5925Y3012D01*
Y2985D01*
X5911Y2972D01*
X5845Y3052D02*
X5898D01*
X5925Y3079D01*
X5898Y3105D01*
X5845D01*
X5858Y3879D02*
X5845Y3865D01*
Y3839D01*
X5858Y3825D01*
X5911D01*
X5925Y3839D01*
Y3865D01*
X5911Y3879D01*
X5885D01*
Y3852D01*
X5925Y3905D02*
X5845D01*
X5925Y3959D01*
X5845D01*
Y3985D02*
X5925D01*
Y4025D01*
X5911Y4039D01*
X5858D01*
X5845Y4025D01*
Y3985D01*
X5925Y3375D02*
X5871D01*
X5845Y3402D01*
X5871Y3429D01*
X5925D01*
X5885D01*
Y3375D01*
X5925Y3455D02*
Y3482D01*
Y3469D01*
X5845D01*
X5858Y3455D01*
X5925Y1625D02*
X5871D01*
X5845Y1652D01*
X5871Y1679D01*
X5925D01*
X5885D01*
Y1625D01*
X5925Y1759D02*
Y1705D01*
X5871Y1759D01*
X5858D01*
X5845Y1745D01*
Y1719D01*
X5858Y1705D01*
X5925Y1075D02*
Y1102D01*
Y1089D01*
X5845D01*
X5858Y1075D01*
X5925Y1195D02*
Y1142D01*
X5871Y1195D01*
X5858D01*
X5845Y1182D01*
Y1155D01*
X5858Y1142D01*
X5845Y1222D02*
X5898D01*
X5925Y1249D01*
X5898Y1275D01*
X5845D01*
X5858Y2079D02*
X5845Y2065D01*
Y2039D01*
X5858Y2025D01*
X5911D01*
X5925Y2039D01*
Y2065D01*
X5911Y2079D01*
X5885D01*
Y2052D01*
X5925Y2105D02*
X5845D01*
X5925Y2159D01*
X5845D01*
Y2185D02*
X5925D01*
Y2225D01*
X5911Y2239D01*
X5858D01*
X5845Y2225D01*
Y2185D01*
X3979Y3692D02*
X3965Y3705D01*
X3939D01*
X3925Y3692D01*
Y3639D01*
X3939Y3625D01*
X3965D01*
X3979Y3639D01*
Y3665D01*
X3952D01*
X4005Y3625D02*
Y3705D01*
X4059Y3625D01*
Y3705D01*
X4085D02*
Y3625D01*
X4125D01*
X4139Y3639D01*
Y3692D01*
X4125Y3705D01*
X4085D01*
X3175Y3125D02*
Y3192D01*
X3209Y3225D01*
X3242Y3192D01*
Y3125D01*
Y3175D01*
X3175D01*
X3275Y3192D02*
Y3142D01*
X3292Y3125D01*
X3342D01*
Y3192D01*
X3392Y3209D02*
Y3192D01*
X3375D01*
X3409D01*
X3392D01*
Y3142D01*
X3409Y3125D01*
X3475D02*
X3509D01*
X3525Y3142D01*
Y3175D01*
X3509Y3192D01*
X3475D01*
X3459Y3175D01*
Y3142D01*
X3475Y3125D01*
X3559D02*
Y3192D01*
X3609D01*
X3625Y3175D01*
Y3125D01*
X3675D02*
X3709D01*
X3725Y3142D01*
Y3175D01*
X3709Y3192D01*
X3675D01*
X3659Y3175D01*
Y3142D01*
X3675Y3125D01*
X3759D02*
Y3192D01*
X3775D01*
X3792Y3175D01*
Y3125D01*
Y3175D01*
X3809Y3192D01*
X3825Y3175D01*
Y3125D01*
X3875D02*
X3908D01*
X3925Y3142D01*
Y3175D01*
X3908Y3192D01*
X3875D01*
X3859Y3175D01*
Y3142D01*
X3875Y3125D01*
X3958Y3192D02*
Y3142D01*
X3975Y3125D01*
X4025D01*
Y3192D01*
X4058Y3125D02*
X4108D01*
X4125Y3142D01*
X4108Y3159D01*
X4075D01*
X4058Y3175D01*
X4075Y3192D01*
X4125D01*
X4325Y3209D02*
X4308Y3225D01*
X4275D01*
X4258Y3209D01*
Y3142D01*
X4275Y3125D01*
X4308D01*
X4325Y3142D01*
Y3175D01*
X4292D01*
X4375Y3125D02*
X4408D01*
X4425Y3142D01*
Y3175D01*
X4408Y3192D01*
X4375D01*
X4358Y3175D01*
Y3142D01*
X4375Y3125D01*
X4458Y3175D02*
X4525D01*
X4558Y3125D02*
Y3225D01*
Y3159D02*
X4608Y3192D01*
X4558Y3159D02*
X4608Y3125D01*
X4675Y3192D02*
X4708D01*
X4725Y3175D01*
Y3125D01*
X4675D01*
X4658Y3142D01*
X4675Y3159D01*
X4725D01*
X4758Y3192D02*
Y3125D01*
Y3159D01*
X4775Y3175D01*
X4792Y3192D01*
X4808D01*
X4875Y3209D02*
Y3192D01*
X4858D01*
X4892D01*
X4875D01*
Y3142D01*
X4892Y3125D01*
X3175Y3009D02*
Y2909D01*
X3225D01*
X3242Y2925D01*
Y2942D01*
X3225Y2959D01*
X3175D01*
X3225D01*
X3242Y2975D01*
Y2992D01*
X3225Y3009D01*
X3175D01*
X3275Y2975D02*
Y2909D01*
Y2942D01*
X3292Y2959D01*
X3309Y2975D01*
X3325D01*
X3392D02*
X3425D01*
X3442Y2959D01*
Y2909D01*
X3392D01*
X3375Y2925D01*
X3392Y2942D01*
X3442D01*
X3475Y2909D02*
Y3009D01*
Y2942D02*
X3525Y2975D01*
X3475Y2942D02*
X3525Y2909D01*
X3625D02*
X3592D01*
X3575Y2925D01*
Y2959D01*
X3592Y2975D01*
X3625D01*
X3642Y2959D01*
Y2942D01*
X3575D01*
X3675Y2959D02*
X3742D01*
X3775Y3009D02*
Y2909D01*
X3825D01*
X3842Y2925D01*
Y2942D01*
Y2959D01*
X3825Y2975D01*
X3775D01*
X3875D02*
Y2925D01*
X3892Y2909D01*
X3942D01*
Y2892D01*
X3925Y2875D01*
X3908D01*
X3942Y2909D02*
Y2975D01*
X3975Y2959D02*
X4042D01*
X4075Y3009D02*
Y2909D01*
X4108Y2942D01*
X4142Y2909D01*
Y3009D01*
X4175Y2909D02*
X4208D01*
X4192D01*
Y2975D01*
X4175D01*
X4258D02*
Y2909D01*
Y2942D01*
X4275Y2959D01*
X4292Y2975D01*
X4308D01*
X4408Y2909D02*
X4375D01*
X4358Y2925D01*
Y2959D01*
X4375Y2975D01*
X4408D01*
X4425Y2959D01*
Y2942D01*
X4358D01*
X4558Y2975D02*
X4592Y2909D01*
X4625Y2975D01*
X4708Y2909D02*
Y3009D01*
X4658Y2959D01*
X4725D01*
X4758Y2909D02*
Y2925D01*
X4775D01*
Y2909D01*
X4758D01*
X4842Y2992D02*
X4858Y3009D01*
X4892D01*
X4908Y2992D01*
Y2925D01*
X4892Y2909D01*
X4858D01*
X4842Y2925D01*
Y2992D01*
X3475Y2675D02*
Y2742D01*
X3509Y2775D01*
X3542Y2742D01*
Y2675D01*
Y2725D01*
X3475D01*
X3575Y2742D02*
Y2692D01*
X3592Y2675D01*
X3642D01*
Y2742D01*
X3692Y2759D02*
Y2742D01*
X3675D01*
X3709D01*
X3692D01*
Y2692D01*
X3709Y2675D01*
X3775D02*
X3809D01*
X3825Y2692D01*
Y2725D01*
X3809Y2742D01*
X3775D01*
X3759Y2725D01*
Y2692D01*
X3775Y2675D01*
X3859Y2742D02*
Y2692D01*
X3875Y2675D01*
X3892Y2692D01*
X3909Y2675D01*
X3925Y2692D01*
Y2742D01*
X3975D02*
X4009D01*
X4025Y2725D01*
Y2675D01*
X3975D01*
X3959Y2692D01*
X3975Y2709D01*
X4025D01*
X4059Y2742D02*
Y2675D01*
Y2709D01*
X4075Y2725D01*
X4092Y2742D01*
X4109D01*
X4208Y2675D02*
X4175D01*
X4159Y2692D01*
Y2725D01*
X4175Y2742D01*
X4208D01*
X4225Y2725D01*
Y2709D01*
X4159D01*
X4425Y2759D02*
X4408Y2775D01*
X4375D01*
X4358Y2759D01*
Y2692D01*
X4375Y2675D01*
X4408D01*
X4425Y2692D01*
X4475Y2675D02*
X4508D01*
X4525Y2692D01*
Y2725D01*
X4508Y2742D01*
X4475D01*
X4458Y2725D01*
Y2692D01*
X4475Y2675D01*
X4625Y2775D02*
X4558D01*
Y2675D01*
X4625D01*
X4558Y2725D02*
X4592D01*
X2825Y2559D02*
Y2475D01*
X2842Y2459D01*
X2875D01*
X2892Y2475D01*
Y2559D01*
X2925Y2459D02*
Y2525D01*
X2975D01*
X2992Y2509D01*
Y2459D01*
X3025D02*
X3059D01*
X3042D01*
Y2525D01*
X3025D01*
X3109D02*
X3142Y2459D01*
X3175Y2525D01*
X3259Y2459D02*
X3225D01*
X3209Y2475D01*
Y2509D01*
X3225Y2525D01*
X3259D01*
X3275Y2509D01*
Y2492D01*
X3209D01*
X3309Y2525D02*
Y2459D01*
Y2492D01*
X3325Y2509D01*
X3342Y2525D01*
X3359D01*
X3409Y2459D02*
X3459D01*
X3475Y2475D01*
X3459Y2492D01*
X3425D01*
X3409Y2509D01*
X3425Y2525D01*
X3475D01*
X3509Y2459D02*
X3542D01*
X3525D01*
Y2525D01*
X3509D01*
X3608Y2542D02*
Y2525D01*
X3592D01*
X3625D01*
X3608D01*
Y2475D01*
X3625Y2459D01*
X3675Y2525D02*
Y2475D01*
X3692Y2459D01*
X3742D01*
Y2442D01*
X3725Y2425D01*
X3708D01*
X3742Y2459D02*
Y2525D01*
X3892Y2459D02*
X3925D01*
X3942Y2475D01*
Y2509D01*
X3925Y2525D01*
X3892D01*
X3875Y2509D01*
Y2475D01*
X3892Y2459D01*
X3992D02*
Y2542D01*
Y2509D01*
X3975D01*
X4008D01*
X3992D01*
Y2542D01*
X4008Y2559D01*
X4158Y2459D02*
Y2559D01*
X4208D01*
X4225Y2542D01*
Y2509D01*
X4208Y2492D01*
X4158D01*
X4308Y2459D02*
X4275D01*
X4258Y2475D01*
Y2509D01*
X4275Y2525D01*
X4308D01*
X4325Y2509D01*
Y2492D01*
X4258D01*
X4358Y2459D02*
Y2525D01*
X4408D01*
X4425Y2509D01*
Y2459D01*
X4458D02*
Y2525D01*
X4508D01*
X4525Y2509D01*
Y2459D01*
X4558D02*
X4608D01*
X4625Y2475D01*
X4608Y2492D01*
X4575D01*
X4558Y2509D01*
X4575Y2525D01*
X4625D01*
X4658D02*
Y2475D01*
X4675Y2459D01*
X4725D01*
Y2442D01*
X4708Y2425D01*
X4691D01*
X4725Y2459D02*
Y2525D01*
X4758Y2459D02*
X4791D01*
X4775D01*
Y2559D01*
X4758D01*
X4841Y2525D02*
X4875Y2459D01*
X4908Y2525D01*
X4958D02*
X4991D01*
X5008Y2509D01*
Y2459D01*
X4958D01*
X4941Y2475D01*
X4958Y2492D01*
X5008D01*
X5041Y2459D02*
Y2525D01*
X5091D01*
X5108Y2509D01*
Y2459D01*
X5141D02*
X5175D01*
X5158D01*
Y2525D01*
X5141D01*
X5241D02*
X5275D01*
X5291Y2509D01*
Y2459D01*
X5241D01*
X5225Y2475D01*
X5241Y2492D01*
X5291D01*
X5500Y3380D02*
X5467D01*
X5483D01*
Y3297D01*
X5467Y3280D01*
X5450D01*
X5433Y3297D01*
X5533Y3280D02*
X5567D01*
X5550D01*
Y3380D01*
X5533Y3363D01*
X6375Y4526D02*
X6324D01*
X6349D01*
Y4399D01*
X6324Y4374D01*
X6298D01*
X6273Y4399D01*
X6527Y4526D02*
X6476Y4501D01*
X6425Y4450D01*
Y4399D01*
X6451Y4374D01*
X6502D01*
X6527Y4399D01*
Y4425D01*
X6502Y4450D01*
X6425D01*
X6425Y776D02*
X6374D01*
X6399D01*
Y649D01*
X6374Y624D01*
X6348D01*
X6323Y649D01*
X6577Y776D02*
X6475D01*
Y700D01*
X6526Y725D01*
X6552D01*
X6577Y700D01*
Y649D01*
X6552Y624D01*
X6501D01*
X6475Y649D01*
X698Y4776D02*
Y4649D01*
X724Y4624D01*
X775D01*
X800Y4649D01*
Y4776D01*
X851Y4624D02*
X902D01*
X876D01*
Y4776D01*
X851Y4751D01*
X5298Y1074D02*
Y1226D01*
X5375D01*
X5400Y1201D01*
Y1150D01*
X5375Y1125D01*
X5298D01*
X5349D02*
X5400Y1074D01*
X5451D02*
X5502D01*
X5476D01*
Y1226D01*
X5451Y1201D01*
X6075Y426D02*
X6024D01*
X6049D01*
Y299D01*
X6024Y274D01*
X5998D01*
X5973Y299D01*
X6125Y401D02*
X6151Y426D01*
X6202D01*
X6227Y401D01*
Y375D01*
X6202Y350D01*
X6176D01*
X6202D01*
X6227Y325D01*
Y299D01*
X6202Y274D01*
X6151D01*
X6125Y299D01*
X2925Y3676D02*
X2874D01*
X2899D01*
Y3549D01*
X2874Y3524D01*
X2848D01*
X2823Y3549D01*
X3052Y3524D02*
Y3676D01*
X2975Y3600D01*
X3077D01*
X3173Y1026D02*
Y899D01*
X3198Y874D01*
X3249D01*
X3275Y899D01*
Y1026D01*
X3427Y874D02*
X3325D01*
X3427Y975D01*
Y1001D01*
X3402Y1026D01*
X3351D01*
X3325Y1001D01*
X4000Y1951D02*
X3975Y1976D01*
X3924D01*
X3898Y1951D01*
Y1925D01*
X3924Y1900D01*
X3975D01*
X4000Y1875D01*
Y1849D01*
X3975Y1824D01*
X3924D01*
X3898Y1849D01*
X4051Y1824D02*
X4102D01*
X4076D01*
Y1976D01*
X4051Y1951D01*
X4323Y1224D02*
Y1376D01*
X4399D01*
X4425Y1351D01*
Y1300D01*
X4399Y1275D01*
X4323D01*
X4374D02*
X4425Y1224D01*
X4577D02*
X4475D01*
X4577Y1325D01*
Y1351D01*
X4552Y1376D01*
X4501D01*
X4475Y1351D01*
M02*
