M48
;Layer_Color=9474304
;FILE_FORMAT=4:2
METRIC,LZ
;TYPE=PLATED
T1F00S00C0.71
T2F00S00C0.90
T3F00S00C1.00
T4F00S00C1.02
T5F00S00C1.05
T6F00S00C1.10
T7F00S00C2.00
T8F00S00C3.00
T9F00S00C3.10
%
T01
X0027Y00155
X00425Y00165
Y00225
X00445Y00105
X00525Y0005
X0057Y0026
X00425Y00375
T02
X004746Y0019
X005
X005254
T03
X002992Y0039
X003246
X0035
X003754
X004008
T04
X000838Y000566
Y000819
Y001073
Y001327
Y001581
Y001835
Y00209
Y002343
Y002598
Y002851
Y003106
Y00336
Y003613
Y003867
X002362
Y003613
Y00336
Y003106
Y002851
Y002598
Y002343
Y00209
Y001835
Y001581
Y001327
Y001073
Y000819
Y000566
Y004122
X000838
T05
X003935Y000308
X003796Y000592
X004073
X00435
X004627
X004904
X004765Y000308
X004488
X004212
X004073Y004408
X00435
X004627
X004904
X004765Y004692
X004488
X004212
X003935
X003796Y004408
T06
X00645Y00115
Y00165
Y00215
Y0029
Y0034
Y0039
T07
X00025Y00025
X00675
Y00475
X00025
T08
X00485Y00375
X00535
T09
X0031Y00045
X005599
Y00455
X0031
M30
