G04*
G04 #@! TF.GenerationSoftware,Altium Limited,Altium Designer,22.8.2 (66)*
G04*
G04 Layer_Physical_Order=2*
G04 Layer_Color=16711680*
%FSLAX42Y42*%
%MOMM*%
G71*
G04*
G04 #@! TF.SameCoordinates,BE8FE92B-6F1C-4FB6-9944-1E67C46C6413*
G04*
G04*
G04 #@! TF.FilePolarity,Positive*
G04*
G01*
G75*
%ADD30C,0.35*%
%ADD31R,1.51X1.51*%
%ADD32C,1.51*%
%ADD33C,4.12*%
%ADD34R,1.58X1.58*%
%ADD35C,1.58*%
%ADD36R,1.21X1.21*%
%ADD37C,1.21*%
%ADD38C,3.50*%
%ADD39C,1.68*%
%ADD40C,1.53*%
%ADD41R,1.53X1.53*%
%ADD42C,1.27*%
%ADD43C,1.00*%
G36*
X7000D02*
X26D01*
Y5000D01*
X7000D01*
Y0D01*
D02*
G37*
%LPC*%
G36*
X6770Y4950D02*
X6730D01*
X6692Y4943D01*
X6655Y4928D01*
X6622Y4906D01*
X6594Y4878D01*
X6572Y4845D01*
X6557Y4808D01*
X6550Y4770D01*
Y4730D01*
X6557Y4692D01*
X6572Y4655D01*
X6594Y4622D01*
X6622Y4594D01*
X6655Y4572D01*
X6692Y4557D01*
X6730Y4550D01*
X6770D01*
X6808Y4557D01*
X6845Y4572D01*
X6878Y4594D01*
X6906Y4622D01*
X6928Y4655D01*
X6943Y4692D01*
X6950Y4730D01*
Y4770D01*
X6943Y4808D01*
X6928Y4845D01*
X6906Y4878D01*
X6878Y4906D01*
X6845Y4928D01*
X6808Y4943D01*
X6770Y4950D01*
D02*
G37*
G36*
X270D02*
X230D01*
X192Y4943D01*
X155Y4928D01*
X122Y4906D01*
X94Y4878D01*
X72Y4845D01*
X57Y4808D01*
X50Y4770D01*
Y4730D01*
X57Y4692D01*
X72Y4655D01*
X94Y4622D01*
X122Y4594D01*
X155Y4572D01*
X192Y4557D01*
X230Y4550D01*
X270D01*
X308Y4557D01*
X345Y4572D01*
X378Y4594D01*
X406Y4622D01*
X428Y4655D01*
X443Y4692D01*
X450Y4730D01*
Y4770D01*
X443Y4808D01*
X428Y4845D01*
X406Y4878D01*
X378Y4906D01*
X345Y4928D01*
X308Y4943D01*
X270Y4950D01*
D02*
G37*
G36*
X5068Y4512D02*
X5067D01*
Y4421D01*
X5158D01*
Y4422D01*
X5151Y4448D01*
X5137Y4472D01*
X5118Y4491D01*
X5094Y4505D01*
X5068Y4512D01*
D02*
G37*
G36*
X5041D02*
X5040D01*
X5014Y4505D01*
X4990Y4491D01*
X4971Y4472D01*
X4957Y4448D01*
X4950Y4422D01*
Y4421D01*
X5041D01*
Y4512D01*
D02*
G37*
G36*
X5158Y4395D02*
X5067D01*
Y4304D01*
X5068D01*
X5094Y4311D01*
X5118Y4325D01*
X5137Y4344D01*
X5151Y4368D01*
X5158Y4394D01*
Y4395D01*
D02*
G37*
G36*
X5041D02*
X4950D01*
Y4394D01*
X4957Y4368D01*
X4971Y4344D01*
X4990Y4325D01*
X5014Y4311D01*
X5040Y4304D01*
X5041D01*
Y4395D01*
D02*
G37*
G36*
X4514Y4512D02*
X4486D01*
X4460Y4505D01*
X4436Y4491D01*
X4417Y4472D01*
X4403Y4448D01*
X4396Y4422D01*
Y4394D01*
X4403Y4368D01*
X4417Y4344D01*
X4436Y4325D01*
X4460Y4311D01*
X4486Y4304D01*
X4514D01*
X4540Y4311D01*
X4564Y4325D01*
X4583Y4344D01*
X4597Y4368D01*
X4604Y4394D01*
Y4422D01*
X4597Y4448D01*
X4583Y4472D01*
X4564Y4491D01*
X4540Y4505D01*
X4514Y4512D01*
D02*
G37*
G36*
X6150Y4926D02*
X2500D01*
X2480Y4923D01*
X2470Y4919D01*
X2462Y4916D01*
X2446Y4904D01*
X2358Y4816D01*
X2346Y4800D01*
X2339Y4782D01*
X2336Y4762D01*
Y4173D01*
X2310D01*
Y3970D01*
X2514D01*
Y4173D01*
X2488D01*
Y4730D01*
X2532Y4774D01*
X3154D01*
X3156Y4761D01*
X3141Y4755D01*
X3103Y4730D01*
X3071Y4697D01*
X3046Y4660D01*
X3028Y4617D01*
X3019Y4573D01*
Y4527D01*
X3028Y4483D01*
X3046Y4440D01*
X3071Y4403D01*
X3103Y4370D01*
X3141Y4345D01*
X3183Y4328D01*
X3228Y4319D01*
X3273D01*
X3318Y4328D01*
X3360Y4345D01*
X3398Y4370D01*
X3430Y4403D01*
X3455Y4440D01*
X3473Y4483D01*
X3482Y4527D01*
Y4573D01*
X3473Y4617D01*
X3455Y4660D01*
X3430Y4697D01*
X3398Y4730D01*
X3360Y4755D01*
X3345Y4761D01*
X3347Y4774D01*
X4003D01*
X4007Y4762D01*
X4001Y4756D01*
X3987Y4732D01*
X3980Y4706D01*
Y4678D01*
X3987Y4652D01*
X4001Y4628D01*
X4021Y4609D01*
X4044Y4595D01*
X4071Y4588D01*
X4098D01*
X4125Y4595D01*
X4148Y4609D01*
X4168Y4628D01*
X4182Y4652D01*
X4189Y4678D01*
Y4706D01*
X4182Y4732D01*
X4168Y4756D01*
X4162Y4762D01*
X4166Y4774D01*
X4280D01*
X4284Y4762D01*
X4278Y4756D01*
X4264Y4732D01*
X4257Y4706D01*
Y4678D01*
X4264Y4652D01*
X4278Y4628D01*
X4298Y4609D01*
X4321Y4595D01*
X4348Y4588D01*
X4375D01*
X4402Y4595D01*
X4425Y4609D01*
X4445Y4628D01*
X4459Y4652D01*
X4466Y4678D01*
Y4706D01*
X4459Y4732D01*
X4445Y4756D01*
X4439Y4762D01*
X4443Y4774D01*
X4557D01*
X4561Y4762D01*
X4555Y4756D01*
X4541Y4732D01*
X4534Y4706D01*
Y4678D01*
X4541Y4652D01*
X4555Y4628D01*
X4575Y4609D01*
X4598Y4595D01*
X4625Y4588D01*
X4652D01*
X4679Y4595D01*
X4702Y4609D01*
X4722Y4628D01*
X4736Y4652D01*
X4743Y4678D01*
Y4706D01*
X4736Y4732D01*
X4722Y4756D01*
X4716Y4762D01*
X4720Y4774D01*
X4834D01*
X4838Y4762D01*
X4832Y4756D01*
X4818Y4732D01*
X4811Y4706D01*
Y4678D01*
X4818Y4652D01*
X4832Y4628D01*
X4852Y4609D01*
X4875Y4595D01*
X4902Y4588D01*
X4929D01*
X4956Y4595D01*
X4979Y4609D01*
X4999Y4628D01*
X5013Y4652D01*
X5020Y4678D01*
Y4706D01*
X5013Y4732D01*
X4999Y4756D01*
X4993Y4762D01*
X4997Y4774D01*
X5653D01*
X5655Y4761D01*
X5640Y4755D01*
X5602Y4730D01*
X5570Y4697D01*
X5545Y4660D01*
X5527Y4617D01*
X5518Y4573D01*
Y4527D01*
X5527Y4483D01*
X5545Y4440D01*
X5570Y4403D01*
X5602Y4370D01*
X5640Y4345D01*
X5682Y4328D01*
X5727Y4319D01*
X5772D01*
X5817Y4328D01*
X5859Y4345D01*
X5897Y4370D01*
X5929Y4403D01*
X5954Y4440D01*
X5972Y4483D01*
X5981Y4527D01*
Y4573D01*
X5972Y4617D01*
X5954Y4660D01*
X5929Y4697D01*
X5897Y4730D01*
X5859Y4755D01*
X5844Y4761D01*
X5846Y4774D01*
X6118D01*
X6174Y4718D01*
Y4185D01*
X6161Y4175D01*
X6150Y4176D01*
X4882D01*
X4853Y4205D01*
Y4337D01*
X4860Y4344D01*
X4874Y4368D01*
X4881Y4394D01*
Y4422D01*
X4874Y4448D01*
X4860Y4472D01*
X4841Y4491D01*
X4817Y4505D01*
X4791Y4512D01*
X4763D01*
X4737Y4505D01*
X4713Y4491D01*
X4694Y4472D01*
X4680Y4448D01*
X4673Y4422D01*
Y4394D01*
X4680Y4368D01*
X4694Y4344D01*
X4701Y4337D01*
Y4173D01*
X4704Y4153D01*
X4711Y4135D01*
X4723Y4119D01*
X4796Y4046D01*
X4812Y4034D01*
X4820Y4031D01*
X4830Y4027D01*
X4850Y4024D01*
X6118D01*
X6174Y3968D01*
Y982D01*
X6118Y926D01*
X4300D01*
X4280Y923D01*
X4270Y919D01*
X4262Y916D01*
X4246Y904D01*
X4180Y838D01*
X4168Y822D01*
X4161Y804D01*
X4158Y784D01*
Y674D01*
X4140Y656D01*
X4126Y632D01*
X4119Y606D01*
Y578D01*
X4126Y552D01*
X4140Y528D01*
X4159Y509D01*
X4183Y495D01*
X4209Y488D01*
X4237D01*
X4263Y495D01*
X4287Y509D01*
X4306Y528D01*
X4320Y552D01*
X4327Y578D01*
Y606D01*
X4320Y632D01*
X4310Y650D01*
Y753D01*
X4332Y774D01*
X6150D01*
X6170Y777D01*
X6188Y784D01*
X6204Y796D01*
X6304Y896D01*
X6316Y912D01*
X6323Y930D01*
X6326Y950D01*
Y4000D01*
Y4750D01*
X6323Y4770D01*
X6319Y4780D01*
X6316Y4788D01*
X6304Y4804D01*
X6204Y4904D01*
X6188Y4916D01*
X6170Y4923D01*
X6150Y4926D01*
D02*
G37*
G36*
X6611Y4286D02*
X6589D01*
X6567Y4280D01*
X6547Y4269D01*
X6531Y4253D01*
X6520Y4233D01*
X6514Y4211D01*
Y4189D01*
X6520Y4167D01*
X6531Y4147D01*
X6547Y4131D01*
X6567Y4120D01*
X6589Y4114D01*
X6611D01*
X6633Y4120D01*
X6653Y4131D01*
X6669Y4147D01*
X6680Y4167D01*
X6686Y4189D01*
Y4211D01*
X6680Y4233D01*
X6669Y4253D01*
X6653Y4269D01*
X6633Y4280D01*
X6611Y4286D01*
D02*
G37*
G36*
X990Y4173D02*
X786D01*
Y3970D01*
X990D01*
Y4173D01*
D02*
G37*
G36*
X6611Y4086D02*
X6589D01*
X6567Y4080D01*
X6547Y4069D01*
X6531Y4053D01*
X6520Y4033D01*
X6514Y4011D01*
Y3989D01*
X6520Y3967D01*
X6531Y3947D01*
X6547Y3931D01*
X6567Y3920D01*
X6589Y3914D01*
X6611D01*
X6633Y3920D01*
X6653Y3931D01*
X6669Y3947D01*
X6680Y3967D01*
X6686Y3989D01*
Y4011D01*
X6680Y4033D01*
X6669Y4053D01*
X6653Y4069D01*
X6633Y4080D01*
X6611Y4086D01*
D02*
G37*
G36*
X2425Y3919D02*
X2425D01*
Y3830D01*
X2514D01*
Y3831D01*
X2507Y3857D01*
X2494Y3880D01*
X2475Y3899D01*
X2451Y3912D01*
X2425Y3919D01*
D02*
G37*
G36*
X2399D02*
X2399D01*
X2373Y3912D01*
X2349Y3899D01*
X2330Y3880D01*
X2317Y3857D01*
X2310Y3831D01*
Y3830D01*
X2399D01*
Y3919D01*
D02*
G37*
G36*
X2514Y3805D02*
X2425D01*
Y3716D01*
X2425D01*
X2451Y3723D01*
X2475Y3736D01*
X2494Y3755D01*
X2507Y3778D01*
X2514Y3804D01*
Y3805D01*
D02*
G37*
G36*
X2399D02*
X2310D01*
Y3804D01*
X2317Y3778D01*
X2330Y3755D01*
X2349Y3736D01*
X2373Y3723D01*
X2399Y3716D01*
X2399D01*
Y3805D01*
D02*
G37*
G36*
X901Y3919D02*
X875D01*
X849Y3912D01*
X825Y3899D01*
X806Y3880D01*
X793Y3857D01*
X786Y3831D01*
Y3804D01*
X793Y3778D01*
X806Y3755D01*
X825Y3736D01*
X849Y3723D01*
X875Y3716D01*
X901D01*
X927Y3723D01*
X951Y3736D01*
X970Y3755D01*
X983Y3778D01*
X990Y3804D01*
Y3831D01*
X983Y3857D01*
X970Y3880D01*
X951Y3899D01*
X927Y3912D01*
X901Y3919D01*
D02*
G37*
G36*
X6611Y3886D02*
X6589D01*
X6567Y3880D01*
X6547Y3869D01*
X6531Y3853D01*
X6520Y3833D01*
X6514Y3811D01*
Y3789D01*
X6520Y3767D01*
X6531Y3747D01*
X6547Y3731D01*
X6567Y3720D01*
X6589Y3714D01*
X6611D01*
X6633Y3720D01*
X6653Y3731D01*
X6669Y3747D01*
X6680Y3767D01*
X6686Y3789D01*
Y3811D01*
X6680Y3833D01*
X6669Y3853D01*
X6653Y3869D01*
X6633Y3880D01*
X6611Y3886D01*
D02*
G37*
G36*
Y3686D02*
X6589D01*
X6567Y3680D01*
X6547Y3669D01*
X6531Y3653D01*
X6520Y3633D01*
X6514Y3611D01*
Y3589D01*
X6520Y3567D01*
X6531Y3547D01*
X6547Y3531D01*
X6567Y3520D01*
X6589Y3514D01*
X6611D01*
X6633Y3520D01*
X6653Y3531D01*
X6669Y3547D01*
X6680Y3567D01*
X6686Y3589D01*
Y3611D01*
X6680Y3633D01*
X6669Y3653D01*
X6653Y3669D01*
X6633Y3680D01*
X6611Y3686D01*
D02*
G37*
G36*
X2425Y3665D02*
X2399D01*
X2373Y3658D01*
X2349Y3645D01*
X2330Y3626D01*
X2317Y3603D01*
X2310Y3577D01*
Y3550D01*
X2317Y3524D01*
X2330Y3501D01*
X2349Y3482D01*
X2373Y3469D01*
X2399Y3462D01*
X2425D01*
X2451Y3469D01*
X2475Y3482D01*
X2494Y3501D01*
X2507Y3524D01*
X2514Y3550D01*
Y3577D01*
X2507Y3603D01*
X2494Y3626D01*
X2475Y3645D01*
X2451Y3658D01*
X2425Y3665D01*
D02*
G37*
G36*
X901D02*
X875D01*
X849Y3658D01*
X825Y3645D01*
X806Y3626D01*
X793Y3603D01*
X786Y3577D01*
Y3550D01*
X793Y3524D01*
X806Y3501D01*
X825Y3482D01*
X849Y3469D01*
X875Y3462D01*
X901D01*
X927Y3469D01*
X951Y3482D01*
X970Y3501D01*
X983Y3524D01*
X990Y3550D01*
Y3577D01*
X983Y3603D01*
X970Y3626D01*
X951Y3645D01*
X927Y3658D01*
X901Y3665D01*
D02*
G37*
G36*
X6611Y3486D02*
X6589D01*
X6567Y3480D01*
X6547Y3469D01*
X6531Y3453D01*
X6520Y3433D01*
X6514Y3411D01*
Y3389D01*
X6520Y3367D01*
X6531Y3347D01*
X6547Y3331D01*
X6567Y3320D01*
X6589Y3314D01*
X6611D01*
X6633Y3320D01*
X6653Y3331D01*
X6669Y3347D01*
X6680Y3367D01*
X6686Y3389D01*
Y3411D01*
X6680Y3433D01*
X6669Y3453D01*
X6653Y3469D01*
X6633Y3480D01*
X6611Y3486D01*
D02*
G37*
G36*
X3201Y3499D02*
X2999D01*
Y3297D01*
X3201D01*
Y3499D01*
D02*
G37*
G36*
X6613Y3285D02*
Y3213D01*
X6685D01*
X6680Y3233D01*
X6669Y3253D01*
X6653Y3269D01*
X6633Y3280D01*
X6613Y3285D01*
D02*
G37*
G36*
X6587D02*
X6567Y3280D01*
X6547Y3269D01*
X6531Y3253D01*
X6520Y3233D01*
X6515Y3213D01*
X6587D01*
Y3285D01*
D02*
G37*
G36*
X2425Y3411D02*
X2399D01*
X2373Y3404D01*
X2349Y3391D01*
X2330Y3372D01*
X2317Y3349D01*
X2310Y3323D01*
Y3296D01*
X2317Y3270D01*
X2330Y3247D01*
X2349Y3228D01*
X2373Y3215D01*
X2399Y3208D01*
X2425D01*
X2451Y3215D01*
X2475Y3228D01*
X2494Y3247D01*
X2507Y3270D01*
X2514Y3296D01*
Y3323D01*
X2507Y3349D01*
X2494Y3372D01*
X2475Y3391D01*
X2451Y3404D01*
X2425Y3411D01*
D02*
G37*
G36*
X901D02*
X875D01*
X849Y3404D01*
X825Y3391D01*
X806Y3372D01*
X793Y3349D01*
X786Y3323D01*
Y3296D01*
X793Y3270D01*
X806Y3247D01*
X825Y3228D01*
X849Y3215D01*
X875Y3208D01*
X901D01*
X927Y3215D01*
X951Y3228D01*
X970Y3247D01*
X983Y3270D01*
X990Y3296D01*
Y3323D01*
X983Y3349D01*
X970Y3372D01*
X951Y3391D01*
X927Y3404D01*
X901Y3411D01*
D02*
G37*
G36*
X6685Y3187D02*
X6613D01*
Y3115D01*
X6633Y3120D01*
X6653Y3131D01*
X6669Y3147D01*
X6680Y3167D01*
X6685Y3187D01*
D02*
G37*
G36*
X6587D02*
X6515D01*
X6520Y3167D01*
X6531Y3147D01*
X6547Y3131D01*
X6567Y3120D01*
X6587Y3115D01*
Y3187D01*
D02*
G37*
G36*
X3113Y3245D02*
X3087D01*
X3061Y3238D01*
X3038Y3225D01*
X3019Y3206D01*
X3006Y3183D01*
X2999Y3157D01*
Y3131D01*
X3006Y3105D01*
X3019Y3082D01*
X3038Y3063D01*
X3061Y3050D01*
X3087Y3043D01*
X3113D01*
X3139Y3050D01*
X3162Y3063D01*
X3181Y3082D01*
X3194Y3105D01*
X3201Y3131D01*
Y3157D01*
X3194Y3183D01*
X3181Y3206D01*
X3162Y3225D01*
X3139Y3238D01*
X3113Y3245D01*
D02*
G37*
G36*
X2425Y3157D02*
X2399D01*
X2373Y3150D01*
X2349Y3137D01*
X2330Y3118D01*
X2317Y3095D01*
X2310Y3069D01*
Y3042D01*
X2317Y3016D01*
X2330Y2993D01*
X2349Y2974D01*
X2373Y2961D01*
X2399Y2954D01*
X2425D01*
X2451Y2961D01*
X2475Y2974D01*
X2494Y2993D01*
X2507Y3016D01*
X2514Y3042D01*
Y3069D01*
X2507Y3095D01*
X2494Y3118D01*
X2475Y3137D01*
X2451Y3150D01*
X2425Y3157D01*
D02*
G37*
G36*
X901D02*
X875D01*
X849Y3150D01*
X825Y3137D01*
X806Y3118D01*
X793Y3095D01*
X786Y3069D01*
Y3042D01*
X793Y3016D01*
X806Y2993D01*
X825Y2974D01*
X849Y2961D01*
X875Y2954D01*
X901D01*
X927Y2961D01*
X951Y2974D01*
X970Y2993D01*
X983Y3016D01*
X990Y3042D01*
Y3069D01*
X983Y3095D01*
X970Y3118D01*
X951Y3137D01*
X927Y3150D01*
X901Y3157D01*
D02*
G37*
G36*
X6611Y3086D02*
X6589D01*
X6567Y3080D01*
X6547Y3069D01*
X6531Y3053D01*
X6520Y3033D01*
X6514Y3011D01*
Y2989D01*
X6520Y2967D01*
X6531Y2947D01*
X6547Y2931D01*
X6567Y2920D01*
X6589Y2914D01*
X6611D01*
X6633Y2920D01*
X6653Y2931D01*
X6669Y2947D01*
X6680Y2967D01*
X6686Y2989D01*
Y3011D01*
X6680Y3033D01*
X6669Y3053D01*
X6653Y3069D01*
X6633Y3080D01*
X6611Y3086D01*
D02*
G37*
G36*
X3113Y2991D02*
X3087D01*
X3061Y2984D01*
X3038Y2971D01*
X3019Y2952D01*
X3006Y2929D01*
X2999Y2903D01*
Y2877D01*
X3006Y2851D01*
X3019Y2828D01*
X3038Y2809D01*
X3061Y2796D01*
X3087Y2789D01*
X3113D01*
X3139Y2796D01*
X3162Y2809D01*
X3181Y2828D01*
X3194Y2851D01*
X3201Y2877D01*
Y2903D01*
X3194Y2929D01*
X3181Y2952D01*
X3162Y2971D01*
X3139Y2984D01*
X3113Y2991D01*
D02*
G37*
G36*
X6686Y2886D02*
X6514D01*
Y2714D01*
X6686D01*
Y2886D01*
D02*
G37*
G36*
X2425Y2903D02*
X2399D01*
X2373Y2896D01*
X2349Y2883D01*
X2330Y2864D01*
X2317Y2841D01*
X2310Y2815D01*
Y2788D01*
X2317Y2762D01*
X2330Y2739D01*
X2349Y2720D01*
X2373Y2707D01*
X2399Y2700D01*
X2425D01*
X2451Y2707D01*
X2475Y2720D01*
X2494Y2739D01*
X2507Y2762D01*
X2514Y2788D01*
Y2815D01*
X2507Y2841D01*
X2494Y2864D01*
X2475Y2883D01*
X2451Y2896D01*
X2425Y2903D01*
D02*
G37*
G36*
X901D02*
X875D01*
X849Y2896D01*
X825Y2883D01*
X806Y2864D01*
X793Y2841D01*
X786Y2815D01*
Y2788D01*
X793Y2762D01*
X806Y2739D01*
X825Y2720D01*
X849Y2707D01*
X875Y2700D01*
X901D01*
X927Y2707D01*
X951Y2720D01*
X970Y2739D01*
X983Y2762D01*
X990Y2788D01*
Y2815D01*
X983Y2841D01*
X970Y2864D01*
X951Y2883D01*
X927Y2896D01*
X901Y2903D01*
D02*
G37*
G36*
X3113Y2737D02*
X3087D01*
X3061Y2730D01*
X3038Y2717D01*
X3019Y2698D01*
X3011Y2684D01*
X2830D01*
X2813Y2680D01*
X2799Y2671D01*
X2769Y2641D01*
X2760Y2627D01*
X2756Y2610D01*
Y2128D01*
X2711Y2083D01*
X2504D01*
X2494Y2102D01*
X2475Y2121D01*
X2451Y2134D01*
X2425Y2141D01*
X2399D01*
X2373Y2134D01*
X2349Y2121D01*
X2330Y2102D01*
X2317Y2079D01*
X2310Y2053D01*
Y2026D01*
X2317Y2000D01*
X2330Y1977D01*
X2349Y1958D01*
X2373Y1945D01*
X2399Y1938D01*
X2425D01*
X2451Y1945D01*
X2475Y1958D01*
X2494Y1977D01*
X2504Y1996D01*
X2730D01*
X2746Y1999D01*
X2760Y2009D01*
X2831Y2079D01*
X2840Y2093D01*
X2844Y2110D01*
Y2592D01*
X2848Y2596D01*
X3007D01*
X3019Y2574D01*
X3038Y2555D01*
X3061Y2542D01*
X3087Y2535D01*
X3113D01*
X3139Y2542D01*
X3162Y2555D01*
X3181Y2574D01*
X3194Y2597D01*
X3201Y2623D01*
Y2649D01*
X3194Y2675D01*
X3181Y2698D01*
X3162Y2717D01*
X3139Y2730D01*
X3113Y2737D01*
D02*
G37*
G36*
X2425Y2649D02*
X2399D01*
X2373Y2642D01*
X2349Y2629D01*
X2330Y2610D01*
X2317Y2587D01*
X2310Y2561D01*
Y2534D01*
X2317Y2508D01*
X2330Y2485D01*
X2349Y2466D01*
X2373Y2453D01*
X2399Y2446D01*
X2425D01*
X2451Y2453D01*
X2475Y2466D01*
X2494Y2485D01*
X2507Y2508D01*
X2514Y2534D01*
Y2561D01*
X2507Y2587D01*
X2494Y2610D01*
X2475Y2629D01*
X2451Y2642D01*
X2425Y2649D01*
D02*
G37*
G36*
X901D02*
X875D01*
X849Y2642D01*
X825Y2629D01*
X806Y2610D01*
X793Y2587D01*
X786Y2561D01*
Y2534D01*
X793Y2508D01*
X806Y2485D01*
X825Y2466D01*
X849Y2453D01*
X875Y2446D01*
X901D01*
X927Y2453D01*
X951Y2466D01*
X970Y2485D01*
X983Y2508D01*
X990Y2534D01*
Y2561D01*
X983Y2587D01*
X970Y2610D01*
X951Y2629D01*
X927Y2642D01*
X901Y2649D01*
D02*
G37*
G36*
X3113Y2483D02*
X3087D01*
X3061Y2476D01*
X3038Y2463D01*
X3019Y2444D01*
X3006Y2421D01*
X2999Y2395D01*
Y2369D01*
X3006Y2343D01*
X3019Y2320D01*
X3038Y2301D01*
X3061Y2288D01*
X3087Y2281D01*
X3113D01*
X3139Y2288D01*
X3162Y2301D01*
X3181Y2320D01*
X3194Y2343D01*
X3201Y2369D01*
Y2395D01*
X3194Y2421D01*
X3181Y2444D01*
X3162Y2463D01*
X3139Y2476D01*
X3113Y2483D01*
D02*
G37*
G36*
X2425Y2395D02*
X2399D01*
X2373Y2388D01*
X2349Y2375D01*
X2330Y2356D01*
X2317Y2333D01*
X2310Y2307D01*
Y2280D01*
X2317Y2254D01*
X2330Y2231D01*
X2349Y2212D01*
X2373Y2199D01*
X2399Y2192D01*
X2425D01*
X2451Y2199D01*
X2475Y2212D01*
X2494Y2231D01*
X2507Y2254D01*
X2514Y2280D01*
Y2307D01*
X2507Y2333D01*
X2494Y2356D01*
X2475Y2375D01*
X2451Y2388D01*
X2425Y2395D01*
D02*
G37*
G36*
X901D02*
X875D01*
X849Y2388D01*
X825Y2375D01*
X806Y2356D01*
X793Y2333D01*
X786Y2307D01*
Y2280D01*
X793Y2254D01*
X806Y2231D01*
X825Y2212D01*
X849Y2199D01*
X875Y2192D01*
X901D01*
X927Y2199D01*
X951Y2212D01*
X970Y2231D01*
X983Y2254D01*
X990Y2280D01*
Y2307D01*
X983Y2333D01*
X970Y2356D01*
X951Y2375D01*
X927Y2388D01*
X901Y2395D01*
D02*
G37*
G36*
Y2141D02*
X875D01*
X849Y2134D01*
X825Y2121D01*
X806Y2102D01*
X793Y2079D01*
X786Y2053D01*
Y2026D01*
X793Y2000D01*
X806Y1977D01*
X825Y1958D01*
X849Y1945D01*
X875Y1938D01*
X901D01*
X927Y1945D01*
X951Y1958D01*
X970Y1977D01*
X983Y2000D01*
X990Y2026D01*
Y2053D01*
X983Y2079D01*
X970Y2102D01*
X951Y2121D01*
X927Y2134D01*
X901Y2141D01*
D02*
G37*
G36*
X4237Y4512D02*
X4209D01*
X4183Y4505D01*
X4159Y4491D01*
X4140Y4472D01*
X4126Y4448D01*
X4119Y4422D01*
Y4394D01*
X4126Y4368D01*
X4140Y4344D01*
X4159Y4325D01*
X4179Y4313D01*
Y2077D01*
X4183Y2060D01*
X4192Y2046D01*
X4219Y2019D01*
X4233Y2010D01*
X4250Y2006D01*
X4839D01*
Y1964D01*
X4829Y1955D01*
X4817Y1934D01*
X4811Y1912D01*
Y1888D01*
X4817Y1866D01*
X4829Y1845D01*
X4845Y1829D01*
X4866Y1817D01*
X4888Y1811D01*
X4912D01*
X4934Y1817D01*
X4955Y1829D01*
X4971Y1845D01*
X4983Y1866D01*
X4989Y1888D01*
Y1912D01*
X4983Y1934D01*
X4971Y1955D01*
X4955Y1971D01*
X4934Y1983D01*
X4926Y1985D01*
Y2029D01*
X4923Y2046D01*
X4913Y2060D01*
X4893Y2081D01*
X4879Y2090D01*
X4862Y2094D01*
X4268D01*
X4267Y2095D01*
Y4313D01*
X4287Y4325D01*
X4306Y4344D01*
X4320Y4368D01*
X4327Y4394D01*
Y4422D01*
X4320Y4448D01*
X4306Y4472D01*
X4287Y4491D01*
X4263Y4505D01*
X4237Y4512D01*
D02*
G37*
G36*
X3113Y1975D02*
X3087D01*
X3061Y1968D01*
X3038Y1955D01*
X3019Y1936D01*
X3006Y1913D01*
X2999Y1887D01*
Y1861D01*
X3006Y1835D01*
X3019Y1812D01*
X3038Y1793D01*
X3061Y1780D01*
X3087Y1773D01*
X3113D01*
X3139Y1780D01*
X3162Y1793D01*
X3181Y1812D01*
X3194Y1835D01*
X3201Y1861D01*
Y1887D01*
X3194Y1913D01*
X3181Y1936D01*
X3162Y1955D01*
X3139Y1968D01*
X3113Y1975D01*
D02*
G37*
G36*
X2425Y1887D02*
X2399D01*
X2373Y1880D01*
X2349Y1867D01*
X2330Y1848D01*
X2317Y1825D01*
X2310Y1799D01*
Y1772D01*
X2317Y1746D01*
X2330Y1723D01*
X2349Y1704D01*
X2373Y1691D01*
X2399Y1684D01*
X2425D01*
X2451Y1691D01*
X2475Y1704D01*
X2494Y1723D01*
X2507Y1746D01*
X2514Y1772D01*
Y1799D01*
X2507Y1825D01*
X2494Y1848D01*
X2475Y1867D01*
X2451Y1880D01*
X2425Y1887D01*
D02*
G37*
G36*
X901D02*
X875D01*
X849Y1880D01*
X825Y1867D01*
X806Y1848D01*
X793Y1825D01*
X786Y1799D01*
Y1772D01*
X793Y1746D01*
X806Y1723D01*
X825Y1704D01*
X849Y1691D01*
X875Y1684D01*
X901D01*
X927Y1691D01*
X951Y1704D01*
X970Y1723D01*
X983Y1746D01*
X990Y1772D01*
Y1799D01*
X983Y1825D01*
X970Y1848D01*
X951Y1867D01*
X927Y1880D01*
X901Y1887D01*
D02*
G37*
G36*
X3113Y1721D02*
X3113D01*
Y1633D01*
X3201D01*
Y1633D01*
X3194Y1659D01*
X3181Y1682D01*
X3162Y1701D01*
X3139Y1714D01*
X3113Y1721D01*
D02*
G37*
G36*
X3087D02*
X3087D01*
X3061Y1714D01*
X3038Y1701D01*
X3019Y1682D01*
X3006Y1659D01*
X2999Y1633D01*
Y1633D01*
X3087D01*
Y1721D01*
D02*
G37*
G36*
X3201Y1607D02*
X3113D01*
Y1519D01*
X3113D01*
X3139Y1526D01*
X3162Y1539D01*
X3181Y1558D01*
X3194Y1581D01*
X3201Y1607D01*
Y1607D01*
D02*
G37*
G36*
X3087D02*
X2999D01*
Y1607D01*
X3006Y1581D01*
X3019Y1558D01*
X3038Y1539D01*
X3061Y1526D01*
X3087Y1519D01*
X3087D01*
Y1607D01*
D02*
G37*
G36*
X2425Y1633D02*
X2399D01*
X2373Y1626D01*
X2349Y1613D01*
X2330Y1594D01*
X2317Y1571D01*
X2310Y1545D01*
Y1518D01*
X2317Y1492D01*
X2330Y1469D01*
X2349Y1450D01*
X2373Y1437D01*
X2399Y1430D01*
X2425D01*
X2451Y1437D01*
X2475Y1450D01*
X2494Y1469D01*
X2507Y1492D01*
X2514Y1518D01*
Y1545D01*
X2507Y1571D01*
X2494Y1594D01*
X2475Y1613D01*
X2451Y1626D01*
X2425Y1633D01*
D02*
G37*
G36*
X901D02*
X875D01*
X849Y1626D01*
X825Y1613D01*
X806Y1594D01*
X793Y1571D01*
X786Y1545D01*
Y1518D01*
X793Y1492D01*
X806Y1469D01*
X825Y1450D01*
X849Y1437D01*
X875Y1430D01*
X901D01*
X927Y1437D01*
X951Y1450D01*
X970Y1469D01*
X983Y1492D01*
X990Y1518D01*
Y1545D01*
X983Y1571D01*
X970Y1594D01*
X951Y1613D01*
X927Y1626D01*
X901Y1633D01*
D02*
G37*
G36*
X3113Y1389D02*
Y1313D01*
X3189D01*
X3183Y1334D01*
X3171Y1355D01*
X3155Y1371D01*
X3134Y1383D01*
X3113Y1389D01*
D02*
G37*
G36*
X3087D02*
X3066Y1383D01*
X3045Y1371D01*
X3029Y1355D01*
X3017Y1334D01*
X3011Y1313D01*
X3087D01*
Y1389D01*
D02*
G37*
G36*
X3189Y1287D02*
X3113D01*
Y1211D01*
X3134Y1217D01*
X3155Y1229D01*
X3171Y1245D01*
X3183Y1266D01*
X3189Y1287D01*
D02*
G37*
G36*
X3087D02*
X3011D01*
X3017Y1266D01*
X3029Y1245D01*
X3045Y1229D01*
X3066Y1217D01*
X3087Y1211D01*
Y1287D01*
D02*
G37*
G36*
X5514Y1409D02*
X5486D01*
X5458Y1402D01*
X5433Y1387D01*
X5413Y1367D01*
X5398Y1342D01*
X5391Y1314D01*
Y1286D01*
X5398Y1258D01*
X5413Y1233D01*
X5433Y1213D01*
X5458Y1198D01*
X5486Y1191D01*
X5514D01*
X5542Y1198D01*
X5567Y1213D01*
X5587Y1233D01*
X5602Y1258D01*
X5609Y1286D01*
Y1314D01*
X5602Y1342D01*
X5587Y1367D01*
X5567Y1387D01*
X5542Y1402D01*
X5514Y1409D01*
D02*
G37*
G36*
X4050Y4512D02*
X3842D01*
Y4304D01*
X3902D01*
Y1704D01*
X3906Y1687D01*
X3915Y1673D01*
X3969Y1619D01*
X3983Y1610D01*
X4000Y1606D01*
X4423D01*
X4429Y1595D01*
X4445Y1579D01*
X4466Y1567D01*
X4488Y1561D01*
X4512D01*
X4534Y1567D01*
X4555Y1579D01*
X4571Y1595D01*
X4577Y1606D01*
X5182D01*
X5206Y1582D01*
Y1402D01*
X5204Y1402D01*
X5179Y1387D01*
X5159Y1367D01*
X5144Y1342D01*
X5137Y1314D01*
Y1286D01*
X5144Y1258D01*
X5159Y1233D01*
X5179Y1213D01*
X5204Y1198D01*
X5232Y1191D01*
X5260D01*
X5288Y1198D01*
X5313Y1213D01*
X5333Y1233D01*
X5348Y1258D01*
X5355Y1286D01*
Y1314D01*
X5348Y1342D01*
X5333Y1367D01*
X5313Y1387D01*
X5294Y1399D01*
Y1600D01*
X5290Y1617D01*
X5281Y1631D01*
X5231Y1681D01*
X5217Y1690D01*
X5200Y1694D01*
X4577D01*
X4571Y1705D01*
X4555Y1721D01*
X4534Y1733D01*
X4512Y1739D01*
X4488D01*
X4466Y1733D01*
X4445Y1721D01*
X4429Y1705D01*
X4423Y1694D01*
X4018D01*
X3990Y1722D01*
Y4304D01*
X4050D01*
Y4512D01*
D02*
G37*
G36*
X5006Y1409D02*
X4978D01*
X4950Y1402D01*
X4925Y1387D01*
X4905Y1367D01*
X4890Y1342D01*
X4883Y1314D01*
Y1286D01*
X4890Y1258D01*
X4905Y1233D01*
X4925Y1213D01*
X4950Y1198D01*
X4978Y1191D01*
X5006D01*
X5034Y1198D01*
X5059Y1213D01*
X5079Y1233D01*
X5094Y1258D01*
X5101Y1286D01*
Y1314D01*
X5094Y1342D01*
X5079Y1367D01*
X5059Y1387D01*
X5034Y1402D01*
X5006Y1409D01*
D02*
G37*
G36*
X2425Y1379D02*
X2399D01*
X2373Y1372D01*
X2349Y1359D01*
X2330Y1340D01*
X2317Y1317D01*
X2310Y1291D01*
Y1264D01*
X2317Y1238D01*
X2330Y1215D01*
X2349Y1196D01*
X2373Y1183D01*
X2399Y1176D01*
X2425D01*
X2451Y1183D01*
X2475Y1196D01*
X2494Y1215D01*
X2507Y1238D01*
X2514Y1264D01*
Y1291D01*
X2507Y1317D01*
X2494Y1340D01*
X2475Y1359D01*
X2451Y1372D01*
X2425Y1379D01*
D02*
G37*
G36*
X901D02*
X875D01*
X849Y1372D01*
X825Y1359D01*
X806Y1340D01*
X793Y1317D01*
X786Y1291D01*
Y1264D01*
X793Y1238D01*
X806Y1215D01*
X825Y1196D01*
X849Y1183D01*
X875Y1176D01*
X901D01*
X927Y1183D01*
X951Y1196D01*
X970Y1215D01*
X983Y1238D01*
X990Y1264D01*
Y1291D01*
X983Y1317D01*
X970Y1340D01*
X951Y1359D01*
X927Y1372D01*
X901Y1379D01*
D02*
G37*
G36*
X2425Y1125D02*
X2399D01*
X2373Y1118D01*
X2349Y1105D01*
X2330Y1086D01*
X2317Y1063D01*
X2310Y1037D01*
Y1010D01*
X2317Y984D01*
X2330Y961D01*
X2349Y942D01*
X2373Y929D01*
X2399Y922D01*
X2425D01*
X2451Y929D01*
X2475Y942D01*
X2494Y961D01*
X2507Y984D01*
X2514Y1010D01*
Y1037D01*
X2507Y1063D01*
X2494Y1086D01*
X2475Y1105D01*
X2451Y1118D01*
X2425Y1125D01*
D02*
G37*
G36*
X901D02*
X875D01*
X849Y1118D01*
X825Y1105D01*
X806Y1086D01*
X793Y1063D01*
X786Y1037D01*
Y1010D01*
X793Y984D01*
X806Y961D01*
X825Y942D01*
X849Y929D01*
X875Y922D01*
X901D01*
X927Y929D01*
X951Y942D01*
X970Y961D01*
X983Y984D01*
X990Y1010D01*
Y1037D01*
X983Y1063D01*
X970Y1086D01*
X951Y1105D01*
X927Y1118D01*
X901Y1125D01*
D02*
G37*
G36*
X3113Y2229D02*
X3087D01*
X3061Y2222D01*
X3038Y2209D01*
X3019Y2190D01*
X3006Y2167D01*
X2999Y2141D01*
Y2115D01*
X3006Y2089D01*
X3019Y2066D01*
X3038Y2047D01*
X3061Y2034D01*
X3087Y2027D01*
X3113D01*
X3139Y2034D01*
X3162Y2047D01*
X3181Y2066D01*
X3191Y2084D01*
X3254D01*
X3276Y2062D01*
Y838D01*
X3251Y813D01*
X2504D01*
X2494Y832D01*
X2475Y851D01*
X2451Y864D01*
X2425Y871D01*
X2399D01*
X2373Y864D01*
X2349Y851D01*
X2330Y832D01*
X2317Y809D01*
X2310Y783D01*
Y756D01*
X2317Y730D01*
X2330Y707D01*
X2349Y688D01*
X2373Y675D01*
X2399Y668D01*
X2425D01*
X2451Y675D01*
X2475Y688D01*
X2494Y707D01*
X2504Y726D01*
X3269D01*
X3286Y729D01*
X3300Y739D01*
X3350Y789D01*
X3360Y803D01*
X3363Y819D01*
Y2081D01*
X3360Y2097D01*
X3350Y2111D01*
X3303Y2159D01*
X3289Y2168D01*
X3272Y2172D01*
X3191D01*
X3181Y2190D01*
X3162Y2209D01*
X3139Y2222D01*
X3113Y2229D01*
D02*
G37*
G36*
X901Y871D02*
X875D01*
X849Y864D01*
X825Y851D01*
X806Y832D01*
X793Y809D01*
X786Y783D01*
Y756D01*
X793Y730D01*
X806Y707D01*
X825Y688D01*
X849Y675D01*
X875Y668D01*
X901D01*
X927Y675D01*
X951Y688D01*
X970Y707D01*
X983Y730D01*
X990Y756D01*
Y783D01*
X983Y809D01*
X970Y832D01*
X951Y851D01*
X927Y864D01*
X901Y871D01*
D02*
G37*
G36*
X3960Y696D02*
X3959D01*
Y605D01*
X4050D01*
Y606D01*
X4043Y632D01*
X4029Y656D01*
X4010Y675D01*
X3986Y689D01*
X3960Y696D01*
D02*
G37*
G36*
X3933D02*
X3932D01*
X3906Y689D01*
X3882Y675D01*
X3863Y656D01*
X3849Y632D01*
X3842Y606D01*
Y605D01*
X3933D01*
Y696D01*
D02*
G37*
G36*
X5158D02*
X4950D01*
Y488D01*
X5158D01*
Y696D01*
D02*
G37*
G36*
X4791D02*
X4763D01*
X4737Y689D01*
X4713Y675D01*
X4694Y656D01*
X4680Y632D01*
X4673Y606D01*
Y578D01*
X4680Y552D01*
X4694Y528D01*
X4713Y509D01*
X4737Y495D01*
X4763Y488D01*
X4791D01*
X4817Y495D01*
X4841Y509D01*
X4860Y528D01*
X4874Y552D01*
X4881Y578D01*
Y606D01*
X4874Y632D01*
X4860Y656D01*
X4841Y675D01*
X4817Y689D01*
X4791Y696D01*
D02*
G37*
G36*
X4514D02*
X4486D01*
X4460Y689D01*
X4436Y675D01*
X4417Y656D01*
X4403Y632D01*
X4396Y606D01*
Y578D01*
X4403Y552D01*
X4417Y528D01*
X4436Y509D01*
X4460Y495D01*
X4486Y488D01*
X4514D01*
X4540Y495D01*
X4564Y509D01*
X4583Y528D01*
X4597Y552D01*
X4604Y578D01*
Y606D01*
X4597Y632D01*
X4583Y656D01*
X4564Y675D01*
X4540Y689D01*
X4514Y696D01*
D02*
G37*
G36*
X4050Y579D02*
X3959D01*
Y488D01*
X3960D01*
X3986Y495D01*
X4010Y509D01*
X4029Y528D01*
X4043Y552D01*
X4050Y578D01*
Y579D01*
D02*
G37*
G36*
X3933D02*
X3842D01*
Y578D01*
X3849Y552D01*
X3863Y528D01*
X3882Y509D01*
X3906Y495D01*
X3932Y488D01*
X3933D01*
Y579D01*
D02*
G37*
G36*
X2425Y617D02*
X2399D01*
X2373Y610D01*
X2349Y597D01*
X2330Y578D01*
X2317Y555D01*
X2310Y529D01*
Y502D01*
X2317Y476D01*
X2330Y453D01*
X2349Y434D01*
X2373Y421D01*
X2399Y414D01*
X2425D01*
X2451Y421D01*
X2475Y434D01*
X2494Y453D01*
X2507Y476D01*
X2514Y502D01*
Y529D01*
X2507Y555D01*
X2494Y578D01*
X2475Y597D01*
X2451Y610D01*
X2425Y617D01*
D02*
G37*
G36*
X901D02*
X875D01*
X849Y610D01*
X825Y597D01*
X806Y578D01*
X793Y555D01*
X786Y529D01*
Y502D01*
X793Y476D01*
X806Y453D01*
X825Y434D01*
X849Y421D01*
X875Y414D01*
X901D01*
X927Y421D01*
X951Y434D01*
X970Y453D01*
X983Y476D01*
X990Y502D01*
Y529D01*
X983Y555D01*
X970Y578D01*
X951Y597D01*
X927Y610D01*
X901Y617D01*
D02*
G37*
G36*
X5772Y681D02*
X5727D01*
X5682Y672D01*
X5640Y655D01*
X5602Y630D01*
X5570Y597D01*
X5545Y560D01*
X5527Y517D01*
X5518Y473D01*
Y427D01*
X5527Y383D01*
X5545Y340D01*
X5570Y303D01*
X5602Y270D01*
X5640Y245D01*
X5682Y228D01*
X5727Y219D01*
X5772D01*
X5817Y228D01*
X5859Y245D01*
X5897Y270D01*
X5929Y303D01*
X5954Y340D01*
X5972Y383D01*
X5981Y427D01*
Y473D01*
X5972Y517D01*
X5954Y560D01*
X5929Y597D01*
X5897Y630D01*
X5859Y655D01*
X5817Y672D01*
X5772Y681D01*
D02*
G37*
G36*
X3273D02*
X3228D01*
X3183Y672D01*
X3141Y655D01*
X3103Y630D01*
X3071Y597D01*
X3046Y560D01*
X3028Y517D01*
X3019Y473D01*
Y427D01*
X3028Y383D01*
X3046Y340D01*
X3071Y303D01*
X3103Y270D01*
X3141Y245D01*
X3183Y228D01*
X3228Y219D01*
X3273D01*
X3318Y228D01*
X3360Y245D01*
X3398Y270D01*
X3430Y303D01*
X3455Y340D01*
X3473Y383D01*
X3482Y427D01*
Y473D01*
X3473Y517D01*
X3455Y560D01*
X3430Y597D01*
X3398Y630D01*
X3360Y655D01*
X3318Y672D01*
X3273Y681D01*
D02*
G37*
G36*
X4929Y412D02*
X4902D01*
X4875Y405D01*
X4852Y391D01*
X4832Y372D01*
X4818Y348D01*
X4811Y322D01*
Y294D01*
X4818Y268D01*
X4832Y244D01*
X4852Y225D01*
X4875Y211D01*
X4902Y204D01*
X4929D01*
X4956Y211D01*
X4979Y225D01*
X4999Y244D01*
X5013Y268D01*
X5020Y294D01*
Y322D01*
X5013Y348D01*
X4999Y372D01*
X4979Y391D01*
X4956Y405D01*
X4929Y412D01*
D02*
G37*
G36*
X4652D02*
X4625D01*
X4598Y405D01*
X4575Y391D01*
X4555Y372D01*
X4541Y348D01*
X4534Y322D01*
Y294D01*
X4541Y268D01*
X4555Y244D01*
X4575Y225D01*
X4598Y211D01*
X4625Y204D01*
X4652D01*
X4679Y211D01*
X4702Y225D01*
X4722Y244D01*
X4736Y268D01*
X4743Y294D01*
Y322D01*
X4736Y348D01*
X4722Y372D01*
X4702Y391D01*
X4679Y405D01*
X4652Y412D01*
D02*
G37*
G36*
X4375D02*
X4348D01*
X4321Y405D01*
X4298Y391D01*
X4278Y372D01*
X4264Y348D01*
X4257Y322D01*
Y294D01*
X4264Y268D01*
X4278Y244D01*
X4298Y225D01*
X4321Y211D01*
X4348Y204D01*
X4375D01*
X4402Y211D01*
X4425Y225D01*
X4445Y244D01*
X4459Y268D01*
X4466Y294D01*
Y322D01*
X4459Y348D01*
X4445Y372D01*
X4425Y391D01*
X4402Y405D01*
X4375Y412D01*
D02*
G37*
G36*
X4098D02*
X4071D01*
X4044Y405D01*
X4021Y391D01*
X4001Y372D01*
X3987Y348D01*
X3980Y322D01*
Y294D01*
X3987Y268D01*
X4001Y244D01*
X4021Y225D01*
X4044Y211D01*
X4071Y204D01*
X4098D01*
X4125Y211D01*
X4148Y225D01*
X4168Y244D01*
X4182Y268D01*
X4189Y294D01*
Y322D01*
X4182Y348D01*
X4168Y372D01*
X4148Y391D01*
X4125Y405D01*
X4098Y412D01*
D02*
G37*
G36*
X6770Y450D02*
X6730D01*
X6692Y443D01*
X6655Y428D01*
X6622Y406D01*
X6594Y378D01*
X6572Y345D01*
X6557Y308D01*
X6550Y270D01*
Y230D01*
X6557Y192D01*
X6572Y155D01*
X6594Y122D01*
X6622Y94D01*
X6655Y72D01*
X6692Y57D01*
X6730Y50D01*
X6770D01*
X6808Y57D01*
X6845Y72D01*
X6878Y94D01*
X6906Y122D01*
X6928Y155D01*
X6943Y192D01*
X6950Y230D01*
Y270D01*
X6943Y308D01*
X6928Y345D01*
X6906Y378D01*
X6878Y406D01*
X6845Y428D01*
X6808Y443D01*
X6770Y450D01*
D02*
G37*
G36*
X270D02*
X230D01*
X192Y443D01*
X155Y428D01*
X122Y406D01*
X94Y378D01*
X72Y345D01*
X57Y308D01*
X50Y270D01*
Y230D01*
X57Y192D01*
X72Y155D01*
X94Y122D01*
X122Y94D01*
X155Y72D01*
X192Y57D01*
X230Y50D01*
X270D01*
X308Y57D01*
X345Y72D01*
X378Y94D01*
X406Y122D01*
X428Y155D01*
X443Y192D01*
X450Y230D01*
Y270D01*
X443Y308D01*
X428Y345D01*
X406Y378D01*
X378Y406D01*
X345Y428D01*
X308Y443D01*
X270Y450D01*
D02*
G37*
%LPD*%
D30*
X4882Y1918D02*
Y2029D01*
X4862Y2050D02*
X4882Y2029D01*
X4250Y2050D02*
X4862D01*
X4882Y1918D02*
X4900Y1900D01*
X4223Y2077D02*
X4250Y2050D01*
X4223Y2077D02*
Y4408D01*
X5250Y1304D02*
Y1600D01*
X5246Y1300D02*
X5250Y1304D01*
X5200Y1650D02*
X5250Y1600D01*
X4500Y1650D02*
X5200D01*
X4000D02*
X4500D01*
X3946Y1704D02*
X4000Y1650D01*
X3269Y770D02*
X3319Y819D01*
X2412Y770D02*
X3269D01*
X3319Y819D02*
Y2081D01*
X3272Y2128D02*
X3319Y2081D01*
X3100Y2128D02*
X3272D01*
X3946Y1704D02*
Y4408D01*
X2800Y2110D02*
Y2610D01*
X2412Y2040D02*
X2730D01*
X2800Y2110D01*
X3088Y2140D02*
X3100Y2128D01*
X3096Y2640D02*
X3100Y2636D01*
X2830Y2640D02*
X3096D01*
X2800Y2610D02*
X2830Y2640D01*
X888Y3817D02*
X904Y3834D01*
D31*
X3100Y3398D02*
D03*
D32*
Y3144D02*
D03*
Y2890D02*
D03*
Y2636D02*
D03*
Y2382D02*
D03*
Y2128D02*
D03*
Y1874D02*
D03*
Y1620D02*
D03*
D33*
X5749Y450D02*
D03*
X3251D02*
D03*
Y4550D02*
D03*
X5749D02*
D03*
D34*
X5054Y592D02*
D03*
X3946Y4408D02*
D03*
D35*
X4915Y308D02*
D03*
X4777Y592D02*
D03*
X4638Y308D02*
D03*
X4500Y592D02*
D03*
X4362Y308D02*
D03*
X4223Y592D02*
D03*
X4085Y308D02*
D03*
X3946Y592D02*
D03*
X4085Y4692D02*
D03*
X4223Y4408D02*
D03*
X4362Y4692D02*
D03*
X4500Y4408D02*
D03*
X4638Y4692D02*
D03*
X4777Y4408D02*
D03*
X4915Y4692D02*
D03*
X5054Y4408D02*
D03*
D36*
X6600Y2800D02*
D03*
D37*
Y3000D02*
D03*
Y3200D02*
D03*
Y3400D02*
D03*
Y3600D02*
D03*
Y4200D02*
D03*
Y3800D02*
D03*
Y4000D02*
D03*
D38*
X6750Y4750D02*
D03*
Y250D02*
D03*
X250D02*
D03*
Y4750D02*
D03*
D39*
X5500Y1300D02*
D03*
X4992D02*
D03*
X5246D02*
D03*
D40*
X888Y516D02*
D03*
Y770D02*
D03*
Y1023D02*
D03*
Y1277D02*
D03*
Y1531D02*
D03*
Y1785D02*
D03*
Y2040D02*
D03*
Y2293D02*
D03*
Y2548D02*
D03*
Y2801D02*
D03*
Y3056D02*
D03*
Y3310D02*
D03*
Y3563D02*
D03*
Y3817D02*
D03*
X2412Y516D02*
D03*
Y770D02*
D03*
Y1023D02*
D03*
Y1277D02*
D03*
Y1531D02*
D03*
Y1785D02*
D03*
Y2040D02*
D03*
Y2293D02*
D03*
Y2548D02*
D03*
Y2801D02*
D03*
Y3056D02*
D03*
Y3310D02*
D03*
Y3563D02*
D03*
Y3817D02*
D03*
D41*
X888Y4072D02*
D03*
X2412D02*
D03*
D42*
X4900Y1900D02*
D03*
X4500Y1650D02*
D03*
X3100Y1300D02*
D03*
D43*
X6250Y4000D02*
Y4750D01*
X2500Y4850D02*
X6150D01*
X6250Y4750D01*
X2412Y4072D02*
Y4762D01*
X2500Y4850D01*
X4777Y4173D02*
Y4408D01*
Y4173D02*
X4850Y4100D01*
X6150D01*
X6250Y4000D01*
Y950D02*
Y4000D01*
X6150Y850D02*
X6250Y950D01*
X4300Y850D02*
X6150D01*
X4234Y784D02*
X4300Y850D01*
X4223Y592D02*
X4234Y603D01*
Y784D01*
M02*
