G04*
G04 #@! TF.GenerationSoftware,Altium Limited,Altium Designer,22.8.2 (66)*
G04*
G04 Layer_Color=8388736*
%FSLAX42Y42*%
%MOMM*%
G71*
G04*
G04 #@! TF.SameCoordinates,BE8FE92B-6F1C-4FB6-9944-1E67C46C6413*
G04*
G04*
G04 #@! TF.FilePolarity,Negative*
G04*
G01*
G75*
%ADD16R,1.33X1.97*%
G04:AMPARAMS|DCode=17|XSize=2.17mm|YSize=0.8mm|CornerRadius=0.18mm|HoleSize=0mm|Usage=FLASHONLY|Rotation=0.000|XOffset=0mm|YOffset=0mm|HoleType=Round|Shape=RoundedRectangle|*
%AMROUNDEDRECTD17*
21,1,2.17,0.45,0,0,0.0*
21,1,1.82,0.80,0,0,0.0*
1,1,0.35,0.91,-0.23*
1,1,0.35,-0.91,-0.23*
1,1,0.35,-0.91,0.23*
1,1,0.35,0.91,0.23*
%
%ADD17ROUNDEDRECTD17*%
%ADD18R,1.71X1.71*%
%ADD19C,1.71*%
%ADD20C,4.32*%
%ADD21R,1.78X1.78*%
%ADD22C,1.78*%
%ADD23R,1.41X1.41*%
%ADD24C,1.41*%
%ADD25C,3.70*%
%ADD26C,1.88*%
%ADD27C,1.73*%
%ADD28R,1.73X1.73*%
%ADD29C,1.47*%
D16*
X5203Y1900D02*
D03*
X5497D02*
D03*
X4006D02*
D03*
X4300D02*
D03*
D17*
X3753Y1490D02*
D03*
Y1364D02*
D03*
Y1236D02*
D03*
Y1110D02*
D03*
X4247D02*
D03*
Y1236D02*
D03*
Y1364D02*
D03*
Y1490D02*
D03*
D18*
X3100Y3398D02*
D03*
D19*
Y3144D02*
D03*
Y2890D02*
D03*
Y2636D02*
D03*
Y2382D02*
D03*
Y2128D02*
D03*
Y1874D02*
D03*
Y1620D02*
D03*
D20*
X5749Y450D02*
D03*
X3251D02*
D03*
Y4550D02*
D03*
X5749D02*
D03*
D21*
X5054Y592D02*
D03*
X3946Y4408D02*
D03*
D22*
X4915Y308D02*
D03*
X4777Y592D02*
D03*
X4638Y308D02*
D03*
X4500Y592D02*
D03*
X4362Y308D02*
D03*
X4223Y592D02*
D03*
X4085Y308D02*
D03*
X3946Y592D02*
D03*
X4085Y4692D02*
D03*
X4223Y4408D02*
D03*
X4362Y4692D02*
D03*
X4500Y4408D02*
D03*
X4638Y4692D02*
D03*
X4777Y4408D02*
D03*
X4915Y4692D02*
D03*
X5054Y4408D02*
D03*
D23*
X6600Y2800D02*
D03*
D24*
Y3000D02*
D03*
Y3200D02*
D03*
Y3400D02*
D03*
Y3600D02*
D03*
Y4200D02*
D03*
Y3800D02*
D03*
Y4000D02*
D03*
D25*
X6750Y4750D02*
D03*
Y250D02*
D03*
X250D02*
D03*
Y4750D02*
D03*
D26*
X5500Y1300D02*
D03*
X4992D02*
D03*
X5246D02*
D03*
D27*
X888Y516D02*
D03*
Y770D02*
D03*
Y1023D02*
D03*
Y1277D02*
D03*
Y1531D02*
D03*
Y1785D02*
D03*
Y2040D02*
D03*
Y2293D02*
D03*
Y2548D02*
D03*
Y2801D02*
D03*
Y3056D02*
D03*
Y3310D02*
D03*
Y3563D02*
D03*
Y3817D02*
D03*
X2412Y516D02*
D03*
Y770D02*
D03*
Y1023D02*
D03*
Y1277D02*
D03*
Y1531D02*
D03*
Y1785D02*
D03*
Y2040D02*
D03*
Y2293D02*
D03*
Y2548D02*
D03*
Y2801D02*
D03*
Y3056D02*
D03*
Y3310D02*
D03*
Y3563D02*
D03*
Y3817D02*
D03*
D28*
X888Y4072D02*
D03*
X2412D02*
D03*
D29*
X4900Y1900D02*
D03*
X4500Y1650D02*
D03*
X3100Y1300D02*
D03*
M02*
