M48
;Layer_Color=9474304
;FILE_FORMAT=4:2
METRIC,LZ
;TYPE=PLATED
T1F00S00C0.70
T2F00S00C0.71
T3F00S00C0.90
T4F00S00C1.00
T5F00S00C1.02
T6F00S00C1.05
T7F00S00C2.00
T8F00S00C3.10
%
T01
X0066Y0028
Y003
Y0032
Y0034
Y0036
Y0038
Y004
Y0042
T02
X0031Y0013
X0045Y00165
X0049Y0019
T03
X004992Y0013
X005246
X0055
T04
X0031Y00162
Y001874
Y002128
Y002382
Y002636
Y00289
Y003144
Y003398
T05
X000888Y000516
Y00077
Y001023
Y001277
Y001531
Y001785
Y00204
Y002293
Y002548
Y002801
Y003056
Y00331
Y003563
Y003817
X002412
Y003563
Y00331
Y003056
Y002801
Y002548
Y002293
Y00204
Y001785
Y001531
Y001277
Y001023
Y00077
Y000516
Y004072
X000888
T06
X003946Y000592
X004223
X0045
X004777
X005054
X004915Y000308
X004638
X004362
X004085
X004223Y004408
X0045
X004777
X005054
X004915Y004692
X004638
X004362
X004085
X003946Y004408
T07
X00025Y00025
X00675
Y00475
X00025
T08
X003251Y00045
X005749
Y00455
X003251
M30
