G04*
G04 #@! TF.GenerationSoftware,Altium Limited,Altium Designer,22.8.2 (66)*
G04*
G04 Layer_Color=16711935*
%FSLAX42Y42*%
%MOMM*%
G71*
G04*
G04 #@! TF.SameCoordinates,DC65C484-324B-465E-8F3B-FD5F0C8E9CB4*
G04*
G04*
G04 #@! TF.FilePolarity,Negative*
G04*
G01*
G75*
%ADD21C,3.70*%
%ADD22R,1.85X1.85*%
%ADD23C,1.85*%
%ADD24C,1.78*%
%ADD25R,1.78X1.78*%
%ADD26C,4.32*%
%ADD27C,4.20*%
%ADD28R,4.20X4.20*%
%ADD29C,1.73*%
%ADD30R,1.73X1.73*%
%ADD31R,1.71X1.71*%
%ADD32C,1.71*%
%ADD33C,1.88*%
%ADD34C,1.47*%
D21*
X250Y4750D02*
D03*
X6750Y250D02*
D03*
Y4750D02*
D03*
X250Y250D02*
D03*
D22*
X6450Y2150D02*
D03*
Y3900D02*
D03*
D23*
Y1650D02*
D03*
Y1150D02*
D03*
Y3400D02*
D03*
Y2900D02*
D03*
D24*
X3796Y592D02*
D03*
X3935Y308D02*
D03*
X4073Y592D02*
D03*
X4212Y308D02*
D03*
X4350Y592D02*
D03*
X4488Y308D02*
D03*
X4627Y592D02*
D03*
X4765Y308D02*
D03*
X4904Y4408D02*
D03*
X4765Y4692D02*
D03*
X4627Y4408D02*
D03*
X4488Y4692D02*
D03*
X4350Y4408D02*
D03*
X4212Y4692D02*
D03*
X4073Y4408D02*
D03*
X3935Y4692D02*
D03*
D25*
X4904Y592D02*
D03*
X3796Y4408D02*
D03*
D26*
X3100Y450D02*
D03*
X5599D02*
D03*
Y4550D02*
D03*
X3100D02*
D03*
D27*
X4700Y2800D02*
D03*
X4710Y3750D02*
D03*
D28*
X5200Y2800D02*
D03*
X5210Y3750D02*
D03*
D29*
X838Y566D02*
D03*
Y819D02*
D03*
Y1073D02*
D03*
Y1327D02*
D03*
Y1581D02*
D03*
Y1835D02*
D03*
Y2090D02*
D03*
Y2343D02*
D03*
Y2598D02*
D03*
Y2851D02*
D03*
Y3106D02*
D03*
Y3360D02*
D03*
Y3613D02*
D03*
Y3867D02*
D03*
X2362Y566D02*
D03*
Y819D02*
D03*
Y1073D02*
D03*
Y1327D02*
D03*
Y1581D02*
D03*
Y1835D02*
D03*
Y2090D02*
D03*
Y2343D02*
D03*
Y2598D02*
D03*
Y2851D02*
D03*
Y3106D02*
D03*
Y3360D02*
D03*
Y3613D02*
D03*
Y3867D02*
D03*
D30*
X838Y4122D02*
D03*
X2362D02*
D03*
D31*
X2992Y3900D02*
D03*
D32*
X3246D02*
D03*
X3500D02*
D03*
X3754D02*
D03*
X4008D02*
D03*
D33*
X5000Y1800D02*
D03*
X5254D02*
D03*
X4746D02*
D03*
D34*
X4397Y1053D02*
D03*
X5250Y500D02*
D03*
X2700Y1550D02*
D03*
M02*
