G04*
G04 #@! TF.GenerationSoftware,Altium Limited,Altium Designer,22.8.2 (66)*
G04*
G04 Layer_Physical_Order=2*
G04 Layer_Color=16711680*
%FSLAX42Y42*%
%MOMM*%
G71*
G04*
G04 #@! TF.SameCoordinates,DC65C484-324B-465E-8F3B-FD5F0C8E9CB4*
G04*
G04*
G04 #@! TF.FilePolarity,Positive*
G04*
G01*
G75*
%ADD35C,0.35*%
%ADD36C,3.50*%
%ADD37R,1.65X1.65*%
%ADD38C,1.65*%
%ADD39C,1.58*%
%ADD40R,1.58X1.58*%
%ADD41C,4.12*%
%ADD42C,4.00*%
%ADD43R,4.00X4.00*%
%ADD44C,1.53*%
%ADD45R,1.53X1.53*%
%ADD46R,1.51X1.51*%
%ADD47C,1.51*%
%ADD48C,1.68*%
%ADD49C,1.27*%
G36*
X7000D02*
X0D01*
Y5000D01*
X7000D01*
Y0D01*
D02*
G37*
%LPC*%
G36*
X4000Y4944D02*
X2150D01*
X2133Y4940D01*
X2119Y4931D01*
X2019Y4831D01*
X2010Y4817D01*
X2006Y4800D01*
Y200D01*
X2010Y183D01*
X2019Y169D01*
X2059Y129D01*
X2073Y120D01*
X2090Y117D01*
X5210D01*
X5227Y120D01*
X5241Y129D01*
X5281Y169D01*
X5290Y183D01*
X5294Y200D01*
Y423D01*
X5305Y429D01*
X5321Y445D01*
X5333Y466D01*
X5339Y488D01*
Y512D01*
X5333Y534D01*
X5321Y555D01*
X5305Y571D01*
X5284Y583D01*
X5262Y589D01*
X5238D01*
X5216Y583D01*
X5195Y571D01*
X5179Y555D01*
X5167Y534D01*
X5161Y512D01*
Y488D01*
X5167Y466D01*
X5179Y445D01*
X5195Y429D01*
X5206Y423D01*
Y218D01*
X5192Y204D01*
X4819D01*
X4816Y217D01*
X4829Y225D01*
X4849Y244D01*
X4863Y268D01*
X4870Y294D01*
Y322D01*
X4863Y348D01*
X4849Y372D01*
X4829Y391D01*
X4806Y405D01*
X4779Y412D01*
X4752D01*
X4725Y405D01*
X4702Y391D01*
X4683Y373D01*
X4671Y375D01*
Y497D01*
X4691Y509D01*
X4710Y528D01*
X4724Y552D01*
X4731Y578D01*
Y606D01*
X4724Y632D01*
X4710Y656D01*
X4691Y675D01*
X4667Y689D01*
X4641Y696D01*
X4613D01*
X4587Y689D01*
X4563Y675D01*
X4544Y656D01*
X4530Y632D01*
X4523Y606D01*
Y578D01*
X4530Y552D01*
X4544Y528D01*
X4563Y509D01*
X4583Y497D01*
Y375D01*
X4571Y373D01*
X4552Y391D01*
X4529Y405D01*
X4502Y412D01*
X4475D01*
X4448Y405D01*
X4425Y391D01*
X4405Y372D01*
X4391Y348D01*
X4384Y322D01*
Y294D01*
X4391Y268D01*
X4405Y244D01*
X4425Y225D01*
X4438Y217D01*
X4435Y204D01*
X4265D01*
X4262Y217D01*
X4275Y225D01*
X4295Y244D01*
X4309Y268D01*
X4316Y294D01*
Y322D01*
X4309Y348D01*
X4295Y372D01*
X4275Y391D01*
X4252Y405D01*
X4225Y412D01*
X4198D01*
X4171Y405D01*
X4148Y391D01*
X4128Y372D01*
X4114Y348D01*
X4107Y322D01*
Y294D01*
X4114Y268D01*
X4128Y244D01*
X4148Y225D01*
X4161Y217D01*
X4158Y204D01*
X3988D01*
X3985Y217D01*
X3998Y225D01*
X4018Y244D01*
X4032Y268D01*
X4039Y294D01*
Y322D01*
X4032Y348D01*
X4018Y372D01*
X3998Y391D01*
X3975Y405D01*
X3948Y412D01*
X3921D01*
X3894Y405D01*
X3871Y391D01*
X3851Y372D01*
X3837Y348D01*
X3830Y322D01*
Y294D01*
X3837Y268D01*
X3851Y244D01*
X3871Y225D01*
X3884Y217D01*
X3881Y204D01*
X2108D01*
X2094Y218D01*
Y4782D01*
X2168Y4856D01*
X3982D01*
X4029Y4809D01*
Y4759D01*
X4017Y4757D01*
X3998Y4775D01*
X3975Y4789D01*
X3948Y4796D01*
X3921D01*
X3894Y4789D01*
X3871Y4775D01*
X3851Y4756D01*
X3837Y4732D01*
X3830Y4706D01*
Y4678D01*
X3837Y4652D01*
X3851Y4628D01*
X3871Y4609D01*
X3894Y4595D01*
X3921Y4588D01*
X3948D01*
X3975Y4595D01*
X3998Y4609D01*
X4017Y4627D01*
X4029Y4625D01*
Y4503D01*
X4009Y4491D01*
X3990Y4472D01*
X3976Y4448D01*
X3969Y4422D01*
Y4394D01*
X3976Y4368D01*
X3990Y4344D01*
X4009Y4325D01*
X4033Y4311D01*
X4059Y4304D01*
X4087D01*
X4113Y4311D01*
X4137Y4325D01*
X4156Y4344D01*
X4170Y4368D01*
X4177Y4394D01*
Y4422D01*
X4170Y4448D01*
X4156Y4472D01*
X4137Y4491D01*
X4117Y4503D01*
Y4625D01*
X4129Y4627D01*
X4148Y4609D01*
X4171Y4595D01*
X4198Y4588D01*
X4225D01*
X4252Y4595D01*
X4275Y4609D01*
X4295Y4628D01*
X4309Y4652D01*
X4316Y4678D01*
Y4706D01*
X4309Y4732D01*
X4295Y4756D01*
X4275Y4775D01*
X4252Y4789D01*
X4225Y4796D01*
X4198D01*
X4171Y4789D01*
X4148Y4775D01*
X4129Y4757D01*
X4117Y4759D01*
Y4827D01*
X4113Y4844D01*
X4104Y4858D01*
X4031Y4931D01*
X4017Y4940D01*
X4000Y4944D01*
D02*
G37*
G36*
X4779Y4796D02*
X4752D01*
X4725Y4789D01*
X4702Y4775D01*
X4682Y4756D01*
X4668Y4732D01*
X4661Y4706D01*
Y4678D01*
X4668Y4652D01*
X4682Y4628D01*
X4702Y4609D01*
X4725Y4595D01*
X4752Y4588D01*
X4779D01*
X4806Y4595D01*
X4829Y4609D01*
X4849Y4628D01*
X4863Y4652D01*
X4870Y4678D01*
Y4706D01*
X4863Y4732D01*
X4849Y4756D01*
X4829Y4775D01*
X4806Y4789D01*
X4779Y4796D01*
D02*
G37*
G36*
X4502D02*
X4475D01*
X4448Y4789D01*
X4425Y4775D01*
X4405Y4756D01*
X4391Y4732D01*
X4384Y4706D01*
Y4678D01*
X4391Y4652D01*
X4405Y4628D01*
X4425Y4609D01*
X4448Y4595D01*
X4475Y4588D01*
X4502D01*
X4529Y4595D01*
X4552Y4609D01*
X4572Y4628D01*
X4586Y4652D01*
X4593Y4678D01*
Y4706D01*
X4586Y4732D01*
X4572Y4756D01*
X4552Y4775D01*
X4529Y4789D01*
X4502Y4796D01*
D02*
G37*
G36*
X6770Y4950D02*
X6730D01*
X6692Y4943D01*
X6655Y4928D01*
X6622Y4906D01*
X6594Y4878D01*
X6572Y4845D01*
X6557Y4808D01*
X6550Y4770D01*
Y4730D01*
X6557Y4692D01*
X6572Y4655D01*
X6594Y4622D01*
X6622Y4594D01*
X6655Y4572D01*
X6692Y4557D01*
X6730Y4550D01*
X6770D01*
X6808Y4557D01*
X6845Y4572D01*
X6878Y4594D01*
X6906Y4622D01*
X6928Y4655D01*
X6943Y4692D01*
X6950Y4730D01*
Y4770D01*
X6943Y4808D01*
X6928Y4845D01*
X6906Y4878D01*
X6878Y4906D01*
X6845Y4928D01*
X6808Y4943D01*
X6770Y4950D01*
D02*
G37*
G36*
X270D02*
X230D01*
X192Y4943D01*
X155Y4928D01*
X122Y4906D01*
X94Y4878D01*
X72Y4845D01*
X57Y4808D01*
X50Y4770D01*
Y4730D01*
X57Y4692D01*
X72Y4655D01*
X94Y4622D01*
X122Y4594D01*
X155Y4572D01*
X192Y4557D01*
X230Y4550D01*
X270D01*
X308Y4557D01*
X345Y4572D01*
X378Y4594D01*
X406Y4622D01*
X428Y4655D01*
X443Y4692D01*
X450Y4730D01*
Y4770D01*
X443Y4808D01*
X428Y4845D01*
X406Y4878D01*
X378Y4906D01*
X345Y4928D01*
X308Y4943D01*
X270Y4950D01*
D02*
G37*
G36*
X5622Y4781D02*
X5577D01*
X5532Y4772D01*
X5490Y4755D01*
X5452Y4730D01*
X5420Y4697D01*
X5395Y4660D01*
X5377Y4617D01*
X5368Y4573D01*
Y4527D01*
X5377Y4483D01*
X5395Y4440D01*
X5420Y4403D01*
X5452Y4370D01*
X5490Y4345D01*
X5532Y4328D01*
X5577Y4319D01*
X5622D01*
X5667Y4328D01*
X5709Y4345D01*
X5747Y4370D01*
X5779Y4403D01*
X5804Y4440D01*
X5822Y4483D01*
X5831Y4527D01*
Y4573D01*
X5822Y4617D01*
X5804Y4660D01*
X5779Y4697D01*
X5747Y4730D01*
X5709Y4755D01*
X5667Y4772D01*
X5622Y4781D01*
D02*
G37*
G36*
X3123D02*
X3078D01*
X3033Y4772D01*
X2991Y4755D01*
X2953Y4730D01*
X2921Y4697D01*
X2896Y4660D01*
X2878Y4617D01*
X2869Y4573D01*
Y4527D01*
X2878Y4483D01*
X2896Y4440D01*
X2921Y4403D01*
X2953Y4370D01*
X2991Y4345D01*
X3033Y4328D01*
X3078Y4319D01*
X3123D01*
X3168Y4328D01*
X3210Y4345D01*
X3248Y4370D01*
X3280Y4403D01*
X3305Y4440D01*
X3323Y4483D01*
X3332Y4527D01*
Y4573D01*
X3323Y4617D01*
X3305Y4660D01*
X3280Y4697D01*
X3248Y4730D01*
X3210Y4755D01*
X3168Y4772D01*
X3123Y4781D01*
D02*
G37*
G36*
X4918Y4512D02*
X4890D01*
X4864Y4505D01*
X4840Y4491D01*
X4821Y4472D01*
X4807Y4448D01*
X4800Y4422D01*
Y4394D01*
X4807Y4368D01*
X4821Y4344D01*
X4840Y4325D01*
X4864Y4311D01*
X4890Y4304D01*
X4918D01*
X4944Y4311D01*
X4968Y4325D01*
X4987Y4344D01*
X5001Y4368D01*
X5008Y4394D01*
Y4422D01*
X5001Y4448D01*
X4987Y4472D01*
X4968Y4491D01*
X4944Y4505D01*
X4918Y4512D01*
D02*
G37*
G36*
X4641D02*
X4613D01*
X4587Y4505D01*
X4563Y4491D01*
X4544Y4472D01*
X4530Y4448D01*
X4523Y4422D01*
Y4394D01*
X4530Y4368D01*
X4544Y4344D01*
X4563Y4325D01*
X4587Y4311D01*
X4613Y4304D01*
X4641D01*
X4667Y4311D01*
X4691Y4325D01*
X4710Y4344D01*
X4724Y4368D01*
X4731Y4394D01*
Y4422D01*
X4724Y4448D01*
X4710Y4472D01*
X4691Y4491D01*
X4667Y4505D01*
X4641Y4512D01*
D02*
G37*
G36*
X4364D02*
X4336D01*
X4310Y4505D01*
X4286Y4491D01*
X4267Y4472D01*
X4253Y4448D01*
X4246Y4422D01*
Y4394D01*
X4253Y4368D01*
X4267Y4344D01*
X4286Y4325D01*
X4310Y4311D01*
X4336Y4304D01*
X4364D01*
X4390Y4311D01*
X4414Y4325D01*
X4433Y4344D01*
X4447Y4368D01*
X4454Y4394D01*
Y4422D01*
X4447Y4448D01*
X4433Y4472D01*
X4414Y4491D01*
X4390Y4505D01*
X4364Y4512D01*
D02*
G37*
G36*
X3900D02*
X3692D01*
Y4304D01*
X3900D01*
Y4512D01*
D02*
G37*
G36*
X2464Y4223D02*
X2260D01*
Y4020D01*
X2464D01*
Y4223D01*
D02*
G37*
G36*
X940D02*
X736D01*
Y4020D01*
X940D01*
Y4223D01*
D02*
G37*
G36*
X4021Y4001D02*
X4021D01*
Y3913D01*
X4109D01*
Y3913D01*
X4102Y3939D01*
X4089Y3962D01*
X4070Y3981D01*
X4047Y3994D01*
X4021Y4001D01*
D02*
G37*
G36*
X3995D02*
X3995D01*
X3969Y3994D01*
X3946Y3981D01*
X3927Y3962D01*
X3914Y3939D01*
X3907Y3913D01*
Y3913D01*
X3995D01*
Y4001D01*
D02*
G37*
G36*
X6558Y4008D02*
X6463D01*
Y3913D01*
X6558D01*
Y4008D01*
D02*
G37*
G36*
X6437D02*
X6342D01*
Y3913D01*
X6437D01*
Y4008D01*
D02*
G37*
G36*
X2375Y3969D02*
X2375D01*
Y3880D01*
X2464D01*
Y3881D01*
X2457Y3907D01*
X2444Y3930D01*
X2425Y3949D01*
X2401Y3962D01*
X2375Y3969D01*
D02*
G37*
G36*
X2349D02*
X2349D01*
X2323Y3962D01*
X2299Y3949D01*
X2280Y3930D01*
X2267Y3907D01*
X2260Y3881D01*
Y3880D01*
X2349D01*
Y3969D01*
D02*
G37*
G36*
X4109Y3887D02*
X4021D01*
Y3799D01*
X4021D01*
X4047Y3806D01*
X4070Y3819D01*
X4089Y3838D01*
X4102Y3861D01*
X4109Y3887D01*
Y3887D01*
D02*
G37*
G36*
X3995D02*
X3907D01*
Y3887D01*
X3914Y3861D01*
X3927Y3838D01*
X3946Y3819D01*
X3969Y3806D01*
X3995Y3799D01*
X3995D01*
Y3887D01*
D02*
G37*
G36*
X3259Y4001D02*
X3233D01*
X3207Y3994D01*
X3184Y3981D01*
X3165Y3962D01*
X3152Y3939D01*
X3145Y3913D01*
Y3887D01*
X3152Y3861D01*
X3165Y3838D01*
X3184Y3819D01*
X3207Y3806D01*
X3233Y3799D01*
X3259D01*
X3285Y3806D01*
X3308Y3819D01*
X3327Y3838D01*
X3340Y3861D01*
X3347Y3887D01*
Y3913D01*
X3340Y3939D01*
X3327Y3962D01*
X3308Y3981D01*
X3285Y3994D01*
X3259Y4001D01*
D02*
G37*
G36*
X6558Y3887D02*
X6463D01*
Y3792D01*
X6558D01*
Y3887D01*
D02*
G37*
G36*
X6437D02*
X6342D01*
Y3792D01*
X6437D01*
Y3887D01*
D02*
G37*
G36*
X2464Y3855D02*
X2375D01*
Y3766D01*
X2375D01*
X2401Y3773D01*
X2425Y3786D01*
X2444Y3805D01*
X2457Y3828D01*
X2464Y3854D01*
Y3855D01*
D02*
G37*
G36*
X2349D02*
X2260D01*
Y3854D01*
X2267Y3828D01*
X2280Y3805D01*
X2299Y3786D01*
X2323Y3773D01*
X2349Y3766D01*
X2349D01*
Y3855D01*
D02*
G37*
G36*
X851Y3969D02*
X825D01*
X799Y3962D01*
X775Y3949D01*
X756Y3930D01*
X743Y3907D01*
X736Y3881D01*
Y3854D01*
X743Y3828D01*
X756Y3805D01*
X775Y3786D01*
X799Y3773D01*
X825Y3766D01*
X851D01*
X877Y3773D01*
X901Y3786D01*
X920Y3805D01*
X933Y3828D01*
X940Y3854D01*
Y3881D01*
X933Y3907D01*
X920Y3930D01*
X901Y3949D01*
X877Y3962D01*
X851Y3969D01*
D02*
G37*
G36*
X4732Y3975D02*
X4723D01*
Y3763D01*
X4935D01*
Y3772D01*
X4927Y3816D01*
X4910Y3857D01*
X4885Y3894D01*
X4854Y3925D01*
X4817Y3950D01*
X4776Y3967D01*
X4732Y3975D01*
D02*
G37*
G36*
X4697D02*
X4688D01*
X4644Y3967D01*
X4603Y3950D01*
X4566Y3925D01*
X4535Y3894D01*
X4510Y3857D01*
X4493Y3816D01*
X4485Y3772D01*
Y3763D01*
X4697D01*
Y3975D01*
D02*
G37*
G36*
X3767Y4001D02*
X3741D01*
X3715Y3994D01*
X3692Y3981D01*
X3673Y3962D01*
X3660Y3939D01*
X3653Y3913D01*
Y3887D01*
X3660Y3861D01*
X3673Y3838D01*
X3692Y3819D01*
X3703Y3813D01*
Y3715D01*
X3682Y3694D01*
X3522D01*
X3517Y3705D01*
X3531Y3719D01*
X3540Y3733D01*
X3544Y3750D01*
Y3809D01*
X3562Y3819D01*
X3581Y3838D01*
X3594Y3861D01*
X3601Y3887D01*
Y3913D01*
X3594Y3939D01*
X3581Y3962D01*
X3562Y3981D01*
X3539Y3994D01*
X3513Y4001D01*
X3487D01*
X3461Y3994D01*
X3438Y3981D01*
X3419Y3962D01*
X3406Y3939D01*
X3399Y3913D01*
Y3887D01*
X3406Y3861D01*
X3419Y3838D01*
X3438Y3819D01*
X3456Y3809D01*
Y3768D01*
X3442Y3754D01*
X2660D01*
X2644Y3751D01*
X2629Y3741D01*
X2569Y3681D01*
X2560Y3667D01*
X2556Y3650D01*
Y2918D01*
X2533Y2895D01*
X2454D01*
X2444Y2914D01*
X2425Y2933D01*
X2401Y2946D01*
X2375Y2953D01*
X2349D01*
X2323Y2946D01*
X2299Y2933D01*
X2280Y2914D01*
X2267Y2891D01*
X2260Y2865D01*
Y2838D01*
X2267Y2812D01*
X2280Y2789D01*
X2299Y2770D01*
X2323Y2757D01*
X2349Y2750D01*
X2375D01*
X2401Y2757D01*
X2425Y2770D01*
X2444Y2789D01*
X2454Y2808D01*
X2551D01*
X2568Y2811D01*
X2582Y2821D01*
X2605Y2843D01*
X2617Y2838D01*
Y2679D01*
X2579Y2641D01*
X2454D01*
X2444Y2660D01*
X2425Y2679D01*
X2401Y2692D01*
X2375Y2699D01*
X2349D01*
X2323Y2692D01*
X2299Y2679D01*
X2280Y2660D01*
X2267Y2637D01*
X2260Y2611D01*
Y2584D01*
X2267Y2558D01*
X2280Y2535D01*
X2299Y2516D01*
X2323Y2503D01*
X2349Y2496D01*
X2375D01*
X2401Y2503D01*
X2425Y2516D01*
X2444Y2535D01*
X2454Y2554D01*
X2598D01*
X2614Y2557D01*
X2628Y2567D01*
X2691Y2629D01*
X2701Y2644D01*
X2704Y2660D01*
Y3592D01*
X2718Y3606D01*
X3700D01*
X3717Y3610D01*
X3731Y3619D01*
X3777Y3666D01*
X3787Y3680D01*
X3790Y3697D01*
Y3805D01*
X3793Y3806D01*
X3816Y3819D01*
X3835Y3838D01*
X3848Y3861D01*
X3855Y3887D01*
Y3913D01*
X3848Y3939D01*
X3835Y3962D01*
X3816Y3981D01*
X3793Y3994D01*
X3767Y4001D01*
D02*
G37*
G36*
X5435Y3975D02*
X4985D01*
Y3525D01*
X5435D01*
Y3975D01*
D02*
G37*
G36*
X4935Y3737D02*
X4723D01*
Y3525D01*
X4732D01*
X4776Y3533D01*
X4817Y3550D01*
X4854Y3575D01*
X4885Y3606D01*
X4910Y3643D01*
X4927Y3684D01*
X4935Y3728D01*
Y3737D01*
D02*
G37*
G36*
X4697D02*
X4485D01*
Y3728D01*
X4493Y3684D01*
X4510Y3643D01*
X4535Y3606D01*
X4566Y3575D01*
X4603Y3550D01*
X4644Y3533D01*
X4688Y3525D01*
X4697D01*
Y3737D01*
D02*
G37*
G36*
X2375Y3715D02*
X2349D01*
X2323Y3708D01*
X2299Y3695D01*
X2280Y3676D01*
X2267Y3653D01*
X2260Y3627D01*
Y3600D01*
X2267Y3574D01*
X2280Y3551D01*
X2299Y3532D01*
X2323Y3519D01*
X2349Y3512D01*
X2375D01*
X2401Y3519D01*
X2425Y3532D01*
X2444Y3551D01*
X2457Y3574D01*
X2464Y3600D01*
Y3627D01*
X2457Y3653D01*
X2444Y3676D01*
X2425Y3695D01*
X2401Y3708D01*
X2375Y3715D01*
D02*
G37*
G36*
X851D02*
X825D01*
X799Y3708D01*
X775Y3695D01*
X756Y3676D01*
X743Y3653D01*
X736Y3627D01*
Y3600D01*
X743Y3574D01*
X756Y3551D01*
X775Y3532D01*
X799Y3519D01*
X825Y3512D01*
X851D01*
X877Y3519D01*
X901Y3532D01*
X920Y3551D01*
X933Y3574D01*
X940Y3600D01*
Y3627D01*
X933Y3653D01*
X920Y3676D01*
X901Y3695D01*
X877Y3708D01*
X851Y3715D01*
D02*
G37*
G36*
X6464Y3508D02*
X6436D01*
X6408Y3501D01*
X6384Y3486D01*
X6364Y3466D01*
X6349Y3442D01*
X6342Y3414D01*
Y3386D01*
X6349Y3358D01*
X6364Y3334D01*
X6384Y3314D01*
X6408Y3299D01*
X6436Y3292D01*
X6464D01*
X6492Y3299D01*
X6516Y3314D01*
X6536Y3334D01*
X6551Y3358D01*
X6558Y3386D01*
Y3414D01*
X6551Y3442D01*
X6536Y3466D01*
X6516Y3486D01*
X6492Y3501D01*
X6464Y3508D01*
D02*
G37*
G36*
X2375Y3461D02*
X2349D01*
X2323Y3454D01*
X2299Y3441D01*
X2280Y3422D01*
X2267Y3399D01*
X2260Y3373D01*
Y3346D01*
X2267Y3320D01*
X2280Y3297D01*
X2299Y3278D01*
X2323Y3265D01*
X2349Y3258D01*
X2375D01*
X2401Y3265D01*
X2425Y3278D01*
X2444Y3297D01*
X2457Y3320D01*
X2464Y3346D01*
Y3373D01*
X2457Y3399D01*
X2444Y3422D01*
X2425Y3441D01*
X2401Y3454D01*
X2375Y3461D01*
D02*
G37*
G36*
X851D02*
X825D01*
X799Y3454D01*
X775Y3441D01*
X756Y3422D01*
X743Y3399D01*
X736Y3373D01*
Y3346D01*
X743Y3320D01*
X756Y3297D01*
X775Y3278D01*
X799Y3265D01*
X825Y3258D01*
X851D01*
X877Y3265D01*
X901Y3278D01*
X920Y3297D01*
X933Y3320D01*
X940Y3346D01*
Y3373D01*
X933Y3399D01*
X920Y3422D01*
X901Y3441D01*
X877Y3454D01*
X851Y3461D01*
D02*
G37*
G36*
X2375Y3207D02*
X2349D01*
X2323Y3200D01*
X2299Y3187D01*
X2280Y3168D01*
X2267Y3145D01*
X2260Y3119D01*
Y3092D01*
X2267Y3066D01*
X2280Y3043D01*
X2299Y3024D01*
X2323Y3011D01*
X2349Y3004D01*
X2375D01*
X2401Y3011D01*
X2425Y3024D01*
X2444Y3043D01*
X2457Y3066D01*
X2464Y3092D01*
Y3119D01*
X2457Y3145D01*
X2444Y3168D01*
X2425Y3187D01*
X2401Y3200D01*
X2375Y3207D01*
D02*
G37*
G36*
X851D02*
X825D01*
X799Y3200D01*
X775Y3187D01*
X756Y3168D01*
X743Y3145D01*
X736Y3119D01*
Y3092D01*
X743Y3066D01*
X756Y3043D01*
X775Y3024D01*
X799Y3011D01*
X825Y3004D01*
X851D01*
X877Y3011D01*
X901Y3024D01*
X920Y3043D01*
X933Y3066D01*
X940Y3092D01*
Y3119D01*
X933Y3145D01*
X920Y3168D01*
X901Y3187D01*
X877Y3200D01*
X851Y3207D01*
D02*
G37*
G36*
X4722Y3025D02*
X4713D01*
Y2813D01*
X4925D01*
Y2822D01*
X4917Y2866D01*
X4900Y2907D01*
X4875Y2944D01*
X4844Y2975D01*
X4807Y3000D01*
X4766Y3017D01*
X4722Y3025D01*
D02*
G37*
G36*
X4687D02*
X4678D01*
X4634Y3017D01*
X4593Y3000D01*
X4556Y2975D01*
X4525Y2944D01*
X4500Y2907D01*
X4483Y2866D01*
X4475Y2822D01*
Y2813D01*
X4687D01*
Y3025D01*
D02*
G37*
G36*
X2950Y4344D02*
X2250D01*
X2233Y4340D01*
X2219Y4331D01*
X2169Y4281D01*
X2160Y4267D01*
X2156Y4250D01*
Y900D01*
X2160Y883D01*
X2169Y869D01*
X2234Y804D01*
X2248Y795D01*
X2264Y791D01*
X2267Y780D01*
X2280Y757D01*
X2299Y738D01*
X2323Y725D01*
X2349Y718D01*
X2375D01*
X2401Y725D01*
X2425Y738D01*
X2444Y757D01*
X2457Y780D01*
X2464Y806D01*
Y833D01*
X2457Y859D01*
X2444Y882D01*
X2425Y901D01*
X2401Y914D01*
X2375Y921D01*
X2349D01*
X2323Y914D01*
X2299Y901D01*
X2289Y891D01*
X2271Y891D01*
X2244Y918D01*
Y4232D01*
X2268Y4256D01*
X2932D01*
X2948Y4240D01*
Y4142D01*
Y4001D01*
X2891D01*
Y3799D01*
X3093D01*
Y4001D01*
X3036D01*
Y4124D01*
X3068Y4156D01*
X5832D01*
X5856Y4132D01*
Y3000D01*
X5860Y2983D01*
X5869Y2969D01*
X5927Y2911D01*
X5941Y2902D01*
X5958Y2898D01*
X6342D01*
Y2886D01*
X6349Y2858D01*
X6364Y2834D01*
X6384Y2814D01*
X6408Y2799D01*
X6436Y2792D01*
X6464D01*
X6492Y2799D01*
X6516Y2814D01*
X6536Y2834D01*
X6551Y2858D01*
X6558Y2886D01*
Y2914D01*
X6551Y2942D01*
X6536Y2966D01*
X6516Y2986D01*
X6492Y3001D01*
X6464Y3008D01*
X6436D01*
X6408Y3001D01*
X6384Y2986D01*
X6383Y2986D01*
X5976D01*
X5944Y3018D01*
Y4150D01*
X5940Y4167D01*
X5931Y4181D01*
X5881Y4231D01*
X5867Y4240D01*
X5850Y4244D01*
X3050D01*
X3046Y4243D01*
X3036Y4251D01*
Y4258D01*
X3032Y4275D01*
X3023Y4289D01*
X2981Y4331D01*
X2967Y4340D01*
X2950Y4344D01*
D02*
G37*
G36*
X851Y2953D02*
X825D01*
X799Y2946D01*
X775Y2933D01*
X756Y2914D01*
X743Y2891D01*
X736Y2865D01*
Y2838D01*
X743Y2812D01*
X756Y2789D01*
X775Y2770D01*
X799Y2757D01*
X825Y2750D01*
X851D01*
X877Y2757D01*
X901Y2770D01*
X920Y2789D01*
X933Y2812D01*
X940Y2838D01*
Y2865D01*
X933Y2891D01*
X920Y2914D01*
X901Y2933D01*
X877Y2946D01*
X851Y2953D01*
D02*
G37*
G36*
X5425Y3025D02*
X4975D01*
Y2575D01*
X5425D01*
Y3025D01*
D02*
G37*
G36*
X4925Y2787D02*
X4713D01*
Y2575D01*
X4722D01*
X4766Y2583D01*
X4807Y2600D01*
X4844Y2625D01*
X4875Y2656D01*
X4900Y2693D01*
X4917Y2734D01*
X4925Y2778D01*
Y2787D01*
D02*
G37*
G36*
X4687D02*
X4475D01*
Y2778D01*
X4483Y2734D01*
X4500Y2693D01*
X4525Y2656D01*
X4556Y2625D01*
X4593Y2600D01*
X4634Y2583D01*
X4678Y2575D01*
X4687D01*
Y2787D01*
D02*
G37*
G36*
X851Y2699D02*
X825D01*
X799Y2692D01*
X775Y2679D01*
X756Y2660D01*
X743Y2637D01*
X736Y2611D01*
Y2584D01*
X743Y2558D01*
X756Y2535D01*
X775Y2516D01*
X799Y2503D01*
X825Y2496D01*
X851D01*
X877Y2503D01*
X901Y2516D01*
X920Y2535D01*
X933Y2558D01*
X940Y2584D01*
Y2611D01*
X933Y2637D01*
X920Y2660D01*
X901Y2679D01*
X877Y2692D01*
X851Y2699D01*
D02*
G37*
G36*
X2375Y2445D02*
X2349D01*
X2323Y2438D01*
X2299Y2425D01*
X2280Y2406D01*
X2267Y2383D01*
X2260Y2357D01*
Y2330D01*
X2267Y2304D01*
X2280Y2281D01*
X2299Y2262D01*
X2323Y2249D01*
X2349Y2242D01*
X2375D01*
X2401Y2249D01*
X2425Y2262D01*
X2444Y2281D01*
X2457Y2304D01*
X2464Y2330D01*
Y2357D01*
X2457Y2383D01*
X2444Y2406D01*
X2425Y2425D01*
X2401Y2438D01*
X2375Y2445D01*
D02*
G37*
G36*
X851D02*
X825D01*
X799Y2438D01*
X775Y2425D01*
X756Y2406D01*
X743Y2383D01*
X736Y2357D01*
Y2330D01*
X743Y2304D01*
X756Y2281D01*
X775Y2262D01*
X799Y2249D01*
X825Y2242D01*
X851D01*
X877Y2249D01*
X901Y2262D01*
X920Y2281D01*
X933Y2304D01*
X940Y2330D01*
Y2357D01*
X933Y2383D01*
X920Y2406D01*
X901Y2425D01*
X877Y2438D01*
X851Y2445D01*
D02*
G37*
G36*
X6558Y2258D02*
X6463D01*
Y2163D01*
X6558D01*
Y2258D01*
D02*
G37*
G36*
X6437D02*
X6342D01*
Y2163D01*
X6437D01*
Y2258D01*
D02*
G37*
G36*
X6558Y2137D02*
X6463D01*
Y2042D01*
X6558D01*
Y2137D01*
D02*
G37*
G36*
X6437D02*
X6342D01*
Y2042D01*
X6437D01*
Y2137D01*
D02*
G37*
G36*
X851Y2191D02*
X825D01*
X799Y2184D01*
X775Y2171D01*
X756Y2152D01*
X743Y2129D01*
X736Y2103D01*
Y2076D01*
X743Y2050D01*
X756Y2027D01*
X775Y2008D01*
X799Y1995D01*
X825Y1988D01*
X851D01*
X877Y1995D01*
X901Y2008D01*
X920Y2027D01*
X933Y2050D01*
X940Y2076D01*
Y2103D01*
X933Y2129D01*
X920Y2152D01*
X901Y2171D01*
X877Y2184D01*
X851Y2191D01*
D02*
G37*
G36*
X2375Y1937D02*
X2349D01*
X2323Y1930D01*
X2299Y1917D01*
X2280Y1898D01*
X2267Y1875D01*
X2260Y1849D01*
Y1822D01*
X2267Y1796D01*
X2280Y1773D01*
X2299Y1754D01*
X2323Y1741D01*
X2349Y1734D01*
X2375D01*
X2401Y1741D01*
X2425Y1754D01*
X2444Y1773D01*
X2457Y1796D01*
X2464Y1822D01*
Y1849D01*
X2457Y1875D01*
X2444Y1898D01*
X2425Y1917D01*
X2401Y1930D01*
X2375Y1937D01*
D02*
G37*
G36*
X851D02*
X825D01*
X799Y1930D01*
X775Y1917D01*
X756Y1898D01*
X743Y1875D01*
X736Y1849D01*
Y1822D01*
X743Y1796D01*
X756Y1773D01*
X775Y1754D01*
X799Y1741D01*
X825Y1734D01*
X851D01*
X877Y1741D01*
X901Y1754D01*
X920Y1773D01*
X933Y1796D01*
X940Y1822D01*
Y1849D01*
X933Y1875D01*
X920Y1898D01*
X901Y1917D01*
X877Y1930D01*
X851Y1937D01*
D02*
G37*
G36*
X5268Y1909D02*
X5240D01*
X5212Y1902D01*
X5187Y1887D01*
X5167Y1867D01*
X5152Y1842D01*
X5145Y1814D01*
Y1786D01*
X5152Y1758D01*
X5167Y1733D01*
X5187Y1713D01*
X5212Y1698D01*
X5240Y1691D01*
X5268D01*
X5296Y1698D01*
X5321Y1713D01*
X5341Y1733D01*
X5356Y1758D01*
X5363Y1786D01*
Y1814D01*
X5356Y1842D01*
X5341Y1867D01*
X5321Y1887D01*
X5296Y1902D01*
X5268Y1909D01*
D02*
G37*
G36*
X5014D02*
X4986D01*
X4958Y1902D01*
X4933Y1887D01*
X4913Y1867D01*
X4898Y1842D01*
X4891Y1814D01*
Y1786D01*
X4898Y1759D01*
X4873Y1734D01*
X4864Y1720D01*
X4860Y1703D01*
Y696D01*
X4800D01*
Y488D01*
X5008D01*
Y696D01*
X4948D01*
Y1685D01*
X4960Y1698D01*
X4986Y1691D01*
X5014D01*
X5042Y1698D01*
X5067Y1713D01*
X5087Y1733D01*
X5102Y1758D01*
X5109Y1786D01*
Y1814D01*
X5102Y1842D01*
X5087Y1867D01*
X5067Y1887D01*
X5042Y1902D01*
X5014Y1909D01*
D02*
G37*
G36*
X4760D02*
X4732D01*
X4704Y1902D01*
X4679Y1887D01*
X4659Y1867D01*
X4644Y1842D01*
X4637Y1814D01*
Y1786D01*
X4644Y1758D01*
X4659Y1733D01*
X4679Y1713D01*
X4704Y1698D01*
X4732Y1691D01*
X4760D01*
X4788Y1698D01*
X4813Y1713D01*
X4833Y1733D01*
X4848Y1758D01*
X4855Y1786D01*
Y1814D01*
X4848Y1842D01*
X4833Y1867D01*
X4813Y1887D01*
X4788Y1902D01*
X4760Y1909D01*
D02*
G37*
G36*
X2713Y1639D02*
Y1563D01*
X2789D01*
X2783Y1584D01*
X2771Y1605D01*
X2755Y1621D01*
X2734Y1633D01*
X2713Y1639D01*
D02*
G37*
G36*
X2687D02*
X2666Y1633D01*
X2645Y1621D01*
X2629Y1605D01*
X2617Y1584D01*
X2611Y1563D01*
X2687D01*
Y1639D01*
D02*
G37*
G36*
X2375Y2191D02*
X2349D01*
X2323Y2184D01*
X2299Y2171D01*
X2280Y2152D01*
X2267Y2129D01*
X2260Y2103D01*
Y2076D01*
X2267Y2050D01*
X2280Y2027D01*
X2299Y2008D01*
X2323Y1995D01*
X2349Y1988D01*
X2375D01*
X2401Y1995D01*
X2425Y2008D01*
X2444Y2027D01*
X2454Y2046D01*
X6042D01*
X6056Y2032D01*
Y1700D01*
X6060Y1683D01*
X6069Y1669D01*
X6119Y1619D01*
X6133Y1610D01*
X6150Y1606D01*
X6351D01*
X6364Y1584D01*
X6384Y1564D01*
X6408Y1549D01*
X6436Y1542D01*
X6464D01*
X6492Y1549D01*
X6516Y1564D01*
X6536Y1584D01*
X6551Y1608D01*
X6558Y1636D01*
Y1664D01*
X6551Y1692D01*
X6536Y1716D01*
X6516Y1736D01*
X6492Y1751D01*
X6464Y1758D01*
X6436D01*
X6408Y1751D01*
X6384Y1736D01*
X6364Y1716D01*
X6351Y1694D01*
X6168D01*
X6144Y1718D01*
Y2050D01*
X6140Y2067D01*
X6131Y2081D01*
X6091Y2120D01*
X6077Y2130D01*
X6060Y2133D01*
X2454D01*
X2444Y2152D01*
X2425Y2171D01*
X2401Y2184D01*
X2375Y2191D01*
D02*
G37*
G36*
Y1683D02*
X2349D01*
X2323Y1676D01*
X2299Y1663D01*
X2280Y1644D01*
X2267Y1621D01*
X2260Y1595D01*
Y1568D01*
X2267Y1542D01*
X2280Y1519D01*
X2299Y1500D01*
X2323Y1487D01*
X2349Y1480D01*
X2375D01*
X2401Y1487D01*
X2425Y1500D01*
X2444Y1519D01*
X2457Y1542D01*
X2464Y1568D01*
Y1595D01*
X2457Y1621D01*
X2444Y1644D01*
X2425Y1663D01*
X2401Y1676D01*
X2375Y1683D01*
D02*
G37*
G36*
X851D02*
X825D01*
X799Y1676D01*
X775Y1663D01*
X756Y1644D01*
X743Y1621D01*
X736Y1595D01*
Y1568D01*
X743Y1542D01*
X756Y1519D01*
X775Y1500D01*
X799Y1487D01*
X825Y1480D01*
X851D01*
X877Y1487D01*
X901Y1500D01*
X920Y1519D01*
X933Y1542D01*
X940Y1568D01*
Y1595D01*
X933Y1621D01*
X920Y1644D01*
X901Y1663D01*
X877Y1676D01*
X851Y1683D01*
D02*
G37*
G36*
X2789Y1537D02*
X2713D01*
Y1461D01*
X2734Y1467D01*
X2755Y1479D01*
X2771Y1495D01*
X2783Y1516D01*
X2789Y1537D01*
D02*
G37*
G36*
X2687D02*
X2611D01*
X2617Y1516D01*
X2629Y1495D01*
X2645Y1479D01*
X2666Y1467D01*
X2687Y1461D01*
Y1537D01*
D02*
G37*
G36*
X2375Y1429D02*
X2349D01*
X2323Y1422D01*
X2299Y1409D01*
X2280Y1390D01*
X2267Y1367D01*
X2260Y1341D01*
Y1314D01*
X2267Y1288D01*
X2280Y1265D01*
X2299Y1246D01*
X2323Y1233D01*
X2349Y1226D01*
X2375D01*
X2401Y1233D01*
X2425Y1246D01*
X2444Y1265D01*
X2457Y1288D01*
X2464Y1314D01*
Y1341D01*
X2457Y1367D01*
X2444Y1390D01*
X2425Y1409D01*
X2401Y1422D01*
X2375Y1429D01*
D02*
G37*
G36*
X851D02*
X825D01*
X799Y1422D01*
X775Y1409D01*
X756Y1390D01*
X743Y1367D01*
X736Y1341D01*
Y1314D01*
X743Y1288D01*
X756Y1265D01*
X775Y1246D01*
X799Y1233D01*
X825Y1226D01*
X851D01*
X877Y1233D01*
X901Y1246D01*
X920Y1265D01*
X933Y1288D01*
X940Y1314D01*
Y1341D01*
X933Y1367D01*
X920Y1390D01*
X901Y1409D01*
X877Y1422D01*
X851Y1429D01*
D02*
G37*
G36*
X4410Y1142D02*
Y1066D01*
X4486D01*
X4480Y1087D01*
X4468Y1108D01*
X4452Y1124D01*
X4431Y1136D01*
X4410Y1142D01*
D02*
G37*
G36*
X4384D02*
X4363Y1136D01*
X4342Y1124D01*
X4326Y1108D01*
X4314Y1087D01*
X4308Y1066D01*
X4384D01*
Y1142D01*
D02*
G37*
G36*
X6464Y1258D02*
X6436D01*
X6408Y1251D01*
X6384Y1236D01*
X6364Y1216D01*
X6349Y1192D01*
X6342Y1164D01*
Y1136D01*
X6349Y1108D01*
X6364Y1084D01*
X6384Y1064D01*
X6408Y1049D01*
X6436Y1042D01*
X6464D01*
X6492Y1049D01*
X6516Y1064D01*
X6536Y1084D01*
X6551Y1108D01*
X6558Y1136D01*
Y1164D01*
X6551Y1192D01*
X6536Y1216D01*
X6516Y1236D01*
X6492Y1251D01*
X6464Y1258D01*
D02*
G37*
G36*
X2375Y1175D02*
X2349D01*
X2323Y1168D01*
X2299Y1155D01*
X2280Y1136D01*
X2267Y1113D01*
X2260Y1087D01*
Y1060D01*
X2267Y1034D01*
X2280Y1011D01*
X2299Y992D01*
X2323Y979D01*
X2349Y972D01*
X2375D01*
X2401Y979D01*
X2425Y992D01*
X2444Y1011D01*
X2457Y1034D01*
X2464Y1060D01*
Y1087D01*
X2457Y1113D01*
X2444Y1136D01*
X2425Y1155D01*
X2401Y1168D01*
X2375Y1175D01*
D02*
G37*
G36*
X851D02*
X825D01*
X799Y1168D01*
X775Y1155D01*
X756Y1136D01*
X743Y1113D01*
X736Y1087D01*
Y1060D01*
X743Y1034D01*
X756Y1011D01*
X775Y992D01*
X799Y979D01*
X825Y972D01*
X851D01*
X877Y979D01*
X901Y992D01*
X920Y1011D01*
X933Y1034D01*
X940Y1060D01*
Y1087D01*
X933Y1113D01*
X920Y1136D01*
X901Y1155D01*
X877Y1168D01*
X851Y1175D01*
D02*
G37*
G36*
X4486Y1040D02*
X4410D01*
Y964D01*
X4431Y970D01*
X4452Y982D01*
X4468Y998D01*
X4480Y1019D01*
X4486Y1040D01*
D02*
G37*
G36*
X4384D02*
X4308D01*
X4314Y1019D01*
X4326Y998D01*
X4342Y982D01*
X4363Y970D01*
X4384Y964D01*
Y1040D01*
D02*
G37*
G36*
X851Y921D02*
X825D01*
X799Y914D01*
X775Y901D01*
X756Y882D01*
X743Y859D01*
X736Y833D01*
Y806D01*
X743Y780D01*
X756Y757D01*
X775Y738D01*
X799Y725D01*
X825Y718D01*
X851D01*
X877Y725D01*
X901Y738D01*
X920Y757D01*
X933Y780D01*
X940Y806D01*
Y833D01*
X933Y859D01*
X920Y882D01*
X901Y901D01*
X877Y914D01*
X851Y921D01*
D02*
G37*
G36*
X4364Y696D02*
X4336D01*
X4310Y689D01*
X4286Y675D01*
X4267Y656D01*
X4253Y632D01*
X4246Y606D01*
Y578D01*
X4253Y552D01*
X4267Y528D01*
X4286Y509D01*
X4310Y495D01*
X4336Y488D01*
X4364D01*
X4390Y495D01*
X4414Y509D01*
X4433Y528D01*
X4447Y552D01*
X4454Y578D01*
Y606D01*
X4447Y632D01*
X4433Y656D01*
X4414Y675D01*
X4390Y689D01*
X4364Y696D01*
D02*
G37*
G36*
X4087D02*
X4059D01*
X4033Y689D01*
X4009Y675D01*
X3990Y656D01*
X3976Y632D01*
X3969Y606D01*
Y578D01*
X3976Y552D01*
X3990Y528D01*
X4009Y509D01*
X4033Y495D01*
X4059Y488D01*
X4087D01*
X4113Y495D01*
X4137Y509D01*
X4156Y528D01*
X4170Y552D01*
X4177Y578D01*
Y606D01*
X4170Y632D01*
X4156Y656D01*
X4137Y675D01*
X4113Y689D01*
X4087Y696D01*
D02*
G37*
G36*
X3810D02*
X3782D01*
X3756Y689D01*
X3732Y675D01*
X3713Y656D01*
X3699Y632D01*
X3692Y606D01*
Y578D01*
X3699Y552D01*
X3713Y528D01*
X3732Y509D01*
X3756Y495D01*
X3782Y488D01*
X3810D01*
X3836Y495D01*
X3860Y509D01*
X3879Y528D01*
X3893Y552D01*
X3900Y578D01*
Y606D01*
X3893Y632D01*
X3879Y656D01*
X3860Y675D01*
X3836Y689D01*
X3810Y696D01*
D02*
G37*
G36*
X2375Y667D02*
X2349D01*
X2323Y660D01*
X2299Y647D01*
X2280Y628D01*
X2267Y605D01*
X2260Y579D01*
Y552D01*
X2267Y526D01*
X2280Y503D01*
X2299Y484D01*
X2323Y471D01*
X2349Y464D01*
X2375D01*
X2401Y471D01*
X2425Y484D01*
X2444Y503D01*
X2457Y526D01*
X2464Y552D01*
Y579D01*
X2457Y605D01*
X2444Y628D01*
X2425Y647D01*
X2401Y660D01*
X2375Y667D01*
D02*
G37*
G36*
X851D02*
X825D01*
X799Y660D01*
X775Y647D01*
X756Y628D01*
X743Y605D01*
X736Y579D01*
Y552D01*
X743Y526D01*
X756Y503D01*
X775Y484D01*
X799Y471D01*
X825Y464D01*
X851D01*
X877Y471D01*
X901Y484D01*
X920Y503D01*
X933Y526D01*
X940Y552D01*
Y579D01*
X933Y605D01*
X920Y628D01*
X901Y647D01*
X877Y660D01*
X851Y667D01*
D02*
G37*
G36*
X5622Y681D02*
X5577D01*
X5532Y672D01*
X5490Y655D01*
X5452Y630D01*
X5420Y597D01*
X5395Y560D01*
X5377Y517D01*
X5368Y473D01*
Y427D01*
X5377Y383D01*
X5395Y340D01*
X5420Y303D01*
X5452Y270D01*
X5490Y245D01*
X5532Y228D01*
X5577Y219D01*
X5622D01*
X5667Y228D01*
X5709Y245D01*
X5747Y270D01*
X5779Y303D01*
X5804Y340D01*
X5822Y383D01*
X5831Y427D01*
Y473D01*
X5822Y517D01*
X5804Y560D01*
X5779Y597D01*
X5747Y630D01*
X5709Y655D01*
X5667Y672D01*
X5622Y681D01*
D02*
G37*
G36*
X3123D02*
X3078D01*
X3033Y672D01*
X2991Y655D01*
X2953Y630D01*
X2921Y597D01*
X2896Y560D01*
X2878Y517D01*
X2869Y473D01*
Y427D01*
X2878Y383D01*
X2896Y340D01*
X2921Y303D01*
X2953Y270D01*
X2991Y245D01*
X3033Y228D01*
X3078Y219D01*
X3123D01*
X3168Y228D01*
X3210Y245D01*
X3248Y270D01*
X3280Y303D01*
X3305Y340D01*
X3323Y383D01*
X3332Y427D01*
Y473D01*
X3323Y517D01*
X3305Y560D01*
X3280Y597D01*
X3248Y630D01*
X3210Y655D01*
X3168Y672D01*
X3123Y681D01*
D02*
G37*
G36*
X6770Y450D02*
X6730D01*
X6692Y443D01*
X6655Y428D01*
X6622Y406D01*
X6594Y378D01*
X6572Y345D01*
X6557Y308D01*
X6550Y270D01*
Y230D01*
X6557Y192D01*
X6572Y155D01*
X6594Y122D01*
X6622Y94D01*
X6655Y72D01*
X6692Y57D01*
X6730Y50D01*
X6770D01*
X6808Y57D01*
X6845Y72D01*
X6878Y94D01*
X6906Y122D01*
X6928Y155D01*
X6943Y192D01*
X6950Y230D01*
Y270D01*
X6943Y308D01*
X6928Y345D01*
X6906Y378D01*
X6878Y406D01*
X6845Y428D01*
X6808Y443D01*
X6770Y450D01*
D02*
G37*
G36*
X270D02*
X230D01*
X192Y443D01*
X155Y428D01*
X122Y406D01*
X94Y378D01*
X72Y345D01*
X57Y308D01*
X50Y270D01*
Y230D01*
X57Y192D01*
X72Y155D01*
X94Y122D01*
X122Y94D01*
X155Y72D01*
X192Y57D01*
X230Y50D01*
X270D01*
X308Y57D01*
X345Y72D01*
X378Y94D01*
X406Y122D01*
X428Y155D01*
X443Y192D01*
X450Y230D01*
Y270D01*
X443Y308D01*
X428Y345D01*
X406Y378D01*
X378Y406D01*
X345Y428D01*
X308Y443D01*
X270Y450D01*
D02*
G37*
%LPD*%
D35*
X5958Y2942D02*
X6442D01*
X5900Y3000D02*
Y4150D01*
X6442Y2942D02*
X6450Y2950D01*
X5850Y4200D02*
X5900Y4150D01*
Y3000D02*
X5958Y2942D01*
X6150Y1650D02*
X6450D01*
X6100Y1700D02*
X6150Y1650D01*
X6100Y1700D02*
Y2050D01*
X6060Y2090D02*
X6100Y2050D01*
X2362Y2090D02*
X6060D01*
X5000Y1799D02*
Y1800D01*
X4904Y592D02*
Y1703D01*
X5000Y1799D01*
X4560Y160D02*
X5210D01*
X5250Y200D01*
Y500D01*
X4560Y160D02*
X4627Y227D01*
X2090Y160D02*
X4560D01*
X3050Y4200D02*
X5850D01*
X2992Y4142D02*
Y4258D01*
Y3900D02*
Y4142D01*
X3050Y4200D01*
X2250Y4300D02*
X2950D01*
X2200Y4250D02*
X2250Y4300D01*
X2200Y900D02*
Y4250D01*
X2950Y4300D02*
X2992Y4258D01*
X2200Y900D02*
X2265Y835D01*
X2347D02*
X2362Y819D01*
X2265Y835D02*
X2347D01*
X3747Y3697D02*
Y3893D01*
X2700Y3650D02*
X3700D01*
X3747Y3697D01*
X2660Y3610D02*
X2700Y3650D01*
X2660Y2660D02*
Y3610D01*
X2600Y3650D02*
X2660Y3710D01*
X3460D02*
X3500Y3750D01*
X2660Y3710D02*
X3460D01*
X3747Y3893D02*
X3754Y3900D01*
X2600Y2900D02*
Y3650D01*
X3500Y3750D02*
Y3900D01*
X3243Y3897D02*
X3246Y3900D01*
X2362Y2598D02*
X2598D01*
X2660Y2660D01*
X2551Y2851D02*
X2600Y2900D01*
X2362Y2851D02*
X2551D01*
X4627Y227D02*
Y592D01*
X2050Y200D02*
X2090Y160D01*
X2050Y4800D02*
X2150Y4900D01*
X2050Y200D02*
Y4800D01*
X2150Y4900D02*
X4000D01*
X4073Y4408D02*
Y4827D01*
X4000Y4900D02*
X4073Y4827D01*
D36*
X250Y4750D02*
D03*
X6750Y250D02*
D03*
Y4750D02*
D03*
X250Y250D02*
D03*
D37*
X6450Y2150D02*
D03*
Y3900D02*
D03*
D38*
Y1650D02*
D03*
Y1150D02*
D03*
Y3400D02*
D03*
Y2900D02*
D03*
D39*
X3796Y592D02*
D03*
X3935Y308D02*
D03*
X4073Y592D02*
D03*
X4212Y308D02*
D03*
X4350Y592D02*
D03*
X4488Y308D02*
D03*
X4627Y592D02*
D03*
X4765Y308D02*
D03*
X4904Y4408D02*
D03*
X4765Y4692D02*
D03*
X4627Y4408D02*
D03*
X4488Y4692D02*
D03*
X4350Y4408D02*
D03*
X4212Y4692D02*
D03*
X4073Y4408D02*
D03*
X3935Y4692D02*
D03*
D40*
X4904Y592D02*
D03*
X3796Y4408D02*
D03*
D41*
X3100Y450D02*
D03*
X5599D02*
D03*
Y4550D02*
D03*
X3100D02*
D03*
D42*
X4700Y2800D02*
D03*
X4710Y3750D02*
D03*
D43*
X5200Y2800D02*
D03*
X5210Y3750D02*
D03*
D44*
X838Y566D02*
D03*
Y819D02*
D03*
Y1073D02*
D03*
Y1327D02*
D03*
Y1581D02*
D03*
Y1835D02*
D03*
Y2090D02*
D03*
Y2343D02*
D03*
Y2598D02*
D03*
Y2851D02*
D03*
Y3106D02*
D03*
Y3360D02*
D03*
Y3613D02*
D03*
Y3867D02*
D03*
X2362Y566D02*
D03*
Y819D02*
D03*
Y1073D02*
D03*
Y1327D02*
D03*
Y1581D02*
D03*
Y1835D02*
D03*
Y2090D02*
D03*
Y2343D02*
D03*
Y2598D02*
D03*
Y2851D02*
D03*
Y3106D02*
D03*
Y3360D02*
D03*
Y3613D02*
D03*
Y3867D02*
D03*
D45*
X838Y4122D02*
D03*
X2362D02*
D03*
D46*
X2992Y3900D02*
D03*
D47*
X3246D02*
D03*
X3500D02*
D03*
X3754D02*
D03*
X4008D02*
D03*
D48*
X5000Y1800D02*
D03*
X5254D02*
D03*
X4746D02*
D03*
D49*
X4397Y1053D02*
D03*
X5250Y500D02*
D03*
X2700Y1550D02*
D03*
M02*
