G04*
G04 #@! TF.GenerationSoftware,Altium Limited,Altium Designer,22.8.2 (66)*
G04*
G04 Layer_Physical_Order=1*
G04 Layer_Color=255*
%FSLAX42Y42*%
%MOMM*%
G71*
G04*
G04 #@! TF.SameCoordinates,B6351484-2ED7-4914-87D0-F8C2F53150F7*
G04*
G04*
G04 #@! TF.FilePolarity,Positive*
G04*
G01*
G75*
%ADD15R,1.13X1.77*%
%ADD16R,2.00X4.10*%
%ADD17R,1.60X3.20*%
%ADD18R,1.77X1.13*%
G04:AMPARAMS|DCode=19|XSize=1.97mm|YSize=0.6mm|CornerRadius=0.08mm|HoleSize=0mm|Usage=FLASHONLY|Rotation=0.000|XOffset=0mm|YOffset=0mm|HoleType=Round|Shape=RoundedRectangle|*
%AMROUNDEDRECTD19*
21,1,1.97,0.45,0,0,0.0*
21,1,1.82,0.60,0,0,0.0*
1,1,0.15,0.91,-0.23*
1,1,0.15,-0.91,-0.23*
1,1,0.15,-0.91,0.23*
1,1,0.15,0.91,0.23*
%
%ADD19ROUNDEDRECTD19*%
%ADD42C,0.50*%
%ADD43C,1.00*%
%ADD44C,1.53*%
%ADD45C,3.20*%
%ADD46R,1.53X1.53*%
%ADD47C,1.65*%
%ADD48C,1.51*%
%ADD49R,1.51X1.51*%
%ADD50C,1.58*%
%ADD51R,1.65X1.65*%
%ADD52C,3.00*%
%ADD53R,1.58X1.58*%
%ADD54C,4.12*%
%ADD55R,1.32X1.32*%
%ADD56C,1.32*%
%ADD57C,1.68*%
%ADD58C,4.00*%
%ADD59R,4.00X4.00*%
%ADD60C,1.27*%
D15*
X653Y600D02*
D03*
X947D02*
D03*
X9347Y11950D02*
D03*
X9053D02*
D03*
Y13500D02*
D03*
X9347D02*
D03*
D16*
X750Y8515D02*
D03*
Y9385D02*
D03*
D17*
X700Y13050D02*
D03*
Y13550D02*
D03*
D18*
X9100Y2997D02*
D03*
Y2703D02*
D03*
D19*
X9547Y12890D02*
D03*
Y12764D02*
D03*
Y12636D02*
D03*
Y12510D02*
D03*
X9053D02*
D03*
Y12636D02*
D03*
Y12764D02*
D03*
Y12890D02*
D03*
D42*
X9100Y7550D02*
X9850D01*
X9050Y7600D02*
X9100Y7550D01*
X9050Y7600D02*
Y7842D01*
X9054Y7846D01*
X2250Y7865D02*
Y7950D01*
Y7865D02*
X2450Y7665D01*
Y6400D02*
Y7665D01*
X2079Y7699D02*
X2245Y7865D01*
X2249Y7956D02*
Y11501D01*
Y7951D02*
X2250Y7950D01*
X2100Y11650D02*
X2249Y11501D01*
X554Y11650D02*
X700Y11796D01*
X550Y11646D02*
X554Y11650D01*
X2100D01*
X8750Y8900D02*
Y9750D01*
X8850Y9850D01*
X8700Y12250D02*
Y12500D01*
X8586Y10814D02*
Y13864D01*
X8500Y13950D02*
X8586Y13864D01*
Y10814D02*
X8600Y10800D01*
X8700Y12500D02*
X8836Y12636D01*
X9053Y12890D02*
Y13200D01*
X9051Y13501D02*
Y13749D01*
Y13501D02*
X9053Y13500D01*
X9050Y13750D02*
X9051Y13749D01*
X8850Y13500D02*
X9053D01*
X9050Y8350D02*
X9800D01*
X6250Y4250D02*
X6259Y4259D01*
X7309D02*
X7318Y4268D01*
X6259Y4259D02*
X7309D01*
X653Y1303D02*
X750Y1400D01*
X653Y600D02*
Y1303D01*
X750Y1400D02*
X900D01*
X1538Y8588D02*
X1952D01*
X1438Y3038D02*
Y8488D01*
X1538Y8588D01*
X1952D02*
X2079Y8715D01*
X1514Y5064D02*
X1609Y5159D01*
X1400Y2700D02*
X1514Y2814D01*
Y5064D01*
X1300Y2900D02*
X1438Y3038D01*
X7700Y8700D02*
Y9900D01*
X7783Y9983D02*
X7921D01*
X7700Y9900D02*
X7783Y9983D01*
X7600Y8600D02*
X7700Y8700D01*
X6850Y8600D02*
X7600D01*
X6750Y7300D02*
Y8500D01*
X6850Y8600D01*
X7059Y8459D02*
X7921D01*
X6950Y8350D02*
X7059Y8459D01*
X6950Y7550D02*
Y8350D01*
X2550Y6300D02*
X8650D01*
X2450Y6400D02*
X2550Y6300D01*
X950Y2900D02*
X1300D01*
X950Y2700D02*
X1400D01*
X8750Y5500D02*
X8850Y5400D01*
X9350D01*
X8750Y5500D02*
Y6200D01*
X9350Y5400D02*
X9450Y5300D01*
Y2800D02*
Y5300D01*
X8650Y6300D02*
X9042D01*
X8650D02*
X8750Y6200D01*
X9100Y2703D02*
X9353D01*
X9450Y2800D01*
X9100Y2997D02*
Y3750D01*
X7669Y5919D02*
X7921D01*
X7600Y5850D02*
X7669Y5919D01*
X7600Y3850D02*
Y5850D01*
Y3850D02*
X7690Y3760D01*
X9090D01*
X9100Y3750D01*
X9042Y6300D02*
X9050Y6292D01*
X8313Y10237D02*
X8400Y10150D01*
X8175Y10237D02*
X8313D01*
X8400Y6900D02*
Y10150D01*
X8500Y6800D02*
X9050D01*
X8400Y6900D02*
X8500Y6800D01*
X7650Y8100D02*
X7755Y8205D01*
X7921D01*
X7650Y6650D02*
Y8100D01*
Y6650D02*
X7746Y6554D01*
X9042D01*
X9050Y6546D01*
X8600Y8750D02*
Y10800D01*
X8746Y8604D02*
X9050D01*
X8600Y8750D02*
X8746Y8604D01*
X947Y600D02*
X1250D01*
X1300Y650D01*
Y1150D01*
X900Y1200D02*
X1250D01*
X1300Y1150D01*
X7621Y2871D02*
X7921D01*
X7500Y2750D02*
X7621Y2871D01*
X7500Y1550D02*
Y2750D01*
X900Y1400D02*
X7350D01*
X7500Y1550D01*
X1609Y5159D02*
X1825D01*
X6350Y13950D02*
X8500D01*
X9700D01*
X8704Y10696D02*
X9200D01*
X8600Y10800D02*
X8704Y10696D01*
X8836Y12636D02*
X9053D01*
Y12297D02*
Y12510D01*
X9100Y12250D02*
X9250D01*
X9053Y12297D02*
X9100Y12250D01*
X8900Y10950D02*
X9200D01*
X8800Y11050D02*
X8900Y10950D01*
X8800Y11050D02*
Y11850D01*
X8900Y11950D01*
X9053D01*
X9900Y8450D02*
Y12050D01*
X9800Y8350D02*
X9900Y8450D01*
X250Y11900D02*
X550D01*
X150Y12000D02*
Y13450D01*
Y12000D02*
X250Y11900D01*
Y13550D02*
X700D01*
X150Y13450D02*
X250Y13550D01*
X546Y11650D02*
X550Y11646D01*
X700Y11796D02*
Y13050D01*
X2750Y13950D02*
X6350D01*
X6246Y14054D02*
X6350Y13950D01*
X6246Y14054D02*
Y14258D01*
X2669Y14031D02*
X2750Y13950D01*
X9700D02*
X9800Y13850D01*
X6600Y14050D02*
X9750D01*
X6522Y14127D02*
X6600Y14050D01*
X9750D02*
X9900Y13900D01*
X3050Y14800D02*
X6450D01*
X2950Y14700D02*
X3050Y14800D01*
X2950Y14254D02*
Y14700D01*
X6522Y14258D02*
Y14727D01*
X6450Y14800D02*
X6522Y14727D01*
Y14127D02*
Y14258D01*
X2946Y14250D02*
X2950Y14254D01*
X2669Y14031D02*
Y14250D01*
X9900Y12050D02*
Y12750D01*
X9800Y11950D02*
X9900Y12050D01*
X9347Y11950D02*
X9800D01*
X8836Y12764D02*
X9053D01*
X8750Y12850D02*
Y13400D01*
Y12850D02*
X8836Y12764D01*
X8750Y13400D02*
X8850Y13500D01*
X9550Y12893D02*
Y13450D01*
X9547Y12890D02*
X9550Y12893D01*
X9500Y13500D02*
X9550Y13450D01*
X9347Y13500D02*
X9500D01*
X9900Y12750D02*
Y13900D01*
X9547Y12636D02*
X9786D01*
X9900Y12750D01*
X9800Y12800D02*
Y13850D01*
X9547Y12764D02*
X9764D01*
X9800Y12800D01*
D43*
X1190Y7390D02*
X1300Y7500D01*
Y9200D01*
X330Y10630D02*
X550D01*
X200Y8300D02*
Y10500D01*
X330Y10630D01*
X200Y7000D02*
Y8300D01*
X415Y8515D01*
X750D01*
X1300Y9200D02*
Y10250D01*
X1115Y9385D02*
X1300Y9200D01*
X750Y9385D02*
X1115D01*
X550Y10376D02*
X1174D01*
X1300Y10250D01*
X750Y7390D02*
X1190D01*
X200Y7000D02*
X310Y6890D01*
X750D01*
D44*
X8175Y1601D02*
D03*
X7921D02*
D03*
X8175Y1855D02*
D03*
X7921D02*
D03*
X8175Y2109D02*
D03*
X7921D02*
D03*
X8175Y2363D02*
D03*
X7921D02*
D03*
X8175Y2617D02*
D03*
X7921D02*
D03*
X8175Y2871D02*
D03*
X7921D02*
D03*
X8175Y3125D02*
D03*
X7921D02*
D03*
X8175Y3379D02*
D03*
X7921D02*
D03*
X8175Y3633D02*
D03*
X7921D02*
D03*
X8175Y3887D02*
D03*
X7921D02*
D03*
X8175Y4141D02*
D03*
X7921D02*
D03*
X8175Y4395D02*
D03*
X7921D02*
D03*
X8175Y4649D02*
D03*
X7921D02*
D03*
X8175Y4903D02*
D03*
X7921D02*
D03*
X8175Y5157D02*
D03*
X7921D02*
D03*
X8175Y5411D02*
D03*
X7921D02*
D03*
X8175Y5665D02*
D03*
X7921D02*
D03*
X8175Y5919D02*
D03*
X7921D02*
D03*
X8175Y6173D02*
D03*
X7921D02*
D03*
X8175Y6427D02*
D03*
X7921D02*
D03*
X8175Y6681D02*
D03*
X7921D02*
D03*
X8175Y6935D02*
D03*
X7921D02*
D03*
X8175Y7189D02*
D03*
X7921D02*
D03*
X8175Y7443D02*
D03*
X7921D02*
D03*
X8175Y7697D02*
D03*
X7921D02*
D03*
X8175Y7951D02*
D03*
X7921D02*
D03*
X8175Y8205D02*
D03*
X7921D02*
D03*
X8175Y8459D02*
D03*
X7921D02*
D03*
X8175Y8713D02*
D03*
X7921D02*
D03*
X8175Y8967D02*
D03*
X7921D02*
D03*
X8175Y9221D02*
D03*
X7921D02*
D03*
X8175Y9475D02*
D03*
X7921D02*
D03*
X8175Y9729D02*
D03*
X7921D02*
D03*
X8175Y9983D02*
D03*
X7921D02*
D03*
X8175Y10237D02*
D03*
X7921D02*
D03*
X2079Y1603D02*
D03*
X1825D02*
D03*
X8175Y10491D02*
D03*
X2079Y1857D02*
D03*
X1825D02*
D03*
X2079Y2111D02*
D03*
X1825D02*
D03*
X2079Y2365D02*
D03*
X1825D02*
D03*
X2079Y2619D02*
D03*
X1825D02*
D03*
X2079Y2873D02*
D03*
X1825D02*
D03*
X2079Y3127D02*
D03*
X1825D02*
D03*
X2079Y3381D02*
D03*
X1825D02*
D03*
X2079Y3635D02*
D03*
X1825D02*
D03*
X2079Y3889D02*
D03*
X1825D02*
D03*
X2079Y4143D02*
D03*
X1825D02*
D03*
X2079Y4397D02*
D03*
X1825D02*
D03*
X2079Y4651D02*
D03*
X1825D02*
D03*
X2079Y4905D02*
D03*
X1825D02*
D03*
X2079Y5159D02*
D03*
X1825D02*
D03*
X2079Y5413D02*
D03*
X1825D02*
D03*
X2079Y5667D02*
D03*
X1825D02*
D03*
X2079Y5921D02*
D03*
X1825D02*
D03*
X2079Y6175D02*
D03*
X1825D02*
D03*
X2079Y6429D02*
D03*
X1825D02*
D03*
X2079Y6683D02*
D03*
X1825D02*
D03*
X2079Y6937D02*
D03*
X1825D02*
D03*
X2079Y7191D02*
D03*
X1825D02*
D03*
X2079Y7445D02*
D03*
X1825D02*
D03*
X2079Y7699D02*
D03*
X1825D02*
D03*
X2079Y7953D02*
D03*
X1825D02*
D03*
X2079Y8207D02*
D03*
X1825D02*
D03*
X2079Y8461D02*
D03*
X1825D02*
D03*
X2079Y8715D02*
D03*
X1825D02*
D03*
X2079Y8969D02*
D03*
X1825D02*
D03*
X2079Y9223D02*
D03*
X1825D02*
D03*
X2079Y9477D02*
D03*
X1825D02*
D03*
X2079Y9731D02*
D03*
X1825D02*
D03*
X2079Y9985D02*
D03*
X1825D02*
D03*
X2079Y10239D02*
D03*
X1825D02*
D03*
X2079Y10493D02*
D03*
D45*
X2587Y10874D02*
D03*
X5889Y5667D02*
D03*
X7413Y10747D02*
D03*
X7286Y3254D02*
D03*
X2714D02*
D03*
D46*
X7921Y10491D02*
D03*
X1825Y10493D02*
D03*
D47*
X9050Y8350D02*
D03*
Y8096D02*
D03*
Y7842D02*
D03*
Y8604D02*
D03*
Y8858D02*
D03*
Y9112D02*
D03*
X9100Y4250D02*
D03*
Y3750D02*
D03*
X900Y4750D02*
D03*
Y5250D02*
D03*
X9050Y6292D02*
D03*
Y6038D02*
D03*
Y5784D02*
D03*
Y6546D02*
D03*
Y6800D02*
D03*
Y7054D02*
D03*
D48*
X9100Y1981D02*
D03*
Y1727D02*
D03*
Y1473D02*
D03*
X550Y10630D02*
D03*
Y10884D02*
D03*
Y11392D02*
D03*
Y11646D02*
D03*
Y11900D02*
D03*
Y12154D02*
D03*
D49*
X9100Y1219D02*
D03*
X550Y10376D02*
D03*
D50*
X6384Y14542D02*
D03*
X6661D02*
D03*
X2808Y14534D02*
D03*
X3084D02*
D03*
X3777Y14250D02*
D03*
X3638Y14534D02*
D03*
X3500Y14250D02*
D03*
X3362Y14534D02*
D03*
X3223Y14250D02*
D03*
X2946D02*
D03*
X6522Y14258D02*
D03*
X6800D02*
D03*
X6938Y14542D02*
D03*
X7076Y14258D02*
D03*
X7215Y14542D02*
D03*
X7354Y14258D02*
D03*
D51*
X9100Y4750D02*
D03*
X900Y4250D02*
D03*
D52*
X250Y14750D02*
D03*
X9750D02*
D03*
Y250D02*
D03*
X250D02*
D03*
D53*
X2669Y14250D02*
D03*
X6246Y14258D02*
D03*
D54*
X4472Y14392D02*
D03*
X1974D02*
D03*
X5550Y14400D02*
D03*
X8049D02*
D03*
D55*
X900Y1600D02*
D03*
X950Y2900D02*
D03*
D56*
X900Y1400D02*
D03*
Y1200D02*
D03*
X950Y2700D02*
D03*
Y2500D02*
D03*
D57*
X9200Y10950D02*
D03*
Y10442D02*
D03*
Y10696D02*
D03*
D58*
X750Y7390D02*
D03*
D59*
Y6890D02*
D03*
D60*
X9850Y7550D02*
D03*
X8750Y8900D02*
D03*
X8700Y12250D02*
D03*
X8850Y9850D02*
D03*
X9053Y13200D02*
D03*
X9050Y13750D02*
D03*
X6250Y4250D02*
D03*
X7318Y4268D02*
D03*
X6950Y7550D02*
D03*
X6750Y7300D02*
D03*
X9250Y12250D02*
D03*
M02*
