G04*
G04 #@! TF.GenerationSoftware,Altium Limited,Altium Designer,22.8.2 (66)*
G04*
G04 Layer_Color=8388736*
%FSLAX42Y42*%
%MOMM*%
G71*
G04*
G04 #@! TF.SameCoordinates,B6351484-2ED7-4914-87D0-F8C2F53150F7*
G04*
G04*
G04 #@! TF.FilePolarity,Negative*
G04*
G01*
G75*
%ADD20R,1.33X1.97*%
%ADD21R,2.20X4.30*%
%ADD22R,1.80X3.40*%
%ADD23R,1.97X1.33*%
G04:AMPARAMS|DCode=24|XSize=2.17mm|YSize=0.8mm|CornerRadius=0.18mm|HoleSize=0mm|Usage=FLASHONLY|Rotation=0.000|XOffset=0mm|YOffset=0mm|HoleType=Round|Shape=RoundedRectangle|*
%AMROUNDEDRECTD24*
21,1,2.17,0.45,0,0,0.0*
21,1,1.82,0.80,0,0,0.0*
1,1,0.35,0.91,-0.23*
1,1,0.35,-0.91,-0.23*
1,1,0.35,-0.91,0.23*
1,1,0.35,0.91,0.23*
%
%ADD24ROUNDEDRECTD24*%
%ADD25C,1.73*%
%ADD26C,3.40*%
%ADD27R,1.73X1.73*%
%ADD28C,1.85*%
%ADD29C,1.71*%
%ADD30R,1.71X1.71*%
%ADD31C,1.78*%
%ADD32R,1.85X1.85*%
%ADD33C,3.20*%
%ADD34R,1.78X1.78*%
%ADD35C,4.32*%
%ADD36R,1.52X1.52*%
%ADD37C,1.52*%
%ADD38C,1.88*%
%ADD39C,4.20*%
%ADD40R,4.20X4.20*%
%ADD41C,1.47*%
D20*
X653Y600D02*
D03*
X947D02*
D03*
X9347Y11950D02*
D03*
X9053D02*
D03*
Y13500D02*
D03*
X9347D02*
D03*
D21*
X750Y8515D02*
D03*
Y9385D02*
D03*
D22*
X700Y13050D02*
D03*
Y13550D02*
D03*
D23*
X9100Y2997D02*
D03*
Y2703D02*
D03*
D24*
X9547Y12890D02*
D03*
Y12764D02*
D03*
Y12636D02*
D03*
Y12510D02*
D03*
X9053D02*
D03*
Y12636D02*
D03*
Y12764D02*
D03*
Y12890D02*
D03*
D25*
X8175Y1601D02*
D03*
X7921D02*
D03*
X8175Y1855D02*
D03*
X7921D02*
D03*
X8175Y2109D02*
D03*
X7921D02*
D03*
X8175Y2363D02*
D03*
X7921D02*
D03*
X8175Y2617D02*
D03*
X7921D02*
D03*
X8175Y2871D02*
D03*
X7921D02*
D03*
X8175Y3125D02*
D03*
X7921D02*
D03*
X8175Y3379D02*
D03*
X7921D02*
D03*
X8175Y3633D02*
D03*
X7921D02*
D03*
X8175Y3887D02*
D03*
X7921D02*
D03*
X8175Y4141D02*
D03*
X7921D02*
D03*
X8175Y4395D02*
D03*
X7921D02*
D03*
X8175Y4649D02*
D03*
X7921D02*
D03*
X8175Y4903D02*
D03*
X7921D02*
D03*
X8175Y5157D02*
D03*
X7921D02*
D03*
X8175Y5411D02*
D03*
X7921D02*
D03*
X8175Y5665D02*
D03*
X7921D02*
D03*
X8175Y5919D02*
D03*
X7921D02*
D03*
X8175Y6173D02*
D03*
X7921D02*
D03*
X8175Y6427D02*
D03*
X7921D02*
D03*
X8175Y6681D02*
D03*
X7921D02*
D03*
X8175Y6935D02*
D03*
X7921D02*
D03*
X8175Y7189D02*
D03*
X7921D02*
D03*
X8175Y7443D02*
D03*
X7921D02*
D03*
X8175Y7697D02*
D03*
X7921D02*
D03*
X8175Y7951D02*
D03*
X7921D02*
D03*
X8175Y8205D02*
D03*
X7921D02*
D03*
X8175Y8459D02*
D03*
X7921D02*
D03*
X8175Y8713D02*
D03*
X7921D02*
D03*
X8175Y8967D02*
D03*
X7921D02*
D03*
X8175Y9221D02*
D03*
X7921D02*
D03*
X8175Y9475D02*
D03*
X7921D02*
D03*
X8175Y9729D02*
D03*
X7921D02*
D03*
X8175Y9983D02*
D03*
X7921D02*
D03*
X8175Y10237D02*
D03*
X7921D02*
D03*
X2079Y1603D02*
D03*
X1825D02*
D03*
X8175Y10491D02*
D03*
X2079Y1857D02*
D03*
X1825D02*
D03*
X2079Y2111D02*
D03*
X1825D02*
D03*
X2079Y2365D02*
D03*
X1825D02*
D03*
X2079Y2619D02*
D03*
X1825D02*
D03*
X2079Y2873D02*
D03*
X1825D02*
D03*
X2079Y3127D02*
D03*
X1825D02*
D03*
X2079Y3381D02*
D03*
X1825D02*
D03*
X2079Y3635D02*
D03*
X1825D02*
D03*
X2079Y3889D02*
D03*
X1825D02*
D03*
X2079Y4143D02*
D03*
X1825D02*
D03*
X2079Y4397D02*
D03*
X1825D02*
D03*
X2079Y4651D02*
D03*
X1825D02*
D03*
X2079Y4905D02*
D03*
X1825D02*
D03*
X2079Y5159D02*
D03*
X1825D02*
D03*
X2079Y5413D02*
D03*
X1825D02*
D03*
X2079Y5667D02*
D03*
X1825D02*
D03*
X2079Y5921D02*
D03*
X1825D02*
D03*
X2079Y6175D02*
D03*
X1825D02*
D03*
X2079Y6429D02*
D03*
X1825D02*
D03*
X2079Y6683D02*
D03*
X1825D02*
D03*
X2079Y6937D02*
D03*
X1825D02*
D03*
X2079Y7191D02*
D03*
X1825D02*
D03*
X2079Y7445D02*
D03*
X1825D02*
D03*
X2079Y7699D02*
D03*
X1825D02*
D03*
X2079Y7953D02*
D03*
X1825D02*
D03*
X2079Y8207D02*
D03*
X1825D02*
D03*
X2079Y8461D02*
D03*
X1825D02*
D03*
X2079Y8715D02*
D03*
X1825D02*
D03*
X2079Y8969D02*
D03*
X1825D02*
D03*
X2079Y9223D02*
D03*
X1825D02*
D03*
X2079Y9477D02*
D03*
X1825D02*
D03*
X2079Y9731D02*
D03*
X1825D02*
D03*
X2079Y9985D02*
D03*
X1825D02*
D03*
X2079Y10239D02*
D03*
X1825D02*
D03*
X2079Y10493D02*
D03*
D26*
X2587Y10874D02*
D03*
X5889Y5667D02*
D03*
X7413Y10747D02*
D03*
X7286Y3254D02*
D03*
X2714D02*
D03*
D27*
X7921Y10491D02*
D03*
X1825Y10493D02*
D03*
D28*
X9050Y8350D02*
D03*
Y8096D02*
D03*
Y7842D02*
D03*
Y8604D02*
D03*
Y8858D02*
D03*
Y9112D02*
D03*
X9100Y4250D02*
D03*
Y3750D02*
D03*
X900Y4750D02*
D03*
Y5250D02*
D03*
X9050Y6292D02*
D03*
Y6038D02*
D03*
Y5784D02*
D03*
Y6546D02*
D03*
Y6800D02*
D03*
Y7054D02*
D03*
D29*
X9100Y1981D02*
D03*
Y1727D02*
D03*
Y1473D02*
D03*
X550Y10630D02*
D03*
Y10884D02*
D03*
Y11392D02*
D03*
Y11646D02*
D03*
Y11900D02*
D03*
Y12154D02*
D03*
D30*
X9100Y1219D02*
D03*
X550Y10376D02*
D03*
D31*
X6384Y14542D02*
D03*
X6661D02*
D03*
X2808Y14534D02*
D03*
X3084D02*
D03*
X3777Y14250D02*
D03*
X3638Y14534D02*
D03*
X3500Y14250D02*
D03*
X3362Y14534D02*
D03*
X3223Y14250D02*
D03*
X2946D02*
D03*
X6522Y14258D02*
D03*
X6800D02*
D03*
X6938Y14542D02*
D03*
X7076Y14258D02*
D03*
X7215Y14542D02*
D03*
X7354Y14258D02*
D03*
D32*
X9100Y4750D02*
D03*
X900Y4250D02*
D03*
D33*
X250Y14750D02*
D03*
X9750D02*
D03*
Y250D02*
D03*
X250D02*
D03*
D34*
X2669Y14250D02*
D03*
X6246Y14258D02*
D03*
D35*
X4472Y14392D02*
D03*
X1974D02*
D03*
X5550Y14400D02*
D03*
X8049D02*
D03*
D36*
X900Y1600D02*
D03*
X950Y2900D02*
D03*
D37*
X900Y1400D02*
D03*
Y1200D02*
D03*
X950Y2700D02*
D03*
Y2500D02*
D03*
D38*
X9200Y10950D02*
D03*
Y10442D02*
D03*
Y10696D02*
D03*
D39*
X750Y7390D02*
D03*
D40*
Y6890D02*
D03*
D41*
X9850Y7550D02*
D03*
X8750Y8900D02*
D03*
X8700Y12250D02*
D03*
X8850Y9850D02*
D03*
X9053Y13200D02*
D03*
X9050Y13750D02*
D03*
X6250Y4250D02*
D03*
X7318Y4268D02*
D03*
X6950Y7550D02*
D03*
X6750Y7300D02*
D03*
X9250Y12250D02*
D03*
M02*
