G04*
G04 #@! TF.GenerationSoftware,Altium Limited,Altium Designer,22.8.2 (66)*
G04*
G04 Layer_Physical_Order=1*
G04 Layer_Color=255*
%FSLAX42Y42*%
%MOMM*%
G71*
G04*
G04 #@! TF.SameCoordinates,73A1F774-0F22-46A5-B85E-6585DDB94E85*
G04*
G04*
G04 #@! TF.FilePolarity,Positive*
G04*
G01*
G75*
%ADD14R,1.13X1.77*%
G04:AMPARAMS|DCode=15|XSize=1.97mm|YSize=0.6mm|CornerRadius=0.08mm|HoleSize=0mm|Usage=FLASHONLY|Rotation=0.000|XOffset=0mm|YOffset=0mm|HoleType=Round|Shape=RoundedRectangle|*
%AMROUNDEDRECTD15*
21,1,1.97,0.45,0,0,0.0*
21,1,1.82,0.60,0,0,0.0*
1,1,0.15,0.91,-0.23*
1,1,0.15,-0.91,-0.23*
1,1,0.15,-0.91,0.23*
1,1,0.15,0.91,0.23*
%
%ADD15ROUNDEDRECTD15*%
%ADD32C,0.35*%
%ADD33R,1.51X1.51*%
%ADD34C,1.51*%
%ADD35C,4.12*%
%ADD36R,1.58X1.58*%
%ADD37C,1.58*%
%ADD38R,1.21X1.21*%
%ADD39C,1.21*%
%ADD40C,3.50*%
%ADD41C,1.68*%
%ADD42C,1.53*%
%ADD43R,1.53X1.53*%
%ADD44C,4.00*%
%ADD45R,4.00X4.00*%
%ADD46C,1.27*%
D14*
X5203Y1900D02*
D03*
X5497D02*
D03*
X4006D02*
D03*
X4300D02*
D03*
D15*
X3753Y1490D02*
D03*
Y1364D02*
D03*
Y1236D02*
D03*
Y1110D02*
D03*
X4247D02*
D03*
Y1236D02*
D03*
Y1364D02*
D03*
Y1490D02*
D03*
D32*
X6162Y3688D02*
X6450Y3400D01*
X762Y3688D02*
X6162D01*
X909Y3950D02*
X6100D01*
X6450Y3600D01*
X4900Y1900D02*
X5203D01*
X4798Y1750D02*
X5182D01*
X5203Y1771D02*
Y1900D01*
X5182Y1750D02*
X5203Y1771D01*
X4777Y1350D02*
Y1729D01*
X4798Y1750D01*
X4500Y1400D02*
Y1650D01*
X4247Y1364D02*
X4463D01*
X4500Y1400D01*
X888Y3817D02*
Y3929D01*
X909Y3950D01*
X700Y3750D02*
Y4000D01*
X772Y4072D01*
X888D01*
X700Y3750D02*
X762Y3688D01*
X3352Y2128D02*
X6178D01*
X6200Y2150D02*
Y2750D01*
X6178Y2128D02*
X6200Y2150D01*
X3330D02*
X3352Y2128D01*
X3330Y2150D02*
Y3090D01*
X6250Y2800D02*
X6450D01*
X6200Y2750D02*
X6250Y2800D01*
X3100Y1300D02*
X3164Y1364D01*
X3753D01*
X2220Y1980D02*
Y2490D01*
X2295Y1905D02*
X3022D01*
X2220Y1980D02*
X2295Y1905D01*
X3030Y1896D02*
X3078D01*
X3022Y1905D02*
X3030Y1896D01*
X3078D02*
X3100Y1874D01*
X3308Y2128D02*
X3330Y2150D01*
X3100Y2128D02*
X3308D01*
X3100D02*
X3122Y2106D01*
X3330Y3090D02*
Y3370D01*
X3100Y3398D02*
X3302D01*
X3330Y3370D01*
X2220Y2490D02*
X2277Y2548D01*
X1100Y1450D02*
Y3000D01*
Y1450D02*
X1150Y1400D01*
X2500D01*
X894Y3050D02*
X911Y3033D01*
X888Y3056D02*
X894Y3050D01*
X1050D01*
X1100Y3000D01*
X2500Y1400D02*
X2591Y1490D01*
X3753D01*
X5203Y1900D02*
X5253D01*
X4247Y1236D02*
X4663D01*
X3587D02*
X3753D01*
X3550Y1200D02*
X3587Y1236D01*
X3550Y800D02*
Y1200D01*
X2412Y770D02*
X3519D01*
X3550Y800D01*
X3700Y150D02*
X3753Y203D01*
X750Y150D02*
X3700D01*
X3753Y203D02*
Y1110D01*
X724Y1023D02*
X888D01*
X668Y968D02*
X724Y1023D01*
X668Y232D02*
Y968D01*
Y232D02*
X750Y150D01*
X4663Y1236D02*
X4777Y1350D01*
X4663Y1236D02*
X4777Y1123D01*
Y592D02*
Y1123D01*
X5054Y592D02*
X5192D01*
X5246Y646D01*
Y1300D01*
X5500D02*
Y1897D01*
X5497Y1900D02*
X5500Y1897D01*
X3765Y1376D02*
X3876D01*
X4006Y1506D01*
X3753Y1364D02*
X3765Y1376D01*
X4006Y1506D02*
Y1900D01*
X4247Y1490D02*
Y1815D01*
X4300Y1868D01*
Y1900D01*
X3276Y3144D02*
X3330Y3090D01*
X2412Y2293D02*
X2435Y2271D01*
X2491D02*
X2492Y2270D01*
X2988D02*
X3100Y2382D01*
X2435Y2271D02*
X2491D01*
X2492Y2270D02*
X2988D01*
X2277Y2548D02*
X2412D01*
X3100Y3144D02*
X3276D01*
D33*
X3100Y3398D02*
D03*
D34*
Y3144D02*
D03*
Y2890D02*
D03*
Y2636D02*
D03*
Y2382D02*
D03*
Y2128D02*
D03*
Y1874D02*
D03*
Y1620D02*
D03*
D35*
X5749Y450D02*
D03*
X3251D02*
D03*
Y4550D02*
D03*
X5749D02*
D03*
D36*
X5054Y592D02*
D03*
X3946Y4408D02*
D03*
D37*
X4915Y308D02*
D03*
X4777Y592D02*
D03*
X4638Y308D02*
D03*
X4500Y592D02*
D03*
X4362Y308D02*
D03*
X4223Y592D02*
D03*
X4085Y308D02*
D03*
X3946Y592D02*
D03*
X4085Y4692D02*
D03*
X4223Y4408D02*
D03*
X4362Y4692D02*
D03*
X4500Y4408D02*
D03*
X4638Y4692D02*
D03*
X4777Y4408D02*
D03*
X4915Y4692D02*
D03*
X5054Y4408D02*
D03*
D38*
X6450Y2600D02*
D03*
D39*
Y2800D02*
D03*
Y3000D02*
D03*
Y3200D02*
D03*
Y3400D02*
D03*
Y4000D02*
D03*
Y3600D02*
D03*
Y3800D02*
D03*
D40*
X6750Y4750D02*
D03*
Y250D02*
D03*
X250D02*
D03*
Y4750D02*
D03*
D41*
X5500Y1300D02*
D03*
X4992D02*
D03*
X5246D02*
D03*
D42*
X888Y516D02*
D03*
Y770D02*
D03*
Y1023D02*
D03*
Y1277D02*
D03*
Y1531D02*
D03*
Y1785D02*
D03*
Y2040D02*
D03*
Y2293D02*
D03*
Y2548D02*
D03*
Y2801D02*
D03*
Y3056D02*
D03*
Y3310D02*
D03*
Y3563D02*
D03*
Y3817D02*
D03*
X2412Y516D02*
D03*
Y770D02*
D03*
Y1023D02*
D03*
Y1277D02*
D03*
Y1531D02*
D03*
Y1785D02*
D03*
Y2040D02*
D03*
Y2293D02*
D03*
Y2548D02*
D03*
Y2801D02*
D03*
Y3056D02*
D03*
Y3310D02*
D03*
Y3563D02*
D03*
Y3817D02*
D03*
D43*
X888Y4072D02*
D03*
X2412D02*
D03*
D44*
X6500Y1800D02*
D03*
D45*
Y1300D02*
D03*
D46*
X4900Y1900D02*
D03*
X4500Y1650D02*
D03*
X3100Y1300D02*
D03*
M02*
