G04*
G04 #@! TF.GenerationSoftware,Altium Limited,Altium Designer,22.8.2 (66)*
G04*
G04 Layer_Color=65535*
%FSLAX42Y42*%
%MOMM*%
G71*
G04*
G04 #@! TF.SameCoordinates,73A1F774-0F22-46A5-B85E-6585DDB94E85*
G04*
G04*
G04 #@! TF.FilePolarity,Positive*
G04*
G01*
G75*
%ADD10C,0.20*%
%ADD11C,0.30*%
%ADD12C,0.13*%
%ADD13C,0.25*%
D10*
X5102Y870D02*
G03*
X5102Y870I-10J0D01*
G01*
X3918Y4130D02*
G03*
X3918Y4130I-10J0D01*
G01*
X660Y4100D02*
G03*
X660Y4100I-10J0D01*
G01*
X3606Y1531D02*
G03*
X3606Y1531I-10J0D01*
G01*
D11*
X6224Y2590D02*
G03*
X6224Y2590I-14J0D01*
G01*
D12*
X2959Y750D02*
X6040D01*
Y100D02*
Y750D01*
X2959Y100D02*
Y750D01*
Y100D02*
X6040D01*
X6280Y2400D02*
X6730D01*
X6280D02*
Y4200D01*
X6730D01*
Y2400D02*
Y4200D01*
X2959Y4250D02*
X6040D01*
X2959D02*
Y4900D01*
X6040Y4250D02*
Y4900D01*
X2959D02*
X6040D01*
X4662Y1452D02*
Y1503D01*
Y1452D02*
X4713D01*
Y1148D02*
Y1452D01*
X4662Y1148D02*
X4713D01*
X4662Y1097D02*
Y1148D01*
Y1097D02*
X5221D01*
X5246Y1122D01*
X5271Y1097D01*
X5830D01*
Y1148D01*
X5779D02*
X5830D01*
X5779D02*
Y1452D01*
X5830D01*
Y1503D01*
X5271D02*
X5830D01*
X5246Y1478D02*
X5271Y1503D01*
X5221D02*
X5246Y1478D01*
X4662Y1503D02*
X5221D01*
X723Y4520D02*
X2577D01*
X723Y215D02*
X723Y4520D01*
X2577Y215D02*
X2577Y4520D01*
X710Y215D02*
X2564D01*
X5292Y1988D02*
X5408D01*
X5292Y1812D02*
X5408D01*
X3805Y1552D02*
X4195D01*
X3805Y1048D02*
X4195D01*
X4095Y1988D02*
X4211D01*
X4095Y1812D02*
X4211D01*
X6358Y2100D02*
X6620D01*
X6220Y1943D02*
X6358Y2100D01*
X6220Y980D02*
X6780D01*
X6520Y830D02*
Y930D01*
X6470Y880D02*
X6570D01*
X6220Y980D02*
Y1943D01*
X6780Y980D02*
Y1943D01*
X6620Y2100D02*
X6623D01*
X6780Y1943D01*
D13*
X3475Y3135D02*
Y3015D01*
X3555D01*
X3615D02*
X3655D01*
X3675Y3035D01*
Y3075D01*
X3655Y3095D01*
X3615D01*
X3595Y3075D01*
Y3035D01*
X3615Y3015D01*
X3715Y3095D02*
Y3035D01*
X3735Y3015D01*
X3755Y3035D01*
X3775Y3015D01*
X3795Y3035D01*
Y3095D01*
X3895Y3015D02*
X3855D01*
X3835Y3035D01*
Y3075D01*
X3855Y3095D01*
X3895D01*
X3915Y3075D01*
Y3055D01*
X3835D01*
X3955Y3095D02*
Y3015D01*
Y3055D01*
X3975Y3075D01*
X3995Y3095D01*
X4015D01*
X4275Y3115D02*
X4255Y3135D01*
X4215D01*
X4195Y3115D01*
Y3095D01*
X4215Y3075D01*
X4255D01*
X4275Y3055D01*
Y3035D01*
X4255Y3015D01*
X4215D01*
X4195Y3035D01*
X4335Y3115D02*
Y3095D01*
X4315D01*
X4355D01*
X4335D01*
Y3035D01*
X4355Y3015D01*
X4475D02*
X4435D01*
X4415Y3035D01*
Y3075D01*
X4435Y3095D01*
X4475D01*
X4495Y3075D01*
Y3055D01*
X4415D01*
X4595Y3015D02*
X4555D01*
X4535Y3035D01*
Y3075D01*
X4555Y3095D01*
X4595D01*
X4615Y3075D01*
Y3055D01*
X4535D01*
X4655Y3095D02*
Y3015D01*
Y3055D01*
X4675Y3075D01*
X4695Y3095D01*
X4715D01*
X4895Y3135D02*
Y3015D01*
X4955D01*
X4975Y3035D01*
Y3055D01*
X4955Y3075D01*
X4895D01*
X4955D01*
X4975Y3095D01*
Y3115D01*
X4955Y3135D01*
X4895D01*
X5015Y3095D02*
Y3035D01*
X5035Y3015D01*
X5095D01*
Y2995D01*
X5075Y2975D01*
X5055D01*
X5095Y3015D02*
Y3095D01*
X5255Y3135D02*
Y3015D01*
X5295Y3055D01*
X5335Y3015D01*
Y3135D01*
X5375Y3015D02*
X5415D01*
X5395D01*
Y3095D01*
X5375D01*
X5475D02*
Y3015D01*
Y3055D01*
X5495Y3075D01*
X5515Y3095D01*
X5535D01*
X5655Y3015D02*
X5615D01*
X5595Y3035D01*
Y3075D01*
X5615Y3095D01*
X5655D01*
X5675Y3075D01*
Y3055D01*
X5595D01*
X5915Y3015D02*
X5835D01*
X5915Y3095D01*
Y3115D01*
X5895Y3135D01*
X5855D01*
X5835Y3115D01*
X5955Y3015D02*
Y3035D01*
X5975D01*
Y3015D01*
X5955D01*
X6055Y3115D02*
X6075Y3135D01*
X6115D01*
X6135Y3115D01*
Y3035D01*
X6115Y3015D01*
X6075D01*
X6055Y3035D01*
Y3115D01*
X3975Y2745D02*
Y2865D01*
X4035D01*
X4055Y2845D01*
Y2805D01*
X4035Y2785D01*
X3975D01*
X4095Y2825D02*
Y2745D01*
Y2785D01*
X4115Y2805D01*
X4135Y2825D01*
X4155D01*
X4275Y2745D02*
X4235D01*
X4215Y2765D01*
Y2805D01*
X4235Y2825D01*
X4275D01*
X4295Y2805D01*
Y2785D01*
X4215D01*
X4415Y2825D02*
X4355D01*
X4335Y2805D01*
Y2765D01*
X4355Y2745D01*
X4415D01*
X4455D02*
X4495D01*
X4475D01*
Y2825D01*
X4455D01*
X4555Y2745D02*
X4615D01*
X4635Y2765D01*
X4615Y2785D01*
X4575D01*
X4555Y2805D01*
X4575Y2825D01*
X4635D01*
X4735Y2745D02*
X4695D01*
X4675Y2765D01*
Y2805D01*
X4695Y2825D01*
X4735D01*
X4755Y2805D01*
Y2785D01*
X4675D01*
X4995Y2845D02*
X4975Y2865D01*
X4935D01*
X4915Y2845D01*
Y2765D01*
X4935Y2745D01*
X4975D01*
X4995Y2765D01*
X5095Y2745D02*
X5055D01*
X5035Y2765D01*
Y2805D01*
X5055Y2825D01*
X5095D01*
X5115Y2805D01*
Y2785D01*
X5035D01*
X5155Y2745D02*
Y2825D01*
X5215D01*
X5235Y2805D01*
Y2745D01*
X5295Y2845D02*
Y2825D01*
X5275D01*
X5315D01*
X5295D01*
Y2765D01*
X5315Y2745D01*
X5435D02*
X5395D01*
X5375Y2765D01*
Y2805D01*
X5395Y2825D01*
X5435D01*
X5455Y2805D01*
Y2785D01*
X5375D01*
X5495Y2825D02*
Y2745D01*
Y2785D01*
X5515Y2805D01*
X5535Y2825D01*
X5555D01*
X3575Y2585D02*
Y2485D01*
X3595Y2465D01*
X3635D01*
X3655Y2485D01*
Y2585D01*
X3695Y2465D02*
Y2545D01*
X3755D01*
X3775Y2525D01*
Y2465D01*
X3815D02*
X3855D01*
X3835D01*
Y2545D01*
X3815D01*
X3915D02*
X3955Y2465D01*
X3995Y2545D01*
X4175Y2465D02*
X4215D01*
X4235Y2485D01*
Y2525D01*
X4215Y2545D01*
X4175D01*
X4155Y2525D01*
Y2485D01*
X4175Y2465D01*
X4295D02*
Y2565D01*
Y2525D01*
X4275D01*
X4315D01*
X4295D01*
Y2565D01*
X4315Y2585D01*
X4495Y2465D02*
Y2585D01*
X4555D01*
X4575Y2565D01*
Y2525D01*
X4555Y2505D01*
X4495D01*
X4675Y2465D02*
X4635D01*
X4615Y2485D01*
Y2525D01*
X4635Y2545D01*
X4675D01*
X4695Y2525D01*
Y2505D01*
X4615D01*
X4735Y2465D02*
Y2545D01*
X4795D01*
X4815Y2525D01*
Y2465D01*
X4855D02*
Y2545D01*
X4915D01*
X4935Y2525D01*
Y2465D01*
X4975D02*
Y2545D01*
X5035D01*
X5055Y2525D01*
Y2465D01*
X5095D02*
X5155D01*
X5175Y2485D01*
X5155Y2505D01*
X5115D01*
X5095Y2525D01*
X5115Y2545D01*
X5175D01*
X5215D02*
Y2485D01*
X5235Y2465D01*
X5295D01*
Y2445D01*
X5275Y2425D01*
X5255D01*
X5295Y2465D02*
Y2545D01*
X5335Y2465D02*
X5375D01*
X5355D01*
Y2585D01*
X5335D01*
X5435Y2545D02*
X5475Y2465D01*
X5515Y2545D01*
X5575D02*
X5615D01*
X5635Y2525D01*
Y2465D01*
X5575D01*
X5555Y2485D01*
X5575Y2505D01*
X5635D01*
X5675Y2465D02*
Y2545D01*
X5735D01*
X5755Y2525D01*
Y2465D01*
X5795D02*
X5835D01*
X5815D01*
Y2545D01*
X5795D01*
X5915D02*
X5955D01*
X5975Y2525D01*
Y2465D01*
X5915D01*
X5895Y2485D01*
X5915Y2505D01*
X5975D01*
X3775Y3275D02*
Y3355D01*
X3815Y3395D01*
X3855Y3355D01*
Y3275D01*
Y3335D01*
X3775D01*
X3895Y3355D02*
Y3295D01*
X3915Y3275D01*
X3975D01*
Y3355D01*
X4035Y3375D02*
Y3355D01*
X4015D01*
X4055D01*
X4035D01*
Y3295D01*
X4055Y3275D01*
X4135D02*
X4175D01*
X4195Y3295D01*
Y3335D01*
X4175Y3355D01*
X4135D01*
X4115Y3335D01*
Y3295D01*
X4135Y3275D01*
X4235D02*
Y3355D01*
X4295D01*
X4315Y3335D01*
Y3275D01*
X4375D02*
X4415D01*
X4435Y3295D01*
Y3335D01*
X4415Y3355D01*
X4375D01*
X4355Y3335D01*
Y3295D01*
X4375Y3275D01*
X4475D02*
Y3355D01*
X4495D01*
X4515Y3335D01*
Y3275D01*
Y3335D01*
X4535Y3355D01*
X4555Y3335D01*
Y3275D01*
X4615D02*
X4655D01*
X4675Y3295D01*
Y3335D01*
X4655Y3355D01*
X4615D01*
X4595Y3335D01*
Y3295D01*
X4615Y3275D01*
X4715Y3355D02*
Y3295D01*
X4735Y3275D01*
X4795D01*
Y3355D01*
X4835Y3275D02*
X4895D01*
X4915Y3295D01*
X4895Y3315D01*
X4855D01*
X4835Y3335D01*
X4855Y3355D01*
X4915D01*
X5155Y3375D02*
X5135Y3395D01*
X5095D01*
X5075Y3375D01*
Y3295D01*
X5095Y3275D01*
X5135D01*
X5155Y3295D01*
Y3335D01*
X5115D01*
X5215Y3275D02*
X5255D01*
X5275Y3295D01*
Y3335D01*
X5255Y3355D01*
X5215D01*
X5195Y3335D01*
Y3295D01*
X5215Y3275D01*
X5315D02*
Y3395D01*
Y3315D02*
X5375Y3355D01*
X5315Y3315D02*
X5375Y3275D01*
X5455Y3355D02*
X5495D01*
X5515Y3335D01*
Y3275D01*
X5455D01*
X5435Y3295D01*
X5455Y3315D01*
X5515D01*
X5555Y3355D02*
Y3275D01*
Y3315D01*
X5575Y3335D01*
X5595Y3355D01*
X5615D01*
X5695Y3375D02*
Y3355D01*
X5675D01*
X5715D01*
X5695D01*
Y3295D01*
X5715Y3275D01*
X3075Y1076D02*
X3024D01*
X3049D01*
Y949D01*
X3024Y924D01*
X2998D01*
X2973Y949D01*
X3125Y1051D02*
X3151Y1076D01*
X3202D01*
X3227Y1051D01*
Y1025D01*
X3202Y1000D01*
X3176D01*
X3202D01*
X3227Y975D01*
Y949D01*
X3202Y924D01*
X3151D01*
X3125Y949D01*
X3075Y4176D02*
X3024D01*
X3049D01*
Y4049D01*
X3024Y4024D01*
X2998D01*
X2973Y4049D01*
X3202Y4024D02*
Y4176D01*
X3125Y4100D01*
X3227D01*
X6375Y4426D02*
X6324D01*
X6349D01*
Y4299D01*
X6324Y4274D01*
X6298D01*
X6273Y4299D01*
X6527Y4274D02*
X6425D01*
X6527Y4375D01*
Y4401D01*
X6502Y4426D01*
X6451D01*
X6425Y4401D01*
X248Y4226D02*
Y4099D01*
X274Y4074D01*
X325D01*
X350Y4099D01*
Y4226D01*
X401Y4074D02*
X452D01*
X426D01*
Y4226D01*
X401Y4201D01*
X3574Y1623D02*
X3701D01*
X3726Y1648D01*
Y1699D01*
X3701Y1725D01*
X3574D01*
X3726Y1877D02*
Y1775D01*
X3625Y1877D01*
X3599D01*
X3574Y1852D01*
Y1801D01*
X3599Y1775D01*
X5935Y1295D02*
X5910Y1269D01*
Y1218D01*
X5935Y1193D01*
X5961D01*
X5986Y1218D01*
Y1269D01*
X6011Y1295D01*
X6037D01*
X6062Y1269D01*
Y1218D01*
X6037Y1193D01*
X5935Y1345D02*
X5910Y1371D01*
Y1422D01*
X5935Y1447D01*
X5961D01*
X6011Y1396D01*
X6037D02*
X6062D01*
X4473Y1824D02*
Y1976D01*
X4549D01*
X4575Y1951D01*
Y1900D01*
X4549Y1875D01*
X4473D01*
X4524D02*
X4575Y1824D01*
X4727D02*
X4625D01*
X4727Y1925D01*
Y1951D01*
X4702Y1976D01*
X4651D01*
X4625Y1951D01*
X5698Y1824D02*
Y1976D01*
X5775D01*
X5800Y1951D01*
Y1900D01*
X5775Y1875D01*
X5698D01*
X5749D02*
X5800Y1824D01*
X5851D02*
X5902D01*
X5876D01*
Y1976D01*
X5851Y1951D01*
X6725Y876D02*
X6674D01*
X6699D01*
Y749D01*
X6674Y724D01*
X6648D01*
X6623Y749D01*
X6877Y876D02*
X6775D01*
Y800D01*
X6826Y825D01*
X6852D01*
X6877Y800D01*
Y749D01*
X6852Y724D01*
X6801D01*
X6775Y749D01*
M02*
