G04*
G04 #@! TF.GenerationSoftware,Altium Limited,Altium Designer,22.8.2 (66)*
G04*
G04 Layer_Color=65535*
%FSLAX42Y42*%
%MOMM*%
G71*
G04*
G04 #@! TF.SameCoordinates,418904E4-A97B-41F3-844E-409F60187B30*
G04*
G04*
G04 #@! TF.FilePolarity,Positive*
G04*
G01*
G75*
%ADD10C,0.30*%
%ADD11C,0.13*%
%ADD12C,0.20*%
%ADD13C,0.40*%
%ADD14C,0.20*%
%ADD15C,0.25*%
D10*
X765Y350D02*
G03*
X765Y350I-15J0D01*
G01*
D11*
X3049Y11117D02*
G03*
X3049Y11211I-1J47D01*
G01*
X3400D02*
G03*
X3400Y11117I1J-47D01*
G01*
X5300D02*
G03*
X5300Y11211I-1J47D01*
G01*
X5762D02*
G03*
X5762Y11117I1J-47D01*
G01*
X6494D02*
G03*
X6494Y11211I-1J47D01*
G01*
X6900D02*
G03*
X6900Y11117I1J-47D01*
G01*
X1700Y13667D02*
G03*
X1500Y13467I0J-200D01*
G01*
X8500D02*
G03*
X8300Y13667I-200J0D01*
G01*
Y333D02*
G03*
X8500Y533I0J200D01*
G01*
X1500D02*
G03*
X1700Y333I200J0D01*
G01*
X9750Y2750D02*
G03*
X9750Y2750I-400J0D01*
G01*
Y6800D02*
G03*
X9750Y6800I-400J0D01*
G01*
X625Y423D02*
X875D01*
Y1693D01*
X625D02*
X875D01*
X625Y423D02*
Y1693D01*
X6900Y11211D02*
X8500D01*
X5762D02*
X6494D01*
X3400D02*
X5300D01*
X1500D02*
X3049D01*
X6900Y11117D02*
X8500D01*
X5762D02*
X6494D01*
X3400D02*
X5300D01*
X1500D02*
X3049D01*
X1500Y11211D02*
Y13467D01*
X1700Y13667D02*
X8300D01*
X8500Y11211D02*
Y13467D01*
Y533D02*
Y11117D01*
X1700Y333D02*
X8300D01*
X1500Y533D02*
Y11117D01*
X575Y2015D02*
X825D01*
Y3031D01*
X575D02*
X825D01*
X575Y2015D02*
Y3031D01*
X1100Y3650D02*
Y4350D01*
X360Y3650D02*
Y4350D01*
Y3650D02*
X1100D01*
X360Y4350D02*
X1100D01*
X8880Y3731D02*
X9830D01*
Y5931D01*
X8880D02*
X9830D01*
X8880Y3731D02*
Y5931D01*
X645Y9612D02*
X761D01*
X645Y9788D02*
X761D01*
X360Y13050D02*
X1100D01*
X360Y12350D02*
X1100D01*
X360D02*
Y13050D01*
X1100Y12350D02*
Y13050D01*
X9023Y7821D02*
Y9345D01*
X9277D01*
Y7821D02*
Y9345D01*
X9023Y7821D02*
X9277D01*
X9105Y12447D02*
X9495D01*
X9105Y12952D02*
X9495D01*
X1683Y14742D02*
X4763D01*
Y14092D02*
Y14742D01*
X1683Y14092D02*
Y14742D01*
Y14092D02*
X4763D01*
X592Y5188D02*
X708D01*
X592Y5012D02*
X708D01*
X1100Y10625D02*
Y11325D01*
X360Y10625D02*
Y11325D01*
Y10625D02*
X1100D01*
X360Y11325D02*
X1100D01*
X5259Y14100D02*
X8340D01*
X5259D02*
Y14750D01*
X8340Y14100D02*
Y14750D01*
X5259D02*
X8340D01*
X8997Y10112D02*
X9048D01*
Y10163D01*
X9352D01*
Y10112D02*
Y10163D01*
Y10112D02*
X9403D01*
Y10671D01*
X9378Y10696D02*
X9403Y10671D01*
X9378Y10696D02*
X9403Y10721D01*
Y11280D01*
X9352D02*
X9403D01*
X9352Y11229D02*
Y11280D01*
X9048Y11229D02*
X9352D01*
X9048D02*
Y11280D01*
X8997D02*
X9048D01*
X8997Y10721D02*
Y11280D01*
Y10721D02*
X9022Y10696D01*
X8997Y10671D02*
X9022Y10696D01*
X8997Y10112D02*
Y10671D01*
X9142Y11862D02*
X9258D01*
X9142Y12038D02*
X9258D01*
X9142Y13588D02*
X9258D01*
X9142Y13412D02*
X9258D01*
X9207Y2090D02*
X9470D01*
X9070Y1933D02*
X9207Y2090D01*
X9070Y970D02*
X9630D01*
X9370Y820D02*
Y920D01*
X9320Y870D02*
X9420D01*
X9070Y970D02*
Y1933D01*
X9630Y970D02*
Y1933D01*
X9470Y2090D02*
X9473D01*
X9630Y1933D01*
D12*
X1406Y10493D02*
G03*
X1406Y10493I-10J0D01*
G01*
X8885Y2750D02*
G03*
X8885Y2750I-10J0D01*
G01*
Y6800D02*
G03*
X8885Y6800I-10J0D01*
G01*
X9155Y3641D02*
G03*
X9155Y3641I-10J0D01*
G01*
X8906Y12930D02*
G03*
X8906Y12930I-10J0D01*
G01*
X2641Y13972D02*
G03*
X2641Y13972I-10J0D01*
G01*
X6217Y13980D02*
G03*
X6217Y13980I-10J0D01*
G01*
D13*
X724Y1940D02*
G03*
X724Y1940I-20J0D01*
G01*
D14*
X890Y6435D02*
Y7265D01*
X400Y6435D02*
X890D01*
X400D02*
Y7265D01*
X890D01*
Y8235D02*
Y9065D01*
X400Y8235D02*
X890D01*
X400D02*
Y9065D01*
X890D01*
D15*
X1125Y1026D02*
X1074D01*
X1099D01*
Y899D01*
X1074Y874D01*
X1048D01*
X1023Y899D01*
X1175Y1001D02*
X1201Y1026D01*
X1252D01*
X1277Y1001D01*
Y975D01*
X1252Y950D01*
X1277Y925D01*
Y899D01*
X1252Y874D01*
X1201D01*
X1175Y899D01*
Y925D01*
X1201Y950D01*
X1175Y975D01*
Y1001D01*
X1201Y950D02*
X1252D01*
X125Y645D02*
X165D01*
X145D01*
Y525D01*
X125D01*
X165D01*
X225D02*
Y645D01*
X305Y525D01*
Y645D01*
X345D02*
X425D01*
X385D01*
Y525D01*
X465D02*
Y645D01*
X505Y605D01*
X545Y645D01*
Y525D01*
X125Y895D02*
Y775D01*
X185D01*
X205Y795D01*
Y875D01*
X185Y895D01*
X125D01*
X245Y775D02*
Y895D01*
X305D01*
X325Y875D01*
Y835D01*
X305Y815D01*
X245D01*
X285D02*
X325Y775D01*
X365Y895D02*
Y775D01*
X425D01*
X445Y795D01*
Y875D01*
X425Y895D01*
X365D01*
X485D02*
Y875D01*
X525Y835D01*
X565Y875D01*
Y895D01*
X525Y835D02*
Y775D01*
X125Y1145D02*
X165D01*
X145D01*
Y1025D01*
X125D01*
X165D01*
X225D02*
Y1145D01*
X305Y1025D01*
Y1145D01*
X345D02*
X425D01*
X385D01*
Y1025D01*
X465D02*
X505D01*
X485D01*
Y1145D01*
X465Y1125D01*
X125Y1395D02*
X165D01*
X145D01*
Y1275D01*
X125D01*
X165D01*
X225D02*
Y1395D01*
X305Y1275D01*
Y1395D01*
X345D02*
X425D01*
X385D01*
Y1275D01*
X545D02*
X465D01*
X545Y1355D01*
Y1375D01*
X525Y1395D01*
X485D01*
X465Y1375D01*
X125Y1645D02*
Y1525D01*
X185D01*
X205Y1545D01*
Y1625D01*
X185Y1645D01*
X125D01*
X325D02*
X245D01*
Y1525D01*
X325D01*
X245Y1585D02*
X285D01*
X365Y1525D02*
Y1645D01*
X445Y1525D01*
Y1645D01*
X1402Y13924D02*
Y13797D01*
X1427Y13772D01*
X1478D01*
X1504Y13797D01*
Y13924D01*
X1554Y13772D02*
X1605D01*
X1580D01*
Y13924D01*
X1554Y13899D01*
X75Y2175D02*
X95Y2195D01*
X135D01*
X155Y2175D01*
Y2155D01*
X135Y2135D01*
X115D01*
X135D01*
X155Y2115D01*
Y2095D01*
X135Y2075D01*
X95D01*
X75Y2095D01*
X195Y2075D02*
Y2095D01*
X215D01*
Y2075D01*
X195D01*
X295Y2175D02*
X315Y2195D01*
X355D01*
X375Y2175D01*
Y2155D01*
X355Y2135D01*
X335D01*
X355D01*
X375Y2115D01*
Y2095D01*
X355Y2075D01*
X315D01*
X295Y2095D01*
X415Y2195D02*
Y2115D01*
X455Y2075D01*
X495Y2115D01*
Y2195D01*
X205Y2425D02*
X185Y2445D01*
X145D01*
X125Y2425D01*
Y2345D01*
X145Y2325D01*
X185D01*
X205Y2345D01*
Y2385D01*
X165D01*
X245Y2325D02*
Y2445D01*
X325Y2325D01*
Y2445D01*
X365D02*
Y2325D01*
X425D01*
X445Y2345D01*
Y2425D01*
X425Y2445D01*
X365D01*
X205Y2725D02*
X185Y2745D01*
X145D01*
X125Y2725D01*
Y2705D01*
X145Y2685D01*
X185D01*
X205Y2665D01*
Y2645D01*
X185Y2625D01*
X145D01*
X125Y2645D01*
X245Y2745D02*
Y2625D01*
X305D01*
X325Y2645D01*
Y2725D01*
X305Y2745D01*
X245D01*
X365Y2625D02*
Y2705D01*
X405Y2745D01*
X445Y2705D01*
Y2625D01*
Y2685D01*
X365D01*
X205Y2975D02*
X185Y2995D01*
X145D01*
X125Y2975D01*
Y2955D01*
X145Y2935D01*
X185D01*
X205Y2915D01*
Y2895D01*
X185Y2875D01*
X145D01*
X125Y2895D01*
X325Y2975D02*
X305Y2995D01*
X265D01*
X245Y2975D01*
Y2895D01*
X265Y2875D01*
X305D01*
X325Y2895D01*
X365Y2995D02*
Y2875D01*
X445D01*
X3425Y9179D02*
Y9052D01*
X3451Y9026D01*
X3502D01*
X3527Y9052D01*
Y9179D01*
X3578Y9026D02*
Y9128D01*
X3654D01*
X3679Y9102D01*
Y9026D01*
X3730D02*
X3781D01*
X3755D01*
Y9128D01*
X3730D01*
X3857D02*
X3908Y9026D01*
X3959Y9128D01*
X4086Y9026D02*
X4035D01*
X4009Y9052D01*
Y9102D01*
X4035Y9128D01*
X4086D01*
X4111Y9102D01*
Y9077D01*
X4009D01*
X4162Y9128D02*
Y9026D01*
Y9077D01*
X4187Y9102D01*
X4213Y9128D01*
X4238D01*
X4314Y9026D02*
X4390D01*
X4416Y9052D01*
X4390Y9077D01*
X4340D01*
X4314Y9102D01*
X4340Y9128D01*
X4416D01*
X4466Y9026D02*
X4517D01*
X4492D01*
Y9128D01*
X4466D01*
X4619Y9153D02*
Y9128D01*
X4593D01*
X4644D01*
X4619D01*
Y9052D01*
X4644Y9026D01*
X4720Y9128D02*
Y9052D01*
X4746Y9026D01*
X4822D01*
Y9001D01*
X4797Y8975D01*
X4771D01*
X4822Y9026D02*
Y9128D01*
X5050Y9026D02*
X5101D01*
X5127Y9052D01*
Y9102D01*
X5101Y9128D01*
X5050D01*
X5025Y9102D01*
Y9052D01*
X5050Y9026D01*
X5203D02*
Y9153D01*
Y9102D01*
X5177D01*
X5228D01*
X5203D01*
Y9153D01*
X5228Y9179D01*
X5457Y9026D02*
Y9179D01*
X5533D01*
X5558Y9153D01*
Y9102D01*
X5533Y9077D01*
X5457D01*
X5685Y9026D02*
X5634D01*
X5609Y9052D01*
Y9102D01*
X5634Y9128D01*
X5685D01*
X5711Y9102D01*
Y9077D01*
X5609D01*
X5761Y9026D02*
Y9128D01*
X5838D01*
X5863Y9102D01*
Y9026D01*
X5914D02*
Y9128D01*
X5990D01*
X6015Y9102D01*
Y9026D01*
X6066D02*
X6142D01*
X6168Y9052D01*
X6142Y9077D01*
X6092D01*
X6066Y9102D01*
X6092Y9128D01*
X6168D01*
X6218D02*
Y9052D01*
X6244Y9026D01*
X6320D01*
Y9001D01*
X6295Y8975D01*
X6269D01*
X6320Y9026D02*
Y9128D01*
X6371Y9026D02*
X6422D01*
X6396D01*
Y9179D01*
X6371D01*
X6498Y9128D02*
X6549Y9026D01*
X6599Y9128D01*
X6676D02*
X6726D01*
X6752Y9102D01*
Y9026D01*
X6676D01*
X6650Y9052D01*
X6676Y9077D01*
X6752D01*
X6803Y9026D02*
Y9128D01*
X6879D01*
X6904Y9102D01*
Y9026D01*
X6955D02*
X7006D01*
X6980D01*
Y9128D01*
X6955D01*
X7107D02*
X7158D01*
X7183Y9102D01*
Y9026D01*
X7107D01*
X7082Y9052D01*
X7107Y9077D01*
X7183D01*
X3125Y9425D02*
Y9527D01*
X3176Y9578D01*
X3227Y9527D01*
Y9425D01*
Y9502D01*
X3125D01*
X3278Y9527D02*
Y9451D01*
X3303Y9425D01*
X3379D01*
Y9527D01*
X3455Y9552D02*
Y9527D01*
X3430D01*
X3481D01*
X3455D01*
Y9451D01*
X3481Y9425D01*
X3582D02*
X3633D01*
X3659Y9451D01*
Y9502D01*
X3633Y9527D01*
X3582D01*
X3557Y9502D01*
Y9451D01*
X3582Y9425D01*
X3709Y9527D02*
Y9451D01*
X3735Y9425D01*
X3760Y9451D01*
X3786Y9425D01*
X3811Y9451D01*
Y9527D01*
X3887D02*
X3938D01*
X3963Y9502D01*
Y9425D01*
X3887D01*
X3862Y9451D01*
X3887Y9476D01*
X3963D01*
X4014Y9527D02*
Y9425D01*
Y9476D01*
X4040Y9502D01*
X4065Y9527D01*
X4090D01*
X4243Y9425D02*
X4192D01*
X4166Y9451D01*
Y9502D01*
X4192Y9527D01*
X4243D01*
X4268Y9502D01*
Y9476D01*
X4166D01*
X4573Y9552D02*
X4547Y9578D01*
X4497D01*
X4471Y9552D01*
Y9451D01*
X4497Y9425D01*
X4547D01*
X4573Y9451D01*
X4700Y9425D02*
X4649D01*
X4624Y9451D01*
Y9502D01*
X4649Y9527D01*
X4700D01*
X4725Y9502D01*
Y9476D01*
X4624D01*
X4776Y9425D02*
Y9527D01*
X4852D01*
X4877Y9502D01*
Y9425D01*
X4954Y9552D02*
Y9527D01*
X4928D01*
X4979D01*
X4954D01*
Y9451D01*
X4979Y9425D01*
X5131D02*
X5081D01*
X5055Y9451D01*
Y9502D01*
X5081Y9527D01*
X5131D01*
X5157Y9502D01*
Y9476D01*
X5055D01*
X5208Y9527D02*
Y9425D01*
Y9476D01*
X5233Y9502D01*
X5258Y9527D01*
X5284D01*
X5538Y9425D02*
X5588D01*
X5614Y9451D01*
Y9502D01*
X5588Y9527D01*
X5538D01*
X5512Y9502D01*
Y9451D01*
X5538Y9425D01*
X5690D02*
Y9552D01*
Y9502D01*
X5665D01*
X5715D01*
X5690D01*
Y9552D01*
X5715Y9578D01*
X6045D02*
X5944D01*
Y9425D01*
X6045D01*
X5944Y9502D02*
X5995D01*
X6096Y9527D02*
X6198Y9425D01*
X6147Y9476D01*
X6198Y9527D01*
X6096Y9425D01*
X6350Y9527D02*
X6274D01*
X6249Y9502D01*
Y9451D01*
X6274Y9425D01*
X6350D01*
X6477D02*
X6426D01*
X6401Y9451D01*
Y9502D01*
X6426Y9527D01*
X6477D01*
X6503Y9502D01*
Y9476D01*
X6401D01*
X6553Y9425D02*
X6604D01*
X6579D01*
Y9578D01*
X6553D01*
X6680Y9425D02*
X6731D01*
X6706D01*
Y9578D01*
X6680D01*
X6883Y9425D02*
X6833D01*
X6807Y9451D01*
Y9502D01*
X6833Y9527D01*
X6883D01*
X6909Y9502D01*
Y9476D01*
X6807D01*
X6960Y9425D02*
Y9527D01*
X7036D01*
X7061Y9502D01*
Y9425D01*
X7213Y9527D02*
X7137D01*
X7112Y9502D01*
Y9451D01*
X7137Y9425D01*
X7213D01*
X7340D02*
X7290D01*
X7264Y9451D01*
Y9502D01*
X7290Y9527D01*
X7340D01*
X7366Y9502D01*
Y9476D01*
X7264D01*
X3675Y9825D02*
Y9978D01*
X3726Y9927D01*
X3777Y9978D01*
Y9825D01*
X3853Y9927D02*
X3904D01*
X3929Y9902D01*
Y9825D01*
X3853D01*
X3828Y9851D01*
X3853Y9876D01*
X3929D01*
X3980Y9825D02*
X4031D01*
X4005D01*
Y9927D01*
X3980D01*
X4107Y9825D02*
Y9927D01*
X4183D01*
X4209Y9902D01*
Y9825D01*
X4513Y9952D02*
X4488Y9978D01*
X4437D01*
X4412Y9952D01*
Y9851D01*
X4437Y9825D01*
X4488D01*
X4513Y9851D01*
X4590Y9825D02*
X4640D01*
X4666Y9851D01*
Y9902D01*
X4640Y9927D01*
X4590D01*
X4564Y9902D01*
Y9851D01*
X4590Y9825D01*
X4716D02*
Y9927D01*
X4793D01*
X4818Y9902D01*
Y9825D01*
X4894Y9952D02*
Y9927D01*
X4869D01*
X4920D01*
X4894D01*
Y9851D01*
X4920Y9825D01*
X4996Y9927D02*
Y9825D01*
Y9876D01*
X5021Y9902D01*
X5047Y9927D01*
X5072D01*
X5174Y9825D02*
X5224D01*
X5250Y9851D01*
Y9902D01*
X5224Y9927D01*
X5174D01*
X5148Y9902D01*
Y9851D01*
X5174Y9825D01*
X5300D02*
X5351D01*
X5326D01*
Y9978D01*
X5300D01*
X5427Y9825D02*
X5478D01*
X5453D01*
Y9978D01*
X5427D01*
X5631Y9825D02*
X5580D01*
X5554Y9851D01*
Y9902D01*
X5580Y9927D01*
X5631D01*
X5656Y9902D01*
Y9876D01*
X5554D01*
X5707Y9927D02*
Y9825D01*
Y9876D01*
X5732Y9902D01*
X5758Y9927D01*
X5783D01*
X6011Y9978D02*
Y9876D01*
X6062Y9825D01*
X6113Y9876D01*
Y9978D01*
X6265Y9825D02*
X6164D01*
X6265Y9927D01*
Y9952D01*
X6240Y9978D01*
X6189D01*
X6164Y9952D01*
X6316Y9825D02*
Y9851D01*
X6342D01*
Y9825D01*
X6316D01*
X6443Y9952D02*
X6468Y9978D01*
X6519D01*
X6545Y9952D01*
Y9851D01*
X6519Y9825D01*
X6468D01*
X6443Y9851D01*
Y9952D01*
X3875Y10225D02*
Y10327D01*
X3926Y10378D01*
X3977Y10327D01*
Y10225D01*
Y10302D01*
X3875D01*
X4028Y10327D02*
Y10251D01*
X4053Y10225D01*
X4129D01*
Y10327D01*
X4205Y10352D02*
Y10327D01*
X4180D01*
X4231D01*
X4205D01*
Y10251D01*
X4231Y10225D01*
X4332D02*
X4383D01*
X4409Y10251D01*
Y10302D01*
X4383Y10327D01*
X4332D01*
X4307Y10302D01*
Y10251D01*
X4332Y10225D01*
X4459D02*
Y10327D01*
X4536D01*
X4561Y10302D01*
Y10225D01*
X4637D02*
X4688D01*
X4713Y10251D01*
Y10302D01*
X4688Y10327D01*
X4637D01*
X4612Y10302D01*
Y10251D01*
X4637Y10225D01*
X4764D02*
Y10327D01*
X4790D01*
X4815Y10302D01*
Y10225D01*
Y10302D01*
X4840Y10327D01*
X4866Y10302D01*
Y10225D01*
X4942D02*
X4993D01*
X5018Y10251D01*
Y10302D01*
X4993Y10327D01*
X4942D01*
X4916Y10302D01*
Y10251D01*
X4942Y10225D01*
X5069Y10327D02*
Y10251D01*
X5094Y10225D01*
X5170D01*
Y10327D01*
X5221Y10225D02*
X5297D01*
X5323Y10251D01*
X5297Y10276D01*
X5247D01*
X5221Y10302D01*
X5247Y10327D01*
X5323D01*
X5627Y10352D02*
X5602Y10378D01*
X5551D01*
X5526Y10352D01*
Y10251D01*
X5551Y10225D01*
X5602D01*
X5627Y10251D01*
Y10302D01*
X5577D01*
X5704Y10225D02*
X5754D01*
X5780Y10251D01*
Y10302D01*
X5754Y10327D01*
X5704D01*
X5678Y10302D01*
Y10251D01*
X5704Y10225D01*
X5831D02*
Y10378D01*
Y10276D02*
X5907Y10327D01*
X5831Y10276D02*
X5907Y10225D01*
X6008Y10327D02*
X6059D01*
X6084Y10302D01*
Y10225D01*
X6008D01*
X5983Y10251D01*
X6008Y10276D01*
X6084D01*
X6135Y10327D02*
Y10225D01*
Y10276D01*
X6161Y10302D01*
X6186Y10327D01*
X6211D01*
X6313Y10352D02*
Y10327D01*
X6288D01*
X6338D01*
X6313D01*
Y10251D01*
X6338Y10225D01*
X505Y3515D02*
X485Y3535D01*
X445D01*
X425Y3515D01*
Y3495D01*
X445Y3475D01*
X485D01*
X505Y3455D01*
Y3435D01*
X485Y3415D01*
X445D01*
X425Y3435D01*
X545Y3375D02*
Y3495D01*
X605D01*
X625Y3475D01*
Y3435D01*
X605Y3415D01*
X545D01*
X685Y3495D02*
X725D01*
X745Y3475D01*
Y3415D01*
X685D01*
X665Y3435D01*
X685Y3455D01*
X745D01*
X785Y3495D02*
Y3415D01*
Y3455D01*
X805Y3475D01*
X825Y3495D01*
X845D01*
X965Y3415D02*
X925D01*
X905Y3435D01*
Y3475D01*
X925Y3495D01*
X965D01*
X985Y3475D01*
Y3455D01*
X905D01*
X125Y3925D02*
X245D01*
Y3865D01*
X225Y3845D01*
X185D01*
X165Y3865D01*
Y3925D01*
X245Y3805D02*
X125D01*
Y3745D01*
X145Y3725D01*
X165D01*
X185Y3745D01*
Y3805D01*
Y3745D01*
X205Y3725D01*
X225D01*
X245Y3745D01*
Y3805D01*
X225Y3685D02*
X245Y3665D01*
Y3625D01*
X225Y3605D01*
X205D01*
X185Y3625D01*
Y3645D01*
Y3625D01*
X165Y3605D01*
X145D01*
X125Y3625D01*
Y3665D01*
X145Y3685D01*
X125Y4375D02*
X245D01*
Y4315D01*
X225Y4295D01*
X185D01*
X165Y4315D01*
Y4375D01*
X245Y4255D02*
X125D01*
Y4195D01*
X145Y4175D01*
X165D01*
X185Y4195D01*
Y4255D01*
Y4195D01*
X205Y4175D01*
X225D01*
X245Y4195D01*
Y4255D01*
X125Y4075D02*
X245D01*
X185Y4135D01*
Y4055D01*
X125Y10925D02*
X245D01*
Y10865D01*
X225Y10845D01*
X185D01*
X165Y10865D01*
Y10925D01*
Y10885D02*
X125Y10845D01*
Y10725D02*
Y10805D01*
X205Y10725D01*
X225D01*
X245Y10745D01*
Y10785D01*
X225Y10805D01*
X125Y11225D02*
X245D01*
Y11165D01*
X225Y11145D01*
X185D01*
X165Y11165D01*
Y11225D01*
Y11185D02*
X125Y11145D01*
Y11105D02*
Y11065D01*
Y11085D01*
X245D01*
X225Y11105D01*
X8625Y695D02*
Y615D01*
X8665Y575D01*
X8705Y615D01*
Y695D01*
X8825D02*
Y575D01*
X8765D01*
X8745Y595D01*
Y635D01*
X8765Y655D01*
X8825D01*
X8945D02*
X8885D01*
X8865Y635D01*
Y595D01*
X8885Y575D01*
X8945D01*
X9165D02*
Y695D01*
X9105Y635D01*
X9185D01*
X9225Y575D02*
Y595D01*
X9245D01*
Y575D01*
X9225D01*
X9405Y695D02*
X9325D01*
Y635D01*
X9365Y655D01*
X9385D01*
X9405Y635D01*
Y595D01*
X9385Y575D01*
X9345D01*
X9325Y595D01*
X9445Y635D02*
X9525D01*
X9565Y675D02*
X9585Y695D01*
X9625D01*
X9645Y675D01*
Y655D01*
X9625Y635D01*
X9605D01*
X9625D01*
X9645Y615D01*
Y595D01*
X9625Y575D01*
X9585D01*
X9565Y595D01*
X9765Y695D02*
X9725Y675D01*
X9685Y635D01*
Y595D01*
X9705Y575D01*
X9745D01*
X9765Y595D01*
Y615D01*
X9745Y635D01*
X9685D01*
X9805Y695D02*
Y615D01*
X9845Y575D01*
X9885Y615D01*
Y695D01*
X9505Y7985D02*
X9485Y8005D01*
X9445D01*
X9425Y7985D01*
Y7905D01*
X9445Y7885D01*
X9485D01*
X9505Y7905D01*
Y7945D01*
X9465D01*
X9545Y7885D02*
Y8005D01*
X9625Y7885D01*
Y8005D01*
X9665D02*
Y7885D01*
X9725D01*
X9745Y7905D01*
Y7985D01*
X9725Y8005D01*
X9665D01*
X9505Y8235D02*
X9485Y8255D01*
X9445D01*
X9425Y8235D01*
Y8155D01*
X9445Y8135D01*
X9485D01*
X9505Y8155D01*
X9545Y8255D02*
X9625D01*
X9585D01*
Y8135D01*
X9745Y8235D02*
X9725Y8255D01*
X9685D01*
X9665Y8235D01*
Y8215D01*
X9685Y8195D01*
X9725D01*
X9745Y8175D01*
Y8155D01*
X9725Y8135D01*
X9685D01*
X9665Y8155D01*
X9505Y8505D02*
X9425D01*
Y8445D01*
X9465Y8465D01*
X9485D01*
X9505Y8445D01*
Y8405D01*
X9485Y8385D01*
X9445D01*
X9425Y8405D01*
X9545Y8505D02*
Y8425D01*
X9585Y8385D01*
X9625Y8425D01*
Y8505D01*
X9425Y8755D02*
X9505D01*
X9465D01*
Y8635D01*
X9545Y8755D02*
X9625Y8635D01*
Y8755D02*
X9545Y8635D01*
X9665Y8755D02*
Y8635D01*
X9725D01*
X9745Y8655D01*
Y8735D01*
X9725Y8755D01*
X9665D01*
X9425Y8885D02*
Y9005D01*
X9485D01*
X9505Y8985D01*
Y8945D01*
X9485Y8925D01*
X9425D01*
X9465D02*
X9505Y8885D01*
X9545Y9005D02*
X9625Y8885D01*
Y9005D02*
X9545Y8885D01*
X9665Y9005D02*
Y8885D01*
X9725D01*
X9745Y8905D01*
Y8985D01*
X9725Y9005D01*
X9665D01*
X9425Y9135D02*
Y9255D01*
X9485D01*
X9505Y9235D01*
Y9195D01*
X9485Y9175D01*
X9425D01*
X9465D02*
X9505Y9135D01*
X9545Y9255D02*
X9625D01*
X9585D01*
Y9135D01*
X9745Y9235D02*
X9725Y9255D01*
X9685D01*
X9665Y9235D01*
Y9215D01*
X9685Y9195D01*
X9725D01*
X9745Y9175D01*
Y9155D01*
X9725Y9135D01*
X9685D01*
X9665Y9155D01*
X9585Y10495D02*
X9545D01*
X9525Y10475D01*
Y10395D01*
X9545Y10375D01*
X9585D01*
X9605Y10395D01*
Y10475D01*
X9585Y10495D01*
X9665Y10375D02*
Y10475D01*
Y10435D01*
X9645D01*
X9685D01*
X9665D01*
Y10475D01*
X9685Y10495D01*
X9765Y10375D02*
Y10475D01*
Y10435D01*
X9745D01*
X9785D01*
X9765D01*
Y10475D01*
X9785Y10495D01*
X9585Y10995D02*
X9545D01*
X9525Y10975D01*
Y10895D01*
X9545Y10875D01*
X9585D01*
X9605Y10895D01*
Y10975D01*
X9585Y10995D01*
X9645Y10875D02*
Y10955D01*
X9705D01*
X9725Y10935D01*
Y10875D01*
X405Y5875D02*
X385Y5895D01*
X345D01*
X325Y5875D01*
Y5855D01*
X345Y5835D01*
X385D01*
X405Y5815D01*
Y5795D01*
X385Y5775D01*
X345D01*
X325Y5795D01*
X505Y5775D02*
X465D01*
X445Y5795D01*
Y5835D01*
X465Y5855D01*
X505D01*
X525Y5835D01*
Y5815D01*
X445D01*
X565Y5775D02*
Y5855D01*
X625D01*
X645Y5835D01*
Y5775D01*
X685D02*
X745D01*
X765Y5795D01*
X745Y5815D01*
X705D01*
X685Y5835D01*
X705Y5855D01*
X765D01*
X825Y5775D02*
X865D01*
X885Y5795D01*
Y5835D01*
X865Y5855D01*
X825D01*
X805Y5835D01*
Y5795D01*
X825Y5775D01*
X925Y5855D02*
Y5775D01*
Y5815D01*
X945Y5835D01*
X965Y5855D01*
X985D01*
X275Y10495D02*
X355D01*
X315D01*
Y10375D01*
X395Y10495D02*
Y10375D01*
Y10435D01*
X415Y10455D01*
X455D01*
X475Y10435D01*
Y10375D01*
X515Y10455D02*
Y10375D01*
Y10415D01*
X535Y10435D01*
X555Y10455D01*
X575D01*
X655Y10375D02*
X695D01*
X715Y10395D01*
Y10435D01*
X695Y10455D01*
X655D01*
X635Y10435D01*
Y10395D01*
X655Y10375D01*
X775Y10475D02*
Y10455D01*
X755D01*
X795D01*
X775D01*
Y10395D01*
X795Y10375D01*
X875Y10475D02*
Y10455D01*
X855D01*
X895D01*
X875D01*
Y10395D01*
X895Y10375D01*
X955D02*
X995D01*
X975D01*
Y10495D01*
X955D01*
X1115Y10375D02*
X1075D01*
X1055Y10395D01*
Y10435D01*
X1075Y10455D01*
X1115D01*
X1135Y10435D01*
Y10415D01*
X1055D01*
X405Y6115D02*
X385Y6135D01*
X345D01*
X325Y6115D01*
Y6095D01*
X345Y6075D01*
X385D01*
X405Y6055D01*
Y6035D01*
X385Y6015D01*
X345D01*
X325Y6035D01*
X445Y5975D02*
Y6095D01*
X505D01*
X525Y6075D01*
Y6035D01*
X505Y6015D01*
X445D01*
X625D02*
X585D01*
X565Y6035D01*
Y6075D01*
X585Y6095D01*
X625D01*
X645Y6075D01*
Y6055D01*
X565D01*
X745Y6015D02*
X705D01*
X685Y6035D01*
Y6075D01*
X705Y6095D01*
X745D01*
X765Y6075D01*
Y6055D01*
X685D01*
X885Y6135D02*
Y6015D01*
X825D01*
X805Y6035D01*
Y6075D01*
X825Y6095D01*
X885D01*
X325Y6345D02*
Y6225D01*
X365Y6265D01*
X405Y6225D01*
Y6345D01*
X445D02*
Y6225D01*
Y6285D01*
X465Y6305D01*
X505D01*
X525Y6285D01*
Y6225D01*
X625D02*
X585D01*
X565Y6245D01*
Y6285D01*
X585Y6305D01*
X625D01*
X645Y6285D01*
Y6265D01*
X565D01*
X745Y6225D02*
X705D01*
X685Y6245D01*
Y6285D01*
X705Y6305D01*
X745D01*
X765Y6285D01*
Y6265D01*
X685D01*
X805Y6225D02*
X845D01*
X825D01*
Y6345D01*
X805D01*
X375Y7975D02*
Y8095D01*
X435D01*
X455Y8075D01*
Y8035D01*
X435Y8015D01*
X375D01*
X415D02*
X455Y7975D01*
X515Y8055D02*
X555D01*
X575Y8035D01*
Y7975D01*
X515D01*
X495Y7995D01*
X515Y8015D01*
X575D01*
X695Y8095D02*
Y7975D01*
X635D01*
X615Y7995D01*
Y8035D01*
X635Y8055D01*
X695D01*
X735Y7975D02*
X775D01*
X755D01*
Y8055D01*
X735D01*
X855Y7975D02*
X895D01*
X915Y7995D01*
Y8035D01*
X895Y8055D01*
X855D01*
X835Y8035D01*
Y7995D01*
X855Y7975D01*
X225Y12545D02*
X245Y12565D01*
Y12605D01*
X225Y12625D01*
X145D01*
X125Y12605D01*
Y12565D01*
X145Y12545D01*
X185D01*
Y12585D01*
X125Y12505D02*
X245D01*
X125Y12425D01*
X245D01*
Y12385D02*
X125D01*
Y12325D01*
X145Y12305D01*
X225D01*
X245Y12325D01*
Y12385D01*
X125Y13075D02*
X245D01*
Y13015D01*
X225Y12995D01*
X185D01*
X165Y13015D01*
Y13075D01*
X245Y12955D02*
X125D01*
X165Y12915D01*
X125Y12875D01*
X245D01*
X125Y12835D02*
X245D01*
X205Y12795D01*
X245Y12755D01*
X125D01*
X305Y12115D02*
X285Y12135D01*
X245D01*
X225Y12115D01*
Y12095D01*
X245Y12075D01*
X285D01*
X305Y12055D01*
Y12035D01*
X285Y12015D01*
X245D01*
X225Y12035D01*
X345Y11975D02*
Y12095D01*
X405D01*
X425Y12075D01*
Y12035D01*
X405Y12015D01*
X345D01*
X525D02*
X485D01*
X465Y12035D01*
Y12075D01*
X485Y12095D01*
X525D01*
X545Y12075D01*
Y12055D01*
X465D01*
X645Y12015D02*
X605D01*
X585Y12035D01*
Y12075D01*
X605Y12095D01*
X645D01*
X665Y12075D01*
Y12055D01*
X585D01*
X785Y12135D02*
Y12015D01*
X725D01*
X705Y12035D01*
Y12075D01*
X725Y12095D01*
X785D01*
X945Y12015D02*
Y12135D01*
X1005D01*
X1025Y12115D01*
Y12075D01*
X1005Y12055D01*
X945D01*
X1065Y12135D02*
Y12015D01*
X1105Y12055D01*
X1145Y12015D01*
Y12135D01*
X1185Y12015D02*
Y12135D01*
X1225Y12095D01*
X1265Y12135D01*
Y12015D01*
X8981Y7429D02*
X8956Y7455D01*
X8905D01*
X8880Y7429D01*
Y7328D01*
X8905Y7303D01*
X8956D01*
X8981Y7328D01*
X9134Y7303D02*
X9032D01*
X9134Y7404D01*
Y7429D01*
X9108Y7455D01*
X9058D01*
X9032Y7429D01*
X9150Y3401D02*
X9125Y3426D01*
X9074D01*
X9048Y3401D01*
Y3299D01*
X9074Y3274D01*
X9125D01*
X9150Y3299D01*
X9201Y3274D02*
X9252D01*
X9226D01*
Y3426D01*
X9201Y3401D01*
X1075Y2626D02*
X1024D01*
X1049D01*
Y2499D01*
X1024Y2474D01*
X998D01*
X973Y2499D01*
X1125Y2626D02*
X1227D01*
Y2601D01*
X1125Y2499D01*
Y2474D01*
X475Y4626D02*
X424D01*
X449D01*
Y4499D01*
X424Y4474D01*
X398D01*
X373Y4499D01*
X627Y4626D02*
X576Y4601D01*
X525Y4550D01*
Y4499D01*
X551Y4474D01*
X602D01*
X627Y4499D01*
Y4525D01*
X602Y4550D01*
X525D01*
X9077Y6005D02*
Y6157D01*
X9153D01*
X9179Y6132D01*
Y6081D01*
X9153Y6056D01*
X9077D01*
X9331Y6132D02*
X9306Y6157D01*
X9255D01*
X9230Y6132D01*
Y6106D01*
X9255Y6081D01*
X9306D01*
X9331Y6056D01*
Y6030D01*
X9306Y6005D01*
X9255D01*
X9230Y6030D01*
X9382Y6005D02*
X9433D01*
X9407D01*
Y6157D01*
X9382Y6132D01*
X9126Y9599D02*
X9075D01*
X9101D01*
Y9472D01*
X9075Y9446D01*
X9050D01*
X9025Y9472D01*
X9279Y9599D02*
X9177D01*
Y9522D01*
X9228Y9548D01*
X9253D01*
X9279Y9522D01*
Y9472D01*
X9253Y9446D01*
X9202D01*
X9177Y9472D01*
X445Y5293D02*
Y5446D01*
X521D01*
X546Y5420D01*
Y5370D01*
X521Y5344D01*
X445D01*
X495D02*
X546Y5293D01*
X673D02*
Y5446D01*
X597Y5370D01*
X698D01*
X414Y7351D02*
Y7503D01*
X490D01*
X516Y7478D01*
Y7427D01*
X490Y7402D01*
X414D01*
X668Y7351D02*
X566D01*
X668Y7452D01*
Y7478D01*
X643Y7503D01*
X592D01*
X566Y7478D01*
X414Y9152D02*
Y9304D01*
X490D01*
X516Y9279D01*
Y9228D01*
X490Y9202D01*
X414D01*
X566Y9152D02*
X617D01*
X592D01*
Y9304D01*
X566Y9279D01*
X573Y9874D02*
Y10026D01*
X649D01*
X675Y10001D01*
Y9950D01*
X649Y9925D01*
X573D01*
X624D02*
X675Y9874D01*
X725Y10001D02*
X751Y10026D01*
X802D01*
X827Y10001D01*
Y9975D01*
X802Y9950D01*
X776D01*
X802D01*
X827Y9925D01*
Y9899D01*
X802Y9874D01*
X751D01*
X725Y9899D01*
X462Y11618D02*
X411D01*
X437D01*
Y11491D01*
X411Y11466D01*
X386D01*
X361Y11491D01*
X589Y11466D02*
Y11618D01*
X513Y11542D01*
X615D01*
X475Y13376D02*
X424D01*
X449D01*
Y13249D01*
X424Y13224D01*
X398D01*
X373Y13249D01*
X627Y13376D02*
X525D01*
Y13300D01*
X576Y13325D01*
X602D01*
X627Y13300D01*
Y13249D01*
X602Y13224D01*
X551D01*
X525Y13249D01*
X1375Y14726D02*
X1324D01*
X1349D01*
Y14599D01*
X1324Y14574D01*
X1298D01*
X1273Y14599D01*
X1425Y14701D02*
X1451Y14726D01*
X1502D01*
X1527Y14701D01*
Y14675D01*
X1502Y14650D01*
X1476D01*
X1502D01*
X1527Y14625D01*
Y14599D01*
X1502Y14574D01*
X1451D01*
X1425Y14599D01*
X8525Y14676D02*
X8474D01*
X8499D01*
Y14549D01*
X8474Y14524D01*
X8448D01*
X8423Y14549D01*
X8677Y14524D02*
X8575D01*
X8677Y14625D01*
Y14651D01*
X8652Y14676D01*
X8601D01*
X8575Y14651D01*
X9173Y12326D02*
Y12199D01*
X9198Y12174D01*
X9249D01*
X9275Y12199D01*
Y12326D01*
X9427Y12174D02*
X9325D01*
X9427Y12275D01*
Y12301D01*
X9402Y12326D01*
X9351D01*
X9325Y12301D01*
X9200Y10001D02*
X9175Y10026D01*
X9124D01*
X9098Y10001D01*
Y9975D01*
X9124Y9950D01*
X9175D01*
X9200Y9925D01*
Y9899D01*
X9175Y9874D01*
X9124D01*
X9098Y9899D01*
X9251Y9874D02*
X9302D01*
X9276D01*
Y10026D01*
X9251Y10001D01*
X9073Y13674D02*
Y13826D01*
X9149D01*
X9175Y13801D01*
Y13750D01*
X9149Y13725D01*
X9073D01*
X9124D02*
X9175Y13674D01*
X9327D02*
X9225D01*
X9327Y13775D01*
Y13801D01*
X9302Y13826D01*
X9251D01*
X9225Y13801D01*
X9098Y11574D02*
Y11726D01*
X9175D01*
X9200Y11701D01*
Y11650D01*
X9175Y11625D01*
X9098D01*
X9149D02*
X9200Y11574D01*
X9251D02*
X9302D01*
X9276D01*
Y11726D01*
X9251Y11701D01*
X8850Y1176D02*
X8799D01*
X8825D01*
Y1049D01*
X8799Y1024D01*
X8774D01*
X8748Y1049D01*
X8901Y1024D02*
X8952D01*
X8926D01*
Y1176D01*
X8901Y1151D01*
M02*
