M48
;Layer_Color=9474304
;FILE_FORMAT=4:2
METRIC,LZ
;TYPE=PLATED
T2F00S00C0.70
T3F00S00C0.75
T4F00S00C0.85
T5F00S00C1.05
T6F00S00C1.30
T7F00S00C1.50
T8F00S00C1.60
T9F00S00C3.90
T10F00S00C4.55
T11F00S00C5.00
%
T02
X008623Y0005
X008877
X01925Y000523
Y000777
X009277Y0055
X009023
X009573Y0079
X009827
X011603Y0088
X011857
X022223Y01325
X022477
X0052Y011177
Y010923
T03
X00735Y0005
X00805
X01925Y00135
Y00205
X00835Y0055
X00765
X00915Y0088
X00985
X0116Y0078
X0123
X021575Y011
X021825
X02195Y0127
X02265
X0052Y01035
Y00965
T04
X0075Y00455
X008
X0088
X0093
X0133Y0084
X0138
X01485
X01535
X0207Y0062
X0212
X02195
X02245
X0197Y0107
X0192
T05
X005525Y0016
X006275
X007425Y0084
X008175
X0038Y010025
Y010775
T06
X021665Y00298
Y004
Y00502
X019635
Y00426
Y00375
T07
X007384Y001384
X0084
X009416
Y003416
X008654
X008146
X021416Y011984
X019384
X015062Y009514
X014554
X013538
X013284Y014086
X0143
X015316
X020146Y014016
X020654
X021416
T08
X00283Y000827
X00317
X021274Y00173
Y00207
X019926
Y00173
X01547Y003626
X01513
X01397
X01363
Y004974
X01397
X01513
X01547
X01247
X01213
X01097
X01063
Y003626
X01097
X01213
X01247
X00672Y003126
X00638
Y004474
X00672
X004374Y00397
Y00363
X003026
Y00397
Y00513
X004374
X00317Y002174
X00283
X003026Y00547
Y00663
Y00697
Y00813
Y00847
X004374
Y00813
Y00697
Y00663
Y00547
X01651Y0072
X01685
Y008547
X01651
X018676Y00903
Y00787
Y00753
X018526Y00647
Y00613
X019874
Y00647
X020024Y00753
Y00787
Y00903
Y00937
X018676
X01847Y012626
X01813
X01707Y011474
X01673
Y010126
X01707
X01217Y010376
X01183
X01067
X01033
Y011724
X01067
X01183
X01217
X00917
X00883
X00767
X00733
Y010376
X00767
X00883
X00917
X01813Y013974
X01847
T09
X00201Y01251
X0031
T10
X0018Y00134
X0042Y00118
X02029Y00075
X02101
X0153Y00144
Y00216
X0138
Y00144
X0123
Y00216
X0108
Y00144
X0042Y0019
X0018Y00206
X00176Y0038
Y0053
X00104
Y0038
X0007Y00226
Y00154
X00104Y0068
Y0083
X00176
Y0068
X02139Y0077
X02211
Y0092
X02139
X0169Y01294
X012
X0105
X009
X0075
X00576Y0127
X00504
X0022Y01086
Y01014
X0008
Y01086
X00504Y0142
X00576
X0075Y01366
X009
X0105
X012
X0169
T11
X0005Y0005
X0225
X0005Y0145
X0225
M30
