G04*
G04 #@! TF.GenerationSoftware,Altium Limited,Altium Designer,22.8.2 (66)*
G04*
G04 Layer_Color=65535*
%FSLAX42Y42*%
%MOMM*%
G71*
G04*
G04 #@! TF.SameCoordinates,682EC182-1CE9-4BC9-A6E4-3494537964B9*
G04*
G04*
G04 #@! TF.FilePolarity,Positive*
G04*
G01*
G75*
%ADD10C,0.13*%
%ADD11C,0.20*%
%ADD12C,0.40*%
%ADD13C,0.25*%
D10*
X8700Y8400D02*
G03*
X8700Y8400I-900J0D01*
G01*
X11837Y8906D02*
G03*
X11623Y8907I-107J-102D01*
G01*
X11618Y8700D02*
G03*
X11850Y8704I115J93D01*
G01*
X4700Y10400D02*
G03*
X4700Y10400I-900J0D01*
G01*
X9593Y7794D02*
G03*
X9807Y7793I107J102D01*
G01*
X9812Y8000D02*
G03*
X9580Y7996I-115J-93D01*
G01*
X9257Y5606D02*
G03*
X9043Y5607I-107J-102D01*
G01*
X9038Y5400D02*
G03*
X9270Y5404I115J93D01*
G01*
X19356Y543D02*
G03*
X19357Y757I-102J107D01*
G01*
X19150Y762D02*
G03*
X19154Y530I93J-115D01*
G01*
X5094Y11157D02*
G03*
X5093Y10943I102J-107D01*
G01*
X5300Y10938D02*
G03*
X5296Y11170I-93J115D01*
G01*
X22457Y13356D02*
G03*
X22243Y13357I-107J-102D01*
G01*
X22238Y13150D02*
G03*
X22470Y13154I115J93D01*
G01*
X8857Y606D02*
G03*
X8643Y607I-107J-102D01*
G01*
X8638Y400D02*
G03*
X8870Y404I115J93D01*
G01*
X19950Y10700D02*
G03*
X19950Y10700I-500J0D01*
G01*
X21450Y6200D02*
G03*
X21450Y6200I-500J0D01*
G01*
X22700D02*
G03*
X22700Y6200I-500J0D01*
G01*
X14050Y8400D02*
G03*
X14050Y8400I-500J0D01*
G01*
X8250Y4550D02*
G03*
X8250Y4550I-500J0D01*
G01*
X6800Y1600D02*
G03*
X6800Y1600I-900J0D01*
G01*
X9550Y4550D02*
G03*
X9550Y4550I-500J0D01*
G01*
X22015Y11000D02*
G03*
X22015Y11000I-315J0D01*
G01*
X15600Y8400D02*
G03*
X15600Y8400I-500J0D01*
G01*
X15705Y1305D02*
Y2575D01*
X15140Y1025D02*
X15460D01*
X14895Y1305D02*
Y2575D01*
X15705D01*
X15300Y2650D02*
Y2750D01*
X15250Y2700D02*
X15350D01*
X15460Y1025D02*
X15705Y1305D01*
X14895D02*
X15140Y1025D01*
X15300Y850D02*
Y950D01*
X14963Y5290D02*
X15637D01*
X14963Y3310D02*
Y5290D01*
Y3310D02*
X15637D01*
Y5290D01*
X13463D02*
X14137D01*
X13463Y3310D02*
Y5290D01*
Y3310D02*
X14137D01*
Y5290D01*
X14205Y1305D02*
Y2575D01*
X13640Y1025D02*
X13960D01*
X13395Y1305D02*
Y2575D01*
X14205D01*
X13800Y2650D02*
Y2750D01*
X13750Y2700D02*
X13850D01*
X13960Y1025D02*
X14205Y1305D01*
X13395D02*
X13640Y1025D01*
X13800Y850D02*
Y950D01*
X11964Y5290D02*
X12636D01*
X11964Y3310D02*
Y5290D01*
Y3310D02*
X12636D01*
Y5290D01*
X12705Y1305D02*
Y2575D01*
X12140Y1025D02*
X12460D01*
X11895Y1305D02*
Y2575D01*
X12705D01*
X12300Y2650D02*
Y2750D01*
X12250Y2700D02*
X12350D01*
X12460Y1025D02*
X12705Y1305D01*
X11895D02*
X12140Y1025D01*
X12300Y850D02*
Y950D01*
X11205Y1305D02*
Y2575D01*
X10640Y1025D02*
X10960D01*
X10395Y1305D02*
Y2575D01*
X11205D01*
X10800Y2650D02*
Y2750D01*
X10750Y2700D02*
X10850D01*
X10960Y1025D02*
X11205Y1305D01*
X10395D02*
X10640Y1025D01*
X10800Y850D02*
Y950D01*
X10464Y5290D02*
X11136D01*
X10464Y3310D02*
Y5290D01*
Y3310D02*
X11136D01*
Y5290D01*
X3380Y12240D02*
X3595D01*
Y13310D01*
X1515Y12240D02*
Y13310D01*
Y12240D02*
X1730D01*
X3595Y13585D02*
Y14950D01*
X1515D02*
X3595D01*
X1515Y13585D02*
Y14950D01*
X2295Y12240D02*
X2815D01*
X1330Y12500D02*
X1430D01*
X3730Y12450D02*
Y12550D01*
X3680Y12500D02*
X3780D01*
X800Y9550D02*
Y9650D01*
X395Y10005D02*
X640Y9725D01*
X960D02*
X1205Y10005D01*
X750Y11400D02*
X850D01*
X800Y11350D02*
Y11450D01*
X395Y11275D02*
X1205D01*
X395Y10005D02*
Y11275D01*
X640Y9725D02*
X960D01*
X1205Y10005D02*
Y11275D01*
X2200Y11350D02*
Y11450D01*
X2360Y11275D02*
X2605Y10995D01*
X1795D02*
X2040Y11275D01*
X2150Y9600D02*
X2250D01*
X2200Y9550D02*
Y9650D01*
X1795Y9725D02*
X2605D01*
Y10995D01*
X2040Y11275D02*
X2360D01*
X1795Y9725D02*
Y10995D01*
X2709Y7964D02*
X4690D01*
X2709D02*
Y8636D01*
X4690D01*
Y7964D02*
Y8636D01*
X9675Y8800D02*
X9755D01*
X9617Y8707D02*
X9675D01*
X9617Y8893D02*
X9675D01*
Y8707D02*
Y8800D01*
Y8893D01*
X9245Y8800D02*
X9325D01*
Y8707D02*
X9383D01*
X9325D02*
Y8800D01*
Y8893D01*
X9383D01*
X6250Y14200D02*
X6350D01*
X5895Y13795D02*
X6175Y14040D01*
X5895Y14605D02*
X6175Y14360D01*
X4500Y14150D02*
Y14250D01*
X4450Y14200D02*
X4550D01*
X4625Y13795D02*
Y14605D01*
Y13795D02*
X5895D01*
X6175Y14040D02*
Y14360D01*
X4625Y14605D02*
X5895D01*
X3337Y509D02*
Y2491D01*
X2664Y509D02*
X3337D01*
X2664D02*
Y2491D01*
X3337D01*
X11664Y10060D02*
Y12040D01*
X12336D01*
Y10060D02*
Y12040D01*
X11664Y10060D02*
X12336D01*
X10164D02*
Y12040D01*
X10836D01*
Y10060D02*
Y12040D01*
X10164Y10060D02*
X10836D01*
X8664D02*
Y12040D01*
X9336D01*
Y10060D02*
Y12040D01*
X8664Y10060D02*
X9336D01*
X7164D02*
Y12040D01*
X7836D01*
Y10060D02*
Y12040D01*
X7164Y10060D02*
X7836D01*
X16563Y9810D02*
Y11790D01*
X17237D01*
Y9810D02*
Y11790D01*
X16563Y9810D02*
X17237D01*
X19130Y11730D02*
X21670D01*
Y14270D01*
X19130D02*
X21670D01*
X19130Y11730D02*
Y14270D01*
X22045Y12700D02*
X22125D01*
Y12793D02*
X22183D01*
X22125Y12607D02*
X22183D01*
X22125Y12700D02*
Y12793D01*
Y12607D02*
Y12700D01*
X22475D02*
X22555D01*
X22417Y12793D02*
X22475D01*
Y12700D02*
Y12793D01*
Y12607D02*
Y12700D01*
X22417Y12607D02*
X22475D01*
X19610Y2236D02*
X21590D01*
Y1564D02*
Y2236D01*
X19610Y1564D02*
X21590D01*
X19610D02*
Y2236D01*
X21500Y750D02*
X21600D01*
X21145Y345D02*
X21425Y590D01*
X21145Y1155D02*
X21425Y910D01*
X19750Y700D02*
Y800D01*
X19700Y750D02*
X19800D01*
X19875Y345D02*
Y1155D01*
Y345D02*
X21145D01*
X21425Y590D02*
Y910D01*
X19875Y1155D02*
X21145D01*
X19250Y1445D02*
Y1525D01*
X19157D02*
Y1583D01*
X19343Y1525D02*
Y1583D01*
X19157Y1525D02*
X19250D01*
X19343D01*
X19250Y1875D02*
Y1955D01*
X19157Y1817D02*
Y1875D01*
X19250D01*
X19343D01*
Y1817D02*
Y1875D01*
X19380Y2730D02*
X21920D01*
Y5270D01*
X19380D02*
X21920D01*
X19380Y2730D02*
Y5270D01*
X22600Y9200D02*
X22700D01*
X22245Y8795D02*
X22525Y9040D01*
X22245Y9605D02*
X22525Y9360D01*
X20850Y9150D02*
Y9250D01*
X20800Y9200D02*
X20900D01*
X20975Y8795D02*
Y9605D01*
Y8795D02*
X22245D01*
X22525Y9040D02*
Y9360D01*
X20975Y9605D02*
X22245D01*
X22600Y7700D02*
X22700D01*
X22245Y7295D02*
X22525Y7540D01*
X22245Y8105D02*
X22525Y7860D01*
X20850Y7650D02*
Y7750D01*
X20800Y7700D02*
X20900D01*
X20975Y7295D02*
Y8105D01*
Y7295D02*
X22245D01*
X22525Y7540D02*
Y7860D01*
X20975Y8105D02*
X22245D01*
X18360Y9536D02*
X20340D01*
Y8864D02*
Y9536D01*
X18360Y8864D02*
X20340D01*
X18360D02*
Y9536D01*
Y8036D02*
X20340D01*
Y7364D02*
Y8036D01*
X18360Y7364D02*
X20340D01*
X18360D02*
Y8036D01*
X16343Y6883D02*
Y8864D01*
X17016D01*
Y6883D02*
Y8864D01*
X16343Y6883D02*
X17016D01*
X11695Y7800D02*
X11775D01*
Y7893D02*
X11833D01*
X11775Y7707D02*
X11833D01*
X11775Y7800D02*
Y7893D01*
Y7707D02*
Y7800D01*
X12125D02*
X12205D01*
X12067Y7893D02*
X12125D01*
Y7800D02*
Y7893D01*
Y7707D02*
Y7800D01*
X12067Y7707D02*
X12125D01*
X6886Y2809D02*
Y4790D01*
X6213Y2809D02*
X6886D01*
X6213D02*
Y4790D01*
X6886D01*
X4200Y590D02*
Y690D01*
X3795Y1045D02*
X4040Y765D01*
X4360D02*
X4605Y1045D01*
X4150Y2440D02*
X4250D01*
X4200Y2390D02*
Y2490D01*
X3795Y2315D02*
X4605D01*
X3795Y1045D02*
Y2315D01*
X4040Y765D02*
X4360D01*
X4605Y1045D02*
Y2315D01*
X1800Y750D02*
Y850D01*
X1395Y1205D02*
X1640Y925D01*
X1960D02*
X2205Y1205D01*
X1750Y2600D02*
X1850D01*
X1800Y2550D02*
Y2650D01*
X1395Y2475D02*
X2205D01*
X1395Y1205D02*
Y2475D01*
X1640Y925D02*
X1960D01*
X2205Y1205D02*
Y2475D01*
X700Y950D02*
Y1050D01*
X295Y1405D02*
X540Y1125D01*
X860D02*
X1105Y1405D01*
X650Y2800D02*
X750D01*
X700Y2750D02*
Y2850D01*
X295Y2675D02*
X1105D01*
X295Y1405D02*
Y2675D01*
X540Y1125D02*
X860D01*
X1105Y1405D02*
Y2675D01*
X450Y5300D02*
X550D01*
X625Y5460D02*
X905Y5705D01*
X625Y5140D02*
X905Y4895D01*
X2300Y5250D02*
Y5350D01*
X2250Y5300D02*
X2350D01*
X2175Y4895D02*
Y5705D01*
X905D02*
X2175D01*
X625Y5140D02*
Y5460D01*
X905Y4895D02*
X2175D01*
X450Y6800D02*
X550D01*
X625Y6960D02*
X905Y7205D01*
X625Y6640D02*
X905Y6395D01*
X2300Y6750D02*
Y6850D01*
X2250Y6800D02*
X2350D01*
X2175Y6395D02*
Y7205D01*
X905D02*
X2175D01*
X625Y6640D02*
Y6960D01*
X905Y6395D02*
X2175D01*
X450Y8300D02*
X550D01*
X625Y8460D02*
X905Y8705D01*
X625Y8140D02*
X905Y7895D01*
X2300Y8250D02*
Y8350D01*
X2250Y8300D02*
X2350D01*
X2175Y7895D02*
Y8705D01*
X905D02*
X2175D01*
X625Y8140D02*
Y8460D01*
X905Y7895D02*
X2175D01*
X12000Y14150D02*
Y14250D01*
X12160Y14075D02*
X12405Y13795D01*
X11595D02*
X11840Y14075D01*
X11950Y12400D02*
X12050D01*
X12000Y12350D02*
Y12450D01*
X11595Y12525D02*
X12405D01*
Y13795D01*
X11840Y14075D02*
X12160D01*
X11595Y12525D02*
Y13795D01*
X10500Y14150D02*
Y14250D01*
X10660Y14075D02*
X10905Y13795D01*
X10095D02*
X10340Y14075D01*
X10450Y12400D02*
X10550D01*
X10500Y12350D02*
Y12450D01*
X10095Y12525D02*
X10905D01*
Y13795D01*
X10340Y14075D02*
X10660D01*
X10095Y12525D02*
Y13795D01*
X9000Y14150D02*
Y14250D01*
X9160Y14075D02*
X9405Y13795D01*
X8595D02*
X8840Y14075D01*
X8950Y12400D02*
X9050D01*
X9000Y12350D02*
Y12450D01*
X8595Y12525D02*
X9405D01*
Y13795D01*
X8840Y14075D02*
X9160D01*
X8595Y12525D02*
Y13795D01*
X7500Y14150D02*
Y14250D01*
X7660Y14075D02*
X7905Y13795D01*
X7095D02*
X7340Y14075D01*
X7450Y12400D02*
X7550D01*
X7500Y12350D02*
Y12450D01*
X7095Y12525D02*
X7905D01*
Y13795D01*
X7340Y14075D02*
X7660D01*
X7095Y12525D02*
Y13795D01*
X8175Y5500D02*
X8255D01*
X8117Y5408D02*
X8175D01*
X8117Y5592D02*
X8175D01*
Y5408D02*
Y5500D01*
Y5592D01*
X7745Y5500D02*
X7825D01*
Y5408D02*
X7883D01*
X7825D02*
Y5500D01*
Y5592D01*
X7883D01*
X18210Y6636D02*
X20190D01*
Y5963D02*
Y6636D01*
X18210Y5963D02*
X20190D01*
X18210D02*
Y6636D01*
X16900Y14150D02*
Y14250D01*
X17060Y14075D02*
X17305Y13795D01*
X16495D02*
X16740Y14075D01*
X16850Y12400D02*
X16950D01*
X16900Y12350D02*
Y12450D01*
X16495Y12525D02*
X17305D01*
Y13795D01*
X16740Y14075D02*
X17060D01*
X16495Y12525D02*
Y13795D01*
X4450Y12700D02*
X4550D01*
X4625Y12860D02*
X4905Y13105D01*
X4625Y12540D02*
X4905Y12295D01*
X6300Y12650D02*
Y12750D01*
X6250Y12700D02*
X6350D01*
X6175Y12295D02*
Y13105D01*
X4905D02*
X6175D01*
X4625Y12540D02*
Y12860D01*
X4905Y12295D02*
X6175D01*
X13030Y9260D02*
X15570D01*
X13030D02*
Y14340D01*
X15570D01*
Y9260D02*
Y14340D01*
X4690Y6464D02*
Y7136D01*
X2709D02*
X4690D01*
X2709Y6464D02*
Y7136D01*
Y6464D02*
X4690D01*
Y4963D02*
Y5637D01*
X2709D02*
X4690D01*
X2709Y4963D02*
Y5637D01*
Y4963D02*
X4690D01*
X17963Y12310D02*
X18637D01*
Y14290D01*
X17963D02*
X18637D01*
X17963Y12310D02*
Y14290D01*
X7525Y593D02*
X7583D01*
X7525Y500D02*
Y593D01*
Y407D02*
Y500D01*
Y407D02*
X7583D01*
X7445Y500D02*
X7525D01*
X7875D02*
Y593D01*
Y407D02*
Y500D01*
X7817Y593D02*
X7875D01*
X7817Y407D02*
X7875D01*
Y500D02*
X7955D01*
X905Y3395D02*
X2175D01*
X625Y3640D02*
Y3960D01*
X905Y4205D02*
X2175D01*
Y3395D02*
Y4205D01*
X2250Y3800D02*
X2350D01*
X2300Y3750D02*
Y3850D01*
X625Y3640D02*
X905Y3395D01*
X625Y3960D02*
X905Y4205D01*
X450Y3800D02*
X550D01*
X5108Y9825D02*
Y9883D01*
Y9825D02*
X5200D01*
X5292D01*
Y9883D01*
X5200Y9745D02*
Y9825D01*
X5108Y10175D02*
X5200D01*
X5292D01*
X5108Y10117D02*
Y10175D01*
X5292Y10117D02*
Y10175D01*
X5200D02*
Y10255D01*
X7130Y3670D02*
X9670D01*
X7130Y1130D02*
Y3670D01*
Y1130D02*
X9670D01*
Y3670D01*
X4690Y3463D02*
Y4137D01*
X2709D02*
X4690D01*
X2709Y3463D02*
Y4137D01*
Y3463D02*
X4690D01*
D11*
X8785Y8400D02*
G03*
X8785Y8400I-10J0D01*
G01*
X3810Y9425D02*
G03*
X3810Y9425I-10J0D01*
G01*
X18885Y10700D02*
G03*
X18885Y10700I-10J0D01*
G01*
X20670Y14350D02*
G03*
X20670Y14350I-10J0D01*
G01*
X20385Y6200D02*
G03*
X20385Y6200I-10J0D01*
G01*
X21635D02*
G03*
X21635Y6200I-10J0D01*
G01*
X14135Y8400D02*
G03*
X14135Y8400I-10J0D01*
G01*
X7185Y4550D02*
G03*
X7185Y4550I-10J0D01*
G01*
X4935Y1600D02*
G03*
X4935Y1600I-10J0D01*
G01*
X8485Y4550D02*
G03*
X8485Y4550I-10J0D01*
G01*
X21320Y11000D02*
G03*
X21320Y11000I-10J0D01*
G01*
X14535Y8400D02*
G03*
X14535Y8400I-10J0D01*
G01*
X9426Y3733D02*
G03*
X9426Y3733I-10J0D01*
G01*
D12*
X19273Y3746D02*
G03*
X19273Y3746I-20J0D01*
G01*
X15082Y9130D02*
G03*
X15082Y9130I-20J0D01*
G01*
D13*
X6775Y9051D02*
X6749Y9076D01*
X6698D01*
X6673Y9051D01*
Y8949D01*
X6698Y8924D01*
X6749D01*
X6775Y8949D01*
X6927Y8924D02*
X6825D01*
X6927Y9025D01*
Y9051D01*
X6902Y9076D01*
X6851D01*
X6825Y9051D01*
X3725Y13425D02*
X3776D01*
X3751D01*
Y13578D01*
X3725Y13552D01*
X3954Y13425D02*
X3852D01*
X3954Y13527D01*
Y13552D01*
X3929Y13578D01*
X3878D01*
X3852Y13552D01*
X4005Y13578D02*
Y13476D01*
X4055Y13425D01*
X4106Y13476D01*
Y13578D01*
X4309D02*
Y13425D01*
X4386D01*
X4411Y13451D01*
Y13476D01*
X4386Y13502D01*
X4309D01*
X4386D01*
X4411Y13527D01*
Y13552D01*
X4386Y13578D01*
X4309D01*
X4462Y13527D02*
Y13451D01*
X4487Y13425D01*
X4563D01*
Y13527D01*
X4614Y13425D02*
X4665D01*
X4640D01*
Y13578D01*
X4614D01*
X4741Y13425D02*
Y13578D01*
Y13476D02*
X4817Y13527D01*
X4741Y13476D02*
X4817Y13425D01*
X3725Y13252D02*
X3751Y13278D01*
X3802D01*
X3827Y13252D01*
Y13227D01*
X3802Y13202D01*
X3776D01*
X3802D01*
X3827Y13176D01*
Y13151D01*
X3802Y13125D01*
X3751D01*
X3725Y13151D01*
X3878Y13252D02*
X3903Y13278D01*
X3954D01*
X3979Y13252D01*
Y13151D01*
X3954Y13125D01*
X3903D01*
X3878Y13151D01*
Y13252D01*
X4030Y13125D02*
Y13227D01*
X4081Y13278D01*
X4132Y13227D01*
Y13125D01*
Y13202D01*
X4030D01*
X4335Y13125D02*
Y13278D01*
X4386Y13227D01*
X4436Y13278D01*
Y13125D01*
X4513Y13227D02*
X4563D01*
X4589Y13202D01*
Y13125D01*
X4513D01*
X4487Y13151D01*
X4513Y13176D01*
X4589D01*
X4640Y13227D02*
X4741Y13125D01*
X4690Y13176D01*
X4741Y13227D01*
X4640Y13125D01*
X17265Y5425D02*
X17115D01*
X17085Y5395D01*
Y5335D01*
X17115Y5305D01*
X17265D01*
X17085Y5245D02*
X17205D01*
Y5155D01*
X17175Y5125D01*
X17085D01*
Y5065D02*
Y5005D01*
Y5035D01*
X17205D01*
Y5065D01*
Y4915D02*
X17085Y4855D01*
X17205Y4795D01*
X17085Y4645D02*
Y4705D01*
X17115Y4735D01*
X17175D01*
X17205Y4705D01*
Y4645D01*
X17175Y4615D01*
X17145D01*
Y4735D01*
X17205Y4555D02*
X17085D01*
X17145D01*
X17175Y4525D01*
X17205Y4495D01*
Y4465D01*
X17085Y4375D02*
Y4285D01*
X17115Y4255D01*
X17145Y4285D01*
Y4345D01*
X17175Y4375D01*
X17205Y4345D01*
Y4255D01*
X17085Y4195D02*
Y4135D01*
Y4165D01*
X17205D01*
Y4195D01*
X17235Y4015D02*
X17205D01*
Y4045D01*
Y3985D01*
Y4015D01*
X17115D01*
X17085Y3985D01*
X17205Y3895D02*
X17115D01*
X17085Y3865D01*
Y3775D01*
X17055D01*
X17025Y3805D01*
Y3835D01*
X17085Y3775D02*
X17205D01*
X17085Y3505D02*
Y3445D01*
X17115Y3415D01*
X17175D01*
X17205Y3445D01*
Y3505D01*
X17175Y3535D01*
X17115D01*
X17085Y3505D01*
Y3325D02*
X17235D01*
X17175D01*
Y3355D01*
Y3295D01*
Y3325D01*
X17235D01*
X17265Y3295D01*
X17085Y3025D02*
X17265D01*
Y2935D01*
X17235Y2905D01*
X17175D01*
X17145Y2935D01*
Y3025D01*
X17085Y2755D02*
Y2815D01*
X17115Y2845D01*
X17175D01*
X17205Y2815D01*
Y2755D01*
X17175Y2725D01*
X17145D01*
Y2845D01*
X17085Y2665D02*
X17205D01*
Y2576D01*
X17175Y2546D01*
X17085D01*
Y2486D02*
X17205D01*
Y2396D01*
X17175Y2366D01*
X17085D01*
Y2306D02*
Y2216D01*
X17115Y2186D01*
X17145Y2216D01*
Y2276D01*
X17175Y2306D01*
X17205Y2276D01*
Y2186D01*
Y2126D02*
X17115D01*
X17085Y2096D01*
Y2006D01*
X17055D01*
X17025Y2036D01*
Y2066D01*
X17085Y2006D02*
X17205D01*
X17085Y1946D02*
Y1886D01*
Y1916D01*
X17265D01*
Y1946D01*
X17205Y1796D02*
X17085Y1736D01*
X17205Y1676D01*
Y1586D02*
Y1526D01*
X17175Y1496D01*
X17085D01*
Y1586D01*
X17115Y1616D01*
X17145Y1586D01*
Y1496D01*
X17085Y1436D02*
X17205D01*
Y1346D01*
X17175Y1316D01*
X17085D01*
Y1256D02*
Y1196D01*
Y1226D01*
X17205D01*
Y1256D01*
Y1076D02*
Y1016D01*
X17175Y986D01*
X17085D01*
Y1076D01*
X17115Y1106D01*
X17145Y1076D01*
Y986D01*
X14478Y2023D02*
Y2125D01*
X14402D01*
X14427Y2074D01*
Y2048D01*
X14402Y2023D01*
X14351D01*
X14325Y2048D01*
Y2099D01*
X14351Y2125D01*
X14478Y1972D02*
X14376D01*
X14325Y1921D01*
X14376Y1871D01*
X14478D01*
X15978Y2023D02*
Y2125D01*
X15902D01*
X15927Y2074D01*
Y2048D01*
X15902Y2023D01*
X15851D01*
X15825Y2048D01*
Y2099D01*
X15851Y2125D01*
X15978Y1972D02*
X15876D01*
X15825Y1921D01*
X15876Y1871D01*
X15978D01*
X12978Y2023D02*
Y2125D01*
X12902D01*
X12927Y2074D01*
Y2048D01*
X12902Y2023D01*
X12851D01*
X12825Y2048D01*
Y2099D01*
X12851Y2125D01*
X12978Y1972D02*
X12876D01*
X12825Y1921D01*
X12876Y1871D01*
X12978D01*
X16675Y4175D02*
X16705Y4145D01*
Y4085D01*
X16675Y4055D01*
X16555D01*
X16525Y4085D01*
Y4145D01*
X16555Y4175D01*
X16675D01*
X16525Y3905D02*
X16705D01*
X16615Y3995D01*
Y3875D01*
X16525Y3815D02*
X16645Y3695D01*
X16525Y3515D02*
Y3635D01*
X16645Y3515D01*
X16675D01*
X16705Y3545D01*
Y3605D01*
X16675Y3635D01*
X16705Y3335D02*
X16675Y3395D01*
X16615Y3455D01*
X16555D01*
X16525Y3425D01*
Y3365D01*
X16555Y3335D01*
X16585D01*
X16615Y3365D01*
Y3455D01*
X16525Y3275D02*
X16645Y3155D01*
X16525Y2975D02*
Y3095D01*
X16645Y2975D01*
X16675D01*
X16705Y3005D01*
Y3065D01*
X16675Y3095D01*
Y2915D02*
X16705Y2885D01*
Y2825D01*
X16675Y2795D01*
X16555D01*
X16525Y2825D01*
Y2885D01*
X16555Y2915D01*
X16675D01*
X16525Y2615D02*
Y2735D01*
X16645Y2615D01*
X16675D01*
X16705Y2645D01*
Y2705D01*
X16675Y2735D01*
Y2555D02*
X16705Y2525D01*
Y2465D01*
X16675Y2435D01*
X16645D01*
X16615Y2465D01*
Y2495D01*
Y2465D01*
X16585Y2435D01*
X16555D01*
X16525Y2465D01*
Y2525D01*
X16555Y2555D01*
X17625Y4425D02*
X17759D01*
X17825Y4358D01*
X17759Y4291D01*
X17625D01*
X17725D01*
Y4425D01*
X17759Y4225D02*
X17659D01*
X17625Y4191D01*
Y4091D01*
X17759D01*
X17792Y3991D02*
X17759D01*
Y4025D01*
Y3958D01*
Y3991D01*
X17659D01*
X17625Y3958D01*
Y3825D02*
Y3758D01*
X17659Y3725D01*
X17725D01*
X17759Y3758D01*
Y3825D01*
X17725Y3858D01*
X17659D01*
X17625Y3825D01*
X17759Y3658D02*
X17659D01*
X17625Y3625D01*
X17659Y3592D01*
X17625Y3558D01*
X17659Y3525D01*
X17759D01*
Y3425D02*
Y3358D01*
X17725Y3325D01*
X17625D01*
Y3425D01*
X17659Y3458D01*
X17692Y3425D01*
Y3325D01*
X17759Y3258D02*
X17625D01*
X17692D01*
X17725Y3225D01*
X17759Y3192D01*
Y3158D01*
X17625Y2958D02*
Y3025D01*
X17659Y3058D01*
X17725D01*
X17759Y3025D01*
Y2958D01*
X17725Y2925D01*
X17692D01*
Y3058D01*
X17792Y2525D02*
X17825Y2559D01*
Y2625D01*
X17792Y2659D01*
X17659D01*
X17625Y2625D01*
Y2559D01*
X17659Y2525D01*
X17625Y2425D02*
Y2359D01*
X17659Y2325D01*
X17725D01*
X17759Y2359D01*
Y2425D01*
X17725Y2459D01*
X17659D01*
X17625Y2425D01*
X17825Y2125D02*
Y2259D01*
X17625D01*
Y2125D01*
X17725Y2259D02*
Y2192D01*
X18125Y5375D02*
X18325D01*
Y5275D01*
X18292Y5241D01*
X18225D01*
X18192Y5275D01*
Y5375D01*
X18125Y5141D02*
Y5075D01*
X18159Y5041D01*
X18225D01*
X18259Y5075D01*
Y5141D01*
X18225Y5175D01*
X18159D01*
X18125Y5141D01*
X18259Y4975D02*
X18159D01*
X18125Y4941D01*
X18159Y4908D01*
X18125Y4875D01*
X18159Y4841D01*
X18259D01*
X18125Y4675D02*
Y4741D01*
X18159Y4775D01*
X18225D01*
X18259Y4741D01*
Y4675D01*
X18225Y4642D01*
X18192D01*
Y4775D01*
X18259Y4575D02*
X18125D01*
X18192D01*
X18225Y4542D01*
X18259Y4508D01*
Y4475D01*
X18325Y4175D02*
X18125D01*
Y4075D01*
X18159Y4042D01*
X18292D01*
X18325Y4075D01*
Y4175D01*
X18125Y3975D02*
Y3908D01*
Y3942D01*
X18259D01*
Y3975D01*
X18125Y3808D02*
Y3708D01*
X18159Y3675D01*
X18192Y3708D01*
Y3775D01*
X18225Y3808D01*
X18259Y3775D01*
Y3675D01*
X18292Y3575D02*
X18259D01*
Y3609D01*
Y3542D01*
Y3575D01*
X18159D01*
X18125Y3542D01*
X18259Y3442D02*
X18125D01*
X18192D01*
X18225Y3409D01*
X18259Y3375D01*
Y3342D01*
X18125Y3242D02*
Y3175D01*
Y3209D01*
X18259D01*
Y3242D01*
X18325Y3075D02*
X18125D01*
Y2975D01*
X18159Y2942D01*
X18192D01*
X18225D01*
X18259Y2975D01*
Y3075D01*
Y2875D02*
X18159D01*
X18125Y2842D01*
Y2742D01*
X18259D01*
X18292Y2642D02*
X18259D01*
Y2675D01*
Y2609D01*
Y2642D01*
X18159D01*
X18125Y2609D01*
Y2509D02*
Y2442D01*
Y2476D01*
X18259D01*
Y2509D01*
X18125Y2309D02*
Y2242D01*
X18159Y2209D01*
X18225D01*
X18259Y2242D01*
Y2309D01*
X18225Y2342D01*
X18159D01*
X18125Y2309D01*
Y2142D02*
X18259D01*
Y2042D01*
X18225Y2009D01*
X18125D01*
X18259Y1742D02*
X18125Y1676D01*
X18259Y1609D01*
X18292Y1543D02*
X18325Y1509D01*
Y1443D01*
X18292Y1409D01*
X18259D01*
X18225Y1443D01*
Y1476D01*
Y1443D01*
X18192Y1409D01*
X18159D01*
X18125Y1443D01*
Y1509D01*
X18159Y1543D01*
X18125Y1343D02*
X18159D01*
Y1309D01*
X18125D01*
Y1343D01*
X18325Y1043D02*
Y1176D01*
X18225D01*
X18259Y1109D01*
Y1076D01*
X18225Y1043D01*
X18159D01*
X18125Y1076D01*
Y1143D01*
X18159Y1176D01*
X18575Y8602D02*
X18601Y8628D01*
X18652D01*
X18677Y8602D01*
Y8577D01*
X18652Y8552D01*
X18626D01*
X18652D01*
X18677Y8526D01*
Y8501D01*
X18652Y8475D01*
X18601D01*
X18575Y8501D01*
X18728Y8475D02*
Y8501D01*
X18753D01*
Y8475D01*
X18728D01*
X18855Y8602D02*
X18880Y8628D01*
X18931D01*
X18956Y8602D01*
Y8577D01*
X18931Y8552D01*
X18905D01*
X18931D01*
X18956Y8526D01*
Y8501D01*
X18931Y8475D01*
X18880D01*
X18855Y8501D01*
X19007Y8628D02*
Y8526D01*
X19058Y8475D01*
X19109Y8526D01*
Y8628D01*
X19413Y8475D02*
X19312D01*
X19413Y8577D01*
Y8602D01*
X19388Y8628D01*
X19337D01*
X19312Y8602D01*
X19464Y8475D02*
Y8501D01*
X19490D01*
Y8475D01*
X19464D01*
X19667D02*
Y8628D01*
X19591Y8552D01*
X19693D01*
X19743Y8475D02*
Y8577D01*
X19794Y8628D01*
X19845Y8577D01*
Y8475D01*
Y8552D01*
X19743D01*
X20048Y8475D02*
Y8628D01*
X20099Y8577D01*
X20150Y8628D01*
Y8475D01*
X20226Y8577D02*
X20277D01*
X20302Y8552D01*
Y8475D01*
X20226D01*
X20200Y8501D01*
X20226Y8526D01*
X20302D01*
X20353Y8577D02*
X20454Y8475D01*
X20404Y8526D01*
X20454Y8577D01*
X20353Y8475D01*
X12477Y428D02*
X12375D01*
Y352D01*
X12426Y377D01*
X12452D01*
X12477Y352D01*
Y301D01*
X12452Y275D01*
X12401D01*
X12375Y301D01*
X12528Y428D02*
Y326D01*
X12579Y275D01*
X12629Y326D01*
Y428D01*
X12909Y275D02*
Y428D01*
X12832Y352D01*
X12934D01*
X12985Y275D02*
Y377D01*
X13036Y428D01*
X13086Y377D01*
Y275D01*
Y352D01*
X12985D01*
X13290Y275D02*
Y428D01*
X13340Y377D01*
X13391Y428D01*
Y275D01*
X13467Y377D02*
X13518D01*
X13543Y352D01*
Y275D01*
X13467D01*
X13442Y301D01*
X13467Y326D01*
X13543D01*
X13594Y377D02*
X13696Y275D01*
X13645Y326D01*
X13696Y377D01*
X13594Y275D01*
X328Y12823D02*
Y12925D01*
X252D01*
X277Y12874D01*
Y12848D01*
X252Y12823D01*
X201D01*
X175Y12848D01*
Y12899D01*
X201Y12925D01*
X175Y12772D02*
X277D01*
X328Y12721D01*
X277Y12671D01*
X175D01*
X252D01*
Y12772D01*
X175Y12468D02*
X328D01*
X277Y12417D01*
X328Y12366D01*
X175D01*
X277Y12290D02*
Y12239D01*
X252Y12214D01*
X175D01*
Y12290D01*
X201Y12315D01*
X226Y12290D01*
Y12214D01*
X277Y12163D02*
X175Y12061D01*
X226Y12112D01*
X277Y12061D01*
X175Y12163D01*
X525Y12973D02*
Y13075D01*
X627Y12973D01*
X652D01*
X678Y12998D01*
Y13049D01*
X652Y13075D01*
X525Y12846D02*
X678D01*
X602Y12922D01*
Y12821D01*
X678Y12770D02*
X576D01*
X525Y12719D01*
X576Y12668D01*
X678D01*
Y12465D02*
X525D01*
Y12389D01*
X551Y12364D01*
X576D01*
X602Y12389D01*
Y12465D01*
Y12389D01*
X627Y12364D01*
X652D01*
X678Y12389D01*
Y12465D01*
X627Y12313D02*
X551D01*
X525Y12287D01*
Y12211D01*
X627D01*
X525Y12160D02*
Y12110D01*
Y12135D01*
X678D01*
Y12160D01*
X525Y12034D02*
X678D01*
X576D02*
X627Y11957D01*
X576Y12034D02*
X525Y11957D01*
X1176Y14825D02*
Y14774D01*
Y14799D01*
X1329D01*
X1303Y14825D01*
X1329Y14596D02*
Y14698D01*
X1252D01*
X1278Y14647D01*
Y14621D01*
X1252Y14596D01*
X1202D01*
X1176Y14621D01*
Y14672D01*
X1202Y14698D01*
X1252Y14545D02*
Y14444D01*
X1303Y14393D02*
X1329Y14368D01*
Y14317D01*
X1303Y14291D01*
X1278D01*
X1252Y14317D01*
Y14342D01*
Y14317D01*
X1227Y14291D01*
X1202D01*
X1176Y14317D01*
Y14368D01*
X1202Y14393D01*
X1329Y14139D02*
X1303Y14190D01*
X1252Y14241D01*
X1202D01*
X1176Y14215D01*
Y14164D01*
X1202Y14139D01*
X1227D01*
X1252Y14164D01*
Y14241D01*
X1329Y14088D02*
X1227D01*
X1176Y14037D01*
X1227Y13987D01*
X1329D01*
Y13784D02*
X1176D01*
Y13707D01*
X1202Y13682D01*
X1303D01*
X1329Y13707D01*
Y13784D01*
X1303Y13530D02*
X1329Y13555D01*
Y13606D01*
X1303Y13631D01*
X1202D01*
X1176Y13606D01*
Y13555D01*
X1202Y13530D01*
X1329Y13326D02*
Y13276D01*
Y13301D01*
X1176D01*
Y13326D01*
Y13276D01*
Y13200D02*
X1278D01*
Y13123D01*
X1252Y13098D01*
X1176D01*
X1125Y13047D02*
X1278D01*
Y12971D01*
X1252Y12946D01*
X1202D01*
X1176Y12971D01*
Y13047D01*
X1278Y12895D02*
X1202D01*
X1176Y12869D01*
Y12793D01*
X1278D01*
X1303Y12717D02*
X1278D01*
Y12742D01*
Y12692D01*
Y12717D01*
X1202D01*
X1176Y12692D01*
X15975Y11227D02*
Y11125D01*
X15873Y11227D01*
X15848D01*
X15822Y11202D01*
Y11151D01*
X15848Y11125D01*
X15975Y11354D02*
X15822D01*
X15898Y11278D01*
Y11379D01*
X15822Y11430D02*
X15924D01*
X15975Y11481D01*
X15924Y11532D01*
X15822D01*
X15975Y11735D02*
Y11786D01*
Y11760D01*
X15822D01*
X15848Y11735D01*
X15975Y11862D02*
X15949D01*
Y11887D01*
X15975D01*
Y11862D01*
Y12090D02*
Y11989D01*
X15873Y12090D01*
X15848D01*
X15822Y12065D01*
Y12014D01*
X15848Y11989D01*
X15822Y12243D02*
Y12141D01*
X15898D01*
X15873Y12192D01*
Y12217D01*
X15898Y12243D01*
X15949D01*
X15975Y12217D01*
Y12166D01*
X15949Y12141D01*
X15975Y12293D02*
X15873D01*
X15822Y12344D01*
X15873Y12395D01*
X15975D01*
X15898D01*
Y12293D01*
Y12598D02*
Y12700D01*
X15822Y12903D02*
Y12954D01*
Y12928D01*
X15975D01*
Y12903D01*
Y12954D01*
Y13030D02*
Y13106D01*
X15949Y13131D01*
X15924Y13106D01*
Y13055D01*
X15898Y13030D01*
X15873Y13055D01*
Y13131D01*
X15975Y13208D02*
Y13258D01*
X15949Y13284D01*
X15898D01*
X15873Y13258D01*
Y13208D01*
X15898Y13182D01*
X15949D01*
X15975Y13208D01*
Y13334D02*
Y13385D01*
Y13360D01*
X15822D01*
Y13334D01*
X15873Y13487D02*
Y13538D01*
X15898Y13563D01*
X15975D01*
Y13487D01*
X15949Y13461D01*
X15924Y13487D01*
Y13563D01*
X15848Y13639D02*
X15873D01*
Y13614D01*
Y13665D01*
Y13639D01*
X15949D01*
X15975Y13665D01*
Y13817D02*
Y13766D01*
X15949Y13741D01*
X15898D01*
X15873Y13766D01*
Y13817D01*
X15898Y13842D01*
X15924D01*
Y13741D01*
X15822Y13995D02*
X15975D01*
Y13918D01*
X15949Y13893D01*
X15898D01*
X15873Y13918D01*
Y13995D01*
X20125Y2425D02*
X20176D01*
X20151D01*
Y2578D01*
X20125Y2552D01*
X20354Y2425D02*
X20252D01*
X20354Y2527D01*
Y2552D01*
X20329Y2578D01*
X20278D01*
X20252Y2552D01*
X20405Y2578D02*
Y2476D01*
X20455Y2425D01*
X20506Y2476D01*
Y2578D01*
X20811Y2425D02*
X20709D01*
X20811Y2527D01*
Y2552D01*
X20786Y2578D01*
X20735D01*
X20709Y2552D01*
X20862Y2425D02*
Y2451D01*
X20887D01*
Y2425D01*
X20862D01*
X21090Y2578D02*
X20989D01*
Y2502D01*
X21040Y2527D01*
X21065D01*
X21090Y2502D01*
Y2451D01*
X21065Y2425D01*
X21014D01*
X20989Y2451D01*
X21141Y2425D02*
Y2527D01*
X21192Y2578D01*
X21243Y2527D01*
Y2425D01*
Y2502D01*
X21141D01*
X21446D02*
X21547D01*
X21750Y2578D02*
X21801D01*
X21776D01*
Y2425D01*
X21750D01*
X21801D01*
X21877D02*
X21954D01*
X21979Y2451D01*
X21954Y2476D01*
X21903D01*
X21877Y2502D01*
X21903Y2527D01*
X21979D01*
X22055Y2425D02*
X22106D01*
X22131Y2451D01*
Y2502D01*
X22106Y2527D01*
X22055D01*
X22030Y2502D01*
Y2451D01*
X22055Y2425D01*
X22182D02*
X22233D01*
X22208D01*
Y2578D01*
X22182D01*
X22334Y2527D02*
X22385D01*
X22411Y2502D01*
Y2425D01*
X22334D01*
X22309Y2451D01*
X22334Y2476D01*
X22411D01*
X22487Y2552D02*
Y2527D01*
X22461D01*
X22512D01*
X22487D01*
Y2451D01*
X22512Y2425D01*
X22665D02*
X22614D01*
X22588Y2451D01*
Y2502D01*
X22614Y2527D01*
X22665D01*
X22690Y2502D01*
Y2476D01*
X22588D01*
X22842Y2578D02*
Y2425D01*
X22766D01*
X22741Y2451D01*
Y2502D01*
X22766Y2527D01*
X22842D01*
X21423Y9835D02*
X21448Y9860D01*
X21499D01*
X21524Y9835D01*
Y9809D01*
X21499Y9784D01*
X21473D01*
X21499D01*
X21524Y9759D01*
Y9733D01*
X21499Y9708D01*
X21448D01*
X21423Y9733D01*
X21575Y9708D02*
Y9733D01*
X21600D01*
Y9708D01*
X21575D01*
X21702Y9835D02*
X21727Y9860D01*
X21778D01*
X21803Y9835D01*
Y9809D01*
X21778Y9784D01*
X21753D01*
X21778D01*
X21803Y9759D01*
Y9733D01*
X21778Y9708D01*
X21727D01*
X21702Y9733D01*
X21854Y9860D02*
Y9759D01*
X21905Y9708D01*
X21956Y9759D01*
Y9860D01*
X21475Y8352D02*
X21501Y8378D01*
X21552D01*
X21577Y8352D01*
Y8327D01*
X21552Y8302D01*
X21526D01*
X21552D01*
X21577Y8276D01*
Y8251D01*
X21552Y8225D01*
X21501D01*
X21475Y8251D01*
X21628Y8225D02*
Y8251D01*
X21653D01*
Y8225D01*
X21628D01*
X21755Y8352D02*
X21780Y8378D01*
X21831D01*
X21856Y8352D01*
Y8327D01*
X21831Y8302D01*
X21805D01*
X21831D01*
X21856Y8276D01*
Y8251D01*
X21831Y8225D01*
X21780D01*
X21755Y8251D01*
X21907Y8378D02*
Y8276D01*
X21958Y8225D01*
X22009Y8276D01*
Y8378D01*
X11528Y2023D02*
Y2125D01*
X11452D01*
X11477Y2074D01*
Y2048D01*
X11452Y2023D01*
X11401D01*
X11375Y2048D01*
Y2099D01*
X11401Y2125D01*
X11528Y1972D02*
X11426D01*
X11375Y1921D01*
X11426Y1871D01*
X11528D01*
X4525Y375D02*
X4576D01*
X4551D01*
Y528D01*
X4525Y502D01*
X4652Y401D02*
X4678Y375D01*
X4729D01*
X4754Y401D01*
Y502D01*
X4729Y528D01*
X4678D01*
X4652Y502D01*
Y477D01*
X4678Y452D01*
X4754D01*
X4805Y528D02*
Y426D01*
X4855Y375D01*
X4906Y426D01*
Y528D01*
X5109Y375D02*
X5160D01*
X5135D01*
Y528D01*
X5109Y502D01*
X5338Y528D02*
X5236D01*
Y452D01*
X5287Y477D01*
X5313D01*
X5338Y452D01*
Y401D01*
X5313Y375D01*
X5262D01*
X5236Y401D01*
X5389Y375D02*
Y477D01*
X5440Y528D01*
X5490Y477D01*
Y375D01*
Y452D01*
X5389D01*
X5693Y375D02*
Y528D01*
X5744Y477D01*
X5795Y528D01*
Y375D01*
X5871Y477D02*
X5922D01*
X5947Y452D01*
Y375D01*
X5871D01*
X5846Y401D01*
X5871Y426D01*
X5947D01*
X5998Y477D02*
X6100Y375D01*
X6049Y426D01*
X6100Y477D01*
X5998Y375D01*
X777Y3125D02*
X675D01*
X777Y3227D01*
Y3252D01*
X752Y3278D01*
X701D01*
X675Y3252D01*
X904Y3125D02*
Y3278D01*
X828Y3202D01*
X929D01*
X980Y3278D02*
Y3176D01*
X1031Y3125D01*
X1082Y3176D01*
Y3278D01*
X877Y4625D02*
X775D01*
X877Y4727D01*
Y4752D01*
X852Y4778D01*
X801D01*
X775Y4752D01*
X1004Y4625D02*
Y4778D01*
X928Y4702D01*
X1029D01*
X1080Y4778D02*
Y4676D01*
X1131Y4625D01*
X1182Y4676D01*
Y4778D01*
X927Y6125D02*
X825D01*
X927Y6227D01*
Y6252D01*
X902Y6278D01*
X851D01*
X825Y6252D01*
X1054Y6125D02*
Y6278D01*
X978Y6202D01*
X1079D01*
X1130Y6278D02*
Y6176D01*
X1181Y6125D01*
X1232Y6176D01*
Y6278D01*
X927Y7625D02*
X825D01*
X927Y7727D01*
Y7752D01*
X902Y7778D01*
X851D01*
X825Y7752D01*
X1054Y7625D02*
Y7778D01*
X978Y7702D01*
X1079D01*
X1130Y7778D02*
Y7676D01*
X1181Y7625D01*
X1232Y7676D01*
Y7778D01*
X12575Y13375D02*
Y13324D01*
Y13349D01*
X12728D01*
X12702Y13375D01*
X12575Y13146D02*
Y13248D01*
X12677Y13146D01*
X12702D01*
X12728Y13171D01*
Y13222D01*
X12702Y13248D01*
X12728Y13095D02*
X12626D01*
X12575Y13045D01*
X12626Y12994D01*
X12728D01*
X11075Y13375D02*
Y13324D01*
Y13349D01*
X11228D01*
X11202Y13375D01*
X11075Y13146D02*
Y13248D01*
X11177Y13146D01*
X11202D01*
X11228Y13171D01*
Y13222D01*
X11202Y13248D01*
X11228Y13095D02*
X11126D01*
X11075Y13045D01*
X11126Y12994D01*
X11228D01*
X9575Y13375D02*
Y13324D01*
Y13349D01*
X9728D01*
X9702Y13375D01*
X9575Y13146D02*
Y13248D01*
X9677Y13146D01*
X9702D01*
X9728Y13171D01*
Y13222D01*
X9702Y13248D01*
X9728Y13095D02*
X9626D01*
X9575Y13045D01*
X9626Y12994D01*
X9728D01*
X8075Y13375D02*
Y13324D01*
Y13349D01*
X8228D01*
X8202Y13375D01*
X8075Y13146D02*
Y13248D01*
X8177Y13146D01*
X8202D01*
X8228Y13171D01*
Y13222D01*
X8202Y13248D01*
X8228Y13095D02*
X8126D01*
X8075Y13045D01*
X8126Y12994D01*
X8228D01*
X8948Y5954D02*
Y5801D01*
X9025D01*
X9050Y5827D01*
Y5928D01*
X9025Y5954D01*
X8948D01*
X9177Y5801D02*
Y5954D01*
X9101Y5878D01*
X9202D01*
X18673Y726D02*
Y574D01*
X18749D01*
X18775Y599D01*
Y701D01*
X18749Y726D01*
X18673D01*
X18825D02*
X18927D01*
Y701D01*
X18825Y599D01*
Y574D01*
X12023Y9126D02*
Y8974D01*
X12099D01*
X12125Y8999D01*
Y9101D01*
X12099Y9126D01*
X12023D01*
X12277D02*
X12226Y9101D01*
X12175Y9050D01*
Y8999D01*
X12201Y8974D01*
X12252D01*
X12277Y8999D01*
Y9025D01*
X12252Y9050D01*
X12175D01*
X22149Y13706D02*
Y13553D01*
X22225D01*
X22250Y13579D01*
Y13680D01*
X22225Y13706D01*
X22149D01*
X22403D02*
X22301D01*
Y13630D01*
X22352Y13655D01*
X22377D01*
X22403Y13630D01*
Y13579D01*
X22377Y13553D01*
X22327D01*
X22301Y13579D01*
X8550Y955D02*
Y803D01*
X8626D01*
X8651Y828D01*
Y930D01*
X8626Y955D01*
X8550D01*
X8702Y930D02*
X8727Y955D01*
X8778D01*
X8804Y930D01*
Y904D01*
X8778Y879D01*
X8753D01*
X8778D01*
X8804Y853D01*
Y828D01*
X8778Y803D01*
X8727D01*
X8702Y828D01*
X9373Y8326D02*
Y8174D01*
X9449D01*
X9475Y8199D01*
Y8301D01*
X9449Y8326D01*
X9373D01*
X9627Y8174D02*
X9525D01*
X9627Y8275D01*
Y8301D01*
X9602Y8326D01*
X9551D01*
X9525Y8301D01*
X4999Y11506D02*
Y11354D01*
X5075D01*
X5100Y11379D01*
Y11481D01*
X5075Y11506D01*
X4999D01*
X5151Y11354D02*
X5202D01*
X5176D01*
Y11506D01*
X5151Y11481D01*
X19423Y1324D02*
Y1476D01*
X19499D01*
X19525Y1451D01*
Y1400D01*
X19499Y1375D01*
X19423D01*
X19474D02*
X19525Y1324D01*
X19575Y1476D02*
X19677D01*
Y1451D01*
X19575Y1349D01*
Y1324D01*
X19673Y5576D02*
Y5449D01*
X19698Y5424D01*
X19749D01*
X19775Y5449D01*
Y5576D01*
X19902Y5424D02*
Y5576D01*
X19825Y5500D01*
X19927D01*
X19173Y14576D02*
Y14449D01*
X19198Y14424D01*
X19249D01*
X19275Y14449D01*
Y14576D01*
X19427Y14424D02*
X19325D01*
X19427Y14525D01*
Y14551D01*
X19402Y14576D01*
X19351D01*
X19325Y14551D01*
X11823Y7974D02*
Y8126D01*
X11899D01*
X11925Y8101D01*
Y8050D01*
X11899Y8025D01*
X11823D01*
X11874D02*
X11925Y7974D01*
X12077Y8126D02*
X12026Y8101D01*
X11975Y8050D01*
Y7999D01*
X12001Y7974D01*
X12052D01*
X12077Y7999D01*
Y8025D01*
X12052Y8050D01*
X11975D01*
X21773Y12424D02*
Y12576D01*
X21849D01*
X21875Y12551D01*
Y12500D01*
X21849Y12475D01*
X21773D01*
X21824D02*
X21875Y12424D01*
X22027Y12576D02*
X21925D01*
Y12500D01*
X21976Y12525D01*
X22002D01*
X22027Y12500D01*
Y12449D01*
X22002Y12424D01*
X21951D01*
X21925Y12449D01*
X7273Y5524D02*
Y5676D01*
X7349D01*
X7375Y5651D01*
Y5600D01*
X7349Y5575D01*
X7273D01*
X7324D02*
X7375Y5524D01*
X7502D02*
Y5676D01*
X7425Y5600D01*
X7527D01*
X7285Y696D02*
Y848D01*
X7361D01*
X7386Y823D01*
Y772D01*
X7361Y747D01*
X7285D01*
X7336D02*
X7386Y696D01*
X7437Y823D02*
X7462Y848D01*
X7513D01*
X7539Y823D01*
Y798D01*
X7513Y772D01*
X7488D01*
X7513D01*
X7539Y747D01*
Y721D01*
X7513Y696D01*
X7462D01*
X7437Y721D01*
X9373Y9024D02*
Y9176D01*
X9449D01*
X9475Y9151D01*
Y9100D01*
X9449Y9075D01*
X9373D01*
X9424D02*
X9475Y9024D01*
X9627D02*
X9525D01*
X9627Y9125D01*
Y9151D01*
X9602Y9176D01*
X9551D01*
X9525Y9151D01*
X13028Y14595D02*
Y14468D01*
X13053Y14442D01*
X13104D01*
X13129Y14468D01*
Y14595D01*
X13180Y14569D02*
X13205Y14595D01*
X13256D01*
X13282Y14569D01*
Y14544D01*
X13256Y14519D01*
X13231D01*
X13256D01*
X13282Y14493D01*
Y14468D01*
X13256Y14442D01*
X13205D01*
X13180Y14468D01*
X19498Y1076D02*
X19448D01*
X19473D01*
Y949D01*
X19448Y924D01*
X19422D01*
X19397Y949D01*
X19651Y924D02*
X19549D01*
X19651Y1025D01*
Y1051D01*
X19625Y1076D01*
X19575D01*
X19549Y1051D01*
X19702D02*
X19727Y1076D01*
X19778D01*
X19803Y1051D01*
Y1025D01*
X19778Y1000D01*
X19752D01*
X19778D01*
X19803Y975D01*
Y949D01*
X19778Y924D01*
X19727D01*
X19702Y949D01*
X16298Y14276D02*
X16248D01*
X16273D01*
Y14149D01*
X16248Y14124D01*
X16222D01*
X16197Y14149D01*
X16451Y14124D02*
X16349D01*
X16451Y14225D01*
Y14251D01*
X16425Y14276D01*
X16375D01*
X16349Y14251D01*
X16603Y14124D02*
X16502D01*
X16603Y14225D01*
Y14251D01*
X16578Y14276D01*
X16527D01*
X16502Y14251D01*
X20524Y7376D02*
X20473D01*
X20498D01*
Y7249D01*
X20473Y7224D01*
X20448D01*
X20422Y7249D01*
X20676Y7224D02*
X20575D01*
X20676Y7325D01*
Y7351D01*
X20651Y7376D01*
X20600D01*
X20575Y7351D01*
X20727Y7224D02*
X20778D01*
X20752D01*
Y7376D01*
X20727Y7351D01*
X20548Y9676D02*
X20498D01*
X20523D01*
Y9549D01*
X20498Y9524D01*
X20472D01*
X20447Y9549D01*
X20701Y9524D02*
X20599D01*
X20701Y9625D01*
Y9651D01*
X20675Y9676D01*
X20625D01*
X20599Y9651D01*
X20752D02*
X20777Y9676D01*
X20828D01*
X20853Y9651D01*
Y9549D01*
X20828Y9524D01*
X20777D01*
X20752Y9549D01*
Y9651D01*
X14811Y2976D02*
X14760D01*
X14786D01*
Y2849D01*
X14760Y2824D01*
X14735D01*
X14710Y2849D01*
X14862Y2824D02*
X14913D01*
X14887D01*
Y2976D01*
X14862Y2951D01*
X14989Y2849D02*
X15014Y2824D01*
X15065D01*
X15090Y2849D01*
Y2951D01*
X15065Y2976D01*
X15014D01*
X14989Y2951D01*
Y2925D01*
X15014Y2900D01*
X15090D01*
X13311Y2976D02*
X13260D01*
X13286D01*
Y2849D01*
X13260Y2824D01*
X13235D01*
X13210Y2849D01*
X13362Y2824D02*
X13413D01*
X13387D01*
Y2976D01*
X13362Y2951D01*
X13489D02*
X13514Y2976D01*
X13565D01*
X13590Y2951D01*
Y2925D01*
X13565Y2900D01*
X13590Y2875D01*
Y2849D01*
X13565Y2824D01*
X13514D01*
X13489Y2849D01*
Y2875D01*
X13514Y2900D01*
X13489Y2925D01*
Y2951D01*
X13514Y2900D02*
X13565D01*
X11811Y2976D02*
X11760D01*
X11786D01*
Y2849D01*
X11760Y2824D01*
X11735D01*
X11710Y2849D01*
X11862Y2824D02*
X11913D01*
X11887D01*
Y2976D01*
X11862Y2951D01*
X11989Y2976D02*
X12090D01*
Y2951D01*
X11989Y2849D01*
Y2824D01*
X10311Y2976D02*
X10260D01*
X10286D01*
Y2849D01*
X10260Y2824D01*
X10235D01*
X10210Y2849D01*
X10362Y2824D02*
X10413D01*
X10387D01*
Y2976D01*
X10362Y2951D01*
X10590Y2976D02*
X10540Y2951D01*
X10489Y2900D01*
Y2849D01*
X10514Y2824D01*
X10565D01*
X10590Y2849D01*
Y2875D01*
X10565Y2900D01*
X10489D01*
X3711Y2576D02*
X3660D01*
X3686D01*
Y2449D01*
X3660Y2424D01*
X3635D01*
X3610Y2449D01*
X3762Y2424D02*
X3813D01*
X3787D01*
Y2576D01*
X3762Y2551D01*
X3990Y2576D02*
X3889D01*
Y2500D01*
X3940Y2525D01*
X3965D01*
X3990Y2500D01*
Y2449D01*
X3965Y2424D01*
X3914D01*
X3889Y2449D01*
X1311Y2776D02*
X1260D01*
X1286D01*
Y2649D01*
X1260Y2624D01*
X1235D01*
X1210Y2649D01*
X1362Y2624D02*
X1413D01*
X1387D01*
Y2776D01*
X1362Y2751D01*
X1565Y2624D02*
Y2776D01*
X1489Y2700D01*
X1590D01*
X211Y2976D02*
X160D01*
X186D01*
Y2849D01*
X160Y2824D01*
X135D01*
X110Y2849D01*
X262Y2824D02*
X313D01*
X287D01*
Y2976D01*
X262Y2951D01*
X389D02*
X414Y2976D01*
X465D01*
X490Y2951D01*
Y2925D01*
X465Y2900D01*
X440D01*
X465D01*
X490Y2875D01*
Y2849D01*
X465Y2824D01*
X414D01*
X389Y2849D01*
X12461Y14326D02*
X12410D01*
X12436D01*
Y14199D01*
X12410Y14174D01*
X12385D01*
X12360Y14199D01*
X12512Y14174D02*
X12563D01*
X12537D01*
Y14326D01*
X12512Y14301D01*
X12740Y14174D02*
X12639D01*
X12740Y14275D01*
Y14301D01*
X12715Y14326D01*
X12664D01*
X12639Y14301D01*
X10987Y14276D02*
X10936D01*
X10961D01*
Y14149D01*
X10936Y14124D01*
X10910D01*
X10885Y14149D01*
X11037Y14124D02*
X11088D01*
X11063D01*
Y14276D01*
X11037Y14251D01*
X11164Y14124D02*
X11215D01*
X11190D01*
Y14276D01*
X11164Y14251D01*
X9461Y14276D02*
X9410D01*
X9436D01*
Y14149D01*
X9410Y14124D01*
X9385D01*
X9360Y14149D01*
X9512Y14124D02*
X9563D01*
X9537D01*
Y14276D01*
X9512Y14251D01*
X9639D02*
X9664Y14276D01*
X9715D01*
X9740Y14251D01*
Y14149D01*
X9715Y14124D01*
X9664D01*
X9639Y14149D01*
Y14251D01*
X7975Y14276D02*
X7924D01*
X7949D01*
Y14149D01*
X7924Y14124D01*
X7898D01*
X7873Y14149D01*
X8025D02*
X8051Y14124D01*
X8102D01*
X8127Y14149D01*
Y14251D01*
X8102Y14276D01*
X8051D01*
X8025Y14251D01*
Y14225D01*
X8051Y14200D01*
X8127D01*
X2476Y6425D02*
Y6476D01*
Y6451D01*
X2349D01*
X2324Y6476D01*
Y6502D01*
X2349Y6527D01*
X2476Y6273D02*
Y6375D01*
X2400D01*
X2425Y6324D01*
Y6298D01*
X2400Y6273D01*
X2349D01*
X2324Y6298D01*
Y6349D01*
X2349Y6375D01*
X2476Y4925D02*
Y4976D01*
Y4951D01*
X2349D01*
X2324Y4976D01*
Y5002D01*
X2349Y5027D01*
X2324Y4798D02*
X2476D01*
X2400Y4875D01*
Y4773D01*
X1825Y11576D02*
X1774D01*
X1799D01*
Y11449D01*
X1774Y11424D01*
X1748D01*
X1723Y11449D01*
X1977Y11424D02*
X1875D01*
X1977Y11525D01*
Y11551D01*
X1952Y11576D01*
X1901D01*
X1875Y11551D01*
X350Y11576D02*
X299D01*
X325D01*
Y11449D01*
X299Y11424D01*
X274D01*
X248Y11449D01*
X401Y11424D02*
X452D01*
X426D01*
Y11576D01*
X401Y11551D01*
X19424Y2476D02*
X19322D01*
Y2400D01*
X19373D01*
X19322D01*
Y2324D01*
X19576D02*
X19475D01*
X19576Y2425D01*
Y2451D01*
X19551Y2476D01*
X19500D01*
X19475Y2451D01*
X19627Y2324D02*
X19678D01*
X19652D01*
Y2476D01*
X19627Y2451D01*
X17548Y6626D02*
X17447D01*
Y6550D01*
X17498D01*
X17447D01*
Y6474D01*
X17701D02*
X17599D01*
X17701Y6575D01*
Y6601D01*
X17675Y6626D01*
X17625D01*
X17599Y6601D01*
X17853Y6626D02*
X17752D01*
Y6550D01*
X17802Y6575D01*
X17828D01*
X17853Y6550D01*
Y6499D01*
X17828Y6474D01*
X17777D01*
X17752Y6499D01*
X16398Y12076D02*
X16297D01*
Y12000D01*
X16348D01*
X16297D01*
Y11924D01*
X16551D02*
X16449D01*
X16551Y12025D01*
Y12051D01*
X16525Y12076D01*
X16475D01*
X16449Y12051D01*
X16602D02*
X16627Y12076D01*
X16678D01*
X16703Y12051D01*
Y11949D01*
X16678Y11924D01*
X16627D01*
X16602Y11949D01*
Y12051D01*
X15958Y7673D02*
X15857D01*
Y7597D01*
X15908D01*
X15857D01*
Y7521D01*
X16111D02*
X16009D01*
X16111Y7622D01*
Y7648D01*
X16085Y7673D01*
X16035D01*
X16009Y7648D01*
X16162D02*
X16187Y7673D01*
X16238D01*
X16263Y7648D01*
Y7622D01*
X16238Y7597D01*
X16212D01*
X16238D01*
X16263Y7572D01*
Y7546D01*
X16238Y7521D01*
X16187D01*
X16162Y7546D01*
X18111Y7226D02*
X18010D01*
Y7150D01*
X18060D01*
X18010D01*
Y7074D01*
X18162D02*
X18213D01*
X18187D01*
Y7226D01*
X18162Y7201D01*
X18289Y7099D02*
X18314Y7074D01*
X18365D01*
X18390Y7099D01*
Y7201D01*
X18365Y7226D01*
X18314D01*
X18289Y7201D01*
Y7175D01*
X18314Y7150D01*
X18390D01*
X18711Y9876D02*
X18610D01*
Y9800D01*
X18660D01*
X18610D01*
Y9724D01*
X18762D02*
X18813D01*
X18787D01*
Y9876D01*
X18762Y9851D01*
X18889D02*
X18914Y9876D01*
X18965D01*
X18990Y9851D01*
Y9825D01*
X18965Y9800D01*
X18990Y9775D01*
Y9749D01*
X18965Y9724D01*
X18914D01*
X18889Y9749D01*
Y9775D01*
X18914Y9800D01*
X18889Y9825D01*
Y9851D01*
X18914Y9800D02*
X18965D01*
X18062Y14547D02*
X17960D01*
Y14470D01*
X18011D01*
X17960D01*
Y14394D01*
X18214D02*
X18113D01*
X18214Y14496D01*
Y14521D01*
X18189Y14547D01*
X18138D01*
X18113Y14521D01*
X18265D02*
X18290Y14547D01*
X18341D01*
X18367Y14521D01*
Y14420D01*
X18341Y14394D01*
X18290D01*
X18265Y14420D01*
Y14521D01*
X14611Y5376D02*
X14510D01*
Y5300D01*
X14560D01*
X14510D01*
Y5224D01*
X14662D02*
X14713D01*
X14687D01*
Y5376D01*
X14662Y5351D01*
X14789Y5376D02*
X14890D01*
Y5351D01*
X14789Y5249D01*
Y5224D01*
X13111Y5376D02*
X13010D01*
Y5300D01*
X13060D01*
X13010D01*
Y5224D01*
X13162D02*
X13213D01*
X13187D01*
Y5376D01*
X13162Y5351D01*
X13390Y5376D02*
X13340Y5351D01*
X13289Y5300D01*
Y5249D01*
X13314Y5224D01*
X13365D01*
X13390Y5249D01*
Y5275D01*
X13365Y5300D01*
X13289D01*
X11611Y5376D02*
X11510D01*
Y5300D01*
X11560D01*
X11510D01*
Y5224D01*
X11662D02*
X11713D01*
X11687D01*
Y5376D01*
X11662Y5351D01*
X11890Y5376D02*
X11789D01*
Y5300D01*
X11840Y5325D01*
X11865D01*
X11890Y5300D01*
Y5249D01*
X11865Y5224D01*
X11814D01*
X11789Y5249D01*
X10111Y5376D02*
X10010D01*
Y5300D01*
X10060D01*
X10010D01*
Y5224D01*
X10162D02*
X10213D01*
X10187D01*
Y5376D01*
X10162Y5351D01*
X10365Y5224D02*
Y5376D01*
X10289Y5300D01*
X10390D01*
X6411Y5076D02*
X6310D01*
Y5000D01*
X6360D01*
X6310D01*
Y4924D01*
X6462D02*
X6513D01*
X6487D01*
Y5076D01*
X6462Y5051D01*
X6589D02*
X6614Y5076D01*
X6665D01*
X6690Y5051D01*
Y5025D01*
X6665Y5000D01*
X6640D01*
X6665D01*
X6690Y4975D01*
Y4949D01*
X6665Y4924D01*
X6614D01*
X6589Y4949D01*
X2211Y876D02*
X2110D01*
Y800D01*
X2160D01*
X2110D01*
Y724D01*
X2262D02*
X2313D01*
X2287D01*
Y876D01*
X2262Y851D01*
X2490Y724D02*
X2389D01*
X2490Y825D01*
Y851D01*
X2465Y876D01*
X2414D01*
X2389Y851D01*
X11511Y12326D02*
X11410D01*
Y12250D01*
X11460D01*
X11410D01*
Y12174D01*
X11562D02*
X11613D01*
X11587D01*
Y12326D01*
X11562Y12301D01*
X11689D02*
X11714Y12326D01*
X11765D01*
X11790Y12301D01*
Y12199D01*
X11765Y12174D01*
X11714D01*
X11689Y12199D01*
Y12301D01*
X10075Y12326D02*
X9973D01*
Y12250D01*
X10024D01*
X9973D01*
Y12174D01*
X10125Y12199D02*
X10151Y12174D01*
X10202D01*
X10227Y12199D01*
Y12301D01*
X10202Y12326D01*
X10151D01*
X10125Y12301D01*
Y12275D01*
X10151Y12250D01*
X10227D01*
X8575Y12326D02*
X8473D01*
Y12250D01*
X8524D01*
X8473D01*
Y12174D01*
X8625Y12301D02*
X8651Y12326D01*
X8702D01*
X8727Y12301D01*
Y12275D01*
X8702Y12250D01*
X8727Y12225D01*
Y12199D01*
X8702Y12174D01*
X8651D01*
X8625Y12199D01*
Y12225D01*
X8651Y12250D01*
X8625Y12275D01*
Y12301D01*
X8651Y12250D02*
X8702D01*
X7075Y12326D02*
X6973D01*
Y12250D01*
X7024D01*
X6973D01*
Y12174D01*
X7125Y12326D02*
X7227D01*
Y12301D01*
X7125Y12199D01*
Y12174D01*
X2825Y8926D02*
X2723D01*
Y8850D01*
X2774D01*
X2723D01*
Y8774D01*
X2977Y8926D02*
X2875D01*
Y8850D01*
X2926Y8875D01*
X2952D01*
X2977Y8850D01*
Y8799D01*
X2952Y8774D01*
X2901D01*
X2875Y8799D01*
X2809Y7391D02*
X2708D01*
Y7315D01*
X2758D01*
X2708D01*
Y7239D01*
X2936D02*
Y7391D01*
X2860Y7315D01*
X2962D01*
X2809Y5893D02*
X2708D01*
Y5817D01*
X2758D01*
X2708D01*
Y5740D01*
X2860Y5867D02*
X2885Y5893D01*
X2936D01*
X2962Y5867D01*
Y5842D01*
X2936Y5817D01*
X2911D01*
X2936D01*
X2962Y5791D01*
Y5766D01*
X2936Y5740D01*
X2885D01*
X2860Y5766D01*
X21837Y6951D02*
X21811Y6976D01*
X21760D01*
X21735Y6951D01*
Y6849D01*
X21760Y6824D01*
X21811D01*
X21837Y6849D01*
X21887Y6824D02*
X21938D01*
X21913D01*
Y6976D01*
X21887Y6951D01*
X22014Y6824D02*
X22065D01*
X22040D01*
Y6976D01*
X22014Y6951D01*
X18875Y11351D02*
X18849Y11376D01*
X18798D01*
X18773Y11351D01*
Y11249D01*
X18798Y11224D01*
X18849D01*
X18875Y11249D01*
X19027Y11376D02*
X18976Y11351D01*
X18925Y11300D01*
Y11249D01*
X18951Y11224D01*
X19002D01*
X19027Y11249D01*
Y11275D01*
X19002Y11300D01*
X18925D01*
X7175Y5151D02*
X7149Y5176D01*
X7098D01*
X7073Y5151D01*
Y5049D01*
X7098Y5024D01*
X7149D01*
X7175Y5049D01*
X7302Y5024D02*
Y5176D01*
X7225Y5100D01*
X7327D01*
X4975Y2451D02*
X4949Y2476D01*
X4898D01*
X4873Y2451D01*
Y2349D01*
X4898Y2324D01*
X4949D01*
X4975Y2349D01*
X5025Y2451D02*
X5051Y2476D01*
X5102D01*
X5127Y2451D01*
Y2425D01*
X5102Y2400D01*
X5076D01*
X5102D01*
X5127Y2375D01*
Y2349D01*
X5102Y2324D01*
X5051D01*
X5025Y2349D01*
X3100Y11551D02*
X3075Y11576D01*
X3024D01*
X2998Y11551D01*
Y11449D01*
X3024Y11424D01*
X3075D01*
X3100Y11449D01*
X3151Y11424D02*
X3202D01*
X3176D01*
Y11576D01*
X3151Y11551D01*
X7127Y3983D02*
Y3856D01*
X7153Y3830D01*
X7203D01*
X7229Y3856D01*
Y3983D01*
X7280Y3830D02*
X7330D01*
X7305D01*
Y3983D01*
X7280Y3957D01*
X3798Y14676D02*
X3748D01*
X3773D01*
Y14549D01*
X3748Y14524D01*
X3722D01*
X3697Y14549D01*
X3951Y14524D02*
X3849D01*
X3951Y14625D01*
Y14651D01*
X3925Y14676D01*
X3875D01*
X3849Y14651D01*
X4078Y14524D02*
Y14676D01*
X4002Y14600D01*
X4103D01*
X2809Y4392D02*
X2708D01*
Y4315D01*
X2758D01*
X2708D01*
Y4239D01*
X2962D02*
X2860D01*
X2962Y4341D01*
Y4366D01*
X2936Y4392D01*
X2885D01*
X2860Y4366D01*
X4936Y9908D02*
X4784D01*
Y9985D01*
X4809Y10010D01*
X4860D01*
X4885Y9985D01*
Y9908D01*
Y9959D02*
X4936Y10010D01*
Y10061D02*
Y10112D01*
Y10086D01*
X4784D01*
X4809Y10061D01*
X6375Y13076D02*
X6324D01*
X6349D01*
Y12949D01*
X6324Y12924D01*
X6298D01*
X6273Y12949D01*
X6425Y13051D02*
X6451Y13076D01*
X6502D01*
X6527Y13051D01*
Y13025D01*
X6502Y13000D01*
X6527Y12975D01*
Y12949D01*
X6502Y12924D01*
X6451D01*
X6425Y12949D01*
Y12975D01*
X6451Y13000D01*
X6425Y13025D01*
Y13051D01*
X6451Y13000D02*
X6502D01*
X4275Y13976D02*
X4224D01*
X4249D01*
Y13849D01*
X4224Y13824D01*
X4198D01*
X4173Y13849D01*
X4325Y13976D02*
X4427D01*
Y13951D01*
X4325Y13849D01*
Y13824D01*
X2476Y7925D02*
Y7976D01*
Y7951D01*
X2349D01*
X2324Y7976D01*
Y8002D01*
X2349Y8027D01*
X2476Y7773D02*
X2451Y7824D01*
X2400Y7875D01*
X2349D01*
X2324Y7849D01*
Y7798D01*
X2349Y7773D01*
X2375D01*
X2400Y7798D01*
Y7875D01*
X2476Y3425D02*
Y3476D01*
Y3451D01*
X2349D01*
X2324Y3476D01*
Y3502D01*
X2349Y3527D01*
X2451Y3375D02*
X2476Y3349D01*
Y3298D01*
X2451Y3273D01*
X2425D01*
X2400Y3298D01*
Y3324D01*
Y3298D01*
X2375Y3273D01*
X2349D01*
X2324Y3298D01*
Y3349D01*
X2349Y3375D01*
X20411Y5651D02*
X20386Y5676D01*
X20335D01*
X20310Y5651D01*
Y5549D01*
X20335Y5524D01*
X20386D01*
X20411Y5549D01*
X20462Y5524D02*
X20513D01*
X20487D01*
Y5676D01*
X20462Y5651D01*
X20589D02*
X20614Y5676D01*
X20665D01*
X20690Y5651D01*
Y5549D01*
X20665Y5524D01*
X20614D01*
X20589Y5549D01*
Y5651D01*
X15775Y9001D02*
X15749Y9026D01*
X15698D01*
X15673Y9001D01*
Y8899D01*
X15698Y8874D01*
X15749D01*
X15775Y8899D01*
X15825D02*
X15851Y8874D01*
X15902D01*
X15927Y8899D01*
Y9001D01*
X15902Y9026D01*
X15851D01*
X15825Y9001D01*
Y8975D01*
X15851Y8950D01*
X15927D01*
X12825Y9101D02*
X12799Y9126D01*
X12748D01*
X12723Y9101D01*
Y8999D01*
X12748Y8974D01*
X12799D01*
X12825Y8999D01*
X12875Y9101D02*
X12901Y9126D01*
X12952D01*
X12977Y9101D01*
Y9075D01*
X12952Y9050D01*
X12977Y9025D01*
Y8999D01*
X12952Y8974D01*
X12901D01*
X12875Y8999D01*
Y9025D01*
X12901Y9050D01*
X12875Y9075D01*
Y9101D01*
X12901Y9050D02*
X12952D01*
X21275Y11451D02*
X21249Y11476D01*
X21198D01*
X21173Y11451D01*
Y11349D01*
X21198Y11324D01*
X21249D01*
X21275Y11349D01*
X21325Y11476D02*
X21427D01*
Y11451D01*
X21325Y11349D01*
Y11324D01*
X8355Y4131D02*
X8329Y4156D01*
X8278D01*
X8253Y4131D01*
Y4029D01*
X8278Y4004D01*
X8329D01*
X8355Y4029D01*
X8507Y4156D02*
X8405D01*
Y4080D01*
X8456Y4105D01*
X8482D01*
X8507Y4080D01*
Y4029D01*
X8482Y4004D01*
X8431D01*
X8405Y4029D01*
M02*
