G04*
G04 #@! TF.GenerationSoftware,Altium Limited,Altium Designer,22.8.2 (66)*
G04*
G04 Layer_Color=8388736*
%FSLAX42Y42*%
%MOMM*%
G71*
G04*
G04 #@! TF.SameCoordinates,682EC182-1CE9-4BC9-A6E4-3494537964B9*
G04*
G04*
G04 #@! TF.FilePolarity,Negative*
G04*
G01*
G75*
%ADD14R,1.60X1.60*%
%ADD15C,1.60*%
%ADD16R,6.20X6.20*%
%ADD17C,6.20*%
%ADD18C,2.60*%
%ADD19R,5.12X5.12*%
%ADD20C,5.12*%
%ADD21O,1.50X2.80*%
%ADD22R,1.41X1.41*%
%ADD23C,1.41*%
%ADD24R,1.60X1.60*%
%ADD25C,1.46*%
%ADD26R,6.20X6.20*%
%ADD27R,1.41X1.41*%
%ADD28C,1.40*%
%ADD29R,1.40X1.40*%
%ADD30C,2.45*%
%ADD31R,2.45X2.45*%
%ADD32C,2.20*%
%ADD33R,2.20X2.20*%
%ADD34C,7.20*%
%ADD35R,2.45X2.45*%
%ADD36R,1.30X1.30*%
%ADD37C,1.30*%
D14*
X8175Y8400D02*
D03*
X5525Y1600D02*
D03*
D15*
X7425Y8400D02*
D03*
X3800Y10775D02*
D03*
X6275Y1600D02*
D03*
D16*
X15300Y2160D02*
D03*
X13800D02*
D03*
X12300D02*
D03*
X10800D02*
D03*
X800Y10860D02*
D03*
X2200Y10140D02*
D03*
X4200Y1900D02*
D03*
X1800Y2060D02*
D03*
X700Y2260D02*
D03*
X12000Y12940D02*
D03*
X10500D02*
D03*
X9000D02*
D03*
X7500D02*
D03*
X16900D02*
D03*
D17*
X15300Y1440D02*
D03*
X13800D02*
D03*
X12300D02*
D03*
X10800D02*
D03*
X800Y10140D02*
D03*
X2200Y10860D02*
D03*
X5760Y14200D02*
D03*
X21010Y750D02*
D03*
X22110Y9200D02*
D03*
Y7700D02*
D03*
X4200Y1180D02*
D03*
X1800Y1340D02*
D03*
X700Y1540D02*
D03*
X1040Y5300D02*
D03*
Y6800D02*
D03*
Y8300D02*
D03*
X12000Y13660D02*
D03*
X10500D02*
D03*
X9000D02*
D03*
X7500D02*
D03*
X16900D02*
D03*
X5040Y12700D02*
D03*
X1040Y3800D02*
D03*
D18*
X15470Y4974D02*
D03*
X15130D02*
D03*
X15470Y3626D02*
D03*
X15130D02*
D03*
X13970Y4974D02*
D03*
X13630D02*
D03*
X13970Y3626D02*
D03*
X13630D02*
D03*
X12470Y4974D02*
D03*
X12130D02*
D03*
X12470Y3626D02*
D03*
X12130D02*
D03*
X10970Y4974D02*
D03*
X10630D02*
D03*
X10970Y3626D02*
D03*
X10630D02*
D03*
X3026Y8470D02*
D03*
Y8130D02*
D03*
X4374Y8470D02*
D03*
Y8130D02*
D03*
X2830Y827D02*
D03*
X3170D02*
D03*
X2830Y2174D02*
D03*
X3170D02*
D03*
X12170Y11724D02*
D03*
X11830D02*
D03*
X12170Y10376D02*
D03*
X11830D02*
D03*
X10670Y11724D02*
D03*
X10330D02*
D03*
X10670Y10376D02*
D03*
X10330D02*
D03*
X9170Y11724D02*
D03*
X8830D02*
D03*
X9170Y10376D02*
D03*
X8830D02*
D03*
X7670Y11724D02*
D03*
X7330D02*
D03*
X7670Y10376D02*
D03*
X7330D02*
D03*
X17070Y11474D02*
D03*
X16730D02*
D03*
X17070Y10126D02*
D03*
X16730D02*
D03*
X21274Y1730D02*
D03*
Y2070D02*
D03*
X19926Y1730D02*
D03*
Y2070D02*
D03*
X20024Y9030D02*
D03*
Y9370D02*
D03*
X18676Y9030D02*
D03*
Y9370D02*
D03*
X20024Y7530D02*
D03*
Y7870D02*
D03*
X18676Y7530D02*
D03*
Y7870D02*
D03*
X16850Y8547D02*
D03*
X16510D02*
D03*
X16850Y7200D02*
D03*
X16510D02*
D03*
X6380Y3126D02*
D03*
X6720D02*
D03*
X6380Y4474D02*
D03*
X6720D02*
D03*
X19874Y6130D02*
D03*
Y6470D02*
D03*
X18526Y6130D02*
D03*
Y6470D02*
D03*
X4374Y6630D02*
D03*
Y6970D02*
D03*
X3026Y6630D02*
D03*
Y6970D02*
D03*
X4374Y5130D02*
D03*
Y5470D02*
D03*
X3026Y5130D02*
D03*
Y5470D02*
D03*
X18130Y12626D02*
D03*
X18470D02*
D03*
X18130Y13974D02*
D03*
X18470D02*
D03*
X4374Y3630D02*
D03*
Y3970D02*
D03*
X3026Y3630D02*
D03*
Y3970D02*
D03*
D19*
X3100Y12510D02*
D03*
D20*
X2010D02*
D03*
D21*
X3500Y13450D02*
D03*
X1610D02*
D03*
D22*
X11603Y8800D02*
D03*
X9827Y7900D02*
D03*
X9023Y5500D02*
D03*
X22223Y13250D02*
D03*
X8623Y500D02*
D03*
D23*
X11857Y8800D02*
D03*
X9573Y7900D02*
D03*
X9277Y5500D02*
D03*
X19250Y523D02*
D03*
X5200Y11177D02*
D03*
X22477Y13250D02*
D03*
X8877Y500D02*
D03*
D24*
X3800Y10025D02*
D03*
D25*
X9850Y8800D02*
D03*
X9150D02*
D03*
X21950Y12700D02*
D03*
X22650D02*
D03*
X19250Y1350D02*
D03*
Y2050D02*
D03*
X11600Y7800D02*
D03*
X12300D02*
D03*
X8350Y5500D02*
D03*
X7650D02*
D03*
X7350Y500D02*
D03*
X8050D02*
D03*
X5200Y9650D02*
D03*
Y10350D02*
D03*
D26*
X5040Y14200D02*
D03*
X20290Y750D02*
D03*
X21390Y9200D02*
D03*
Y7700D02*
D03*
X1760Y5300D02*
D03*
Y6800D02*
D03*
Y8300D02*
D03*
X5760Y12700D02*
D03*
X1760Y3800D02*
D03*
D27*
X19250Y777D02*
D03*
X5200Y10923D02*
D03*
D28*
X19700Y10700D02*
D03*
X21200Y6200D02*
D03*
X22450D02*
D03*
X13300Y8400D02*
D03*
X8000Y4550D02*
D03*
X9300D02*
D03*
X15350Y8400D02*
D03*
D29*
X19200Y10700D02*
D03*
X20700Y6200D02*
D03*
X21950D02*
D03*
X13800Y8400D02*
D03*
X7500Y4550D02*
D03*
X8800D02*
D03*
X14850Y8400D02*
D03*
D30*
X21416Y14016D02*
D03*
Y11984D02*
D03*
X19384D02*
D03*
X20146Y14016D02*
D03*
X14554Y9514D02*
D03*
X13538D02*
D03*
X14300Y14086D02*
D03*
X15316D02*
D03*
X13284D02*
D03*
X8400Y1384D02*
D03*
X8654Y3416D02*
D03*
X8146D02*
D03*
X9416Y1384D02*
D03*
X7384D02*
D03*
D31*
X20654Y14016D02*
D03*
D32*
X19635Y5020D02*
D03*
X21665D02*
D03*
Y4000D02*
D03*
Y2980D02*
D03*
X19635Y4260D02*
D03*
D33*
Y3750D02*
D03*
D34*
X22500Y14500D02*
D03*
Y500D02*
D03*
X500D02*
D03*
Y14500D02*
D03*
D35*
X15062Y9514D02*
D03*
X9416Y3416D02*
D03*
D36*
X21575Y11000D02*
D03*
D37*
X21825D02*
D03*
M02*
