G04*
G04 #@! TF.GenerationSoftware,Altium Limited,Altium Designer,22.8.2 (66)*
G04*
G04 Layer_Physical_Order=2*
G04 Layer_Color=16711680*
%FSLAX42Y42*%
%MOMM*%
G71*
G04*
G04 #@! TF.SameCoordinates,E2F3CAA6-EC45-4DAB-9F52-99892A173F59*
G04*
G04*
G04 #@! TF.FilePolarity,Positive*
G04*
G01*
G75*
%ADD13C,0.25*%
%ADD33C,0.35*%
%ADD34C,1.00*%
%ADD35R,1.56X1.56*%
%ADD36C,1.56*%
%ADD37C,1.51*%
%ADD38R,1.51X1.51*%
%ADD39C,4.00*%
%ADD40R,4.00X4.00*%
%ADD41C,4.12*%
%ADD42R,1.58X1.58*%
%ADD43C,1.58*%
%ADD44C,1.53*%
%ADD45R,1.53X1.53*%
%ADD46C,3.50*%
%ADD47R,1.56X1.56*%
%ADD48C,1.68*%
%ADD49C,1.27*%
G36*
X7000D02*
X0D01*
Y5000D01*
X7000D01*
Y0D01*
D02*
G37*
%LPC*%
G36*
X6770Y4950D02*
X6730D01*
X6692Y4943D01*
X6655Y4928D01*
X6622Y4906D01*
X6594Y4878D01*
X6572Y4845D01*
X6557Y4808D01*
X6550Y4770D01*
Y4730D01*
X6557Y4692D01*
X6572Y4655D01*
X6594Y4622D01*
X6622Y4594D01*
X6655Y4572D01*
X6692Y4557D01*
X6730Y4550D01*
X6770D01*
X6808Y4557D01*
X6845Y4572D01*
X6878Y4594D01*
X6906Y4622D01*
X6928Y4655D01*
X6943Y4692D01*
X6950Y4730D01*
Y4770D01*
X6943Y4808D01*
X6928Y4845D01*
X6906Y4878D01*
X6878Y4906D01*
X6845Y4928D01*
X6808Y4943D01*
X6770Y4950D01*
D02*
G37*
G36*
X270D02*
X230D01*
X192Y4943D01*
X155Y4928D01*
X122Y4906D01*
X94Y4878D01*
X72Y4845D01*
X57Y4808D01*
X50Y4770D01*
Y4730D01*
X57Y4692D01*
X72Y4655D01*
X94Y4622D01*
X122Y4594D01*
X155Y4572D01*
X192Y4557D01*
X230Y4550D01*
X270D01*
X308Y4557D01*
X345Y4572D01*
X378Y4594D01*
X406Y4622D01*
X428Y4655D01*
X443Y4692D01*
X450Y4730D01*
Y4770D01*
X443Y4808D01*
X428Y4845D01*
X406Y4878D01*
X378Y4906D01*
X345Y4928D01*
X308Y4943D01*
X270Y4950D01*
D02*
G37*
G36*
X4829Y4746D02*
X4802D01*
X4775Y4739D01*
X4752Y4725D01*
X4732Y4706D01*
X4718Y4682D01*
X4711Y4656D01*
Y4628D01*
X4718Y4602D01*
X4732Y4578D01*
X4752Y4559D01*
X4775Y4545D01*
X4802Y4538D01*
X4829D01*
X4856Y4545D01*
X4879Y4559D01*
X4899Y4578D01*
X4913Y4602D01*
X4920Y4628D01*
Y4656D01*
X4913Y4682D01*
X4899Y4706D01*
X4879Y4725D01*
X4856Y4739D01*
X4829Y4746D01*
D02*
G37*
G36*
X4552D02*
X4525D01*
X4498Y4739D01*
X4475Y4725D01*
X4455Y4706D01*
X4441Y4682D01*
X4434Y4656D01*
Y4628D01*
X4441Y4602D01*
X4455Y4578D01*
X4475Y4559D01*
X4498Y4545D01*
X4525Y4538D01*
X4552D01*
X4579Y4545D01*
X4602Y4559D01*
X4622Y4578D01*
X4636Y4602D01*
X4643Y4628D01*
Y4656D01*
X4636Y4682D01*
X4622Y4706D01*
X4602Y4725D01*
X4579Y4739D01*
X4552Y4746D01*
D02*
G37*
G36*
X4275D02*
X4248D01*
X4221Y4739D01*
X4198Y4725D01*
X4178Y4706D01*
X4164Y4682D01*
X4157Y4656D01*
Y4628D01*
X4164Y4602D01*
X4178Y4578D01*
X4198Y4559D01*
X4221Y4545D01*
X4248Y4538D01*
X4275D01*
X4302Y4545D01*
X4325Y4559D01*
X4345Y4578D01*
X4359Y4602D01*
X4366Y4628D01*
Y4656D01*
X4359Y4682D01*
X4345Y4706D01*
X4325Y4725D01*
X4302Y4739D01*
X4275Y4746D01*
D02*
G37*
G36*
X3998D02*
X3971D01*
X3944Y4739D01*
X3921Y4725D01*
X3901Y4706D01*
X3887Y4682D01*
X3880Y4656D01*
Y4628D01*
X3887Y4602D01*
X3901Y4578D01*
X3921Y4559D01*
X3944Y4545D01*
X3971Y4538D01*
X3998D01*
X4025Y4545D01*
X4048Y4559D01*
X4068Y4578D01*
X4082Y4602D01*
X4089Y4628D01*
Y4656D01*
X4082Y4682D01*
X4068Y4706D01*
X4048Y4725D01*
X4025Y4739D01*
X3998Y4746D01*
D02*
G37*
G36*
X4968Y4462D02*
X4967D01*
Y4371D01*
X5058D01*
Y4372D01*
X5051Y4398D01*
X5037Y4422D01*
X5018Y4441D01*
X4994Y4455D01*
X4968Y4462D01*
D02*
G37*
G36*
X4941D02*
X4940D01*
X4914Y4455D01*
X4890Y4441D01*
X4871Y4422D01*
X4857Y4398D01*
X4850Y4372D01*
Y4371D01*
X4941D01*
Y4462D01*
D02*
G37*
G36*
X5672Y4731D02*
X5627D01*
X5582Y4722D01*
X5540Y4705D01*
X5502Y4680D01*
X5470Y4647D01*
X5445Y4610D01*
X5427Y4567D01*
X5418Y4523D01*
Y4477D01*
X5427Y4433D01*
X5445Y4390D01*
X5470Y4353D01*
X5502Y4320D01*
X5540Y4295D01*
X5582Y4278D01*
X5627Y4269D01*
X5672D01*
X5717Y4278D01*
X5759Y4295D01*
X5797Y4320D01*
X5829Y4353D01*
X5854Y4390D01*
X5872Y4433D01*
X5881Y4477D01*
Y4523D01*
X5872Y4567D01*
X5854Y4610D01*
X5829Y4647D01*
X5797Y4680D01*
X5759Y4705D01*
X5717Y4722D01*
X5672Y4731D01*
D02*
G37*
G36*
X3173D02*
X3128D01*
X3083Y4722D01*
X3041Y4705D01*
X3003Y4680D01*
X2971Y4647D01*
X2946Y4610D01*
X2928Y4567D01*
X2919Y4523D01*
Y4477D01*
X2928Y4433D01*
X2946Y4390D01*
X2971Y4353D01*
X3003Y4320D01*
X3041Y4295D01*
X3083Y4278D01*
X3128Y4269D01*
X3173D01*
X3218Y4278D01*
X3260Y4295D01*
X3298Y4320D01*
X3330Y4353D01*
X3355Y4390D01*
X3373Y4433D01*
X3382Y4477D01*
Y4523D01*
X3373Y4567D01*
X3355Y4610D01*
X3330Y4647D01*
X3298Y4680D01*
X3260Y4705D01*
X3218Y4722D01*
X3173Y4731D01*
D02*
G37*
G36*
X5058Y4345D02*
X4967D01*
Y4254D01*
X4968D01*
X4994Y4261D01*
X5018Y4275D01*
X5037Y4294D01*
X5051Y4318D01*
X5058Y4344D01*
Y4345D01*
D02*
G37*
G36*
X4941D02*
X4850D01*
Y4344D01*
X4857Y4318D01*
X4871Y4294D01*
X4890Y4275D01*
X4914Y4261D01*
X4940Y4254D01*
X4941D01*
Y4345D01*
D02*
G37*
G36*
X4691Y4462D02*
X4663D01*
X4637Y4455D01*
X4613Y4441D01*
X4594Y4422D01*
X4580Y4398D01*
X4573Y4372D01*
Y4344D01*
X4580Y4318D01*
X4594Y4294D01*
X4613Y4275D01*
X4637Y4261D01*
X4663Y4254D01*
X4691D01*
X4717Y4261D01*
X4741Y4275D01*
X4760Y4294D01*
X4774Y4318D01*
X4781Y4344D01*
Y4372D01*
X4774Y4398D01*
X4760Y4422D01*
X4741Y4441D01*
X4717Y4455D01*
X4691Y4462D01*
D02*
G37*
G36*
X4414D02*
X4386D01*
X4360Y4455D01*
X4336Y4441D01*
X4317Y4422D01*
X4303Y4398D01*
X4296Y4372D01*
Y4344D01*
X4303Y4318D01*
X4317Y4294D01*
X4336Y4275D01*
X4360Y4261D01*
X4386Y4254D01*
X4414D01*
X4440Y4261D01*
X4464Y4275D01*
X4483Y4294D01*
X4497Y4318D01*
X4504Y4344D01*
Y4372D01*
X4497Y4398D01*
X4483Y4422D01*
X4464Y4441D01*
X4440Y4455D01*
X4414Y4462D01*
D02*
G37*
G36*
X4137D02*
X4109D01*
X4083Y4455D01*
X4059Y4441D01*
X4040Y4422D01*
X4026Y4398D01*
X4019Y4372D01*
Y4344D01*
X4026Y4318D01*
X4040Y4294D01*
X4059Y4275D01*
X4083Y4261D01*
X4109Y4254D01*
X4137D01*
X4163Y4261D01*
X4187Y4275D01*
X4206Y4294D01*
X4220Y4318D01*
X4227Y4344D01*
Y4372D01*
X4220Y4398D01*
X4206Y4422D01*
X4187Y4441D01*
X4163Y4455D01*
X4137Y4462D01*
D02*
G37*
G36*
X2530Y4826D02*
X650D01*
X630Y4823D01*
X620Y4819D01*
X612Y4816D01*
X596Y4804D01*
X496Y4704D01*
X484Y4688D01*
X477Y4670D01*
X474Y4650D01*
Y309D01*
X477Y289D01*
X484Y271D01*
X496Y255D01*
X555Y196D01*
X571Y184D01*
X578Y181D01*
X589Y177D01*
X609Y174D01*
X2750D01*
X2770Y177D01*
X2788Y184D01*
X2804Y196D01*
X2904Y296D01*
X2916Y312D01*
X2923Y330D01*
X2926Y350D01*
Y405D01*
X2939Y407D01*
X2946Y390D01*
X2971Y353D01*
X3003Y320D01*
X3041Y295D01*
X3083Y278D01*
X3128Y269D01*
X3173D01*
X3218Y278D01*
X3260Y295D01*
X3298Y320D01*
X3330Y353D01*
X3355Y390D01*
X3373Y433D01*
X3382Y477D01*
Y523D01*
X3373Y567D01*
X3355Y610D01*
X3330Y647D01*
X3298Y680D01*
X3260Y705D01*
X3218Y722D01*
X3173Y731D01*
X3128D01*
X3083Y722D01*
X3041Y705D01*
X3003Y680D01*
X2971Y647D01*
X2946Y610D01*
X2939Y593D01*
X2926Y595D01*
Y718D01*
X2982Y774D01*
X4018D01*
X4036Y757D01*
Y700D01*
X4026Y682D01*
X4019Y656D01*
Y628D01*
X4026Y602D01*
X4040Y578D01*
X4059Y559D01*
X4083Y545D01*
X4109Y538D01*
X4137D01*
X4163Y545D01*
X4187Y559D01*
X4206Y578D01*
X4220Y602D01*
X4227Y628D01*
Y656D01*
X4220Y682D01*
X4206Y706D01*
X4188Y724D01*
Y788D01*
X4185Y808D01*
X4181Y818D01*
X4178Y826D01*
X4166Y842D01*
X4104Y904D01*
X4088Y916D01*
X4070Y923D01*
X4050Y926D01*
X2950D01*
X2930Y923D01*
X2920Y919D01*
X2912Y916D01*
X2896Y904D01*
X2796Y804D01*
X2784Y788D01*
X2777Y770D01*
X2774Y750D01*
Y382D01*
X2718Y326D01*
X640D01*
X626Y340D01*
Y4618D01*
X682Y4674D01*
X2498D01*
X2544Y4628D01*
Y4166D01*
X2537Y4154D01*
X2531Y4132D01*
Y4108D01*
X2537Y4086D01*
X2549Y4065D01*
X2565Y4049D01*
X2586Y4037D01*
X2608Y4031D01*
X2632D01*
X2654Y4037D01*
X2675Y4049D01*
X2691Y4065D01*
X2703Y4086D01*
X2709Y4108D01*
Y4132D01*
X2703Y4154D01*
X2696Y4166D01*
Y4660D01*
X2693Y4680D01*
X2689Y4690D01*
X2686Y4698D01*
X2674Y4714D01*
X2584Y4804D01*
X2568Y4816D01*
X2550Y4823D01*
X2530Y4826D01*
D02*
G37*
G36*
X2464Y4223D02*
X2260D01*
Y4020D01*
X2464D01*
Y4223D01*
D02*
G37*
G36*
X940D02*
X736D01*
Y4020D01*
X940D01*
Y4223D01*
D02*
G37*
G36*
X2375Y3969D02*
X2375D01*
Y3880D01*
X2464D01*
Y3881D01*
X2457Y3907D01*
X2444Y3930D01*
X2425Y3949D01*
X2401Y3962D01*
X2375Y3969D01*
D02*
G37*
G36*
X2349D02*
X2349D01*
X2323Y3962D01*
X2299Y3949D01*
X2280Y3930D01*
X2267Y3907D01*
X2260Y3881D01*
Y3880D01*
X2349D01*
Y3969D01*
D02*
G37*
G36*
X2464Y3855D02*
X2375D01*
Y3766D01*
X2375D01*
X2401Y3773D01*
X2425Y3786D01*
X2444Y3805D01*
X2457Y3828D01*
X2464Y3854D01*
Y3855D01*
D02*
G37*
G36*
X2349D02*
X2260D01*
Y3854D01*
X2267Y3828D01*
X2280Y3805D01*
X2299Y3786D01*
X2323Y3773D01*
X2349Y3766D01*
X2349D01*
Y3855D01*
D02*
G37*
G36*
X851Y3969D02*
X825D01*
X799Y3962D01*
X775Y3949D01*
X756Y3930D01*
X743Y3907D01*
X736Y3881D01*
Y3854D01*
X743Y3828D01*
X756Y3805D01*
X775Y3786D01*
X799Y3773D01*
X825Y3766D01*
X851D01*
X877Y3773D01*
X901Y3786D01*
X920Y3805D01*
X933Y3828D01*
X940Y3854D01*
Y3881D01*
X933Y3907D01*
X920Y3930D01*
X901Y3949D01*
X877Y3962D01*
X851Y3969D01*
D02*
G37*
G36*
X3115Y3749D02*
X2913D01*
Y3547D01*
X3115D01*
Y3749D01*
D02*
G37*
G36*
X2375Y3715D02*
X2349D01*
X2323Y3708D01*
X2299Y3695D01*
X2280Y3676D01*
X2267Y3653D01*
X2260Y3627D01*
Y3600D01*
X2267Y3574D01*
X2280Y3551D01*
X2299Y3532D01*
X2323Y3519D01*
X2349Y3512D01*
X2375D01*
X2401Y3519D01*
X2425Y3532D01*
X2444Y3551D01*
X2457Y3574D01*
X2464Y3600D01*
Y3627D01*
X2457Y3653D01*
X2444Y3676D01*
X2425Y3695D01*
X2401Y3708D01*
X2375Y3715D01*
D02*
G37*
G36*
X851D02*
X825D01*
X799Y3708D01*
X775Y3695D01*
X756Y3676D01*
X743Y3653D01*
X736Y3627D01*
Y3600D01*
X743Y3574D01*
X756Y3551D01*
X775Y3532D01*
X799Y3519D01*
X825Y3512D01*
X851D01*
X877Y3519D01*
X901Y3532D01*
X920Y3551D01*
X933Y3574D01*
X940Y3600D01*
Y3627D01*
X933Y3653D01*
X920Y3676D01*
X901Y3695D01*
X877Y3708D01*
X851Y3715D01*
D02*
G37*
G36*
X3027Y3495D02*
X3027D01*
Y3407D01*
X3115D01*
Y3407D01*
X3108Y3433D01*
X3095Y3456D01*
X3076Y3475D01*
X3053Y3488D01*
X3027Y3495D01*
D02*
G37*
G36*
X3001D02*
X3001D01*
X2975Y3488D01*
X2952Y3475D01*
X2933Y3456D01*
X2920Y3433D01*
X2913Y3407D01*
Y3407D01*
X3001D01*
Y3495D01*
D02*
G37*
G36*
X5882Y3525D02*
X5873D01*
Y3313D01*
X6085D01*
Y3322D01*
X6077Y3366D01*
X6060Y3407D01*
X6035Y3444D01*
X6004Y3475D01*
X5967Y3500D01*
X5926Y3517D01*
X5882Y3525D01*
D02*
G37*
G36*
X5847D02*
X5838D01*
X5794Y3517D01*
X5753Y3500D01*
X5716Y3475D01*
X5685Y3444D01*
X5660Y3407D01*
X5643Y3366D01*
X5635Y3322D01*
Y3313D01*
X5847D01*
Y3525D01*
D02*
G37*
G36*
X3115Y3381D02*
X3027D01*
Y3293D01*
X3027D01*
X3053Y3300D01*
X3076Y3313D01*
X3095Y3332D01*
X3108Y3355D01*
X3115Y3381D01*
Y3381D01*
D02*
G37*
G36*
X3001D02*
X2913D01*
Y3381D01*
X2920Y3355D01*
X2933Y3332D01*
X2952Y3313D01*
X2975Y3300D01*
X3001Y3293D01*
X3001D01*
Y3381D01*
D02*
G37*
G36*
X2375Y3461D02*
X2349D01*
X2323Y3454D01*
X2299Y3441D01*
X2280Y3422D01*
X2267Y3399D01*
X2260Y3373D01*
Y3346D01*
X2267Y3320D01*
X2280Y3297D01*
X2299Y3278D01*
X2323Y3265D01*
X2349Y3258D01*
X2375D01*
X2401Y3265D01*
X2425Y3278D01*
X2444Y3297D01*
X2457Y3320D01*
X2464Y3346D01*
Y3373D01*
X2457Y3399D01*
X2444Y3422D01*
X2425Y3441D01*
X2401Y3454D01*
X2375Y3461D01*
D02*
G37*
G36*
X851D02*
X825D01*
X799Y3454D01*
X775Y3441D01*
X756Y3422D01*
X743Y3399D01*
X736Y3373D01*
Y3346D01*
X743Y3320D01*
X756Y3297D01*
X775Y3278D01*
X799Y3265D01*
X825Y3258D01*
X851D01*
X877Y3265D01*
X901Y3278D01*
X920Y3297D01*
X933Y3320D01*
X940Y3346D01*
Y3373D01*
X933Y3399D01*
X920Y3422D01*
X901Y3441D01*
X877Y3454D01*
X851Y3461D01*
D02*
G37*
G36*
X6585Y3525D02*
X6135D01*
Y3075D01*
X6585D01*
Y3525D01*
D02*
G37*
G36*
X6085Y3287D02*
X5873D01*
Y3075D01*
X5882D01*
X5926Y3083D01*
X5967Y3100D01*
X6004Y3125D01*
X6035Y3156D01*
X6060Y3193D01*
X6077Y3234D01*
X6085Y3278D01*
Y3287D01*
D02*
G37*
G36*
X5847D02*
X5635D01*
Y3278D01*
X5643Y3234D01*
X5660Y3193D01*
X5685Y3156D01*
X5716Y3125D01*
X5753Y3100D01*
X5794Y3083D01*
X5838Y3075D01*
X5847D01*
Y3287D01*
D02*
G37*
G36*
X3027Y3241D02*
X3001D01*
X2975Y3234D01*
X2952Y3221D01*
X2933Y3202D01*
X2920Y3179D01*
X2913Y3153D01*
Y3127D01*
X2920Y3101D01*
X2933Y3078D01*
X2952Y3059D01*
X2975Y3046D01*
X3001Y3039D01*
X3027D01*
X3053Y3046D01*
X3076Y3059D01*
X3095Y3078D01*
X3108Y3101D01*
X3115Y3127D01*
Y3153D01*
X3108Y3179D01*
X3095Y3202D01*
X3076Y3221D01*
X3053Y3234D01*
X3027Y3241D01*
D02*
G37*
G36*
X2375Y3207D02*
X2349D01*
X2323Y3200D01*
X2299Y3187D01*
X2280Y3168D01*
X2267Y3145D01*
X2260Y3119D01*
Y3092D01*
X2267Y3066D01*
X2280Y3043D01*
X2299Y3024D01*
X2323Y3011D01*
X2349Y3004D01*
X2375D01*
X2401Y3011D01*
X2425Y3024D01*
X2444Y3043D01*
X2457Y3066D01*
X2464Y3092D01*
Y3119D01*
X2457Y3145D01*
X2444Y3168D01*
X2425Y3187D01*
X2401Y3200D01*
X2375Y3207D01*
D02*
G37*
G36*
X851D02*
X825D01*
X799Y3200D01*
X775Y3187D01*
X756Y3168D01*
X743Y3145D01*
X736Y3119D01*
Y3092D01*
X743Y3066D01*
X756Y3043D01*
X775Y3024D01*
X799Y3011D01*
X825Y3004D01*
X851D01*
X877Y3011D01*
X901Y3024D01*
X920Y3043D01*
X933Y3066D01*
X940Y3092D01*
Y3119D01*
X933Y3145D01*
X920Y3168D01*
X901Y3187D01*
X877Y3200D01*
X851Y3207D01*
D02*
G37*
G36*
X4300Y2975D02*
X4299D01*
Y2884D01*
X4390D01*
Y2885D01*
X4383Y2911D01*
X4369Y2935D01*
X4350Y2954D01*
X4327Y2968D01*
X4300Y2975D01*
D02*
G37*
G36*
X4274D02*
X4273D01*
X4247Y2968D01*
X4223Y2954D01*
X4204Y2935D01*
X4190Y2911D01*
X4183Y2885D01*
Y2884D01*
X4274D01*
Y2975D01*
D02*
G37*
G36*
X5313Y2987D02*
X5287D01*
X5261Y2980D01*
X5238Y2967D01*
X5219Y2948D01*
X5206Y2925D01*
X5199Y2899D01*
Y2873D01*
X5206Y2847D01*
X5219Y2824D01*
X5238Y2805D01*
X5261Y2792D01*
X5287Y2785D01*
X5313D01*
X5339Y2792D01*
X5362Y2805D01*
X5381Y2824D01*
X5394Y2847D01*
X5401Y2873D01*
Y2899D01*
X5394Y2925D01*
X5381Y2948D01*
X5362Y2967D01*
X5339Y2980D01*
X5313Y2987D01*
D02*
G37*
G36*
X3027D02*
X3001D01*
X2975Y2980D01*
X2952Y2967D01*
X2933Y2948D01*
X2920Y2925D01*
X2913Y2899D01*
Y2873D01*
X2920Y2847D01*
X2933Y2824D01*
X2952Y2805D01*
X2975Y2792D01*
X3001Y2785D01*
X3027D01*
X3053Y2792D01*
X3076Y2805D01*
X3095Y2824D01*
X3108Y2847D01*
X3115Y2873D01*
Y2899D01*
X3108Y2925D01*
X3095Y2948D01*
X3076Y2967D01*
X3053Y2980D01*
X3027Y2987D01*
D02*
G37*
G36*
X4898Y2975D02*
X4691D01*
Y2768D01*
X4898D01*
Y2975D01*
D02*
G37*
G36*
X4390Y2859D02*
X4299D01*
Y2768D01*
X4300D01*
X4327Y2775D01*
X4350Y2789D01*
X4369Y2808D01*
X4383Y2831D01*
X4390Y2858D01*
Y2859D01*
D02*
G37*
G36*
X4274D02*
X4183D01*
Y2858D01*
X4190Y2831D01*
X4204Y2808D01*
X4223Y2789D01*
X4247Y2775D01*
X4273Y2768D01*
X4274D01*
Y2859D01*
D02*
G37*
G36*
X4046Y2975D02*
X4019D01*
X3993Y2968D01*
X3969Y2954D01*
X3950Y2935D01*
X3936Y2911D01*
X3929Y2885D01*
Y2858D01*
X3936Y2831D01*
X3950Y2808D01*
X3969Y2789D01*
X3993Y2775D01*
X4019Y2768D01*
X4046D01*
X4073Y2775D01*
X4096Y2789D01*
X4115Y2808D01*
X4129Y2831D01*
X4136Y2858D01*
Y2885D01*
X4129Y2911D01*
X4115Y2935D01*
X4096Y2954D01*
X4073Y2968D01*
X4046Y2975D01*
D02*
G37*
G36*
X3792D02*
X3765D01*
X3739Y2968D01*
X3715Y2954D01*
X3696Y2935D01*
X3682Y2911D01*
X3675Y2885D01*
Y2858D01*
X3682Y2831D01*
X3696Y2808D01*
X3715Y2789D01*
X3739Y2775D01*
X3765Y2768D01*
X3792D01*
X3819Y2775D01*
X3842Y2789D01*
X3861Y2808D01*
X3875Y2831D01*
X3882Y2858D01*
Y2885D01*
X3875Y2911D01*
X3861Y2935D01*
X3842Y2954D01*
X3819Y2968D01*
X3792Y2975D01*
D02*
G37*
G36*
X2375Y2953D02*
X2349D01*
X2323Y2946D01*
X2299Y2933D01*
X2280Y2914D01*
X2267Y2891D01*
X2260Y2865D01*
Y2838D01*
X2267Y2812D01*
X2280Y2789D01*
X2299Y2770D01*
X2323Y2757D01*
X2349Y2750D01*
X2375D01*
X2401Y2757D01*
X2425Y2770D01*
X2444Y2789D01*
X2457Y2812D01*
X2464Y2838D01*
Y2865D01*
X2457Y2891D01*
X2444Y2914D01*
X2425Y2933D01*
X2401Y2946D01*
X2375Y2953D01*
D02*
G37*
G36*
X851D02*
X825D01*
X799Y2946D01*
X775Y2933D01*
X756Y2914D01*
X743Y2891D01*
X736Y2865D01*
Y2838D01*
X743Y2812D01*
X756Y2789D01*
X775Y2770D01*
X799Y2757D01*
X825Y2750D01*
X851D01*
X877Y2757D01*
X901Y2770D01*
X920Y2789D01*
X933Y2812D01*
X940Y2838D01*
Y2865D01*
X933Y2891D01*
X920Y2914D01*
X901Y2933D01*
X877Y2946D01*
X851Y2953D01*
D02*
G37*
G36*
X4950Y3189D02*
X3600D01*
X3585Y3186D01*
X3573Y3177D01*
X3497Y3102D01*
X3489Y3089D01*
X3486Y3075D01*
Y2968D01*
X3485Y2968D01*
X3461Y2954D01*
X3442Y2935D01*
X3428Y2911D01*
X3421Y2885D01*
Y2858D01*
X3428Y2831D01*
X3442Y2808D01*
X3461Y2789D01*
X3485Y2775D01*
X3511Y2768D01*
X3538D01*
X3565Y2775D01*
X3588Y2789D01*
X3607Y2808D01*
X3621Y2831D01*
X3628Y2858D01*
Y2885D01*
X3621Y2911D01*
X3607Y2935D01*
X3588Y2954D01*
X3565Y2968D01*
X3563Y2968D01*
Y3059D01*
X3616Y3111D01*
X4934D01*
X4961Y3084D01*
Y2690D01*
X4949Y2686D01*
X4917Y2717D01*
X4905Y2726D01*
X4890Y2729D01*
X4596D01*
X4579Y2746D01*
Y2775D01*
X4581Y2775D01*
X4604Y2789D01*
X4623Y2808D01*
X4637Y2831D01*
X4644Y2858D01*
Y2885D01*
X4637Y2911D01*
X4623Y2935D01*
X4604Y2954D01*
X4581Y2968D01*
X4554Y2975D01*
X4527D01*
X4501Y2968D01*
X4477Y2954D01*
X4458Y2935D01*
X4444Y2911D01*
X4437Y2885D01*
Y2858D01*
X4444Y2831D01*
X4458Y2808D01*
X4477Y2789D01*
X4501Y2775D01*
X4501Y2775D01*
Y2730D01*
X4504Y2715D01*
X4513Y2703D01*
X4553Y2663D01*
X4565Y2654D01*
X4580Y2651D01*
X4874D01*
X4901Y2624D01*
Y1970D01*
X4898Y1959D01*
X4888Y1959D01*
X4691D01*
Y1752D01*
X4898D01*
Y1861D01*
X4911Y1865D01*
X4913Y1863D01*
X4943Y1833D01*
X4955Y1824D01*
X4970Y1821D01*
X5190D01*
X5199Y1805D01*
X5215Y1789D01*
X5236Y1777D01*
X5258Y1771D01*
X5282D01*
X5304Y1777D01*
X5325Y1789D01*
X5341Y1805D01*
X5353Y1826D01*
X5359Y1848D01*
Y1872D01*
X5353Y1894D01*
X5341Y1915D01*
X5325Y1931D01*
X5304Y1943D01*
X5282Y1949D01*
X5258D01*
X5236Y1943D01*
X5215Y1931D01*
X5199Y1915D01*
X5190Y1899D01*
X4986D01*
X4979Y1906D01*
Y2500D01*
X4991Y2504D01*
X5031Y2464D01*
X5044Y2456D01*
X5058Y2453D01*
X5216D01*
X5220Y2441D01*
X5219Y2440D01*
X5206Y2417D01*
X5199Y2391D01*
Y2365D01*
X5206Y2339D01*
X5219Y2316D01*
X5238Y2297D01*
X5261Y2284D01*
X5287Y2277D01*
X5313D01*
X5339Y2284D01*
X5362Y2297D01*
X5381Y2316D01*
X5394Y2339D01*
X5401Y2365D01*
Y2391D01*
X5394Y2417D01*
X5381Y2440D01*
X5380Y2441D01*
X5384Y2453D01*
X6342D01*
X6361Y2434D01*
Y1350D01*
X6364Y1335D01*
X6373Y1323D01*
X6427Y1269D01*
X6439Y1260D01*
X6454Y1257D01*
X6503D01*
X6504Y1256D01*
X6517Y1233D01*
X6537Y1213D01*
X6560Y1200D01*
X6586Y1193D01*
X6614D01*
X6640Y1200D01*
X6663Y1213D01*
X6683Y1233D01*
X6696Y1256D01*
X6703Y1282D01*
Y1310D01*
X6696Y1336D01*
X6683Y1359D01*
X6663Y1379D01*
X6640Y1392D01*
X6614Y1399D01*
X6586D01*
X6560Y1392D01*
X6537Y1379D01*
X6517Y1359D01*
X6504Y1336D01*
X6503Y1335D01*
X6470D01*
X6439Y1366D01*
Y2450D01*
X6436Y2465D01*
X6427Y2477D01*
X6386Y2519D01*
X6373Y2527D01*
X6358Y2530D01*
X5351D01*
X5348Y2543D01*
X5362Y2551D01*
X5381Y2570D01*
X5394Y2593D01*
X5401Y2619D01*
Y2619D01*
X5300D01*
X5199D01*
Y2619D01*
X5206Y2593D01*
X5219Y2570D01*
X5238Y2551D01*
X5252Y2543D01*
X5249Y2530D01*
X5075D01*
X5039Y2566D01*
Y3100D01*
X5036Y3115D01*
X5027Y3127D01*
X4977Y3177D01*
X4965Y3186D01*
X4950Y3189D01*
D02*
G37*
G36*
X5313Y2733D02*
X5313D01*
Y2645D01*
X5401D01*
Y2645D01*
X5394Y2671D01*
X5381Y2694D01*
X5362Y2713D01*
X5339Y2726D01*
X5313Y2733D01*
D02*
G37*
G36*
X5287D02*
X5287D01*
X5261Y2726D01*
X5238Y2713D01*
X5219Y2694D01*
X5206Y2671D01*
X5199Y2645D01*
Y2645D01*
X5287D01*
Y2733D01*
D02*
G37*
G36*
X3027D02*
X3001D01*
X2975Y2726D01*
X2952Y2713D01*
X2933Y2694D01*
X2920Y2671D01*
X2913Y2645D01*
Y2619D01*
X2920Y2593D01*
X2933Y2570D01*
X2952Y2551D01*
X2975Y2538D01*
X3001Y2531D01*
X3027D01*
X3053Y2538D01*
X3076Y2551D01*
X3095Y2570D01*
X3108Y2593D01*
X3115Y2619D01*
Y2645D01*
X3108Y2671D01*
X3095Y2694D01*
X3076Y2713D01*
X3053Y2726D01*
X3027Y2733D01*
D02*
G37*
G36*
X2375Y2699D02*
X2349D01*
X2323Y2692D01*
X2299Y2679D01*
X2280Y2660D01*
X2267Y2637D01*
X2260Y2611D01*
Y2584D01*
X2267Y2558D01*
X2280Y2535D01*
X2299Y2516D01*
X2323Y2503D01*
X2349Y2496D01*
X2375D01*
X2401Y2503D01*
X2425Y2516D01*
X2444Y2535D01*
X2457Y2558D01*
X2464Y2584D01*
Y2611D01*
X2457Y2637D01*
X2444Y2660D01*
X2425Y2679D01*
X2401Y2692D01*
X2375Y2699D01*
D02*
G37*
G36*
X851D02*
X825D01*
X799Y2692D01*
X775Y2679D01*
X756Y2660D01*
X743Y2637D01*
X736Y2611D01*
Y2584D01*
X743Y2558D01*
X756Y2535D01*
X775Y2516D01*
X799Y2503D01*
X825Y2496D01*
X851D01*
X877Y2503D01*
X901Y2516D01*
X920Y2535D01*
X933Y2558D01*
X940Y2584D01*
Y2611D01*
X933Y2637D01*
X920Y2660D01*
X901Y2679D01*
X877Y2692D01*
X851Y2699D01*
D02*
G37*
G36*
X3027Y2479D02*
X3027D01*
Y2391D01*
X3115D01*
Y2391D01*
X3108Y2417D01*
X3095Y2440D01*
X3076Y2459D01*
X3053Y2472D01*
X3027Y2479D01*
D02*
G37*
G36*
X3001D02*
X3001D01*
X2975Y2472D01*
X2952Y2459D01*
X2933Y2440D01*
X2920Y2417D01*
X2913Y2391D01*
Y2391D01*
X3001D01*
Y2479D01*
D02*
G37*
G36*
X851Y2445D02*
X825D01*
X799Y2438D01*
X775Y2425D01*
X756Y2406D01*
X743Y2383D01*
X736Y2357D01*
Y2330D01*
X743Y2304D01*
X756Y2281D01*
X775Y2262D01*
X799Y2249D01*
X825Y2242D01*
X851D01*
X877Y2249D01*
X901Y2262D01*
X920Y2281D01*
X933Y2304D01*
X940Y2330D01*
Y2357D01*
X933Y2383D01*
X920Y2406D01*
X901Y2425D01*
X877Y2438D01*
X851Y2445D01*
D02*
G37*
G36*
X6703Y2415D02*
X6497D01*
Y2209D01*
X6703D01*
Y2415D01*
D02*
G37*
G36*
X5313Y2225D02*
X5287D01*
X5261Y2218D01*
X5238Y2205D01*
X5219Y2186D01*
X5206Y2163D01*
X5199Y2137D01*
Y2111D01*
X5206Y2085D01*
X5219Y2062D01*
X5238Y2043D01*
X5261Y2030D01*
X5287Y2023D01*
X5313D01*
X5339Y2030D01*
X5362Y2043D01*
X5381Y2062D01*
X5394Y2085D01*
X5401Y2111D01*
Y2137D01*
X5394Y2163D01*
X5381Y2186D01*
X5362Y2205D01*
X5339Y2218D01*
X5313Y2225D01*
D02*
G37*
G36*
X6614Y2161D02*
X6586D01*
X6560Y2154D01*
X6537Y2141D01*
X6517Y2121D01*
X6504Y2098D01*
X6497Y2072D01*
Y2044D01*
X6504Y2018D01*
X6517Y1995D01*
X6537Y1975D01*
X6560Y1962D01*
X6586Y1955D01*
X6614D01*
X6640Y1962D01*
X6663Y1975D01*
X6683Y1995D01*
X6696Y2018D01*
X6703Y2044D01*
Y2072D01*
X6696Y2098D01*
X6683Y2121D01*
X6663Y2141D01*
X6640Y2154D01*
X6614Y2161D01*
D02*
G37*
G36*
X4300Y1959D02*
X4299D01*
Y1868D01*
X4390D01*
Y1869D01*
X4383Y1895D01*
X4369Y1919D01*
X4350Y1938D01*
X4327Y1952D01*
X4300Y1959D01*
D02*
G37*
G36*
X4274D02*
X4273D01*
X4247Y1952D01*
X4223Y1938D01*
X4204Y1919D01*
X4190Y1895D01*
X4183Y1869D01*
Y1868D01*
X4274D01*
Y1959D01*
D02*
G37*
G36*
X6064Y2063D02*
X6036D01*
X6008Y2056D01*
X5983Y2041D01*
X5963Y2021D01*
X5948Y1996D01*
X5946Y1988D01*
X5935Y1986D01*
X5923Y1977D01*
X5873Y1927D01*
X5864Y1915D01*
X5861Y1900D01*
Y1016D01*
X5834Y989D01*
X4630D01*
X4621Y1005D01*
X4605Y1021D01*
X4584Y1033D01*
X4562Y1039D01*
X4538D01*
X4516Y1033D01*
X4495Y1021D01*
X4479Y1005D01*
X4467Y984D01*
X4461Y962D01*
Y938D01*
X4467Y916D01*
X4479Y895D01*
X4495Y879D01*
X4516Y867D01*
X4538Y861D01*
X4562D01*
X4584Y867D01*
X4605Y879D01*
X4621Y895D01*
X4630Y911D01*
X5850D01*
X5865Y914D01*
X5877Y923D01*
X5927Y973D01*
X5936Y985D01*
X5939Y1000D01*
Y1395D01*
X5952Y1398D01*
X5963Y1379D01*
X5983Y1359D01*
X6008Y1344D01*
X6036Y1337D01*
X6064D01*
X6092Y1344D01*
X6117Y1359D01*
X6137Y1379D01*
X6152Y1404D01*
X6159Y1432D01*
Y1460D01*
X6152Y1488D01*
X6137Y1513D01*
X6117Y1533D01*
X6092Y1548D01*
X6064Y1555D01*
X6036D01*
X6008Y1548D01*
X5983Y1533D01*
X5963Y1513D01*
X5952Y1494D01*
X5939Y1497D01*
Y1649D01*
X5952Y1652D01*
X5963Y1633D01*
X5983Y1613D01*
X6008Y1598D01*
X6036Y1591D01*
X6064D01*
X6092Y1598D01*
X6117Y1613D01*
X6137Y1633D01*
X6152Y1658D01*
X6159Y1686D01*
Y1714D01*
X6152Y1742D01*
X6137Y1767D01*
X6117Y1787D01*
X6092Y1802D01*
X6064Y1809D01*
X6036D01*
X6008Y1802D01*
X5983Y1787D01*
X5963Y1767D01*
X5952Y1748D01*
X5939Y1751D01*
Y1884D01*
X5948Y1893D01*
X5960Y1891D01*
X5963Y1887D01*
X5983Y1867D01*
X6008Y1852D01*
X6036Y1845D01*
X6064D01*
X6092Y1852D01*
X6117Y1867D01*
X6137Y1887D01*
X6152Y1912D01*
X6159Y1940D01*
Y1968D01*
X6152Y1996D01*
X6137Y2021D01*
X6117Y2041D01*
X6092Y2056D01*
X6064Y2063D01*
D02*
G37*
G36*
X6614Y1907D02*
X6613D01*
Y1817D01*
X6703D01*
Y1818D01*
X6696Y1844D01*
X6683Y1867D01*
X6663Y1887D01*
X6640Y1900D01*
X6614Y1907D01*
D02*
G37*
G36*
X6587D02*
X6586D01*
X6560Y1900D01*
X6537Y1887D01*
X6517Y1867D01*
X6504Y1844D01*
X6497Y1818D01*
Y1817D01*
X6587D01*
Y1907D01*
D02*
G37*
G36*
X2375Y2445D02*
X2349D01*
X2323Y2438D01*
X2299Y2425D01*
X2280Y2406D01*
X2267Y2383D01*
X2260Y2357D01*
Y2330D01*
X2267Y2304D01*
X2280Y2281D01*
X2299Y2262D01*
X2310Y2256D01*
X2307Y2243D01*
X953D01*
X938Y2240D01*
X925Y2232D01*
X878Y2184D01*
X877Y2184D01*
X851Y2191D01*
X825D01*
X799Y2184D01*
X775Y2171D01*
X756Y2152D01*
X743Y2129D01*
X736Y2103D01*
Y2076D01*
X743Y2050D01*
X756Y2027D01*
X775Y2008D01*
X799Y1995D01*
X825Y1988D01*
X851D01*
X877Y1995D01*
X901Y2008D01*
X920Y2027D01*
X933Y2050D01*
X940Y2076D01*
Y2103D01*
X933Y2129D01*
X933Y2129D01*
X969Y2165D01*
X2277D01*
X2282Y2154D01*
X2280Y2152D01*
X2267Y2129D01*
X2260Y2103D01*
Y2076D01*
X2267Y2050D01*
X2280Y2027D01*
X2299Y2008D01*
X2323Y1995D01*
X2349Y1988D01*
X2375D01*
X2401Y1995D01*
X2425Y2008D01*
X2444Y2027D01*
X2457Y2050D01*
X2464Y2076D01*
Y2103D01*
X2457Y2129D01*
X2444Y2152D01*
X2442Y2154D01*
X2447Y2165D01*
X2530D01*
X2561Y2134D01*
Y2050D01*
X2564Y2035D01*
X2573Y2023D01*
X2623Y1973D01*
X2635Y1964D01*
X2650Y1961D01*
X2947D01*
X2950Y1948D01*
X2933Y1932D01*
X2920Y1909D01*
X2920Y1909D01*
X2670D01*
X2655Y1906D01*
X2643Y1897D01*
X2573Y1827D01*
X2564Y1815D01*
X2561Y1800D01*
Y1516D01*
X2534Y1489D01*
X2428D01*
X2426Y1502D01*
X2444Y1519D01*
X2457Y1542D01*
X2464Y1568D01*
Y1595D01*
X2457Y1621D01*
X2444Y1644D01*
X2425Y1663D01*
X2401Y1676D01*
X2375Y1683D01*
X2349D01*
X2323Y1676D01*
X2299Y1663D01*
X2280Y1644D01*
X2267Y1621D01*
X2260Y1595D01*
Y1568D01*
X2267Y1542D01*
X2280Y1519D01*
X2298Y1502D01*
X2296Y1489D01*
X960D01*
X946Y1486D01*
X933Y1477D01*
X878Y1422D01*
X877Y1422D01*
X851Y1429D01*
X825D01*
X799Y1422D01*
X775Y1409D01*
X756Y1390D01*
X743Y1367D01*
X736Y1341D01*
Y1314D01*
X743Y1288D01*
X756Y1265D01*
X775Y1246D01*
X799Y1233D01*
X825Y1226D01*
X851D01*
X877Y1233D01*
X901Y1246D01*
X920Y1265D01*
X933Y1288D01*
X940Y1314D01*
Y1341D01*
X933Y1367D01*
X933Y1367D01*
X977Y1411D01*
X2284D01*
X2289Y1398D01*
X2280Y1390D01*
X2267Y1367D01*
X2260Y1341D01*
Y1314D01*
X2267Y1288D01*
X2280Y1265D01*
X2299Y1246D01*
X2323Y1233D01*
X2349Y1226D01*
X2375D01*
X2401Y1233D01*
X2425Y1246D01*
X2444Y1265D01*
X2457Y1288D01*
X2464Y1314D01*
Y1341D01*
X2457Y1367D01*
X2444Y1390D01*
X2435Y1398D01*
X2440Y1411D01*
X2550D01*
X2565Y1414D01*
X2577Y1423D01*
X2627Y1473D01*
X2636Y1485D01*
X2639Y1500D01*
Y1784D01*
X2686Y1831D01*
X2920D01*
X2920Y1831D01*
X2933Y1808D01*
X2952Y1789D01*
X2975Y1776D01*
X3001Y1769D01*
X3027D01*
X3053Y1776D01*
X3076Y1789D01*
X3095Y1808D01*
X3108Y1831D01*
X3115Y1857D01*
Y1883D01*
X3108Y1909D01*
X3095Y1932D01*
X3078Y1948D01*
X3081Y1961D01*
X3476D01*
X3479Y1948D01*
X3461Y1938D01*
X3442Y1919D01*
X3428Y1895D01*
X3421Y1869D01*
Y1842D01*
X3428Y1815D01*
X3442Y1792D01*
X3461Y1773D01*
X3485Y1759D01*
X3511Y1752D01*
X3538D01*
X3565Y1759D01*
X3588Y1773D01*
X3607Y1792D01*
X3621Y1815D01*
X3628Y1842D01*
Y1869D01*
X3621Y1895D01*
X3607Y1919D01*
X3588Y1938D01*
X3570Y1948D01*
X3574Y1961D01*
X3712D01*
X3720Y1953D01*
X3718Y1940D01*
X3715Y1938D01*
X3696Y1919D01*
X3682Y1895D01*
X3675Y1869D01*
Y1842D01*
X3682Y1815D01*
X3696Y1792D01*
X3715Y1773D01*
X3739Y1759D01*
X3765Y1752D01*
X3792D01*
X3819Y1759D01*
X3842Y1773D01*
X3861Y1792D01*
X3875Y1815D01*
X3882Y1842D01*
Y1869D01*
X3875Y1895D01*
X3861Y1919D01*
X3842Y1938D01*
X3819Y1952D01*
X3817Y1952D01*
X3815Y1966D01*
X3806Y1979D01*
X3757Y2027D01*
X3745Y2036D01*
X3730Y2039D01*
X3089D01*
X3084Y2052D01*
X3095Y2062D01*
X3108Y2085D01*
X3115Y2111D01*
Y2137D01*
X3108Y2163D01*
X3095Y2186D01*
X3076Y2205D01*
X3069Y2208D01*
X3073Y2221D01*
X4474D01*
X4502Y2193D01*
Y1952D01*
X4501Y1952D01*
X4477Y1938D01*
X4458Y1919D01*
X4444Y1895D01*
X4437Y1869D01*
Y1842D01*
X4444Y1815D01*
X4458Y1792D01*
X4477Y1773D01*
X4501Y1759D01*
X4527Y1752D01*
X4554D01*
X4581Y1759D01*
X4604Y1773D01*
X4623Y1792D01*
X4637Y1815D01*
X4644Y1842D01*
Y1869D01*
X4637Y1895D01*
X4623Y1919D01*
X4604Y1938D01*
X4581Y1952D01*
X4579Y1952D01*
Y2209D01*
X4577Y2224D01*
X4568Y2237D01*
X4517Y2287D01*
X4505Y2296D01*
X4490Y2299D01*
X3094D01*
X3089Y2311D01*
X3095Y2316D01*
X3108Y2339D01*
X3115Y2365D01*
Y2365D01*
X3014D01*
X2913D01*
Y2365D01*
X2920Y2339D01*
X2933Y2316D01*
X2939Y2311D01*
X2934Y2299D01*
X2706D01*
X2637Y2367D01*
X2625Y2376D01*
X2610Y2379D01*
X2458D01*
X2457Y2383D01*
X2444Y2406D01*
X2425Y2425D01*
X2401Y2438D01*
X2375Y2445D01*
D02*
G37*
G36*
X4390Y1843D02*
X4299D01*
Y1752D01*
X4300D01*
X4327Y1759D01*
X4350Y1773D01*
X4369Y1792D01*
X4383Y1815D01*
X4390Y1842D01*
Y1843D01*
D02*
G37*
G36*
X4274D02*
X4183D01*
Y1842D01*
X4190Y1815D01*
X4204Y1792D01*
X4223Y1773D01*
X4247Y1759D01*
X4273Y1752D01*
X4274D01*
Y1843D01*
D02*
G37*
G36*
X2375Y1937D02*
X2349D01*
X2323Y1930D01*
X2299Y1917D01*
X2280Y1898D01*
X2267Y1875D01*
X2260Y1849D01*
Y1822D01*
X2267Y1796D01*
X2280Y1773D01*
X2299Y1754D01*
X2323Y1741D01*
X2349Y1734D01*
X2375D01*
X2401Y1741D01*
X2425Y1754D01*
X2444Y1773D01*
X2457Y1796D01*
X2464Y1822D01*
Y1849D01*
X2457Y1875D01*
X2444Y1898D01*
X2425Y1917D01*
X2401Y1930D01*
X2375Y1937D01*
D02*
G37*
G36*
X851D02*
X825D01*
X799Y1930D01*
X775Y1917D01*
X756Y1898D01*
X743Y1875D01*
X736Y1849D01*
Y1822D01*
X743Y1796D01*
X756Y1773D01*
X775Y1754D01*
X799Y1741D01*
X825Y1734D01*
X851D01*
X877Y1741D01*
X901Y1754D01*
X920Y1773D01*
X933Y1796D01*
X940Y1822D01*
Y1849D01*
X933Y1875D01*
X920Y1898D01*
X901Y1917D01*
X877Y1930D01*
X851Y1937D01*
D02*
G37*
G36*
X6703Y1791D02*
X6613D01*
Y1701D01*
X6614D01*
X6640Y1708D01*
X6663Y1721D01*
X6683Y1741D01*
X6696Y1764D01*
X6703Y1790D01*
Y1791D01*
D02*
G37*
G36*
X6587D02*
X6497D01*
Y1790D01*
X6504Y1764D01*
X6517Y1741D01*
X6537Y1721D01*
X6560Y1708D01*
X6586Y1701D01*
X6587D01*
Y1791D01*
D02*
G37*
G36*
X4046Y1959D02*
X4019D01*
X3993Y1952D01*
X3969Y1938D01*
X3950Y1919D01*
X3936Y1895D01*
X3929Y1869D01*
Y1842D01*
X3936Y1815D01*
X3950Y1792D01*
X3969Y1773D01*
X3993Y1759D01*
X3995Y1758D01*
Y1550D01*
X3984Y1539D01*
X3096D01*
X3091Y1551D01*
X3095Y1554D01*
X3108Y1577D01*
X3115Y1603D01*
Y1629D01*
X3108Y1655D01*
X3095Y1678D01*
X3076Y1697D01*
X3053Y1710D01*
X3027Y1717D01*
X3001D01*
X2975Y1710D01*
X2952Y1697D01*
X2933Y1678D01*
X2920Y1655D01*
X2913Y1629D01*
Y1603D01*
X2920Y1577D01*
X2933Y1554D01*
X2937Y1551D01*
X2932Y1539D01*
X2800D01*
X2785Y1536D01*
X2773Y1527D01*
X2723Y1477D01*
X2714Y1465D01*
X2711Y1450D01*
Y1160D01*
X2695Y1151D01*
X2679Y1135D01*
X2667Y1114D01*
X2661Y1092D01*
Y1068D01*
X2667Y1046D01*
X2679Y1025D01*
X2695Y1009D01*
X2711Y1000D01*
Y866D01*
X2703Y858D01*
X2457D01*
X2457Y859D01*
X2444Y882D01*
X2425Y901D01*
X2401Y914D01*
X2375Y921D01*
X2349D01*
X2323Y914D01*
X2299Y901D01*
X2280Y882D01*
X2267Y859D01*
X2260Y833D01*
Y806D01*
X2267Y780D01*
X2280Y757D01*
X2299Y738D01*
X2323Y725D01*
X2349Y718D01*
X2375D01*
X2401Y725D01*
X2425Y738D01*
X2444Y757D01*
X2457Y780D01*
X2457Y781D01*
X2719D01*
X2734Y784D01*
X2747Y792D01*
X2777Y823D01*
X2786Y835D01*
X2789Y850D01*
Y1000D01*
X2805Y1009D01*
X2821Y1025D01*
X2833Y1046D01*
X2839Y1068D01*
Y1092D01*
X2833Y1114D01*
X2821Y1135D01*
X2805Y1151D01*
X2789Y1160D01*
Y1434D01*
X2816Y1461D01*
X2959D01*
X2962Y1448D01*
X2952Y1443D01*
X2933Y1424D01*
X2920Y1401D01*
X2913Y1375D01*
Y1349D01*
X2920Y1323D01*
X2933Y1300D01*
X2952Y1281D01*
X2975Y1268D01*
X3001Y1261D01*
X3027D01*
X3053Y1268D01*
X3076Y1281D01*
X3095Y1300D01*
X3108Y1323D01*
X3115Y1349D01*
Y1375D01*
X3108Y1401D01*
X3095Y1424D01*
X3076Y1443D01*
X3066Y1448D01*
X3069Y1461D01*
X4000D01*
X4015Y1464D01*
X4027Y1473D01*
X4061Y1506D01*
X4070Y1519D01*
X4073Y1534D01*
Y1759D01*
X4096Y1773D01*
X4115Y1792D01*
X4129Y1815D01*
X4136Y1842D01*
Y1869D01*
X4129Y1895D01*
X4115Y1919D01*
X4096Y1938D01*
X4073Y1952D01*
X4046Y1959D01*
D02*
G37*
G36*
X851Y1683D02*
X825D01*
X799Y1676D01*
X775Y1663D01*
X756Y1644D01*
X743Y1621D01*
X736Y1595D01*
Y1568D01*
X743Y1542D01*
X756Y1519D01*
X775Y1500D01*
X799Y1487D01*
X825Y1480D01*
X851D01*
X877Y1487D01*
X901Y1500D01*
X920Y1519D01*
X933Y1542D01*
X940Y1568D01*
Y1595D01*
X933Y1621D01*
X920Y1644D01*
X901Y1663D01*
X877Y1676D01*
X851Y1683D01*
D02*
G37*
G36*
X6614Y1653D02*
X6586D01*
X6560Y1646D01*
X6537Y1633D01*
X6517Y1613D01*
X6504Y1590D01*
X6497Y1564D01*
Y1536D01*
X6504Y1510D01*
X6517Y1487D01*
X6537Y1467D01*
X6560Y1454D01*
X6586Y1447D01*
X6614D01*
X6640Y1454D01*
X6663Y1467D01*
X6683Y1487D01*
X6696Y1510D01*
X6703Y1536D01*
Y1564D01*
X6696Y1590D01*
X6683Y1613D01*
X6663Y1633D01*
X6640Y1646D01*
X6614Y1653D01*
D02*
G37*
G36*
X2375Y1175D02*
X2349D01*
X2323Y1168D01*
X2299Y1155D01*
X2280Y1136D01*
X2267Y1113D01*
X2260Y1087D01*
Y1060D01*
X2267Y1034D01*
X2280Y1011D01*
X2299Y992D01*
X2323Y979D01*
X2349Y972D01*
X2375D01*
X2401Y979D01*
X2425Y992D01*
X2444Y1011D01*
X2457Y1034D01*
X2464Y1060D01*
Y1087D01*
X2457Y1113D01*
X2444Y1136D01*
X2425Y1155D01*
X2401Y1168D01*
X2375Y1175D01*
D02*
G37*
G36*
X851D02*
X825D01*
X799Y1168D01*
X775Y1155D01*
X756Y1136D01*
X743Y1113D01*
X736Y1087D01*
Y1060D01*
X743Y1034D01*
X756Y1011D01*
X775Y992D01*
X799Y979D01*
X825Y972D01*
X851D01*
X877Y979D01*
X901Y992D01*
X920Y1011D01*
X933Y1034D01*
X940Y1060D01*
Y1087D01*
X933Y1113D01*
X920Y1136D01*
X901Y1155D01*
X877Y1168D01*
X851Y1175D01*
D02*
G37*
G36*
X6614Y1145D02*
X6586D01*
X6560Y1138D01*
X6537Y1125D01*
X6517Y1105D01*
X6504Y1082D01*
X6497Y1056D01*
Y1028D01*
X6504Y1002D01*
X6517Y979D01*
X6537Y959D01*
X6560Y946D01*
X6586Y939D01*
X6614D01*
X6640Y946D01*
X6663Y959D01*
X6683Y979D01*
X6696Y1002D01*
X6703Y1028D01*
Y1056D01*
X6696Y1082D01*
X6683Y1105D01*
X6663Y1125D01*
X6640Y1138D01*
X6614Y1145D01*
D02*
G37*
G36*
X851Y921D02*
X825D01*
X799Y914D01*
X775Y901D01*
X756Y882D01*
X743Y859D01*
X736Y833D01*
Y806D01*
X743Y780D01*
X756Y757D01*
X775Y738D01*
X799Y725D01*
X825Y718D01*
X851D01*
X877Y725D01*
X901Y738D01*
X920Y757D01*
X933Y780D01*
X940Y806D01*
Y833D01*
X933Y859D01*
X920Y882D01*
X901Y901D01*
X877Y914D01*
X851Y921D01*
D02*
G37*
G36*
X3860Y746D02*
X3859D01*
Y655D01*
X3950D01*
Y656D01*
X3943Y682D01*
X3929Y706D01*
X3910Y725D01*
X3886Y739D01*
X3860Y746D01*
D02*
G37*
G36*
X3833D02*
X3832D01*
X3806Y739D01*
X3782Y725D01*
X3763Y706D01*
X3749Y682D01*
X3742Y656D01*
Y655D01*
X3833D01*
Y746D01*
D02*
G37*
G36*
X3950Y4462D02*
X3742D01*
Y4254D01*
X3802D01*
Y4154D01*
X3806Y4137D01*
X3815Y4123D01*
X3869Y4069D01*
X3883Y4060D01*
X3900Y4056D01*
X6782D01*
X6806Y4032D01*
Y918D01*
X6782Y894D01*
X5000D01*
X4983Y890D01*
X4969Y881D01*
X4923Y835D01*
X4914Y821D01*
X4910Y804D01*
Y746D01*
X4850D01*
Y538D01*
X5058D01*
Y746D01*
X4998D01*
Y786D01*
X5018Y806D01*
X6800D01*
X6817Y810D01*
X6831Y819D01*
X6881Y869D01*
X6890Y883D01*
X6894Y900D01*
Y4050D01*
X6890Y4067D01*
X6881Y4081D01*
X6831Y4131D01*
X6817Y4140D01*
X6800Y4144D01*
X3918D01*
X3890Y4172D01*
Y4254D01*
X3950D01*
Y4462D01*
D02*
G37*
G36*
X4691Y746D02*
X4663D01*
X4637Y739D01*
X4613Y725D01*
X4594Y706D01*
X4580Y682D01*
X4573Y656D01*
Y628D01*
X4580Y602D01*
X4594Y578D01*
X4613Y559D01*
X4637Y545D01*
X4663Y538D01*
X4691D01*
X4717Y545D01*
X4741Y559D01*
X4760Y578D01*
X4774Y602D01*
X4781Y628D01*
Y656D01*
X4774Y682D01*
X4760Y706D01*
X4741Y725D01*
X4717Y739D01*
X4691Y746D01*
D02*
G37*
G36*
X4414D02*
X4386D01*
X4360Y739D01*
X4336Y725D01*
X4317Y706D01*
X4303Y682D01*
X4296Y656D01*
Y628D01*
X4303Y602D01*
X4317Y578D01*
X4336Y559D01*
X4360Y545D01*
X4386Y538D01*
X4414D01*
X4440Y545D01*
X4464Y559D01*
X4483Y578D01*
X4497Y602D01*
X4504Y628D01*
Y656D01*
X4497Y682D01*
X4483Y706D01*
X4464Y725D01*
X4440Y739D01*
X4414Y746D01*
D02*
G37*
G36*
X3950Y629D02*
X3859D01*
Y538D01*
X3860D01*
X3886Y545D01*
X3910Y559D01*
X3929Y578D01*
X3943Y602D01*
X3950Y628D01*
Y629D01*
D02*
G37*
G36*
X3833D02*
X3742D01*
Y628D01*
X3749Y602D01*
X3763Y578D01*
X3782Y559D01*
X3806Y545D01*
X3832Y538D01*
X3833D01*
Y629D01*
D02*
G37*
G36*
X2375Y667D02*
X2349D01*
X2323Y660D01*
X2299Y647D01*
X2280Y628D01*
X2267Y605D01*
X2260Y579D01*
Y552D01*
X2267Y526D01*
X2280Y503D01*
X2299Y484D01*
X2323Y471D01*
X2349Y464D01*
X2375D01*
X2401Y471D01*
X2425Y484D01*
X2444Y503D01*
X2457Y526D01*
X2464Y552D01*
Y579D01*
X2457Y605D01*
X2444Y628D01*
X2425Y647D01*
X2401Y660D01*
X2375Y667D01*
D02*
G37*
G36*
X851D02*
X825D01*
X799Y660D01*
X775Y647D01*
X756Y628D01*
X743Y605D01*
X736Y579D01*
Y552D01*
X743Y526D01*
X756Y503D01*
X775Y484D01*
X799Y471D01*
X825Y464D01*
X851D01*
X877Y471D01*
X901Y484D01*
X920Y503D01*
X933Y526D01*
X940Y552D01*
Y579D01*
X933Y605D01*
X920Y628D01*
X901Y647D01*
X877Y660D01*
X851Y667D01*
D02*
G37*
G36*
X5672Y731D02*
X5627D01*
X5582Y722D01*
X5540Y705D01*
X5502Y680D01*
X5470Y647D01*
X5445Y610D01*
X5427Y567D01*
X5418Y523D01*
Y477D01*
X5427Y433D01*
X5445Y390D01*
X5470Y353D01*
X5502Y320D01*
X5540Y295D01*
X5582Y278D01*
X5627Y269D01*
X5672D01*
X5717Y278D01*
X5759Y295D01*
X5797Y320D01*
X5829Y353D01*
X5854Y390D01*
X5872Y433D01*
X5881Y477D01*
Y523D01*
X5872Y567D01*
X5854Y610D01*
X5829Y647D01*
X5797Y680D01*
X5759Y705D01*
X5717Y722D01*
X5672Y731D01*
D02*
G37*
G36*
X4829Y462D02*
X4802D01*
X4775Y455D01*
X4752Y441D01*
X4732Y422D01*
X4718Y398D01*
X4711Y372D01*
Y344D01*
X4718Y318D01*
X4732Y294D01*
X4752Y275D01*
X4775Y261D01*
X4802Y254D01*
X4829D01*
X4856Y261D01*
X4879Y275D01*
X4899Y294D01*
X4913Y318D01*
X4920Y344D01*
Y372D01*
X4913Y398D01*
X4899Y422D01*
X4879Y441D01*
X4856Y455D01*
X4829Y462D01*
D02*
G37*
G36*
X4552D02*
X4525D01*
X4498Y455D01*
X4475Y441D01*
X4455Y422D01*
X4441Y398D01*
X4434Y372D01*
Y344D01*
X4441Y318D01*
X4455Y294D01*
X4475Y275D01*
X4498Y261D01*
X4525Y254D01*
X4552D01*
X4579Y261D01*
X4602Y275D01*
X4622Y294D01*
X4636Y318D01*
X4643Y344D01*
Y372D01*
X4636Y398D01*
X4622Y422D01*
X4602Y441D01*
X4579Y455D01*
X4552Y462D01*
D02*
G37*
G36*
X4275D02*
X4248D01*
X4221Y455D01*
X4198Y441D01*
X4178Y422D01*
X4164Y398D01*
X4157Y372D01*
Y344D01*
X4164Y318D01*
X4178Y294D01*
X4198Y275D01*
X4221Y261D01*
X4248Y254D01*
X4275D01*
X4302Y261D01*
X4325Y275D01*
X4345Y294D01*
X4359Y318D01*
X4366Y344D01*
Y372D01*
X4359Y398D01*
X4345Y422D01*
X4325Y441D01*
X4302Y455D01*
X4275Y462D01*
D02*
G37*
G36*
X3998D02*
X3971D01*
X3944Y455D01*
X3921Y441D01*
X3901Y422D01*
X3887Y398D01*
X3880Y372D01*
Y344D01*
X3887Y318D01*
X3901Y294D01*
X3921Y275D01*
X3944Y261D01*
X3971Y254D01*
X3998D01*
X4025Y261D01*
X4048Y275D01*
X4068Y294D01*
X4082Y318D01*
X4089Y344D01*
Y372D01*
X4082Y398D01*
X4068Y422D01*
X4048Y441D01*
X4025Y455D01*
X3998Y462D01*
D02*
G37*
G36*
X6770Y450D02*
X6730D01*
X6692Y443D01*
X6655Y428D01*
X6622Y406D01*
X6594Y378D01*
X6572Y345D01*
X6557Y308D01*
X6550Y270D01*
Y230D01*
X6557Y192D01*
X6572Y155D01*
X6594Y122D01*
X6622Y94D01*
X6655Y72D01*
X6692Y57D01*
X6730Y50D01*
X6770D01*
X6808Y57D01*
X6845Y72D01*
X6878Y94D01*
X6906Y122D01*
X6928Y155D01*
X6943Y192D01*
X6950Y230D01*
Y270D01*
X6943Y308D01*
X6928Y345D01*
X6906Y378D01*
X6878Y406D01*
X6845Y428D01*
X6808Y443D01*
X6770Y450D01*
D02*
G37*
G36*
X270D02*
X230D01*
X192Y443D01*
X155Y428D01*
X122Y406D01*
X94Y378D01*
X72Y345D01*
X57Y308D01*
X50Y270D01*
Y230D01*
X57Y192D01*
X72Y155D01*
X94Y122D01*
X122Y94D01*
X155Y72D01*
X192Y57D01*
X230Y50D01*
X270D01*
X308Y57D01*
X345Y72D01*
X378Y94D01*
X406Y122D01*
X428Y155D01*
X443Y192D01*
X450Y230D01*
Y270D01*
X443Y308D01*
X428Y345D01*
X406Y378D01*
X378Y406D01*
X345Y428D01*
X308Y443D01*
X270Y450D01*
D02*
G37*
%LPD*%
G36*
X2663Y2233D02*
X2675Y2224D01*
X2690Y2221D01*
X2955D01*
X2959Y2208D01*
X2952Y2205D01*
X2933Y2186D01*
X2920Y2163D01*
X2913Y2137D01*
Y2111D01*
X2920Y2085D01*
X2933Y2062D01*
X2944Y2052D01*
X2939Y2039D01*
X2666D01*
X2639Y2066D01*
Y2150D01*
X2636Y2165D01*
X2627Y2177D01*
X2573Y2232D01*
X2561Y2240D01*
X2546Y2243D01*
X2417D01*
X2414Y2256D01*
X2425Y2262D01*
X2444Y2281D01*
X2455Y2301D01*
X2594D01*
X2663Y2233D01*
D02*
G37*
D13*
X6400Y1350D02*
X6454Y1296D01*
X6600D01*
X6400Y1350D02*
Y2450D01*
X5850Y950D02*
X5900Y1000D01*
X4550Y950D02*
X5850D01*
X5900Y1000D02*
Y1900D01*
X4490Y2260D02*
X4541Y2209D01*
X2690Y2260D02*
X4490D01*
X4541Y1855D02*
Y2209D01*
X2610Y2340D02*
X2690Y2260D01*
X2362Y2343D02*
X2366Y2340D01*
X2610D01*
X4940Y1890D02*
Y2640D01*
X4890Y2690D02*
X4940Y2640D01*
X4580Y2690D02*
X4890D01*
X4540Y2730D02*
Y2871D01*
Y2730D02*
X4580Y2690D01*
X4540Y2871D02*
X4541Y2871D01*
X4940Y1890D02*
X4970Y1860D01*
X5270D01*
X838Y1327D02*
X960Y1450D01*
X2550D01*
X2600Y1500D01*
Y1800D01*
X2670Y1870D01*
X3014D01*
X2719Y819D02*
X2750Y850D01*
Y1080D01*
X2362Y819D02*
X2719D01*
X5058Y2492D02*
X6358D01*
X6400Y2450D01*
X5000Y2550D02*
Y3100D01*
X3600Y3150D02*
X4950D01*
X5000Y3100D01*
X3525Y2871D02*
Y3075D01*
X3600Y3150D01*
X5000Y2550D02*
X5058Y2492D01*
X3779Y1855D02*
Y1951D01*
X2650Y2000D02*
X3730D01*
X3779Y1855D02*
X3784Y1850D01*
X3730Y2000D02*
X3779Y1951D01*
X2546Y2204D02*
X2600Y2150D01*
X838Y2090D02*
X953Y2204D01*
X2546D01*
X2600Y2050D02*
Y2150D01*
Y2050D02*
X2650Y2000D01*
X2800Y1500D02*
X4000D01*
X2750Y1080D02*
Y1450D01*
X2800Y1500D01*
X4034Y1534D02*
Y1846D01*
X4000Y1500D02*
X4034Y1534D01*
Y1846D02*
X4038Y1850D01*
X6046Y1950D02*
X6050Y1954D01*
X5950Y1950D02*
X6046D01*
X5900Y1900D02*
X5950Y1950D01*
D33*
X6850Y900D02*
Y4050D01*
X3900Y4100D02*
X6800D01*
X6850Y4050D01*
X6800Y850D02*
X6850Y900D01*
X5000Y850D02*
X6800D01*
X4954Y804D02*
X5000Y850D01*
X4954Y642D02*
Y804D01*
X3846Y4154D02*
X3900Y4100D01*
X3846Y4154D02*
Y4358D01*
D34*
X650Y4750D02*
X2530D01*
X2620Y4120D02*
Y4660D01*
X2530Y4750D02*
X2620Y4660D01*
X609Y250D02*
X2750D01*
X550Y309D02*
X609Y250D01*
X550Y309D02*
Y4650D01*
X650Y4750D01*
X2750Y250D02*
X2850Y350D01*
Y750D01*
X2950Y850D02*
X4050D01*
X2850Y750D02*
X2950Y850D01*
X4050D02*
X4112Y788D01*
Y653D02*
X4123Y642D01*
X4112Y653D02*
Y788D01*
D35*
X4795Y2871D02*
D03*
Y1855D02*
D03*
D36*
X4287Y2871D02*
D03*
X4033D02*
D03*
X3779D02*
D03*
X3525D02*
D03*
X4541D02*
D03*
Y1855D02*
D03*
X4287D02*
D03*
X4033D02*
D03*
X3779D02*
D03*
X3525D02*
D03*
X6600Y1042D02*
D03*
Y1296D02*
D03*
Y1550D02*
D03*
Y1804D02*
D03*
Y2058D02*
D03*
D37*
X5300Y2124D02*
D03*
Y2378D02*
D03*
Y2632D02*
D03*
Y2886D02*
D03*
X3014Y3394D02*
D03*
Y1362D02*
D03*
Y1616D02*
D03*
Y1870D02*
D03*
Y2124D02*
D03*
Y2378D02*
D03*
Y2632D02*
D03*
Y2886D02*
D03*
Y3140D02*
D03*
D38*
Y3648D02*
D03*
D39*
X5860Y3300D02*
D03*
D40*
X6360D02*
D03*
D41*
X5649Y500D02*
D03*
X3150D02*
D03*
X5649Y4500D02*
D03*
X3150D02*
D03*
D42*
X4954Y642D02*
D03*
X3846Y4358D02*
D03*
D43*
X4815Y358D02*
D03*
X4677Y642D02*
D03*
X4538Y358D02*
D03*
X4400Y642D02*
D03*
X4262Y358D02*
D03*
X4123Y642D02*
D03*
X3985Y358D02*
D03*
X3846Y642D02*
D03*
X4954Y4358D02*
D03*
X4815Y4642D02*
D03*
X4677Y4358D02*
D03*
X4538Y4642D02*
D03*
X4400Y4358D02*
D03*
X4262Y4642D02*
D03*
X4123Y4358D02*
D03*
X3985Y4642D02*
D03*
D44*
X838Y566D02*
D03*
Y819D02*
D03*
Y1073D02*
D03*
Y1327D02*
D03*
Y1581D02*
D03*
Y1835D02*
D03*
Y2090D02*
D03*
Y2343D02*
D03*
Y2598D02*
D03*
Y2851D02*
D03*
Y3106D02*
D03*
Y3360D02*
D03*
Y3613D02*
D03*
Y3867D02*
D03*
X2362Y566D02*
D03*
Y819D02*
D03*
Y1073D02*
D03*
Y1327D02*
D03*
Y1581D02*
D03*
Y1835D02*
D03*
Y2090D02*
D03*
Y2343D02*
D03*
Y2598D02*
D03*
Y2851D02*
D03*
Y3106D02*
D03*
Y3360D02*
D03*
Y3613D02*
D03*
Y3867D02*
D03*
D45*
X838Y4122D02*
D03*
X2362D02*
D03*
D46*
X250Y250D02*
D03*
X6750D02*
D03*
Y4750D02*
D03*
X250D02*
D03*
X150Y-3600D02*
D03*
D47*
X6600Y2312D02*
D03*
D48*
X6050Y1954D02*
D03*
Y1446D02*
D03*
Y1700D02*
D03*
D49*
X2620Y4120D02*
D03*
X5270Y1860D02*
D03*
X2750Y1080D02*
D03*
X4550Y950D02*
D03*
M02*
