M48
;Layer_Color=9474304
;FILE_FORMAT=4:2
METRIC,LZ
;TYPE=PLATED
T1F00S00C0.71
T2F00S00C0.90
T3F00S00C1.00
T4F00S00C1.02
T5F00S00C1.04
T6F00S00C1.05
T7F00S00C2.00
T8F00S00C3.00
T9F00S00C3.10
%
T01
X00275Y00108
X00295Y00395
X00455Y00095
T02
X00605Y001446
Y0017
Y001954
T03
X003014Y001362
Y001616
Y00187
Y002124
Y002378
Y002632
Y002886
Y00314
Y003394
Y003648
X0053Y002886
Y002632
Y002378
Y002124
T04
X000838Y000566
Y000819
Y001073
Y001327
Y001581
Y001835
Y00209
Y002343
Y002598
Y002851
Y003106
Y00336
Y003613
Y003867
X002362
Y003613
Y00336
Y003106
Y002851
Y002598
Y002343
Y00209
Y001835
Y001581
Y001327
Y001073
Y000819
Y000566
Y004122
X000838
T05
X003525Y001855
X003779
Y002871
X003525
X004033
X004287
X004541
X004795
Y001855
X004541
X004287
X004033
X00665Y001842
Y001588
Y001334
Y00108
Y002096
Y00235
T06
X003846Y000642
X004123
X0044
X004677
X004954
X004815Y000358
X004538
X004262
X003985
X004123Y004358
X0044
X004677
X004954
X004815Y004642
X004538
X004262
X003985
X003846Y004358
T07
X00015Y-0036
X00025Y00025
X00675
Y00475
X00025
T08
X00575Y003
X00625
X00626Y0037
X00576
T09
X00315Y0005
X005649
Y0045
X00315
M30
