G04*
G04 #@! TF.GenerationSoftware,Altium Limited,Altium Designer,22.8.2 (66)*
G04*
G04 Layer_Color=8388736*
%FSLAX42Y42*%
%MOMM*%
G71*
G04*
G04 #@! TF.SameCoordinates,A2DC5003-0238-437C-B528-B030F6F49A69*
G04*
G04*
G04 #@! TF.FilePolarity,Negative*
G04*
G01*
G75*
G04:AMPARAMS|DCode=16|XSize=2.17mm|YSize=0.8mm|CornerRadius=0.18mm|HoleSize=0mm|Usage=FLASHONLY|Rotation=0.000|XOffset=0mm|YOffset=0mm|HoleType=Round|Shape=RoundedRectangle|*
%AMROUNDEDRECTD16*
21,1,2.17,0.45,0,0,0.0*
21,1,1.82,0.80,0,0,0.0*
1,1,0.35,0.91,-0.23*
1,1,0.35,-0.91,-0.23*
1,1,0.35,-0.91,0.23*
1,1,0.35,0.91,0.23*
%
%ADD16ROUNDEDRECTD16*%
%ADD17R,1.97X1.33*%
%ADD18C,4.32*%
%ADD19R,1.78X1.78*%
%ADD20C,1.78*%
%ADD21R,1.71X1.71*%
%ADD22C,1.71*%
%ADD23C,1.73*%
%ADD24R,1.73X1.73*%
%ADD25R,1.76X1.76*%
%ADD26C,1.76*%
%ADD27C,4.20*%
%ADD28R,4.20X4.20*%
%ADD29C,3.70*%
%ADD30R,1.76X1.76*%
%ADD31C,1.88*%
%ADD32C,1.47*%
D16*
X3453Y1490D02*
D03*
Y1364D02*
D03*
Y1236D02*
D03*
Y1110D02*
D03*
X3947D02*
D03*
Y1236D02*
D03*
Y1364D02*
D03*
Y1490D02*
D03*
D17*
X4550Y1447D02*
D03*
Y1153D02*
D03*
X5300Y1447D02*
D03*
Y1153D02*
D03*
D18*
X5649Y500D02*
D03*
X3150D02*
D03*
X5649Y4500D02*
D03*
X3150D02*
D03*
D19*
X4954Y642D02*
D03*
X3846Y4358D02*
D03*
D20*
X4815Y358D02*
D03*
X4677Y642D02*
D03*
X4538Y358D02*
D03*
X4400Y642D02*
D03*
X4262Y358D02*
D03*
X4123Y642D02*
D03*
X3985Y358D02*
D03*
X3846Y642D02*
D03*
X4954Y4358D02*
D03*
X4815Y4642D02*
D03*
X4677Y4358D02*
D03*
X4538Y4642D02*
D03*
X4400Y4358D02*
D03*
X4262Y4642D02*
D03*
X4123Y4358D02*
D03*
X3985Y4642D02*
D03*
D21*
X3014Y3648D02*
D03*
D22*
Y3140D02*
D03*
Y2886D02*
D03*
Y2632D02*
D03*
Y2378D02*
D03*
Y2124D02*
D03*
Y1870D02*
D03*
Y1616D02*
D03*
Y1362D02*
D03*
Y3394D02*
D03*
X5300Y2886D02*
D03*
Y2632D02*
D03*
Y2378D02*
D03*
Y2124D02*
D03*
D23*
X838Y566D02*
D03*
Y819D02*
D03*
Y1073D02*
D03*
Y1327D02*
D03*
Y1581D02*
D03*
Y1835D02*
D03*
Y2090D02*
D03*
Y2343D02*
D03*
Y2598D02*
D03*
Y2851D02*
D03*
Y3106D02*
D03*
Y3360D02*
D03*
Y3613D02*
D03*
Y3867D02*
D03*
X2362Y566D02*
D03*
Y819D02*
D03*
Y1073D02*
D03*
Y1327D02*
D03*
Y1581D02*
D03*
Y1835D02*
D03*
Y2090D02*
D03*
Y2343D02*
D03*
Y2598D02*
D03*
Y2851D02*
D03*
Y3106D02*
D03*
Y3360D02*
D03*
Y3613D02*
D03*
Y3867D02*
D03*
D24*
X838Y4122D02*
D03*
X2362D02*
D03*
D25*
X4795Y2871D02*
D03*
Y1855D02*
D03*
D26*
X4287Y2871D02*
D03*
X4033D02*
D03*
X3779D02*
D03*
X3525D02*
D03*
X4541D02*
D03*
Y1855D02*
D03*
X4287D02*
D03*
X4033D02*
D03*
X3779D02*
D03*
X3525D02*
D03*
X6650Y1080D02*
D03*
Y1334D02*
D03*
Y1588D02*
D03*
Y1842D02*
D03*
Y2096D02*
D03*
D27*
X5760Y3700D02*
D03*
X5750Y3000D02*
D03*
D28*
X6260Y3700D02*
D03*
X6250Y3000D02*
D03*
D29*
X250Y250D02*
D03*
X6750D02*
D03*
Y4750D02*
D03*
X250D02*
D03*
X150Y-3600D02*
D03*
D30*
X6650Y2350D02*
D03*
D31*
X6050Y1954D02*
D03*
Y1446D02*
D03*
Y1700D02*
D03*
D32*
X2750Y1080D02*
D03*
X2950Y3950D02*
D03*
X4550Y950D02*
D03*
M02*
