G04*
G04 #@! TF.GenerationSoftware,Altium Limited,Altium Designer,23.4.1 (23)*
G04*
G04 Layer_Color=65535*
%FSLAX42Y42*%
%MOMM*%
G71*
G04*
G04 #@! TF.SameCoordinates,9F17B6EC-CAF7-4D44-AAD4-BEE513544B2B*
G04*
G04*
G04 #@! TF.FilePolarity,Positive*
G04*
G01*
G75*
%ADD10C,0.20*%
%ADD11C,0.20*%
%ADD12C,0.13*%
%ADD13C,0.25*%
D10*
X6475Y4175D02*
G03*
X6475Y4175I-25J0D01*
G01*
Y2475D02*
G03*
X6475Y2475I-25J0D01*
G01*
X2885Y2440D02*
X3715D01*
Y1950D02*
Y2440D01*
X2885Y1950D02*
X3715D01*
X2885D02*
Y2440D01*
D11*
X610Y4150D02*
G03*
X610Y4150I-10J0D01*
G01*
X3768Y4130D02*
G03*
X3768Y4130I-10J0D01*
G01*
X4952Y870D02*
G03*
X4952Y870I-10J0D01*
G01*
X2906Y1631D02*
G03*
X2906Y1631I-10J0D01*
G01*
D12*
X5562Y2942D02*
Y3058D01*
X5738Y2942D02*
Y3058D01*
X6860Y2600D02*
Y4100D01*
X6810Y2600D02*
X6860D01*
X6040D02*
X6810D01*
X6040D02*
Y4100D01*
X6860D01*
X6810Y2600D02*
Y4100D01*
X5512Y1589D02*
Y1705D01*
X5688Y1589D02*
Y1705D01*
X6810Y900D02*
Y2400D01*
X6040D02*
X6860D01*
X6040Y900D02*
Y2400D01*
Y900D02*
X6810D01*
X6860D01*
Y2400D01*
X660Y265D02*
X2514D01*
X2527Y265D02*
X2527Y4570D01*
X673Y265D02*
X673Y4570D01*
X2527D01*
X4842Y1238D02*
X4958D01*
X4842Y1062D02*
X4958D01*
X2809Y4250D02*
X5890D01*
X2809D02*
Y4900D01*
X5890Y4250D02*
Y4900D01*
X2809D02*
X5890D01*
X2809Y750D02*
X5890D01*
Y100D02*
Y750D01*
X2809Y100D02*
Y750D01*
Y100D02*
X5890D01*
X3105Y1148D02*
X3495D01*
X3105Y1652D02*
X3495D01*
X5588Y1997D02*
Y2048D01*
X5537D02*
X5588D01*
X5537D02*
Y2352D01*
X5588D01*
Y2403D01*
X5029D02*
X5588D01*
X5004Y2378D02*
X5029Y2403D01*
X4979D02*
X5004Y2378D01*
X4420Y2403D02*
X4979D01*
X4420Y2352D02*
Y2403D01*
Y2352D02*
X4471D01*
Y2048D02*
Y2352D01*
X4420Y2048D02*
X4471D01*
X4420Y1997D02*
Y2048D01*
Y1997D02*
X4979D01*
X5004Y2022D01*
X5029Y1997D01*
X5588D01*
X4088Y1142D02*
Y1258D01*
X3912Y1142D02*
Y1258D01*
D13*
X5845Y2675D02*
Y2729D01*
Y2702D01*
X5925D01*
X5845Y2755D02*
X5925D01*
X5885D01*
X5871Y2769D01*
Y2795D01*
X5885Y2809D01*
X5925D01*
X5871Y2835D02*
X5925D01*
X5898D01*
X5885Y2849D01*
X5871Y2862D01*
Y2875D01*
X5925Y2929D02*
Y2955D01*
X5911Y2969D01*
X5885D01*
X5871Y2955D01*
Y2929D01*
X5885Y2915D01*
X5911D01*
X5925Y2929D01*
X5858Y3009D02*
X5871D01*
Y2995D01*
Y3022D01*
Y3009D01*
X5911D01*
X5925Y3022D01*
Y3115D02*
Y3062D01*
X5871Y3115D01*
X5858D01*
X5845Y3102D01*
Y3075D01*
X5858Y3062D01*
X5845Y3625D02*
Y3679D01*
Y3652D01*
X5925D01*
X5845Y3705D02*
X5925D01*
X5885D01*
X5871Y3719D01*
Y3745D01*
X5885Y3759D01*
X5925D01*
X5871Y3785D02*
X5925D01*
X5898D01*
X5885Y3799D01*
X5871Y3812D01*
Y3825D01*
X5925Y3879D02*
Y3905D01*
X5911Y3919D01*
X5885D01*
X5871Y3905D01*
Y3879D01*
X5885Y3865D01*
X5911D01*
X5925Y3879D01*
X5858Y3959D02*
X5871D01*
Y3945D01*
Y3972D01*
Y3959D01*
X5911D01*
X5925Y3972D01*
Y4012D02*
Y4039D01*
Y4025D01*
X5845D01*
X5858Y4012D01*
X5476Y2873D02*
X5324D01*
Y2949D01*
X5349Y2975D01*
X5400D01*
X5425Y2949D01*
Y2873D01*
Y2924D02*
X5476Y2975D01*
Y3127D02*
Y3025D01*
X5375Y3127D01*
X5349D01*
X5324Y3102D01*
Y3051D01*
X5349Y3025D01*
X6139Y4440D02*
X6088D01*
X6114D01*
Y4313D01*
X6088Y4288D01*
X6063D01*
X6038Y4313D01*
X6291Y4288D02*
X6190D01*
X6291Y4389D01*
Y4414D01*
X6266Y4440D01*
X6215D01*
X6190Y4414D01*
X5165Y1905D02*
X5139D01*
X5125Y1892D01*
Y1839D01*
X5139Y1825D01*
X5165D01*
X5179Y1839D01*
Y1892D01*
X5165Y1905D01*
X5219Y1825D02*
Y1892D01*
Y1865D01*
X5205D01*
X5232D01*
X5219D01*
Y1892D01*
X5232Y1905D01*
X5285Y1825D02*
Y1892D01*
Y1865D01*
X5272D01*
X5299D01*
X5285D01*
Y1892D01*
X5299Y1905D01*
X5858Y1479D02*
X5845Y1465D01*
Y1439D01*
X5858Y1425D01*
X5871D01*
X5885Y1439D01*
Y1465D01*
X5898Y1479D01*
X5911D01*
X5925Y1465D01*
Y1439D01*
X5911Y1425D01*
X5871Y1505D02*
X5911D01*
X5925Y1519D01*
X5911Y1532D01*
X5925Y1545D01*
X5911Y1559D01*
X5871D01*
X5925Y1585D02*
Y1612D01*
Y1599D01*
X5871D01*
Y1585D01*
X5858Y1665D02*
X5871D01*
Y1652D01*
Y1679D01*
Y1665D01*
X5911D01*
X5925Y1679D01*
X5871Y1772D02*
Y1732D01*
X5885Y1719D01*
X5911D01*
X5925Y1732D01*
Y1772D01*
X5845Y1799D02*
X5925D01*
X5885D01*
X5871Y1812D01*
Y1839D01*
X5885Y1852D01*
X5925D01*
X5198Y1474D02*
Y1626D01*
X5275D01*
X5300Y1601D01*
Y1550D01*
X5275Y1525D01*
X5198D01*
X5249D02*
X5300Y1474D01*
X5351D02*
X5402D01*
X5376D01*
Y1626D01*
X5351Y1601D01*
X3824Y2025D02*
Y1974D01*
Y1999D01*
X3951D01*
X3976Y1974D01*
Y1948D01*
X3951Y1923D01*
X3849Y2075D02*
X3824Y2101D01*
Y2152D01*
X3849Y2177D01*
X3875D01*
X3900Y2152D01*
Y2126D01*
Y2152D01*
X3925Y2177D01*
X3951D01*
X3976Y2152D01*
Y2101D01*
X3951Y2075D01*
X6450Y776D02*
X6399D01*
X6425D01*
Y649D01*
X6399Y624D01*
X6374D01*
X6348Y649D01*
X6501Y624D02*
X6552D01*
X6526D01*
Y776D01*
X6501Y751D01*
X698Y4776D02*
Y4649D01*
X724Y4624D01*
X775D01*
X800Y4649D01*
Y4776D01*
X851Y4624D02*
X902D01*
X876D01*
Y4776D01*
X851Y4751D01*
X5323Y1074D02*
Y1226D01*
X5399D01*
X5425Y1201D01*
Y1150D01*
X5399Y1125D01*
X5323D01*
X5374D02*
X5425Y1074D01*
X5552D02*
Y1226D01*
X5475Y1150D01*
X5577D01*
X6075Y4776D02*
X6024D01*
X6049D01*
Y4649D01*
X6024Y4624D01*
X5998D01*
X5973Y4649D01*
X6202Y4624D02*
Y4776D01*
X6125Y4700D01*
X6227D01*
X6075Y426D02*
X6024D01*
X6049D01*
Y299D01*
X6024Y274D01*
X5998D01*
X5973Y299D01*
X6227Y426D02*
X6125D01*
Y350D01*
X6176Y375D01*
X6202D01*
X6227Y350D01*
Y299D01*
X6202Y274D01*
X6151D01*
X6125Y299D01*
X3173Y1026D02*
Y899D01*
X3198Y874D01*
X3249D01*
X3275Y899D01*
Y1026D01*
X3427Y874D02*
X3325D01*
X3427Y975D01*
Y1001D01*
X3402Y1026D01*
X3351D01*
X3325Y1001D01*
X4250Y2251D02*
X4225Y2276D01*
X4174D01*
X4148Y2251D01*
Y2225D01*
X4174Y2200D01*
X4225D01*
X4250Y2175D01*
Y2149D01*
X4225Y2124D01*
X4174D01*
X4148Y2149D01*
X4301Y2124D02*
X4352D01*
X4326D01*
Y2276D01*
X4301Y2251D01*
X4123Y1524D02*
Y1676D01*
X4199D01*
X4225Y1651D01*
Y1600D01*
X4199Y1575D01*
X4123D01*
X4174D02*
X4225Y1524D01*
X4275Y1651D02*
X4301Y1676D01*
X4352D01*
X4377Y1651D01*
Y1625D01*
X4352Y1600D01*
X4326D01*
X4352D01*
X4377Y1575D01*
Y1549D01*
X4352Y1524D01*
X4301D01*
X4275Y1549D01*
X4815Y1905D02*
X4789D01*
X4775Y1892D01*
Y1839D01*
X4789Y1825D01*
X4815D01*
X4829Y1839D01*
Y1892D01*
X4815Y1905D01*
X4855Y1825D02*
Y1879D01*
X4895D01*
X4909Y1865D01*
Y1825D01*
X5845Y1129D02*
Y1075D01*
X5885D01*
X5871Y1102D01*
Y1115D01*
X5885Y1129D01*
X5911D01*
X5925Y1115D01*
Y1089D01*
X5911Y1075D01*
X5845Y1155D02*
X5898D01*
X5925Y1182D01*
X5898Y1209D01*
X5845D01*
X5858Y2129D02*
X5845Y2115D01*
Y2089D01*
X5858Y2075D01*
X5911D01*
X5925Y2089D01*
Y2115D01*
X5911Y2129D01*
X5885D01*
Y2102D01*
X5925Y2155D02*
X5845D01*
X5925Y2209D01*
X5845D01*
Y2235D02*
X5925D01*
Y2275D01*
X5911Y2289D01*
X5858D01*
X5845Y2275D01*
Y2235D01*
X3025Y3625D02*
Y3692D01*
X3059Y3725D01*
X3092Y3692D01*
Y3625D01*
Y3675D01*
X3025D01*
X3125Y3692D02*
Y3642D01*
X3142Y3625D01*
X3192D01*
Y3692D01*
X3242Y3709D02*
Y3692D01*
X3225D01*
X3259D01*
X3242D01*
Y3642D01*
X3259Y3625D01*
X3325D02*
X3359D01*
X3375Y3642D01*
Y3675D01*
X3359Y3692D01*
X3325D01*
X3309Y3675D01*
Y3642D01*
X3325Y3625D01*
X3409D02*
Y3692D01*
X3459D01*
X3475Y3675D01*
Y3625D01*
X3525D02*
X3559D01*
X3575Y3642D01*
Y3675D01*
X3559Y3692D01*
X3525D01*
X3509Y3675D01*
Y3642D01*
X3525Y3625D01*
X3609D02*
Y3692D01*
X3625D01*
X3642Y3675D01*
Y3625D01*
Y3675D01*
X3659Y3692D01*
X3675Y3675D01*
Y3625D01*
X3725D02*
X3758D01*
X3775Y3642D01*
Y3675D01*
X3758Y3692D01*
X3725D01*
X3709Y3675D01*
Y3642D01*
X3725Y3625D01*
X3808Y3692D02*
Y3642D01*
X3825Y3625D01*
X3875D01*
Y3692D01*
X3908Y3625D02*
X3958D01*
X3975Y3642D01*
X3958Y3659D01*
X3925D01*
X3908Y3675D01*
X3925Y3692D01*
X3975D01*
X4175Y3709D02*
X4158Y3725D01*
X4125D01*
X4108Y3709D01*
Y3642D01*
X4125Y3625D01*
X4158D01*
X4175Y3642D01*
Y3675D01*
X4142D01*
X4225Y3625D02*
X4258D01*
X4275Y3642D01*
Y3675D01*
X4258Y3692D01*
X4225D01*
X4208Y3675D01*
Y3642D01*
X4225Y3625D01*
X4308Y3675D02*
X4375D01*
X4408Y3625D02*
Y3725D01*
Y3659D02*
X4458Y3692D01*
X4408Y3659D02*
X4458Y3625D01*
X4525Y3692D02*
X4558D01*
X4575Y3675D01*
Y3625D01*
X4525D01*
X4508Y3642D01*
X4525Y3659D01*
X4575D01*
X4608Y3692D02*
Y3625D01*
Y3659D01*
X4625Y3675D01*
X4642Y3692D01*
X4658D01*
X4725Y3709D02*
Y3692D01*
X4708D01*
X4742D01*
X4725D01*
Y3642D01*
X4742Y3625D01*
X3025Y3509D02*
X3092D01*
X3059D01*
Y3409D01*
X3125Y3509D02*
Y3409D01*
Y3459D01*
X3142Y3475D01*
X3175D01*
X3192Y3459D01*
Y3409D01*
X3225Y3475D02*
Y3409D01*
Y3442D01*
X3242Y3459D01*
X3259Y3475D01*
X3275D01*
X3342Y3409D02*
X3375D01*
X3392Y3425D01*
Y3459D01*
X3375Y3475D01*
X3342D01*
X3325Y3459D01*
Y3425D01*
X3342Y3409D01*
X3442Y3492D02*
Y3475D01*
X3425D01*
X3459D01*
X3442D01*
Y3425D01*
X3459Y3409D01*
X3525Y3492D02*
Y3475D01*
X3509D01*
X3542D01*
X3525D01*
Y3425D01*
X3542Y3409D01*
X3592D02*
X3625D01*
X3609D01*
Y3509D01*
X3592D01*
X3725Y3409D02*
X3692D01*
X3675Y3425D01*
Y3459D01*
X3692Y3475D01*
X3725D01*
X3742Y3459D01*
Y3442D01*
X3675D01*
X3775Y3459D02*
X3842D01*
X3875Y3509D02*
Y3409D01*
X3925D01*
X3942Y3425D01*
Y3442D01*
Y3459D01*
X3925Y3475D01*
X3875D01*
X3975D02*
Y3425D01*
X3992Y3409D01*
X4042D01*
Y3392D01*
X4025Y3375D01*
X4008D01*
X4042Y3409D02*
Y3475D01*
X4075Y3459D02*
X4142D01*
X4175Y3509D02*
Y3409D01*
X4208Y3442D01*
X4242Y3409D01*
Y3509D01*
X4275Y3409D02*
X4308D01*
X4292D01*
Y3475D01*
X4275D01*
X4358D02*
Y3409D01*
Y3442D01*
X4375Y3459D01*
X4392Y3475D01*
X4408D01*
X4508Y3409D02*
X4475D01*
X4458Y3425D01*
Y3459D01*
X4475Y3475D01*
X4508D01*
X4525Y3459D01*
Y3442D01*
X4458D01*
X4658Y3475D02*
X4692Y3409D01*
X4725Y3475D01*
X4758Y3409D02*
X4791D01*
X4775D01*
Y3509D01*
X4758Y3492D01*
X4841Y3409D02*
Y3425D01*
X4858D01*
Y3409D01*
X4841D01*
X4925Y3492D02*
X4941Y3509D01*
X4975D01*
X4991Y3492D01*
Y3425D01*
X4975Y3409D01*
X4941D01*
X4925Y3425D01*
Y3492D01*
X3325Y3175D02*
Y3242D01*
X3359Y3275D01*
X3392Y3242D01*
Y3175D01*
Y3225D01*
X3325D01*
X3425Y3242D02*
Y3192D01*
X3442Y3175D01*
X3492D01*
Y3242D01*
X3542Y3259D02*
Y3242D01*
X3525D01*
X3559D01*
X3542D01*
Y3192D01*
X3559Y3175D01*
X3625D02*
X3659D01*
X3675Y3192D01*
Y3225D01*
X3659Y3242D01*
X3625D01*
X3609Y3225D01*
Y3192D01*
X3625Y3175D01*
X3709Y3242D02*
Y3192D01*
X3725Y3175D01*
X3742Y3192D01*
X3759Y3175D01*
X3775Y3192D01*
Y3242D01*
X3825D02*
X3859D01*
X3875Y3225D01*
Y3175D01*
X3825D01*
X3809Y3192D01*
X3825Y3209D01*
X3875D01*
X3909Y3242D02*
Y3175D01*
Y3209D01*
X3925Y3225D01*
X3942Y3242D01*
X3959D01*
X4058Y3175D02*
X4025D01*
X4009Y3192D01*
Y3225D01*
X4025Y3242D01*
X4058D01*
X4075Y3225D01*
Y3209D01*
X4009D01*
X4275Y3259D02*
X4258Y3275D01*
X4225D01*
X4208Y3259D01*
Y3192D01*
X4225Y3175D01*
X4258D01*
X4275Y3192D01*
X4325Y3175D02*
X4358D01*
X4375Y3192D01*
Y3225D01*
X4358Y3242D01*
X4325D01*
X4308Y3225D01*
Y3192D01*
X4325Y3175D01*
X4475Y3275D02*
X4408D01*
Y3175D01*
X4475D01*
X4408Y3225D02*
X4442D01*
X2675Y3059D02*
Y2975D01*
X2692Y2959D01*
X2725D01*
X2742Y2975D01*
Y3059D01*
X2775Y2959D02*
Y3025D01*
X2825D01*
X2842Y3009D01*
Y2959D01*
X2875D02*
X2909D01*
X2892D01*
Y3025D01*
X2875D01*
X2959D02*
X2992Y2959D01*
X3025Y3025D01*
X3109Y2959D02*
X3075D01*
X3059Y2975D01*
Y3009D01*
X3075Y3025D01*
X3109D01*
X3125Y3009D01*
Y2992D01*
X3059D01*
X3159Y3025D02*
Y2959D01*
Y2992D01*
X3175Y3009D01*
X3192Y3025D01*
X3209D01*
X3259Y2959D02*
X3309D01*
X3325Y2975D01*
X3309Y2992D01*
X3275D01*
X3259Y3009D01*
X3275Y3025D01*
X3325D01*
X3359Y2959D02*
X3392D01*
X3375D01*
Y3025D01*
X3359D01*
X3458Y3042D02*
Y3025D01*
X3442D01*
X3475D01*
X3458D01*
Y2975D01*
X3475Y2959D01*
X3525Y3025D02*
Y2975D01*
X3542Y2959D01*
X3592D01*
Y2942D01*
X3575Y2925D01*
X3558D01*
X3592Y2959D02*
Y3025D01*
X3742Y2959D02*
X3775D01*
X3792Y2975D01*
Y3009D01*
X3775Y3025D01*
X3742D01*
X3725Y3009D01*
Y2975D01*
X3742Y2959D01*
X3842D02*
Y3042D01*
Y3009D01*
X3825D01*
X3858D01*
X3842D01*
Y3042D01*
X3858Y3059D01*
X4008Y2959D02*
Y3059D01*
X4058D01*
X4075Y3042D01*
Y3009D01*
X4058Y2992D01*
X4008D01*
X4158Y2959D02*
X4125D01*
X4108Y2975D01*
Y3009D01*
X4125Y3025D01*
X4158D01*
X4175Y3009D01*
Y2992D01*
X4108D01*
X4208Y2959D02*
Y3025D01*
X4258D01*
X4275Y3009D01*
Y2959D01*
X4308D02*
Y3025D01*
X4358D01*
X4375Y3009D01*
Y2959D01*
X4408D02*
X4458D01*
X4475Y2975D01*
X4458Y2992D01*
X4425D01*
X4408Y3009D01*
X4425Y3025D01*
X4475D01*
X4508D02*
Y2975D01*
X4525Y2959D01*
X4575D01*
Y2942D01*
X4558Y2925D01*
X4541D01*
X4575Y2959D02*
Y3025D01*
X4608Y2959D02*
X4641D01*
X4625D01*
Y3059D01*
X4608D01*
X4691Y3025D02*
X4725Y2959D01*
X4758Y3025D01*
X4808D02*
X4841D01*
X4858Y3009D01*
Y2959D01*
X4808D01*
X4791Y2975D01*
X4808Y2992D01*
X4858D01*
X4891Y2959D02*
Y3025D01*
X4941D01*
X4958Y3009D01*
Y2959D01*
X4991D02*
X5025D01*
X5008D01*
Y3025D01*
X4991D01*
X5091D02*
X5125D01*
X5141Y3009D01*
Y2959D01*
X5091D01*
X5075Y2975D01*
X5091Y2992D01*
X5141D01*
M02*
