G04*
G04 #@! TF.GenerationSoftware,Altium Limited,Altium Designer,23.4.1 (23)*
G04*
G04 Layer_Physical_Order=1*
G04 Layer_Color=255*
%FSLAX42Y42*%
%MOMM*%
G71*
G04*
G04 #@! TF.SameCoordinates,9F17B6EC-CAF7-4D44-AAD4-BEE513544B2B*
G04*
G04*
G04 #@! TF.FilePolarity,Positive*
G04*
G01*
G75*
%ADD14R,1.77X1.13*%
%ADD15R,1.13X1.77*%
G04:AMPARAMS|DCode=16|XSize=1.97mm|YSize=0.6mm|CornerRadius=0.08mm|HoleSize=0mm|Usage=FLASHONLY|Rotation=0.000|XOffset=0mm|YOffset=0mm|HoleType=Round|Shape=RoundedRectangle|*
%AMROUNDEDRECTD16*
21,1,1.97,0.45,0,0,0.0*
21,1,1.82,0.60,0,0,0.0*
1,1,0.15,0.91,-0.23*
1,1,0.15,-0.91,-0.23*
1,1,0.15,-0.91,0.23*
1,1,0.15,0.91,0.23*
%
%ADD16ROUNDEDRECTD16*%
%ADD32C,0.35*%
%ADD33C,1.00*%
%ADD34R,1.65X1.65*%
%ADD35C,1.65*%
%ADD36R,1.32X1.32*%
%ADD37C,1.32*%
%ADD38R,1.53X1.53*%
%ADD39C,1.53*%
%ADD40C,4.12*%
%ADD41R,1.58X1.58*%
%ADD42C,1.58*%
%ADD43C,1.68*%
%ADD44C,3.50*%
%ADD45C,1.27*%
D14*
X5650Y2853D02*
D03*
Y3147D02*
D03*
X5600Y1500D02*
D03*
Y1794D02*
D03*
X4000Y1347D02*
D03*
Y1053D02*
D03*
D15*
X4753Y1150D02*
D03*
X5047D02*
D03*
D16*
X3547Y1590D02*
D03*
Y1464D02*
D03*
Y1336D02*
D03*
Y1210D02*
D03*
X3053D02*
D03*
Y1336D02*
D03*
Y1464D02*
D03*
Y1590D02*
D03*
D32*
X5600Y2100D02*
X5650Y2150D01*
X5600Y1794D02*
Y2100D01*
X5650Y2150D02*
X6450D01*
X1370Y1970D02*
X3020D01*
X3100Y2050D02*
Y2250D01*
X3020Y1970D02*
X3100Y2050D01*
X2232Y2732D02*
X5629D01*
X5650Y2753D02*
Y2853D01*
X5629Y2732D02*
X5650Y2753D01*
X2351Y2100D02*
X2362Y2090D01*
X2200Y2100D02*
X2351D01*
X2150Y2150D02*
Y2650D01*
Y2150D02*
X2200Y2100D01*
X2150Y2650D02*
X2232Y2732D01*
X5653Y2850D02*
X6450D01*
X5650Y2853D02*
X5653Y2850D01*
X6400Y1500D02*
X6440Y1540D01*
Y1640D01*
X6450Y1650D01*
X6400Y1500D02*
X6650D01*
X5600D02*
X6400D01*
X6700Y1550D02*
Y2550D01*
X6650Y1500D02*
X6700Y1550D01*
X4746Y1157D02*
Y2200D01*
X2362Y2598D02*
X6653D01*
X6700Y2550D01*
X3547Y1590D02*
X3960D01*
X4000Y1347D02*
Y1550D01*
X3960Y1590D02*
X4000Y1550D01*
X4053Y1050D02*
X4450D01*
X4050Y1053D02*
X4053Y1050D01*
X838Y3106D02*
X844Y3100D01*
X1000D02*
X1050Y3050D01*
Y1750D02*
Y3050D01*
X844Y3100D02*
X1000D01*
X550Y4750D02*
X650Y4850D01*
X550Y250D02*
Y4750D01*
X650Y4850D02*
X3750D01*
X550Y250D02*
X650Y150D01*
X4850D01*
X4746Y1157D02*
X4753Y1150D01*
X5250Y500D02*
Y1100D01*
X5200Y1150D02*
X5250Y1100D01*
X5047Y1150D02*
X5200D01*
X650Y885D02*
X838Y1073D01*
X650Y400D02*
Y885D01*
X2786Y1464D02*
X3053D01*
X2700Y1550D02*
X2786Y1464D01*
X4904Y204D02*
Y592D01*
X4850Y150D02*
X4904Y204D01*
X2411Y1701D02*
X2412Y1700D01*
X3000D01*
X1099Y1701D02*
X2411D01*
X1050Y1750D02*
X1099Y1701D01*
X3048Y1596D02*
Y1652D01*
X3000Y1700D02*
X3048Y1652D01*
Y1596D02*
X3053Y1590D01*
X650Y400D02*
X700Y350D01*
X2700D01*
X2750Y400D01*
Y1150D01*
X2650Y900D02*
Y1300D01*
X2569Y819D02*
X2650Y900D01*
Y1300D02*
X2686Y1336D01*
X2750Y1150D02*
X2809Y1210D01*
X3053D01*
X2362Y819D02*
X2569D01*
X2686Y1336D02*
X3053D01*
X4627Y592D02*
X4647Y612D01*
X4600Y750D02*
X4647Y703D01*
Y612D02*
Y703D01*
X3800Y750D02*
X4600D01*
X3740Y810D02*
X3800Y750D01*
X3740Y810D02*
Y1310D01*
X3800Y900D02*
Y1400D01*
X3850Y850D02*
X4850D01*
X3800Y900D02*
X3850Y850D01*
X3737Y1464D02*
X3800Y1400D01*
X3713Y1336D02*
X3740Y1310D01*
X3547Y1336D02*
X3713D01*
X3547Y1464D02*
X3737D01*
X4850Y850D02*
X4904Y796D01*
Y592D02*
Y796D01*
X3796Y4408D02*
Y4804D01*
X3750Y4850D02*
X3796Y4804D01*
D33*
X5650Y4100D02*
X6700D01*
X4600D02*
X5650D01*
X5650Y3147D02*
Y4100D01*
X5650Y4100D01*
X6450Y1150D02*
X6700D01*
X6800Y1250D01*
X4250Y4100D02*
X4600D01*
X2383D02*
X4250D01*
X4627Y4127D02*
Y4408D01*
X4600Y4100D02*
X4627Y4127D01*
X6800Y1250D02*
Y4000D01*
X6700Y4100D02*
X6800Y4000D01*
X2362Y4122D02*
X2383Y4100D01*
D34*
X6450Y3850D02*
D03*
Y2150D02*
D03*
D35*
Y3350D02*
D03*
Y2850D02*
D03*
Y1150D02*
D03*
Y1650D02*
D03*
D36*
X3100Y2250D02*
D03*
D37*
X3300D02*
D03*
X3500D02*
D03*
D38*
X2362Y4122D02*
D03*
X838D02*
D03*
D39*
X2362Y3867D02*
D03*
Y3613D02*
D03*
Y3360D02*
D03*
Y3106D02*
D03*
Y2851D02*
D03*
Y2598D02*
D03*
Y2343D02*
D03*
Y2090D02*
D03*
Y1835D02*
D03*
Y1581D02*
D03*
Y1327D02*
D03*
Y1073D02*
D03*
Y819D02*
D03*
Y566D02*
D03*
X838Y3867D02*
D03*
Y3613D02*
D03*
Y3360D02*
D03*
Y3106D02*
D03*
Y2851D02*
D03*
Y2598D02*
D03*
Y2343D02*
D03*
Y2090D02*
D03*
Y1835D02*
D03*
Y1581D02*
D03*
Y1327D02*
D03*
Y1073D02*
D03*
Y819D02*
D03*
Y566D02*
D03*
D40*
X3100Y4550D02*
D03*
X5599D02*
D03*
Y450D02*
D03*
X3100D02*
D03*
D41*
X3796Y4408D02*
D03*
X4904Y592D02*
D03*
D42*
X4073Y4408D02*
D03*
X4350D02*
D03*
X4488Y4692D02*
D03*
X4627Y4408D02*
D03*
X4765Y4692D02*
D03*
X4904Y4408D02*
D03*
X4212Y4692D02*
D03*
X3935D02*
D03*
X4627Y592D02*
D03*
X4350D02*
D03*
X4212Y308D02*
D03*
X4073Y592D02*
D03*
X3935Y308D02*
D03*
X3796Y592D02*
D03*
X4488Y308D02*
D03*
X4765D02*
D03*
D43*
X4750Y2200D02*
D03*
X5258D02*
D03*
X5004D02*
D03*
D44*
X250Y4750D02*
D03*
X6750Y250D02*
D03*
Y4750D02*
D03*
X250Y250D02*
D03*
D45*
X1370Y1970D02*
D03*
X4450Y1050D02*
D03*
X4250Y4100D02*
D03*
X5250Y500D02*
D03*
X2700Y1550D02*
D03*
M02*
