G04*
G04 #@! TF.GenerationSoftware,Altium Limited,Altium Designer,23.4.1 (23)*
G04*
G04 Layer_Color=8388736*
%FSLAX42Y42*%
%MOMM*%
G71*
G04*
G04 #@! TF.SameCoordinates,9F17B6EC-CAF7-4D44-AAD4-BEE513544B2B*
G04*
G04*
G04 #@! TF.FilePolarity,Negative*
G04*
G01*
G75*
%ADD17R,1.97X1.33*%
%ADD18R,1.33X1.97*%
G04:AMPARAMS|DCode=19|XSize=2.17mm|YSize=0.8mm|CornerRadius=0.18mm|HoleSize=0mm|Usage=FLASHONLY|Rotation=0.000|XOffset=0mm|YOffset=0mm|HoleType=Round|Shape=RoundedRectangle|*
%AMROUNDEDRECTD19*
21,1,2.17,0.45,0,0,0.0*
21,1,1.82,0.80,0,0,0.0*
1,1,0.35,0.91,-0.23*
1,1,0.35,-0.91,-0.23*
1,1,0.35,-0.91,0.23*
1,1,0.35,0.91,0.23*
%
%ADD19ROUNDEDRECTD19*%
%ADD20R,1.85X1.85*%
%ADD21C,1.85*%
%ADD22R,1.52X1.52*%
%ADD23C,1.52*%
%ADD24R,1.73X1.73*%
%ADD25C,1.73*%
%ADD26C,4.32*%
%ADD27R,1.78X1.78*%
%ADD28C,1.78*%
%ADD29C,1.88*%
%ADD30C,3.70*%
%ADD31C,1.47*%
D17*
X5650Y2853D02*
D03*
Y3147D02*
D03*
X5600Y1500D02*
D03*
Y1794D02*
D03*
X4000Y1347D02*
D03*
Y1053D02*
D03*
D18*
X4753Y1150D02*
D03*
X5047D02*
D03*
D19*
X3547Y1590D02*
D03*
Y1464D02*
D03*
Y1336D02*
D03*
Y1210D02*
D03*
X3053D02*
D03*
Y1336D02*
D03*
Y1464D02*
D03*
Y1590D02*
D03*
D20*
X6450Y3850D02*
D03*
Y2150D02*
D03*
D21*
Y3350D02*
D03*
Y2850D02*
D03*
Y1150D02*
D03*
Y1650D02*
D03*
D22*
X3100Y2250D02*
D03*
D23*
X3300D02*
D03*
X3500D02*
D03*
D24*
X2362Y4122D02*
D03*
X838D02*
D03*
D25*
X2362Y3867D02*
D03*
Y3613D02*
D03*
Y3360D02*
D03*
Y3106D02*
D03*
Y2851D02*
D03*
Y2598D02*
D03*
Y2343D02*
D03*
Y2090D02*
D03*
Y1835D02*
D03*
Y1581D02*
D03*
Y1327D02*
D03*
Y1073D02*
D03*
Y819D02*
D03*
Y566D02*
D03*
X838Y3867D02*
D03*
Y3613D02*
D03*
Y3360D02*
D03*
Y3106D02*
D03*
Y2851D02*
D03*
Y2598D02*
D03*
Y2343D02*
D03*
Y2090D02*
D03*
Y1835D02*
D03*
Y1581D02*
D03*
Y1327D02*
D03*
Y1073D02*
D03*
Y819D02*
D03*
Y566D02*
D03*
D26*
X3100Y4550D02*
D03*
X5599D02*
D03*
Y450D02*
D03*
X3100D02*
D03*
D27*
X3796Y4408D02*
D03*
X4904Y592D02*
D03*
D28*
X4073Y4408D02*
D03*
X4350D02*
D03*
X4488Y4692D02*
D03*
X4627Y4408D02*
D03*
X4765Y4692D02*
D03*
X4904Y4408D02*
D03*
X4212Y4692D02*
D03*
X3935D02*
D03*
X4627Y592D02*
D03*
X4350D02*
D03*
X4212Y308D02*
D03*
X4073Y592D02*
D03*
X3935Y308D02*
D03*
X3796Y592D02*
D03*
X4488Y308D02*
D03*
X4765D02*
D03*
D29*
X4750Y2200D02*
D03*
X5258D02*
D03*
X5004D02*
D03*
D30*
X250Y4750D02*
D03*
X6750Y250D02*
D03*
Y4750D02*
D03*
X250Y250D02*
D03*
D31*
X1370Y1970D02*
D03*
X4450Y1050D02*
D03*
X4250Y4100D02*
D03*
X5250Y500D02*
D03*
X2700Y1550D02*
D03*
M02*
