G04*
G04 #@! TF.GenerationSoftware,Altium Limited,Altium Designer,21.9.2 (33)*
G04*
G04 Layer_Physical_Order=2*
G04 Layer_Color=16711680*
%FSLAX25Y25*%
%MOIN*%
G70*
G04*
G04 #@! TF.SameCoordinates,B47FFC8E-61E7-446A-90B7-BF6068300CD5*
G04*
G04*
G04 #@! TF.FilePolarity,Positive*
G04*
G01*
G75*
%ADD11C,0.01000*%
%ADD46C,0.03937*%
%ADD47O,0.10236X0.05118*%
%ADD48C,0.24567*%
%ADD49R,0.24567X0.24567*%
%ADD50C,0.23622*%
%ADD51R,0.23622X0.23622*%
%ADD52C,0.04953*%
%ADD53C,0.05400*%
%ADD54R,0.05400X0.05400*%
%ADD55R,0.04756X0.04756*%
%ADD56C,0.04756*%
%ADD57O,0.09646X0.11811*%
%ADD58O,0.11811X0.09646*%
%ADD59C,0.04685*%
%ADD60R,0.08858X0.08858*%
%ADD61C,0.08858*%
%ADD62C,0.07874*%
%ADD63R,0.07874X0.07874*%
%ADD64C,0.04724*%
%ADD65R,0.04724X0.04724*%
%ADD66C,0.04528*%
%ADD67R,0.04134X0.04134*%
%ADD68C,0.04134*%
%ADD69C,0.04331*%
%ADD70R,0.04331X0.04331*%
%ADD71R,0.04756X0.04756*%
%ADD72R,0.23622X0.23622*%
%ADD73C,0.30000*%
G36*
X708661Y0D02*
X0D01*
Y551181D01*
X708661D01*
Y0D01*
D02*
G37*
%LPC*%
G36*
X166929Y538036D02*
X165788Y537924D01*
X164690Y537591D01*
X163679Y537050D01*
X162792Y536322D01*
X162064Y535436D01*
X161523Y534424D01*
X161191Y533326D01*
X161078Y532185D01*
Y530020D01*
X161191Y528878D01*
X161523Y527781D01*
X162064Y526769D01*
X162792Y525882D01*
X163679Y525155D01*
X164690Y524614D01*
X165788Y524281D01*
X166929Y524169D01*
X168071Y524281D01*
X169168Y524614D01*
X170180Y525155D01*
X171066Y525882D01*
X171794Y526769D01*
X172335Y527781D01*
X172668Y528878D01*
X172780Y530020D01*
Y532185D01*
X172668Y533326D01*
X172335Y534424D01*
X171794Y535436D01*
X171066Y536322D01*
X170180Y537050D01*
X169168Y537591D01*
X168071Y537924D01*
X166929Y538036D01*
D02*
G37*
G36*
X153543D02*
X152402Y537924D01*
X151304Y537591D01*
X150293Y537050D01*
X149406Y536322D01*
X148678Y535436D01*
X148138Y534424D01*
X147805Y533326D01*
X147692Y532185D01*
Y530020D01*
X147805Y528878D01*
X148138Y527781D01*
X148678Y526769D01*
X149406Y525882D01*
X150293Y525155D01*
X151304Y524614D01*
X152402Y524281D01*
X153543Y524169D01*
X154685Y524281D01*
X155782Y524614D01*
X156794Y525155D01*
X157681Y525882D01*
X158408Y526769D01*
X158949Y527781D01*
X159282Y528878D01*
X159394Y530020D01*
Y532185D01*
X159282Y533326D01*
X158949Y534424D01*
X158408Y535436D01*
X157681Y536322D01*
X156794Y537050D01*
X155782Y537591D01*
X154685Y537924D01*
X153543Y538036D01*
D02*
G37*
G36*
X216567Y533284D02*
X204256D01*
Y520972D01*
X216567D01*
Y533284D01*
D02*
G37*
G36*
X203256D02*
X190945D01*
Y520972D01*
X203256D01*
Y533284D01*
D02*
G37*
G36*
X690236Y547496D02*
X687717D01*
X685230Y547102D01*
X682834Y546324D01*
X680590Y545181D01*
X678553Y543700D01*
X676772Y541919D01*
X675292Y539882D01*
X674149Y537638D01*
X673370Y535243D01*
X672976Y532755D01*
Y530237D01*
X673370Y527749D01*
X674149Y525354D01*
X675292Y523110D01*
X676772Y521073D01*
X678553Y519292D01*
X680590Y517812D01*
X682834Y516668D01*
X685230Y515890D01*
X687717Y515496D01*
X690236D01*
X692723Y515890D01*
X695118Y516668D01*
X697362Y517812D01*
X699400Y519292D01*
X701181Y521073D01*
X702661Y523110D01*
X703804Y525354D01*
X704582Y527749D01*
X704976Y530237D01*
Y532755D01*
X704582Y535243D01*
X703804Y537638D01*
X702661Y539882D01*
X701181Y541919D01*
X699400Y543700D01*
X697362Y545181D01*
X695118Y546324D01*
X692723Y547102D01*
X690236Y547496D01*
D02*
G37*
G36*
X20944D02*
X18426D01*
X15938Y547102D01*
X13543Y546324D01*
X11299Y545181D01*
X9262Y543700D01*
X7481Y541919D01*
X6001Y539882D01*
X4857Y537638D01*
X4079Y535243D01*
X3685Y532755D01*
Y530237D01*
X4079Y527749D01*
X4857Y525354D01*
X6001Y523110D01*
X7481Y521073D01*
X9262Y519292D01*
X11299Y517812D01*
X13543Y516668D01*
X15938Y515890D01*
X18426Y515496D01*
X20944D01*
X23432Y515890D01*
X25827Y516668D01*
X28071Y517812D01*
X30108Y519292D01*
X31889Y521073D01*
X33369Y523110D01*
X34513Y525354D01*
X35291Y527749D01*
X35685Y530237D01*
Y532755D01*
X35291Y535243D01*
X34513Y537638D01*
X33369Y539882D01*
X31889Y541919D01*
X30108Y543700D01*
X28071Y545181D01*
X25827Y546324D01*
X23432Y547102D01*
X20944Y547496D01*
D02*
G37*
G36*
X249615Y533677D02*
X247598D01*
X245606Y533362D01*
X243689Y532739D01*
X241892Y531823D01*
X240261Y530638D01*
X238835Y529212D01*
X237649Y527581D01*
X236734Y525784D01*
X236111Y523866D01*
X235795Y521874D01*
Y519858D01*
X236111Y517866D01*
X236734Y515948D01*
X237649Y514152D01*
X238835Y512520D01*
X240261Y511094D01*
X241892Y509909D01*
X243689Y508994D01*
X245606Y508371D01*
X247598Y508055D01*
X249615D01*
X251606Y508371D01*
X253524Y508994D01*
X255321Y509909D01*
X256952Y511094D01*
X258378Y512520D01*
X259563Y514152D01*
X260479Y515948D01*
X261102Y517866D01*
X261417Y519858D01*
Y521874D01*
X261102Y523866D01*
X260479Y525784D01*
X259563Y527581D01*
X258378Y529212D01*
X256952Y530638D01*
X255321Y531823D01*
X253524Y532739D01*
X251606Y533362D01*
X249615Y533677D01*
D02*
G37*
G36*
X216567Y519972D02*
X204256D01*
Y507661D01*
X216567D01*
Y519972D01*
D02*
G37*
G36*
X203256D02*
X190945D01*
Y507661D01*
X203256D01*
Y519972D01*
D02*
G37*
G36*
X538228Y517268D02*
X536063D01*
X534922Y517156D01*
X533824Y516823D01*
X532812Y516282D01*
X531926Y515555D01*
X531198Y514668D01*
X530657Y513656D01*
X530324Y512559D01*
X530212Y511417D01*
X530324Y510276D01*
X530657Y509178D01*
X531198Y508167D01*
X531926Y507280D01*
X532812Y506552D01*
X533824Y506012D01*
X534922Y505679D01*
X536063Y505566D01*
X538228D01*
X539370Y505679D01*
X540467Y506012D01*
X541479Y506552D01*
X542366Y507280D01*
X543093Y508167D01*
X543634Y509178D01*
X543967Y510276D01*
X544079Y511417D01*
X543967Y512559D01*
X543634Y513656D01*
X543093Y514668D01*
X542366Y515555D01*
X541479Y516282D01*
X540467Y516823D01*
X539370Y517156D01*
X538228Y517268D01*
D02*
G37*
G36*
X485197D02*
X483032D01*
X481890Y517156D01*
X480792Y516823D01*
X479781Y516282D01*
X478894Y515555D01*
X478167Y514668D01*
X477626Y513656D01*
X477293Y512559D01*
X477180Y511417D01*
X477293Y510276D01*
X477626Y509178D01*
X478167Y508167D01*
X478894Y507280D01*
X479781Y506552D01*
X480792Y506012D01*
X481890Y505679D01*
X483032Y505566D01*
X485197D01*
X486338Y505679D01*
X487436Y506012D01*
X488448Y506552D01*
X489334Y507280D01*
X490062Y508167D01*
X490602Y509178D01*
X490935Y510276D01*
X491048Y511417D01*
X490935Y512559D01*
X490602Y513656D01*
X490062Y514668D01*
X489334Y515555D01*
X488448Y516282D01*
X487436Y516823D01*
X486338Y517156D01*
X485197Y517268D01*
D02*
G37*
G36*
X355157D02*
X352992D01*
X351851Y517156D01*
X350753Y516823D01*
X349742Y516282D01*
X348855Y515555D01*
X348127Y514668D01*
X347586Y513656D01*
X347254Y512559D01*
X347141Y511417D01*
X347254Y510276D01*
X347586Y509178D01*
X348127Y508167D01*
X348855Y507280D01*
X349742Y506552D01*
X350753Y506012D01*
X351851Y505679D01*
X352992Y505566D01*
X355157D01*
X356299Y505679D01*
X357397Y506012D01*
X358408Y506552D01*
X359295Y507280D01*
X360022Y508167D01*
X360563Y509178D01*
X360896Y510276D01*
X361009Y511417D01*
X360896Y512559D01*
X360563Y513656D01*
X360022Y514668D01*
X359295Y515555D01*
X358408Y516282D01*
X357397Y516823D01*
X356299Y517156D01*
X355157Y517268D01*
D02*
G37*
G36*
X302126D02*
X299961D01*
X298819Y517156D01*
X297722Y516823D01*
X296710Y516282D01*
X295823Y515555D01*
X295096Y514668D01*
X294555Y513656D01*
X294222Y512559D01*
X294110Y511417D01*
X294222Y510276D01*
X294555Y509178D01*
X295096Y508167D01*
X295823Y507280D01*
X296710Y506552D01*
X297722Y506012D01*
X298819Y505679D01*
X299961Y505566D01*
X302126D01*
X303268Y505679D01*
X304365Y506012D01*
X305377Y506552D01*
X306263Y507280D01*
X306991Y508167D01*
X307532Y509178D01*
X307865Y510276D01*
X307977Y511417D01*
X307865Y512559D01*
X307532Y513656D01*
X306991Y514668D01*
X306263Y515555D01*
X305377Y516282D01*
X304365Y516823D01*
X303268Y517156D01*
X302126Y517268D01*
D02*
G37*
G36*
X625410Y522441D02*
X599787D01*
Y496819D01*
X625410D01*
Y522441D01*
D02*
G37*
G36*
X585260D02*
X583244D01*
X581252Y522125D01*
X579334Y521502D01*
X577537Y520587D01*
X575906Y519402D01*
X574480Y517976D01*
X573295Y516344D01*
X572379Y514548D01*
X571756Y512630D01*
X571441Y510638D01*
Y508622D01*
X571756Y506630D01*
X572379Y504712D01*
X573295Y502915D01*
X574480Y501284D01*
X575906Y499858D01*
X577537Y498673D01*
X579334Y497757D01*
X581252Y497134D01*
X583244Y496819D01*
X585260D01*
X587252Y497134D01*
X589170Y497757D01*
X590966Y498673D01*
X592598Y499858D01*
X594024Y501284D01*
X595209Y502915D01*
X596124Y504712D01*
X596747Y506630D01*
X597063Y508622D01*
Y510638D01*
X596747Y512630D01*
X596124Y514548D01*
X595209Y516344D01*
X594024Y517976D01*
X592598Y519402D01*
X590966Y520587D01*
X589170Y521502D01*
X587252Y522125D01*
X585260Y522441D01*
D02*
G37*
G36*
X443913D02*
X418291D01*
Y496819D01*
X443913D01*
Y522441D01*
D02*
G37*
G36*
X403764D02*
X401748D01*
X399756Y522125D01*
X397838Y521502D01*
X396041Y520587D01*
X394410Y519402D01*
X392984Y517976D01*
X391799Y516344D01*
X390883Y514548D01*
X390260Y512630D01*
X389945Y510638D01*
Y508622D01*
X390260Y506630D01*
X390883Y504712D01*
X391799Y502915D01*
X392984Y501284D01*
X394410Y499858D01*
X396041Y498673D01*
X397838Y497757D01*
X399756Y497134D01*
X401748Y496819D01*
X403764D01*
X405756Y497134D01*
X407674Y497757D01*
X409470Y498673D01*
X411102Y499858D01*
X412528Y501284D01*
X413713Y502915D01*
X414628Y504712D01*
X415251Y506630D01*
X415567Y508622D01*
Y510638D01*
X415251Y512630D01*
X414628Y514548D01*
X413713Y516344D01*
X412528Y517976D01*
X411102Y519402D01*
X409470Y520587D01*
X407674Y521502D01*
X405756Y522125D01*
X403764Y522441D01*
D02*
G37*
G36*
X67520Y499893D02*
X62402D01*
X61472Y499771D01*
X60607Y499412D01*
X59863Y498841D01*
X59293Y498098D01*
X58934Y497232D01*
X58812Y496303D01*
X58934Y495374D01*
X59293Y494508D01*
X59863Y493765D01*
X60607Y493194D01*
X61472Y492836D01*
X62402Y492713D01*
X67520D01*
X68449Y492836D01*
X69315Y493194D01*
X70058Y493765D01*
X70628Y494508D01*
X70987Y495374D01*
X71109Y496303D01*
X70987Y497232D01*
X70628Y498098D01*
X70058Y498841D01*
X69315Y499412D01*
X68449Y499771D01*
X67520Y499893D01*
D02*
G37*
G36*
X538228Y503883D02*
X536063D01*
X534922Y503770D01*
X533824Y503437D01*
X532812Y502896D01*
X531926Y502169D01*
X531198Y501282D01*
X530657Y500271D01*
X530324Y499173D01*
X530212Y498032D01*
X530324Y496890D01*
X530657Y495792D01*
X531198Y494781D01*
X531926Y493894D01*
X532812Y493167D01*
X533824Y492626D01*
X534922Y492293D01*
X536063Y492180D01*
X538228D01*
X539370Y492293D01*
X540467Y492626D01*
X541479Y493167D01*
X542366Y493894D01*
X543093Y494781D01*
X543634Y495792D01*
X543967Y496890D01*
X544079Y498032D01*
X543967Y499173D01*
X543634Y500271D01*
X543093Y501282D01*
X542366Y502169D01*
X541479Y502896D01*
X540467Y503437D01*
X539370Y503770D01*
X538228Y503883D01*
D02*
G37*
G36*
X485197D02*
X483032D01*
X481890Y503770D01*
X480792Y503437D01*
X479781Y502896D01*
X478894Y502169D01*
X478167Y501282D01*
X477626Y500271D01*
X477293Y499173D01*
X477180Y498032D01*
X477293Y496890D01*
X477626Y495792D01*
X478167Y494781D01*
X478894Y493894D01*
X479781Y493167D01*
X480792Y492626D01*
X481890Y492293D01*
X483032Y492180D01*
X485197D01*
X486338Y492293D01*
X487436Y492626D01*
X488448Y493167D01*
X489334Y493894D01*
X490062Y494781D01*
X490602Y495792D01*
X490935Y496890D01*
X491048Y498032D01*
X490935Y499173D01*
X490602Y500271D01*
X490062Y501282D01*
X489334Y502169D01*
X488448Y502896D01*
X487436Y503437D01*
X486338Y503770D01*
X485197Y503883D01*
D02*
G37*
G36*
X355157D02*
X352992D01*
X351851Y503770D01*
X350753Y503437D01*
X349742Y502896D01*
X348855Y502169D01*
X348127Y501282D01*
X347586Y500271D01*
X347254Y499173D01*
X347141Y498032D01*
X347254Y496890D01*
X347586Y495792D01*
X348127Y494781D01*
X348855Y493894D01*
X349742Y493167D01*
X350753Y492626D01*
X351851Y492293D01*
X352992Y492180D01*
X355157D01*
X356299Y492293D01*
X357397Y492626D01*
X358408Y493167D01*
X359295Y493894D01*
X360022Y494781D01*
X360563Y495792D01*
X360896Y496890D01*
X361009Y498032D01*
X360896Y499173D01*
X360563Y500271D01*
X360022Y501282D01*
X359295Y502169D01*
X358408Y502896D01*
X357397Y503437D01*
X356299Y503770D01*
X355157Y503883D01*
D02*
G37*
G36*
X302126D02*
X299961D01*
X298819Y503770D01*
X297722Y503437D01*
X296710Y502896D01*
X295823Y502169D01*
X295096Y501282D01*
X294555Y500271D01*
X294222Y499173D01*
X294110Y498032D01*
X294222Y496890D01*
X294555Y495792D01*
X295096Y494781D01*
X295823Y493894D01*
X296710Y493167D01*
X297722Y492626D01*
X298819Y492293D01*
X299961Y492180D01*
X302126D01*
X303268Y492293D01*
X304365Y492626D01*
X305377Y493167D01*
X306263Y493894D01*
X306991Y494781D01*
X307532Y495792D01*
X307865Y496890D01*
X307977Y498032D01*
X307865Y499173D01*
X307532Y500271D01*
X306991Y501282D01*
X306263Y502169D01*
X305377Y502896D01*
X304365Y503437D01*
X303268Y503770D01*
X302126Y503883D01*
D02*
G37*
G36*
X662150Y494366D02*
X661234D01*
X660350Y494129D01*
X659558Y493672D01*
X658910Y493024D01*
X658453Y492232D01*
X658216Y491347D01*
Y490432D01*
X658453Y489548D01*
X658910Y488755D01*
X659558Y488108D01*
X660350Y487650D01*
X661234Y487413D01*
X662150D01*
X663034Y487650D01*
X663827Y488108D01*
X664474Y488755D01*
X664932Y489548D01*
X665169Y490432D01*
Y491347D01*
X664932Y492232D01*
X664474Y493024D01*
X663827Y493672D01*
X663034Y494129D01*
X662150Y494366D01*
D02*
G37*
G36*
X261417Y505331D02*
X235795D01*
Y479709D01*
X261417D01*
Y505331D01*
D02*
G37*
G36*
X204764Y504937D02*
X202748D01*
X200756Y504622D01*
X198838Y503998D01*
X197041Y503083D01*
X195410Y501898D01*
X193984Y500472D01*
X192799Y498840D01*
X191884Y497044D01*
X191260Y495126D01*
X190945Y493134D01*
Y491118D01*
X191260Y489126D01*
X191884Y487208D01*
X192799Y485412D01*
X193984Y483780D01*
X195410Y482354D01*
X197041Y481169D01*
X198838Y480254D01*
X200756Y479630D01*
X202748Y479315D01*
X204764D01*
X206756Y479630D01*
X208674Y480254D01*
X210470Y481169D01*
X212102Y482354D01*
X213528Y483780D01*
X214713Y485412D01*
X215628Y487208D01*
X216251Y489126D01*
X216567Y491118D01*
Y493134D01*
X216251Y495126D01*
X215628Y497044D01*
X214713Y498840D01*
X213528Y500472D01*
X212102Y501898D01*
X210470Y503083D01*
X208674Y503998D01*
X206756Y504622D01*
X204764Y504937D01*
D02*
G37*
G36*
X166929Y485005D02*
X165788Y484892D01*
X164690Y484559D01*
X163679Y484019D01*
X162792Y483291D01*
X162064Y482404D01*
X161523Y481393D01*
X161191Y480295D01*
X161078Y479153D01*
Y476988D01*
X161191Y475847D01*
X161523Y474749D01*
X162064Y473737D01*
X162792Y472851D01*
X163679Y472123D01*
X164690Y471583D01*
X165788Y471250D01*
X166929Y471137D01*
X168071Y471250D01*
X169168Y471583D01*
X170180Y472123D01*
X171066Y472851D01*
X171794Y473737D01*
X172335Y474749D01*
X172668Y475847D01*
X172780Y476988D01*
Y479153D01*
X172668Y480295D01*
X172335Y481393D01*
X171794Y482404D01*
X171066Y483291D01*
X170180Y484019D01*
X169168Y484559D01*
X168071Y484892D01*
X166929Y485005D01*
D02*
G37*
G36*
X153543D02*
X152402Y484892D01*
X151304Y484559D01*
X150293Y484019D01*
X149406Y483291D01*
X148678Y482404D01*
X148138Y481393D01*
X147805Y480295D01*
X147692Y479153D01*
Y476988D01*
X147805Y475847D01*
X148138Y474749D01*
X148678Y473737D01*
X149406Y472851D01*
X150293Y472123D01*
X151304Y471583D01*
X152402Y471250D01*
X153543Y471137D01*
X154685Y471250D01*
X155782Y471583D01*
X156794Y472123D01*
X157681Y472851D01*
X158408Y473737D01*
X158949Y474749D01*
X159282Y475847D01*
X159394Y476988D01*
Y479153D01*
X159282Y480295D01*
X158949Y481393D01*
X158408Y482404D01*
X157681Y483291D01*
X156794Y484019D01*
X155782Y484559D01*
X154685Y484892D01*
X153543Y485005D01*
D02*
G37*
G36*
X115252Y493839D02*
X88685D01*
Y467272D01*
X115252D01*
Y493839D01*
D02*
G37*
G36*
X538622Y476717D02*
X536457D01*
X535315Y476605D01*
X534218Y476272D01*
X533206Y475731D01*
X532319Y475003D01*
X531592Y474117D01*
X531051Y473105D01*
X530718Y472008D01*
X530606Y470866D01*
X530718Y469725D01*
X531051Y468627D01*
X531592Y467616D01*
X532319Y466729D01*
X533206Y466001D01*
X534218Y465460D01*
X535315Y465128D01*
X536457Y465015D01*
X538622D01*
X539763Y465128D01*
X540861Y465460D01*
X541873Y466001D01*
X542759Y466729D01*
X543487Y467616D01*
X544028Y468627D01*
X544361Y469725D01*
X544473Y470866D01*
X544361Y472008D01*
X544028Y473105D01*
X543487Y474117D01*
X542759Y475003D01*
X541873Y475731D01*
X540861Y476272D01*
X539763Y476605D01*
X538622Y476717D01*
D02*
G37*
G36*
X485591D02*
X483425D01*
X482284Y476605D01*
X481186Y476272D01*
X480174Y475731D01*
X479288Y475003D01*
X478560Y474117D01*
X478020Y473105D01*
X477687Y472008D01*
X477574Y470866D01*
X477687Y469725D01*
X478020Y468627D01*
X478560Y467616D01*
X479288Y466729D01*
X480174Y466001D01*
X481186Y465460D01*
X482284Y465128D01*
X483425Y465015D01*
X485591D01*
X486732Y465128D01*
X487830Y465460D01*
X488841Y466001D01*
X489728Y466729D01*
X490455Y467616D01*
X490996Y468627D01*
X491329Y469725D01*
X491442Y470866D01*
X491329Y472008D01*
X490996Y473105D01*
X490455Y474117D01*
X489728Y475003D01*
X488841Y475731D01*
X487830Y476272D01*
X486732Y476605D01*
X485591Y476717D01*
D02*
G37*
G36*
X354764Y476717D02*
X352598D01*
X351457Y476605D01*
X350359Y476272D01*
X349348Y475731D01*
X348461Y475003D01*
X347733Y474117D01*
X347193Y473105D01*
X346860Y472008D01*
X346747Y470866D01*
X346860Y469725D01*
X347193Y468627D01*
X347733Y467616D01*
X348461Y466729D01*
X349348Y466001D01*
X350359Y465460D01*
X351457Y465128D01*
X352598Y465015D01*
X354764D01*
X355905Y465128D01*
X357003Y465460D01*
X358014Y466001D01*
X358901Y466729D01*
X359629Y467616D01*
X360169Y468627D01*
X360502Y469725D01*
X360615Y470866D01*
X360502Y472008D01*
X360169Y473105D01*
X359629Y474117D01*
X358901Y475003D01*
X358014Y475731D01*
X357003Y476272D01*
X355905Y476605D01*
X354764Y476717D01*
D02*
G37*
G36*
X301732D02*
X299567D01*
X298426Y476605D01*
X297328Y476272D01*
X296316Y475731D01*
X295430Y475003D01*
X294702Y474117D01*
X294161Y473105D01*
X293828Y472008D01*
X293716Y470866D01*
X293828Y469725D01*
X294161Y468627D01*
X294702Y467616D01*
X295430Y466729D01*
X296316Y466001D01*
X297328Y465460D01*
X298426Y465128D01*
X299567Y465015D01*
X301732D01*
X302874Y465128D01*
X303971Y465460D01*
X304983Y466001D01*
X305870Y466729D01*
X306597Y467616D01*
X307138Y468627D01*
X307471Y469725D01*
X307583Y470866D01*
X307471Y472008D01*
X307138Y473105D01*
X306597Y474117D01*
X305870Y475003D01*
X304983Y475731D01*
X303971Y476272D01*
X302874Y476605D01*
X301732Y476717D01*
D02*
G37*
G36*
X662150Y466807D02*
X661234D01*
X660350Y466570D01*
X659558Y466113D01*
X658910Y465465D01*
X658453Y464673D01*
X658216Y463788D01*
Y462873D01*
X658453Y461989D01*
X658910Y461196D01*
X659558Y460549D01*
X660350Y460091D01*
X661234Y459854D01*
X662150D01*
X663034Y460091D01*
X663827Y460549D01*
X664474Y461196D01*
X664932Y461989D01*
X665169Y462873D01*
Y463788D01*
X664932Y464673D01*
X664474Y465465D01*
X663827Y466113D01*
X663034Y466570D01*
X662150Y466807D01*
D02*
G37*
G36*
X625803Y483071D02*
X600181D01*
Y457449D01*
X625803D01*
Y483071D01*
D02*
G37*
G36*
X585654D02*
X583637D01*
X581646Y482755D01*
X579728Y482132D01*
X577931Y481217D01*
X576300Y480031D01*
X574874Y478606D01*
X573689Y476974D01*
X572773Y475178D01*
X572150Y473260D01*
X571835Y471268D01*
Y469252D01*
X572150Y467260D01*
X572773Y465342D01*
X573689Y463545D01*
X574874Y461914D01*
X576300Y460488D01*
X577931Y459303D01*
X579728Y458387D01*
X581646Y457764D01*
X583637Y457449D01*
X585654D01*
X587646Y457764D01*
X589563Y458387D01*
X591360Y459303D01*
X592991Y460488D01*
X594417Y461914D01*
X595603Y463545D01*
X596518Y465342D01*
X597141Y467260D01*
X597457Y469252D01*
Y471268D01*
X597141Y473260D01*
X596518Y475178D01*
X595603Y476974D01*
X594417Y478606D01*
X592991Y480031D01*
X591360Y481217D01*
X589563Y482132D01*
X587646Y482755D01*
X585654Y483071D01*
D02*
G37*
G36*
X444307D02*
X418685D01*
Y457449D01*
X444307D01*
Y483071D01*
D02*
G37*
G36*
X404158D02*
X402141D01*
X400150Y482755D01*
X398232Y482132D01*
X396435Y481217D01*
X394804Y480031D01*
X393378Y478606D01*
X392193Y476974D01*
X391277Y475178D01*
X390654Y473260D01*
X390339Y471268D01*
Y469252D01*
X390654Y467260D01*
X391277Y465342D01*
X392193Y463545D01*
X393378Y461914D01*
X394804Y460488D01*
X396435Y459303D01*
X398232Y458387D01*
X400150Y457764D01*
X402141Y457449D01*
X404158D01*
X406149Y457764D01*
X408067Y458387D01*
X409864Y459303D01*
X411495Y460488D01*
X412921Y461914D01*
X414107Y463545D01*
X415022Y465342D01*
X415645Y467260D01*
X415961Y469252D01*
Y471268D01*
X415645Y473260D01*
X415022Y475178D01*
X414107Y476974D01*
X412921Y478606D01*
X411495Y480031D01*
X409864Y481217D01*
X408067Y482132D01*
X406149Y482755D01*
X404158Y483071D01*
D02*
G37*
G36*
X538622Y463331D02*
X536457D01*
X535315Y463219D01*
X534218Y462886D01*
X533206Y462345D01*
X532319Y461618D01*
X531592Y460731D01*
X531051Y459719D01*
X530718Y458622D01*
X530606Y457480D01*
X530718Y456339D01*
X531051Y455241D01*
X531592Y454230D01*
X532319Y453343D01*
X533206Y452615D01*
X534218Y452075D01*
X535315Y451742D01*
X536457Y451629D01*
X538622D01*
X539763Y451742D01*
X540861Y452075D01*
X541873Y452615D01*
X542759Y453343D01*
X543487Y454230D01*
X544028Y455241D01*
X544361Y456339D01*
X544473Y457480D01*
X544361Y458622D01*
X544028Y459719D01*
X543487Y460731D01*
X542759Y461618D01*
X541873Y462345D01*
X540861Y462886D01*
X539763Y463219D01*
X538622Y463331D01*
D02*
G37*
G36*
X485591D02*
X483425D01*
X482284Y463219D01*
X481186Y462886D01*
X480174Y462345D01*
X479288Y461618D01*
X478560Y460731D01*
X478020Y459719D01*
X477687Y458622D01*
X477574Y457480D01*
X477687Y456339D01*
X478020Y455241D01*
X478560Y454230D01*
X479288Y453343D01*
X480174Y452615D01*
X481186Y452075D01*
X482284Y451742D01*
X483425Y451629D01*
X485591D01*
X486732Y451742D01*
X487830Y452075D01*
X488841Y452615D01*
X489728Y453343D01*
X490455Y454230D01*
X490996Y455241D01*
X491329Y456339D01*
X491442Y457480D01*
X491329Y458622D01*
X490996Y459719D01*
X490455Y460731D01*
X489728Y461618D01*
X488841Y462345D01*
X487830Y462886D01*
X486732Y463219D01*
X485591Y463331D01*
D02*
G37*
G36*
X354764Y463331D02*
X352598D01*
X351457Y463219D01*
X350359Y462886D01*
X349348Y462345D01*
X348461Y461618D01*
X347733Y460731D01*
X347193Y459719D01*
X346860Y458622D01*
X346747Y457480D01*
X346860Y456339D01*
X347193Y455241D01*
X347733Y454230D01*
X348461Y453343D01*
X349348Y452615D01*
X350359Y452075D01*
X351457Y451742D01*
X352598Y451629D01*
X354764D01*
X355905Y451742D01*
X357003Y452075D01*
X358014Y452615D01*
X358901Y453343D01*
X359629Y454230D01*
X360169Y455241D01*
X360502Y456339D01*
X360615Y457480D01*
X360502Y458622D01*
X360169Y459719D01*
X359629Y460731D01*
X358901Y461618D01*
X358014Y462345D01*
X357003Y462886D01*
X355905Y463219D01*
X354764Y463331D01*
D02*
G37*
G36*
X301732D02*
X299567D01*
X298426Y463219D01*
X297328Y462886D01*
X296316Y462345D01*
X295430Y461618D01*
X294702Y460731D01*
X294161Y459719D01*
X293828Y458622D01*
X293716Y457480D01*
X293828Y456339D01*
X294161Y455241D01*
X294702Y454230D01*
X295430Y453343D01*
X296316Y452615D01*
X297328Y452075D01*
X298426Y451742D01*
X299567Y451629D01*
X301732D01*
X302874Y451742D01*
X303971Y452075D01*
X304983Y452615D01*
X305870Y453343D01*
X306597Y454230D01*
X307138Y455241D01*
X307471Y456339D01*
X307583Y457480D01*
X307471Y458622D01*
X307138Y459719D01*
X306597Y460731D01*
X305870Y461618D01*
X304983Y462345D01*
X303971Y462886D01*
X302874Y463219D01*
X301732Y463331D01*
D02*
G37*
G36*
X225684Y449369D02*
X224710D01*
X223769Y449117D01*
X222925Y448630D01*
X222236Y447941D01*
X221749Y447097D01*
X221497Y446156D01*
Y445182D01*
X221749Y444241D01*
X222236Y443397D01*
X222925Y442709D01*
X223769Y442221D01*
X224710Y441969D01*
X225684D01*
X226625Y442221D01*
X227469Y442709D01*
X228158Y443397D01*
X228645Y444241D01*
X228897Y445182D01*
Y446156D01*
X228645Y447097D01*
X228158Y447941D01*
X227469Y448630D01*
X226625Y449117D01*
X225684Y449369D01*
D02*
G37*
G36*
X209212D02*
X201812D01*
Y441969D01*
X209212D01*
Y449369D01*
D02*
G37*
G36*
X103014Y450925D02*
X102469D01*
Y438142D01*
X115252D01*
Y438687D01*
X114925Y440752D01*
X114279Y442741D01*
X113330Y444604D01*
X112101Y446295D01*
X110622Y447774D01*
X108931Y449003D01*
X107068Y449952D01*
X105079Y450598D01*
X103014Y450925D01*
D02*
G37*
G36*
X101469D02*
X100923D01*
X98858Y450598D01*
X96869Y449952D01*
X95006Y449003D01*
X93315Y447774D01*
X91836Y446295D01*
X90608Y444604D01*
X89658Y442741D01*
X89012Y440752D01*
X88685Y438687D01*
Y438142D01*
X101469D01*
Y450925D01*
D02*
G37*
G36*
X664911Y440502D02*
X658155D01*
Y433746D01*
X664911D01*
Y440502D01*
D02*
G37*
G36*
X115252Y437142D02*
X102469D01*
Y424358D01*
X103014D01*
X105079Y424685D01*
X107068Y425331D01*
X108931Y426281D01*
X110622Y427510D01*
X112101Y428988D01*
X113330Y430680D01*
X114279Y432543D01*
X114925Y434531D01*
X115252Y436596D01*
Y437142D01*
D02*
G37*
G36*
X101469D02*
X88685D01*
Y436596D01*
X89012Y434531D01*
X89658Y432543D01*
X90608Y430680D01*
X91836Y428988D01*
X93315Y427510D01*
X95006Y426281D01*
X96869Y425331D01*
X98858Y424685D01*
X100923Y424358D01*
X101469D01*
Y437142D01*
D02*
G37*
G36*
X661978Y430502D02*
X661089D01*
X660230Y430271D01*
X659459Y429827D01*
X658830Y429198D01*
X658386Y428428D01*
X658155Y427568D01*
Y426679D01*
X658386Y425820D01*
X658830Y425050D01*
X659459Y424421D01*
X660230Y423976D01*
X661089Y423746D01*
X661978D01*
X662837Y423976D01*
X663608Y424421D01*
X664236Y425050D01*
X664681Y425820D01*
X664911Y426679D01*
Y427568D01*
X664681Y428428D01*
X664236Y429198D01*
X663608Y429827D01*
X662837Y430271D01*
X661978Y430502D01*
D02*
G37*
G36*
X538228Y434198D02*
X536063D01*
X534922Y434085D01*
X533824Y433752D01*
X532812Y433211D01*
X531926Y432484D01*
X531198Y431597D01*
X530657Y430585D01*
X530324Y429488D01*
X530212Y428346D01*
X530324Y427205D01*
X530657Y426107D01*
X531198Y425096D01*
X531926Y424209D01*
X532812Y423482D01*
X533824Y422941D01*
X534922Y422608D01*
X536063Y422495D01*
X538228D01*
X539370Y422608D01*
X540467Y422941D01*
X541479Y423482D01*
X542366Y424209D01*
X543093Y425096D01*
X543634Y426107D01*
X543967Y427205D01*
X544079Y428346D01*
X543967Y429488D01*
X543634Y430585D01*
X543093Y431597D01*
X542366Y432484D01*
X541479Y433211D01*
X540467Y433752D01*
X539370Y434085D01*
X538228Y434198D01*
D02*
G37*
G36*
X485197D02*
X483032D01*
X481890Y434085D01*
X480792Y433752D01*
X479781Y433211D01*
X478894Y432484D01*
X478167Y431597D01*
X477626Y430585D01*
X477293Y429488D01*
X477180Y428346D01*
X477293Y427205D01*
X477626Y426107D01*
X478167Y425096D01*
X478894Y424209D01*
X479781Y423482D01*
X480792Y422941D01*
X481890Y422608D01*
X483032Y422495D01*
X485197D01*
X486338Y422608D01*
X487436Y422941D01*
X488448Y423482D01*
X489334Y424209D01*
X490062Y425096D01*
X490602Y426107D01*
X490935Y427205D01*
X491048Y428346D01*
X490935Y429488D01*
X490602Y430585D01*
X490062Y431597D01*
X489334Y432484D01*
X488448Y433211D01*
X487436Y433752D01*
X486338Y434085D01*
X485197Y434198D01*
D02*
G37*
G36*
X354764D02*
X352598D01*
X351457Y434085D01*
X350359Y433752D01*
X349348Y433211D01*
X348461Y432484D01*
X347733Y431597D01*
X347193Y430585D01*
X346860Y429488D01*
X346747Y428346D01*
X346860Y427205D01*
X347193Y426107D01*
X347733Y425096D01*
X348461Y424209D01*
X349348Y423482D01*
X350359Y422941D01*
X351457Y422608D01*
X352598Y422495D01*
X354764D01*
X355905Y422608D01*
X357003Y422941D01*
X358014Y423482D01*
X358901Y424209D01*
X359629Y425096D01*
X360169Y426107D01*
X360502Y427205D01*
X360615Y428346D01*
X360502Y429488D01*
X360169Y430585D01*
X359629Y431597D01*
X358901Y432484D01*
X358014Y433211D01*
X357003Y433752D01*
X355905Y434085D01*
X354764Y434198D01*
D02*
G37*
G36*
X301732D02*
X299567D01*
X298426Y434085D01*
X297328Y433752D01*
X296316Y433211D01*
X295430Y432484D01*
X294702Y431597D01*
X294161Y430585D01*
X293828Y429488D01*
X293716Y428346D01*
X293828Y427205D01*
X294161Y426107D01*
X294702Y425096D01*
X295430Y424209D01*
X296316Y423482D01*
X297328Y422941D01*
X298426Y422608D01*
X299567Y422495D01*
X301732D01*
X302874Y422608D01*
X303971Y422941D01*
X304983Y423482D01*
X305870Y424209D01*
X306597Y425096D01*
X307138Y426107D01*
X307471Y427205D01*
X307583Y428346D01*
X307471Y429488D01*
X307138Y430585D01*
X306597Y431597D01*
X305870Y432484D01*
X304983Y433211D01*
X303971Y433752D01*
X302874Y434085D01*
X301732Y434198D01*
D02*
G37*
G36*
X67520Y425484D02*
X62402D01*
X61472Y425361D01*
X60607Y425002D01*
X59863Y424432D01*
X59293Y423689D01*
X58934Y422823D01*
X58812Y421894D01*
X58934Y420965D01*
X59293Y420099D01*
X59863Y419355D01*
X60607Y418785D01*
X61472Y418426D01*
X62402Y418304D01*
X67520D01*
X68449Y418426D01*
X69315Y418785D01*
X70058Y419355D01*
X70628Y420099D01*
X70987Y420965D01*
X71109Y421894D01*
X70987Y422823D01*
X70628Y423689D01*
X70058Y424432D01*
X69315Y425002D01*
X68449Y425361D01*
X67520Y425484D01*
D02*
G37*
G36*
X625410Y440158D02*
X599787D01*
Y414535D01*
X625410D01*
Y440158D01*
D02*
G37*
G36*
X585260D02*
X583244D01*
X581252Y439842D01*
X579334Y439219D01*
X577537Y438303D01*
X575906Y437118D01*
X574480Y435692D01*
X573295Y434061D01*
X572379Y432264D01*
X571756Y430346D01*
X571441Y428355D01*
Y426338D01*
X571756Y424346D01*
X572379Y422429D01*
X573295Y420632D01*
X574480Y419001D01*
X575906Y417575D01*
X577537Y416390D01*
X579334Y415474D01*
X581252Y414851D01*
X583244Y414535D01*
X585260D01*
X587252Y414851D01*
X589170Y415474D01*
X590966Y416390D01*
X592598Y417575D01*
X594024Y419001D01*
X595209Y420632D01*
X596124Y422429D01*
X596747Y424346D01*
X597063Y426338D01*
Y428355D01*
X596747Y430346D01*
X596124Y432264D01*
X595209Y434061D01*
X594024Y435692D01*
X592598Y437118D01*
X590966Y438303D01*
X589170Y439219D01*
X587252Y439842D01*
X585260Y440158D01*
D02*
G37*
G36*
X445488D02*
X419866D01*
Y414535D01*
X445488D01*
Y440158D01*
D02*
G37*
G36*
X405339D02*
X403323D01*
X401331Y439842D01*
X399413Y439219D01*
X397616Y438303D01*
X395985Y437118D01*
X394559Y435692D01*
X393374Y434061D01*
X392458Y432264D01*
X391835Y430346D01*
X391520Y428355D01*
Y426338D01*
X391835Y424346D01*
X392458Y422429D01*
X393374Y420632D01*
X394559Y419001D01*
X395985Y417575D01*
X397616Y416390D01*
X399413Y415474D01*
X401331Y414851D01*
X403323Y414535D01*
X405339D01*
X407331Y414851D01*
X409248Y415474D01*
X411045Y416390D01*
X412676Y417575D01*
X414102Y419001D01*
X415288Y420632D01*
X416203Y422429D01*
X416826Y424346D01*
X417142Y426338D01*
Y428355D01*
X416826Y430346D01*
X416203Y432264D01*
X415288Y434061D01*
X414102Y435692D01*
X412676Y437118D01*
X411045Y438303D01*
X409248Y439219D01*
X407331Y439842D01*
X405339Y440158D01*
D02*
G37*
G36*
X538228Y420812D02*
X536063D01*
X534922Y420699D01*
X533824Y420366D01*
X532812Y419826D01*
X531926Y419098D01*
X531198Y418211D01*
X530657Y417200D01*
X530324Y416102D01*
X530212Y414961D01*
X530324Y413819D01*
X530657Y412722D01*
X531198Y411710D01*
X531926Y410823D01*
X532812Y410096D01*
X533824Y409555D01*
X534922Y409222D01*
X536063Y409110D01*
X538228D01*
X539370Y409222D01*
X540467Y409555D01*
X541479Y410096D01*
X542366Y410823D01*
X543093Y411710D01*
X543634Y412722D01*
X543967Y413819D01*
X544079Y414961D01*
X543967Y416102D01*
X543634Y417200D01*
X543093Y418211D01*
X542366Y419098D01*
X541479Y419826D01*
X540467Y420366D01*
X539370Y420699D01*
X538228Y420812D01*
D02*
G37*
G36*
X485197D02*
X483032D01*
X481890Y420699D01*
X480792Y420366D01*
X479781Y419826D01*
X478894Y419098D01*
X478167Y418211D01*
X477626Y417200D01*
X477293Y416102D01*
X477180Y414961D01*
X477293Y413819D01*
X477626Y412722D01*
X478167Y411710D01*
X478894Y410823D01*
X479781Y410096D01*
X480792Y409555D01*
X481890Y409222D01*
X483032Y409110D01*
X485197D01*
X486338Y409222D01*
X487436Y409555D01*
X488448Y410096D01*
X489334Y410823D01*
X490062Y411710D01*
X490602Y412722D01*
X490935Y413819D01*
X491048Y414961D01*
X490935Y416102D01*
X490602Y417200D01*
X490062Y418211D01*
X489334Y419098D01*
X488448Y419826D01*
X487436Y420366D01*
X486338Y420699D01*
X485197Y420812D01*
D02*
G37*
G36*
X354764D02*
X352598D01*
X351457Y420699D01*
X350359Y420366D01*
X349348Y419826D01*
X348461Y419098D01*
X347733Y418211D01*
X347193Y417200D01*
X346860Y416102D01*
X346747Y414961D01*
X346860Y413819D01*
X347193Y412722D01*
X347733Y411710D01*
X348461Y410823D01*
X349348Y410096D01*
X350359Y409555D01*
X351457Y409222D01*
X352598Y409110D01*
X354764D01*
X355905Y409222D01*
X357003Y409555D01*
X358014Y410096D01*
X358901Y410823D01*
X359629Y411710D01*
X360169Y412722D01*
X360502Y413819D01*
X360615Y414961D01*
X360502Y416102D01*
X360169Y417200D01*
X359629Y418211D01*
X358901Y419098D01*
X358014Y419826D01*
X357003Y420366D01*
X355905Y420699D01*
X354764Y420812D01*
D02*
G37*
G36*
X301732D02*
X299567D01*
X298426Y420699D01*
X297328Y420366D01*
X296316Y419826D01*
X295430Y419098D01*
X294702Y418211D01*
X294161Y417200D01*
X293828Y416102D01*
X293716Y414961D01*
X293828Y413819D01*
X294161Y412722D01*
X294702Y411710D01*
X295430Y410823D01*
X296316Y410096D01*
X297328Y409555D01*
X298426Y409222D01*
X299567Y409110D01*
X301732D01*
X302874Y409222D01*
X303971Y409555D01*
X304983Y410096D01*
X305870Y410823D01*
X306597Y411710D01*
X307138Y412722D01*
X307471Y413819D01*
X307583Y414961D01*
X307471Y416102D01*
X307138Y417200D01*
X306597Y418211D01*
X305870Y419098D01*
X304983Y419826D01*
X303971Y420366D01*
X302874Y420699D01*
X301732Y420812D01*
D02*
G37*
G36*
X95315Y399945D02*
X93150D01*
X92008Y399833D01*
X90911Y399500D01*
X89899Y398959D01*
X89012Y398232D01*
X88285Y397345D01*
X87744Y396334D01*
X87411Y395236D01*
X87299Y394094D01*
X87411Y392953D01*
X87744Y391855D01*
X88285Y390844D01*
X89012Y389957D01*
X89899Y389230D01*
X90911Y388689D01*
X92008Y388356D01*
X93150Y388244D01*
X95315D01*
X96456Y388356D01*
X97554Y388689D01*
X98566Y389230D01*
X99452Y389957D01*
X100180Y390844D01*
X100721Y391855D01*
X101054Y392953D01*
X101166Y394094D01*
X101054Y395236D01*
X100721Y396334D01*
X100180Y397345D01*
X99452Y398232D01*
X98566Y398959D01*
X97554Y399500D01*
X96456Y399833D01*
X95315Y399945D01*
D02*
G37*
G36*
X42283D02*
X40118D01*
X38977Y399833D01*
X37879Y399500D01*
X36867Y398959D01*
X35981Y398232D01*
X35253Y397345D01*
X34712Y396334D01*
X34380Y395236D01*
X34267Y394094D01*
X34380Y392953D01*
X34712Y391855D01*
X35253Y390844D01*
X35981Y389957D01*
X36867Y389230D01*
X37879Y388689D01*
X38977Y388356D01*
X40118Y388244D01*
X42283D01*
X43425Y388356D01*
X44523Y388689D01*
X45534Y389230D01*
X46421Y389957D01*
X47148Y390844D01*
X47689Y391855D01*
X48022Y392953D01*
X48134Y394094D01*
X48022Y395236D01*
X47689Y396334D01*
X47148Y397345D01*
X46421Y398232D01*
X45534Y398959D01*
X44523Y399500D01*
X43425Y399833D01*
X42283Y399945D01*
D02*
G37*
G36*
X95315Y386560D02*
X93150D01*
X92008Y386447D01*
X90911Y386114D01*
X89899Y385574D01*
X89012Y384846D01*
X88285Y383959D01*
X87744Y382948D01*
X87411Y381850D01*
X87299Y380709D01*
X87411Y379567D01*
X87744Y378470D01*
X88285Y377458D01*
X89012Y376571D01*
X89899Y375844D01*
X90911Y375303D01*
X92008Y374970D01*
X93150Y374858D01*
X95315D01*
X96456Y374970D01*
X97554Y375303D01*
X98566Y375844D01*
X99452Y376571D01*
X100180Y377458D01*
X100721Y378470D01*
X101054Y379567D01*
X101166Y380709D01*
X101054Y381850D01*
X100721Y382948D01*
X100180Y383959D01*
X99452Y384846D01*
X98566Y385574D01*
X97554Y386114D01*
X96456Y386447D01*
X95315Y386560D01*
D02*
G37*
G36*
X42283D02*
X40118D01*
X38977Y386447D01*
X37879Y386114D01*
X36867Y385574D01*
X35981Y384846D01*
X35253Y383959D01*
X34712Y382948D01*
X34380Y381850D01*
X34267Y380709D01*
X34380Y379567D01*
X34712Y378470D01*
X35253Y377458D01*
X35981Y376571D01*
X36867Y375844D01*
X37879Y375303D01*
X38977Y374970D01*
X40118Y374858D01*
X42283D01*
X43425Y374970D01*
X44523Y375303D01*
X45534Y375844D01*
X46421Y376571D01*
X47148Y377458D01*
X47689Y378470D01*
X48022Y379567D01*
X48134Y380709D01*
X48022Y381850D01*
X47689Y382948D01*
X47148Y383959D01*
X46421Y384846D01*
X45534Y385574D01*
X44523Y386114D01*
X43425Y386447D01*
X42283Y386560D01*
D02*
G37*
G36*
X434252Y371307D02*
X432952D01*
X431697Y370971D01*
X430571Y370321D01*
X429652Y369402D01*
X429002Y368276D01*
X428665Y367020D01*
Y365720D01*
X429002Y364464D01*
X429652Y363339D01*
X430571Y362420D01*
X431697Y361770D01*
X432952Y361433D01*
X434252D01*
X435508Y361770D01*
X436634Y362420D01*
X437553Y363339D01*
X438203Y364464D01*
X438539Y365720D01*
Y367020D01*
X438203Y368276D01*
X437553Y369402D01*
X436634Y370321D01*
X435508Y370971D01*
X434252Y371307D01*
D02*
G37*
G36*
X394095D02*
X392795D01*
X391539Y370971D01*
X390413Y370321D01*
X389494Y369402D01*
X388844Y368276D01*
X388508Y367020D01*
Y365720D01*
X388844Y364464D01*
X389494Y363339D01*
X390413Y362420D01*
X391539Y361770D01*
X392795Y361433D01*
X394095D01*
X395351Y361770D01*
X396476Y362420D01*
X397395Y363339D01*
X398045Y364464D01*
X398382Y365720D01*
Y367020D01*
X398045Y368276D01*
X397395Y369402D01*
X396476Y370321D01*
X395351Y370971D01*
X394095Y371307D01*
D02*
G37*
G36*
X353937D02*
X352637D01*
X351382Y370971D01*
X350256Y370321D01*
X349337Y369402D01*
X348687Y368276D01*
X348350Y367020D01*
Y365720D01*
X348687Y364464D01*
X349337Y363339D01*
X350256Y362420D01*
X351382Y361770D01*
X352637Y361433D01*
X353937D01*
X355193Y361770D01*
X356319Y362420D01*
X357238Y363339D01*
X357888Y364464D01*
X358224Y365720D01*
Y367020D01*
X357888Y368276D01*
X357238Y369402D01*
X356319Y370321D01*
X355193Y370971D01*
X353937Y371307D01*
D02*
G37*
G36*
X460941Y361335D02*
X454807D01*
Y355201D01*
X460941D01*
Y361335D01*
D02*
G37*
G36*
X526772Y364808D02*
X525630Y364695D01*
X524533Y364362D01*
X523521Y363822D01*
X522634Y363094D01*
X521907Y362207D01*
X521366Y361196D01*
X521033Y360098D01*
X520921Y358957D01*
Y356791D01*
X521033Y355650D01*
X521366Y354552D01*
X521907Y353541D01*
X522634Y352654D01*
X523521Y351926D01*
X524533Y351386D01*
X525630Y351053D01*
X526772Y350940D01*
X527913Y351053D01*
X529011Y351386D01*
X530022Y351926D01*
X530909Y352654D01*
X531637Y353541D01*
X532177Y354552D01*
X532268Y354852D01*
X606728D01*
X607201Y354579D01*
X608085Y354343D01*
X609000D01*
X609884Y354579D01*
X610677Y355037D01*
X611324Y355684D01*
X611782Y356477D01*
X612019Y357361D01*
Y358277D01*
X611782Y359161D01*
X611324Y359953D01*
X610677Y360601D01*
X609884Y361058D01*
X609000Y361295D01*
X608085D01*
X607201Y361058D01*
X606823Y360841D01*
X532285D01*
X532177Y361196D01*
X531637Y362207D01*
X530909Y363094D01*
X530022Y363822D01*
X529011Y364362D01*
X527913Y364695D01*
X526772Y364808D01*
D02*
G37*
G36*
X513386D02*
X512244Y364695D01*
X511147Y364362D01*
X510135Y363822D01*
X509248Y363094D01*
X508521Y362207D01*
X507980Y361196D01*
X507647Y360098D01*
X507535Y358957D01*
Y356791D01*
X507647Y355650D01*
X507980Y354552D01*
X508521Y353541D01*
X509248Y352654D01*
X510135Y351926D01*
X511147Y351386D01*
X512244Y351053D01*
X513386Y350940D01*
X514527Y351053D01*
X515625Y351386D01*
X516637Y351926D01*
X517523Y352654D01*
X518251Y353541D01*
X518791Y354552D01*
X519124Y355650D01*
X519237Y356791D01*
Y358957D01*
X519124Y360098D01*
X518791Y361196D01*
X518251Y362207D01*
X517523Y363094D01*
X516637Y363822D01*
X515625Y364362D01*
X514527Y364695D01*
X513386Y364808D01*
D02*
G37*
G36*
X317554Y351616D02*
X316674D01*
X315824Y351388D01*
X315062Y350948D01*
X314440Y350326D01*
X314000Y349564D01*
X313772Y348713D01*
Y347833D01*
X314000Y346983D01*
X314440Y346221D01*
X315062Y345599D01*
X315824Y345159D01*
X316674Y344931D01*
X317554D01*
X318404Y345159D01*
X319167Y345599D01*
X319789Y346221D01*
X320229Y346983D01*
X320457Y347833D01*
Y348713D01*
X320229Y349564D01*
X319789Y350326D01*
X319167Y350948D01*
X318404Y351388D01*
X317554Y351616D01*
D02*
G37*
G36*
X297869D02*
X296989D01*
X296139Y351388D01*
X295377Y350948D01*
X294755Y350326D01*
X294315Y349564D01*
X294087Y348713D01*
Y347833D01*
X294315Y346983D01*
X294755Y346221D01*
X295377Y345599D01*
X296139Y345159D01*
X296989Y344931D01*
X297869D01*
X298719Y345159D01*
X299482Y345599D01*
X300104Y346221D01*
X300544Y346983D01*
X300772Y347833D01*
Y348713D01*
X300544Y349564D01*
X300104Y350326D01*
X299482Y350948D01*
X298719Y351388D01*
X297869Y351616D01*
D02*
G37*
G36*
X251181Y356284D02*
X250040Y356172D01*
X248942Y355839D01*
X247931Y355298D01*
X247044Y354570D01*
X246316Y353684D01*
X245776Y352672D01*
X245443Y351574D01*
X245330Y350433D01*
Y348268D01*
X245443Y347126D01*
X245776Y346029D01*
X246316Y345017D01*
X247044Y344130D01*
X247931Y343403D01*
X248942Y342862D01*
X250040Y342529D01*
X251181Y342417D01*
X252323Y342529D01*
X253420Y342862D01*
X254432Y343403D01*
X255318Y344130D01*
X256046Y345017D01*
X256587Y346029D01*
X256920Y347126D01*
X257032Y348268D01*
Y350433D01*
X256920Y351574D01*
X256587Y352672D01*
X256046Y353684D01*
X255318Y354570D01*
X254432Y355298D01*
X253420Y355839D01*
X252323Y356172D01*
X251181Y356284D01*
D02*
G37*
G36*
X237795D02*
X236654Y356172D01*
X235556Y355839D01*
X234545Y355298D01*
X233658Y354570D01*
X232930Y353684D01*
X232390Y352672D01*
X232057Y351574D01*
X231944Y350433D01*
Y348268D01*
X232057Y347126D01*
X232390Y346029D01*
X232930Y345017D01*
X233658Y344130D01*
X234545Y343403D01*
X235556Y342862D01*
X236654Y342529D01*
X237795Y342417D01*
X238937Y342529D01*
X240034Y342862D01*
X241046Y343403D01*
X241933Y344130D01*
X242660Y345017D01*
X243201Y346029D01*
X243534Y347126D01*
X243646Y348268D01*
Y350433D01*
X243534Y351574D01*
X243201Y352672D01*
X242660Y353684D01*
X241933Y354570D01*
X241046Y355298D01*
X240034Y355839D01*
X238937Y356172D01*
X237795Y356284D01*
D02*
G37*
G36*
X41741Y355724D02*
X39724D01*
X37732Y355409D01*
X35815Y354786D01*
X34018Y353870D01*
X32386Y352685D01*
X30961Y351259D01*
X29775Y349628D01*
X28860Y347831D01*
X28237Y345913D01*
X27921Y343922D01*
Y341905D01*
X28237Y339914D01*
X28860Y337996D01*
X29775Y336199D01*
X30961Y334568D01*
X32386Y333142D01*
X34018Y331956D01*
X35815Y331041D01*
X37732Y330418D01*
X39724Y330102D01*
X41741D01*
X43732Y330418D01*
X45650Y331041D01*
X47447Y331956D01*
X49078Y333142D01*
X50504Y334568D01*
X51689Y336199D01*
X52605Y337996D01*
X53228Y339914D01*
X53543Y341905D01*
Y343922D01*
X53228Y345913D01*
X52605Y347831D01*
X51689Y349628D01*
X50504Y351259D01*
X49078Y352685D01*
X47447Y353870D01*
X45650Y354786D01*
X43732Y355409D01*
X41741Y355724D01*
D02*
G37*
G36*
X100425Y354937D02*
X74803D01*
Y329315D01*
X100425D01*
Y354937D01*
D02*
G37*
G36*
X609000Y333736D02*
X608085D01*
X607201Y333499D01*
X606408Y333042D01*
X605761Y332394D01*
X605303Y331602D01*
X605066Y330717D01*
Y329802D01*
X605303Y328918D01*
X605761Y328125D01*
X606408Y327478D01*
X607201Y327020D01*
X608085Y326783D01*
X609000D01*
X609884Y327020D01*
X610677Y327478D01*
X611324Y328125D01*
X611782Y328918D01*
X612019Y329802D01*
Y330717D01*
X611782Y331602D01*
X611324Y332394D01*
X610677Y333042D01*
X609884Y333499D01*
X609000Y333736D01*
D02*
G37*
G36*
X468120Y361335D02*
X467313D01*
X466533Y361126D01*
X465833Y360722D01*
X465262Y360151D01*
X464859Y359452D01*
X464650Y358671D01*
Y357864D01*
X464859Y357084D01*
X465262Y356385D01*
X465833Y355814D01*
X466533Y355410D01*
X467313Y355201D01*
X468120D01*
X468392Y355274D01*
X485768D01*
X487163Y353878D01*
Y328012D01*
X485499Y326348D01*
X473719D01*
X473134Y326504D01*
X472275D01*
X471445Y326282D01*
X470700Y325852D01*
X470093Y325245D01*
X469663Y324500D01*
X469441Y323670D01*
Y322811D01*
X469663Y321981D01*
X470093Y321237D01*
X470700Y320629D01*
X471445Y320199D01*
X472275Y319977D01*
X473134D01*
X473964Y320199D01*
X474242Y320359D01*
X486739D01*
X487514Y320462D01*
X487726Y320549D01*
X488237Y320761D01*
X488857Y321236D01*
X492275Y324655D01*
X492751Y325275D01*
X492874Y325574D01*
X493050Y325997D01*
X493152Y326772D01*
Y355118D01*
X493050Y355893D01*
X492962Y356105D01*
X492751Y356615D01*
X492275Y357235D01*
X489125Y360385D01*
X488505Y360861D01*
X487994Y361072D01*
X487783Y361160D01*
X487008Y361262D01*
X468392D01*
X468120Y361335D01*
D02*
G37*
G36*
X581528Y346276D02*
X555905D01*
Y320654D01*
X581528D01*
Y346276D01*
D02*
G37*
G36*
X453449Y326504D02*
X452590D01*
X451759Y326282D01*
X451015Y325852D01*
X450408Y325245D01*
X449978Y324500D01*
X449755Y323670D01*
Y322811D01*
X449978Y321981D01*
X450408Y321237D01*
X451015Y320629D01*
X451759Y320199D01*
X452590Y319977D01*
X453449D01*
X454279Y320199D01*
X455023Y320629D01*
X455631Y321237D01*
X456061Y321981D01*
X456283Y322811D01*
Y323670D01*
X456061Y324500D01*
X455631Y325245D01*
X455023Y325852D01*
X454279Y326282D01*
X453449Y326504D01*
D02*
G37*
G36*
X53543Y327378D02*
X41232D01*
Y315067D01*
X53543D01*
Y327378D01*
D02*
G37*
G36*
X40232D02*
X27921D01*
Y315067D01*
X40232D01*
Y327378D01*
D02*
G37*
G36*
X317429Y308027D02*
Y304831D01*
X320626D01*
X320377Y305759D01*
X319890Y306603D01*
X319201Y307291D01*
X318357Y307779D01*
X317429Y308027D01*
D02*
G37*
G36*
X316429D02*
X315501Y307779D01*
X314657Y307291D01*
X313968Y306603D01*
X313481Y305759D01*
X313233Y304831D01*
X316429D01*
Y308027D01*
D02*
G37*
G36*
X53543Y314067D02*
X41232D01*
Y301756D01*
X53543D01*
Y314067D01*
D02*
G37*
G36*
X40232D02*
X27921D01*
Y301756D01*
X40232D01*
Y314067D01*
D02*
G37*
G36*
X88622Y326590D02*
X86606D01*
X84614Y326275D01*
X82696Y325652D01*
X80900Y324736D01*
X79268Y323551D01*
X77842Y322125D01*
X76657Y320494D01*
X75742Y318697D01*
X75119Y316779D01*
X74803Y314788D01*
Y312771D01*
X75119Y310780D01*
X75742Y308862D01*
X76657Y307065D01*
X77842Y305434D01*
X79268Y304008D01*
X80900Y302823D01*
X82696Y301907D01*
X84614Y301284D01*
X86606Y300969D01*
X88622D01*
X90614Y301284D01*
X92532Y301907D01*
X94329Y302823D01*
X95960Y304008D01*
X97386Y305434D01*
X98571Y307065D01*
X99487Y308862D01*
X100110Y310780D01*
X100425Y312771D01*
Y314788D01*
X100110Y316779D01*
X99487Y318697D01*
X98571Y320494D01*
X97386Y322125D01*
X95960Y323551D01*
X94329Y324736D01*
X92532Y325652D01*
X90614Y326275D01*
X88622Y326590D01*
D02*
G37*
G36*
X611762Y307431D02*
X605006D01*
Y300675D01*
X611762D01*
Y307431D01*
D02*
G37*
G36*
X320626Y303831D02*
X317429D01*
Y300634D01*
X318357Y300883D01*
X319201Y301370D01*
X319890Y302059D01*
X320377Y302903D01*
X320626Y303831D01*
D02*
G37*
G36*
X316429D02*
X313233D01*
X313481Y302903D01*
X313968Y302059D01*
X314657Y301370D01*
X315501Y300883D01*
X316429Y300634D01*
Y303831D01*
D02*
G37*
G36*
X300944Y308031D02*
X293544D01*
Y300631D01*
X300944D01*
Y308031D01*
D02*
G37*
G36*
X526772Y311776D02*
X525630Y311664D01*
X524533Y311331D01*
X523521Y310790D01*
X522634Y310063D01*
X521907Y309176D01*
X521366Y308164D01*
X521033Y307067D01*
X520921Y305925D01*
Y303760D01*
X521033Y302618D01*
X521366Y301521D01*
X521907Y300509D01*
X522634Y299623D01*
X523521Y298895D01*
X524533Y298354D01*
X525630Y298021D01*
X526772Y297909D01*
X527913Y298021D01*
X529011Y298354D01*
X530022Y298895D01*
X530909Y299623D01*
X531637Y300509D01*
X532177Y301521D01*
X532510Y302618D01*
X532623Y303760D01*
Y305925D01*
X532510Y307067D01*
X532177Y308164D01*
X531637Y309176D01*
X530909Y310063D01*
X530022Y310790D01*
X529011Y311331D01*
X527913Y311664D01*
X526772Y311776D01*
D02*
G37*
G36*
X513386D02*
X512244Y311664D01*
X511147Y311331D01*
X510135Y310790D01*
X509248Y310063D01*
X508521Y309176D01*
X507980Y308164D01*
X507647Y307067D01*
X507535Y305925D01*
Y303760D01*
X507647Y302618D01*
X507980Y301521D01*
X508521Y300509D01*
X509248Y299623D01*
X510135Y298895D01*
X511147Y298354D01*
X512244Y298021D01*
X513386Y297909D01*
X514527Y298021D01*
X515625Y298354D01*
X516637Y298895D01*
X517523Y299623D01*
X518251Y300509D01*
X518791Y301521D01*
X519124Y302618D01*
X519237Y303760D01*
Y305925D01*
X519124Y307067D01*
X518791Y308164D01*
X518251Y309176D01*
X517523Y310063D01*
X516637Y310790D01*
X515625Y311331D01*
X514527Y311664D01*
X513386Y311776D01*
D02*
G37*
G36*
X142613Y302519D02*
X141639D01*
X140698Y302267D01*
X139854Y301780D01*
X139165Y301091D01*
X138678Y300247D01*
X138426Y299306D01*
Y298332D01*
X138678Y297391D01*
X139165Y296547D01*
X139854Y295858D01*
X140698Y295371D01*
X141639Y295119D01*
X142613D01*
X143554Y295371D01*
X144398Y295858D01*
X145087Y296547D01*
X145574Y297391D01*
X145826Y298332D01*
Y299306D01*
X145574Y300247D01*
X145087Y301091D01*
X144398Y301780D01*
X143554Y302267D01*
X142613Y302519D01*
D02*
G37*
G36*
X126141D02*
X118741D01*
Y295119D01*
X126141D01*
Y302519D01*
D02*
G37*
G36*
X569725Y317929D02*
X567708D01*
X565717Y317614D01*
X563799Y316990D01*
X562002Y316075D01*
X560371Y314890D01*
X558945Y313464D01*
X557760Y311832D01*
X556844Y310036D01*
X556221Y308118D01*
X555905Y306126D01*
Y304110D01*
X556221Y302118D01*
X556844Y300200D01*
X557760Y298404D01*
X558945Y296772D01*
X560371Y295346D01*
X562002Y294161D01*
X563799Y293246D01*
X565717Y292622D01*
X567708Y292307D01*
X569725D01*
X571716Y292622D01*
X573634Y293246D01*
X575431Y294161D01*
X577062Y295346D01*
X578488Y296772D01*
X579673Y298404D01*
X580589Y300200D01*
X581212Y302118D01*
X581528Y304110D01*
Y306126D01*
X581212Y308118D01*
X580589Y310036D01*
X579673Y311832D01*
X578488Y313464D01*
X577062Y314890D01*
X575431Y316075D01*
X573634Y316990D01*
X571716Y317614D01*
X569725Y317929D01*
D02*
G37*
G36*
X608829Y297431D02*
X607939D01*
X607080Y297201D01*
X606310Y296756D01*
X605681Y296127D01*
X605236Y295357D01*
X605006Y294498D01*
Y293608D01*
X605236Y292749D01*
X605681Y291979D01*
X606310Y291350D01*
X607080Y290905D01*
X607939Y290675D01*
X608829D01*
X609688Y290905D01*
X610458Y291350D01*
X611087Y291979D01*
X611532Y292749D01*
X611762Y293608D01*
Y294498D01*
X611532Y295357D01*
X611087Y296127D01*
X610458Y296756D01*
X609688Y297201D01*
X608829Y297431D01*
D02*
G37*
G36*
X251181Y303253D02*
X250040Y303140D01*
X248942Y302807D01*
X247931Y302267D01*
X247044Y301539D01*
X246316Y300652D01*
X245776Y299641D01*
X245443Y298543D01*
X245330Y297402D01*
Y295236D01*
X245443Y294095D01*
X245776Y292997D01*
X246316Y291986D01*
X247044Y291099D01*
X247931Y290371D01*
X248942Y289831D01*
X250040Y289498D01*
X251181Y289385D01*
X252323Y289498D01*
X253420Y289831D01*
X254432Y290371D01*
X255318Y291099D01*
X256046Y291986D01*
X256587Y292997D01*
X256920Y294095D01*
X257032Y295236D01*
Y297402D01*
X256920Y298543D01*
X256587Y299641D01*
X256046Y300652D01*
X255318Y301539D01*
X254432Y302267D01*
X253420Y302807D01*
X252323Y303140D01*
X251181Y303253D01*
D02*
G37*
G36*
X237795D02*
X236654Y303140D01*
X235556Y302807D01*
X234545Y302267D01*
X233658Y301539D01*
X232930Y300652D01*
X232390Y299641D01*
X232057Y298543D01*
X231944Y297402D01*
Y295236D01*
X232057Y294095D01*
X232390Y292997D01*
X232930Y291986D01*
X233658Y291099D01*
X234545Y290371D01*
X235556Y289831D01*
X236654Y289498D01*
X237795Y289385D01*
X238937Y289498D01*
X240034Y289831D01*
X241046Y290371D01*
X241933Y291099D01*
X242660Y291986D01*
X243201Y292997D01*
X243534Y294095D01*
X243646Y295236D01*
Y297402D01*
X243534Y298543D01*
X243201Y299641D01*
X242660Y300652D01*
X241933Y301539D01*
X241046Y302267D01*
X240034Y302807D01*
X238937Y303140D01*
X237795Y303253D01*
D02*
G37*
G36*
X383859Y291386D02*
X383709D01*
Y286949D01*
X388146D01*
Y287099D01*
X387809Y288354D01*
X387159Y289480D01*
X386240Y290399D01*
X385114Y291049D01*
X383859Y291386D01*
D02*
G37*
G36*
X382709D02*
X382559D01*
X381303Y291049D01*
X380177Y290399D01*
X379258Y289480D01*
X378608Y288354D01*
X378272Y287099D01*
Y286949D01*
X382709D01*
Y291386D01*
D02*
G37*
G36*
X475860Y289638D02*
Y286791D01*
X478707D01*
X478493Y287589D01*
X478050Y288356D01*
X477424Y288982D01*
X476657Y289424D01*
X475860Y289638D01*
D02*
G37*
G36*
X474860D02*
X474062Y289424D01*
X473295Y288982D01*
X472669Y288356D01*
X472227Y287589D01*
X472013Y286791D01*
X474860D01*
Y289638D01*
D02*
G37*
G36*
X478707Y285791D02*
X475860D01*
Y282944D01*
X476657Y283158D01*
X477424Y283601D01*
X478050Y284227D01*
X478493Y284994D01*
X478707Y285791D01*
D02*
G37*
G36*
X474860D02*
X472013D01*
X472227Y284994D01*
X472669Y284227D01*
X473295Y283601D01*
X474062Y283158D01*
X474860Y282944D01*
Y285791D01*
D02*
G37*
G36*
X459037Y289653D02*
X452312D01*
Y282929D01*
X459037D01*
Y289653D01*
D02*
G37*
G36*
X408224Y291386D02*
X398350D01*
Y281512D01*
X408224D01*
Y291386D01*
D02*
G37*
G36*
X388146Y285949D02*
X383709D01*
Y281512D01*
X383859D01*
X385114Y281848D01*
X386240Y282498D01*
X387159Y283417D01*
X387809Y284543D01*
X388146Y285799D01*
Y285949D01*
D02*
G37*
G36*
X382709D02*
X378272D01*
Y285799D01*
X378608Y284543D01*
X379258Y283417D01*
X380177Y282498D01*
X381303Y281848D01*
X382559Y281512D01*
X382709D01*
Y285949D01*
D02*
G37*
G36*
X353937Y291386D02*
X352637D01*
X351382Y291049D01*
X350256Y290399D01*
X349337Y289480D01*
X348687Y288354D01*
X348350Y287099D01*
Y285799D01*
X348687Y284543D01*
X349337Y283417D01*
X350256Y282498D01*
X351382Y281848D01*
X352637Y281512D01*
X353937D01*
X355193Y281848D01*
X356319Y282498D01*
X357238Y283417D01*
X357888Y284543D01*
X358224Y285799D01*
Y287099D01*
X357888Y288354D01*
X357238Y289480D01*
X356319Y290399D01*
X355193Y291049D01*
X353937Y291386D01*
D02*
G37*
G36*
X85866Y258213D02*
X83701D01*
X82559Y258101D01*
X81462Y257768D01*
X80450Y257227D01*
X79563Y256500D01*
X78836Y255613D01*
X78295Y254601D01*
X77962Y253504D01*
X77850Y252362D01*
X77962Y251221D01*
X78295Y250123D01*
X78836Y249112D01*
X79563Y248225D01*
X80450Y247497D01*
X81462Y246957D01*
X82559Y246624D01*
X83701Y246511D01*
X85866D01*
X87008Y246624D01*
X88105Y246957D01*
X89117Y247497D01*
X90003Y248225D01*
X90731Y249112D01*
X91272Y250123D01*
X91605Y251221D01*
X91717Y252362D01*
X91605Y253504D01*
X91272Y254601D01*
X90731Y255613D01*
X90003Y256500D01*
X89117Y257227D01*
X88105Y257768D01*
X87008Y258101D01*
X85866Y258213D01*
D02*
G37*
G36*
X32835D02*
X30669D01*
X29528Y258101D01*
X28430Y257768D01*
X27419Y257227D01*
X26532Y256500D01*
X25804Y255613D01*
X25264Y254601D01*
X24931Y253504D01*
X24818Y252362D01*
X24931Y251221D01*
X25264Y250123D01*
X25804Y249112D01*
X26532Y248225D01*
X27419Y247497D01*
X28430Y246957D01*
X29528Y246624D01*
X30669Y246511D01*
X32835D01*
X33976Y246624D01*
X35074Y246957D01*
X36085Y247497D01*
X36972Y248225D01*
X37700Y249112D01*
X38240Y250123D01*
X38573Y251221D01*
X38686Y252362D01*
X38573Y253504D01*
X38240Y254601D01*
X37700Y255613D01*
X36972Y256500D01*
X36085Y257227D01*
X35074Y257768D01*
X33976Y258101D01*
X32835Y258213D01*
D02*
G37*
G36*
X435296Y249425D02*
X433996D01*
X432740Y249089D01*
X431614Y248439D01*
X430695Y247520D01*
X430045Y246394D01*
X429709Y245138D01*
Y243838D01*
X430045Y242583D01*
X430695Y241457D01*
X431614Y240538D01*
X432740Y239888D01*
X433996Y239551D01*
X435296D01*
X436551Y239888D01*
X437677Y240538D01*
X438596Y241457D01*
X439246Y242583D01*
X439583Y243838D01*
Y245138D01*
X439246Y246394D01*
X438596Y247520D01*
X437677Y248439D01*
X436551Y249089D01*
X435296Y249425D01*
D02*
G37*
G36*
X395138D02*
X393838D01*
X392583Y249089D01*
X391457Y248439D01*
X390538Y247520D01*
X389888Y246394D01*
X389551Y245138D01*
Y243838D01*
X389888Y242583D01*
X390538Y241457D01*
X391457Y240538D01*
X392583Y239888D01*
X393838Y239551D01*
X395138D01*
X396394Y239888D01*
X397520Y240538D01*
X398439Y241457D01*
X399089Y242583D01*
X399425Y243838D01*
Y245138D01*
X399089Y246394D01*
X398439Y247520D01*
X397520Y248439D01*
X396394Y249089D01*
X395138Y249425D01*
D02*
G37*
G36*
X354981D02*
X353681D01*
X352425Y249089D01*
X351299Y248439D01*
X350380Y247520D01*
X349730Y246394D01*
X349394Y245138D01*
Y243838D01*
X349730Y242583D01*
X350380Y241457D01*
X351299Y240538D01*
X352425Y239888D01*
X353681Y239551D01*
X354981D01*
X356236Y239888D01*
X357362Y240538D01*
X358281Y241457D01*
X358931Y242583D01*
X359268Y243838D01*
Y245138D01*
X358931Y246394D01*
X358281Y247520D01*
X357362Y248439D01*
X356236Y249089D01*
X354981Y249425D01*
D02*
G37*
G36*
X178953Y264961D02*
X153331D01*
Y239339D01*
X178953D01*
Y264961D01*
D02*
G37*
G36*
X138804D02*
X136787D01*
X134795Y264645D01*
X132878Y264022D01*
X131081Y263107D01*
X129449Y261921D01*
X128024Y260495D01*
X126838Y258864D01*
X125923Y257067D01*
X125300Y255150D01*
X124984Y253158D01*
Y251141D01*
X125300Y249150D01*
X125923Y247232D01*
X126838Y245435D01*
X128024Y243804D01*
X129449Y242378D01*
X131081Y241193D01*
X132878Y240277D01*
X134795Y239654D01*
X136787Y239339D01*
X138804D01*
X140795Y239654D01*
X142713Y240277D01*
X144510Y241193D01*
X146141Y242378D01*
X147567Y243804D01*
X148752Y245435D01*
X149668Y247232D01*
X150291Y249150D01*
X150606Y251141D01*
Y253158D01*
X150291Y255150D01*
X149668Y257067D01*
X148752Y258864D01*
X147567Y260495D01*
X146141Y261921D01*
X144510Y263107D01*
X142713Y264022D01*
X140795Y264645D01*
X138804Y264961D01*
D02*
G37*
G36*
X85866Y244827D02*
X83701D01*
X82559Y244715D01*
X81462Y244382D01*
X80450Y243841D01*
X79563Y243114D01*
X78836Y242227D01*
X78295Y241215D01*
X77962Y240118D01*
X77850Y238976D01*
X77962Y237835D01*
X78295Y236737D01*
X78836Y235726D01*
X79563Y234839D01*
X80450Y234111D01*
X81462Y233571D01*
X82559Y233238D01*
X83701Y233125D01*
X85866D01*
X87008Y233238D01*
X88105Y233571D01*
X89117Y234111D01*
X90003Y234839D01*
X90731Y235726D01*
X91272Y236737D01*
X91605Y237835D01*
X91717Y238976D01*
X91605Y240118D01*
X91272Y241215D01*
X90731Y242227D01*
X90003Y243114D01*
X89117Y243841D01*
X88105Y244382D01*
X87008Y244715D01*
X85866Y244827D01*
D02*
G37*
G36*
X32835D02*
X30669D01*
X29528Y244715D01*
X28430Y244382D01*
X27419Y243841D01*
X26532Y243114D01*
X25804Y242227D01*
X25264Y241215D01*
X24931Y240118D01*
X24818Y238976D01*
X24931Y237835D01*
X25264Y236737D01*
X25804Y235726D01*
X26532Y234839D01*
X27419Y234111D01*
X28430Y233571D01*
X29528Y233238D01*
X30669Y233125D01*
X32835D01*
X33976Y233238D01*
X35074Y233571D01*
X36085Y234111D01*
X36972Y234839D01*
X37700Y235726D01*
X38240Y236737D01*
X38573Y237835D01*
X38686Y238976D01*
X38573Y240118D01*
X38240Y241215D01*
X37700Y242227D01*
X36972Y243114D01*
X36085Y243841D01*
X35074Y244382D01*
X33976Y244715D01*
X32835Y244827D01*
D02*
G37*
G36*
X463616Y238235D02*
X457482D01*
Y232101D01*
X463616D01*
Y238235D01*
D02*
G37*
G36*
X252756Y245261D02*
X251614Y245148D01*
X250517Y244815D01*
X249505Y244274D01*
X248619Y243547D01*
X247891Y242660D01*
X247350Y241649D01*
X247017Y240551D01*
X246905Y239409D01*
Y237244D01*
X247017Y236103D01*
X247350Y235005D01*
X247891Y233994D01*
X248619Y233107D01*
X249505Y232379D01*
X250517Y231838D01*
X251614Y231505D01*
X252756Y231393D01*
X253897Y231505D01*
X254995Y231838D01*
X256007Y232379D01*
X256893Y233107D01*
X257621Y233994D01*
X258161Y235005D01*
X258494Y236103D01*
X258607Y237244D01*
Y239409D01*
X258494Y240551D01*
X258161Y241649D01*
X257621Y242660D01*
X256893Y243547D01*
X256007Y244274D01*
X254995Y244815D01*
X253897Y245148D01*
X252756Y245261D01*
D02*
G37*
G36*
X239370D02*
X238229Y245148D01*
X237131Y244815D01*
X236119Y244274D01*
X235233Y243547D01*
X234505Y242660D01*
X233964Y241649D01*
X233631Y240551D01*
X233519Y239409D01*
Y237244D01*
X233631Y236103D01*
X233964Y235005D01*
X234505Y233994D01*
X235233Y233107D01*
X236119Y232379D01*
X237131Y231838D01*
X238229Y231505D01*
X239370Y231393D01*
X240511Y231505D01*
X241609Y231838D01*
X242621Y232379D01*
X243507Y233107D01*
X244235Y233994D01*
X244776Y235005D01*
X245109Y236103D01*
X245221Y237244D01*
Y239409D01*
X245109Y240551D01*
X244776Y241649D01*
X244235Y242660D01*
X243507Y243547D01*
X242621Y244274D01*
X241609Y244815D01*
X240511Y245148D01*
X239370Y245261D01*
D02*
G37*
G36*
X527953Y241717D02*
X526811Y241605D01*
X525714Y241272D01*
X524702Y240731D01*
X523815Y240003D01*
X523088Y239117D01*
X522547Y238105D01*
X522214Y237008D01*
X522102Y235866D01*
Y233701D01*
X522214Y232559D01*
X522547Y231462D01*
X523088Y230450D01*
X523815Y229563D01*
X524702Y228836D01*
X525714Y228295D01*
X526811Y227962D01*
X527953Y227850D01*
X529094Y227962D01*
X530192Y228295D01*
X531203Y228836D01*
X532090Y229563D01*
X532818Y230450D01*
X533358Y231462D01*
X533428Y231693D01*
X607790D01*
X608382Y231351D01*
X609266Y231114D01*
X610181D01*
X611065Y231351D01*
X611858Y231809D01*
X612505Y232456D01*
X612963Y233249D01*
X613200Y234133D01*
Y235048D01*
X612963Y235932D01*
X612505Y236725D01*
X611858Y237372D01*
X611065Y237830D01*
X610181Y238067D01*
X609266D01*
X608382Y237830D01*
X608124Y237681D01*
X533487D01*
X533358Y238105D01*
X532818Y239117D01*
X532090Y240003D01*
X531203Y240731D01*
X530192Y241272D01*
X529094Y241605D01*
X527953Y241717D01*
D02*
G37*
G36*
X319129Y235868D02*
X318249D01*
X317399Y235640D01*
X316637Y235200D01*
X316014Y234578D01*
X315574Y233816D01*
X315347Y232965D01*
Y232085D01*
X315574Y231235D01*
X316014Y230473D01*
X316637Y229851D01*
X317399Y229411D01*
X318249Y229183D01*
X319129D01*
X319979Y229411D01*
X320741Y229851D01*
X321364Y230473D01*
X321804Y231235D01*
X322032Y232085D01*
Y232965D01*
X321804Y233816D01*
X321364Y234578D01*
X320741Y235200D01*
X319979Y235640D01*
X319129Y235868D01*
D02*
G37*
G36*
X299444D02*
X298564D01*
X297714Y235640D01*
X296952Y235200D01*
X296329Y234578D01*
X295889Y233816D01*
X295661Y232965D01*
Y232085D01*
X295889Y231235D01*
X296329Y230473D01*
X296952Y229851D01*
X297714Y229411D01*
X298564Y229183D01*
X299444D01*
X300294Y229411D01*
X301056Y229851D01*
X301679Y230473D01*
X302119Y231235D01*
X302346Y232085D01*
Y232965D01*
X302119Y233816D01*
X301679Y234578D01*
X301056Y235200D01*
X300294Y235640D01*
X299444Y235868D01*
D02*
G37*
G36*
X514567Y241717D02*
X513425Y241605D01*
X512328Y241272D01*
X511316Y240731D01*
X510430Y240003D01*
X509702Y239117D01*
X509161Y238105D01*
X508828Y237008D01*
X508716Y235866D01*
Y233701D01*
X508828Y232559D01*
X509161Y231462D01*
X509702Y230450D01*
X510430Y229563D01*
X511316Y228836D01*
X512328Y228295D01*
X513425Y227962D01*
X514567Y227850D01*
X515708Y227962D01*
X516806Y228295D01*
X517818Y228836D01*
X518704Y229563D01*
X519432Y230450D01*
X519973Y231462D01*
X520305Y232559D01*
X520418Y233701D01*
Y235866D01*
X520305Y237008D01*
X519973Y238105D01*
X519432Y239117D01*
X518704Y240003D01*
X517818Y240731D01*
X516806Y241272D01*
X515708Y241605D01*
X514567Y241717D01*
D02*
G37*
G36*
X470795Y238235D02*
X469988D01*
X469208Y238026D01*
X468508Y237622D01*
X467937Y237051D01*
X467534Y236351D01*
X467325Y235571D01*
Y234764D01*
X467534Y233984D01*
X467937Y233284D01*
X468508Y232714D01*
X469208Y232310D01*
X469988Y232101D01*
X470795D01*
X471067Y232173D01*
X483277D01*
X486376Y229075D01*
Y207539D01*
X483531Y204694D01*
X476868D01*
X476284Y204851D01*
X475424D01*
X474594Y204628D01*
X473850Y204199D01*
X473242Y203591D01*
X472813Y202847D01*
X472590Y202017D01*
Y201157D01*
X472813Y200327D01*
X473242Y199583D01*
X473850Y198975D01*
X474594Y198546D01*
X475424Y198323D01*
X476284D01*
X477114Y198546D01*
X477391Y198706D01*
X484771D01*
X485546Y198808D01*
X485757Y198896D01*
X486268Y199107D01*
X486888Y199583D01*
X491487Y204182D01*
X491963Y204802D01*
X492175Y205313D01*
X492262Y205524D01*
X492364Y206299D01*
Y230315D01*
X492262Y231090D01*
X492087Y231513D01*
X491963Y231812D01*
X491487Y232432D01*
X486635Y237285D01*
X486015Y237761D01*
X485504Y237972D01*
X485292Y238060D01*
X484517Y238162D01*
X471067D01*
X470795Y238235D01*
D02*
G37*
G36*
X85866Y216087D02*
X83701D01*
X82559Y215975D01*
X81462Y215642D01*
X80450Y215101D01*
X79563Y214373D01*
X78836Y213487D01*
X78295Y212475D01*
X77962Y211378D01*
X77850Y210236D01*
X77962Y209095D01*
X78295Y207997D01*
X78836Y206986D01*
X79563Y206099D01*
X80450Y205371D01*
X81462Y204831D01*
X82559Y204498D01*
X83701Y204385D01*
X85866D01*
X87008Y204498D01*
X88105Y204831D01*
X89117Y205371D01*
X90003Y206099D01*
X90731Y206986D01*
X91272Y207997D01*
X91605Y209095D01*
X91717Y210236D01*
X91605Y211378D01*
X91272Y212475D01*
X90731Y213487D01*
X90003Y214373D01*
X89117Y215101D01*
X88105Y215642D01*
X87008Y215975D01*
X85866Y216087D01*
D02*
G37*
G36*
X32835D02*
X30669D01*
X29528Y215975D01*
X28430Y215642D01*
X27419Y215101D01*
X26532Y214373D01*
X25804Y213487D01*
X25264Y212475D01*
X24931Y211378D01*
X24818Y210236D01*
X24931Y209095D01*
X25264Y207997D01*
X25804Y206986D01*
X26532Y206099D01*
X27419Y205371D01*
X28430Y204831D01*
X29528Y204498D01*
X30669Y204385D01*
X32835D01*
X33976Y204498D01*
X35074Y204831D01*
X36085Y205371D01*
X36972Y206099D01*
X37700Y206986D01*
X38240Y207997D01*
X38573Y209095D01*
X38686Y210236D01*
X38573Y211378D01*
X38240Y212475D01*
X37700Y213487D01*
X36972Y214373D01*
X36085Y215101D01*
X35074Y215642D01*
X33976Y215975D01*
X32835Y216087D01*
D02*
G37*
G36*
X610181Y210508D02*
X609266D01*
X608382Y210271D01*
X607589Y209813D01*
X606942Y209166D01*
X606484Y208373D01*
X606247Y207489D01*
Y206574D01*
X606484Y205690D01*
X606942Y204897D01*
X607589Y204250D01*
X608382Y203792D01*
X609266Y203555D01*
X610181D01*
X611065Y203792D01*
X611858Y204250D01*
X612505Y204897D01*
X612963Y205690D01*
X613200Y206574D01*
Y207489D01*
X612963Y208373D01*
X612505Y209166D01*
X611858Y209813D01*
X611065Y210271D01*
X610181Y210508D01*
D02*
G37*
G36*
X456599Y204851D02*
X455739D01*
X454909Y204628D01*
X454165Y204199D01*
X453557Y203591D01*
X453127Y202847D01*
X452905Y202017D01*
Y201157D01*
X453127Y200327D01*
X453557Y199583D01*
X454165Y198975D01*
X454909Y198546D01*
X455739Y198323D01*
X456599D01*
X457429Y198546D01*
X458173Y198975D01*
X458780Y199583D01*
X459210Y200327D01*
X459433Y201157D01*
Y202017D01*
X459210Y202847D01*
X458780Y203591D01*
X458173Y204199D01*
X457429Y204628D01*
X456599Y204851D01*
D02*
G37*
G36*
X179347Y223228D02*
X153724D01*
Y197606D01*
X179347D01*
Y223228D01*
D02*
G37*
G36*
X139197D02*
X137181D01*
X135189Y222913D01*
X133271Y222290D01*
X131474Y221374D01*
X129843Y220189D01*
X128417Y218763D01*
X127232Y217132D01*
X126316Y215335D01*
X125693Y213417D01*
X125378Y211426D01*
Y209409D01*
X125693Y207417D01*
X126316Y205500D01*
X127232Y203703D01*
X128417Y202071D01*
X129843Y200646D01*
X131474Y199460D01*
X133271Y198545D01*
X135189Y197922D01*
X137181Y197606D01*
X139197D01*
X141189Y197922D01*
X143107Y198545D01*
X144903Y199460D01*
X146535Y200646D01*
X147961Y202071D01*
X149146Y203703D01*
X150061Y205500D01*
X150684Y207417D01*
X151000Y209409D01*
Y211426D01*
X150684Y213417D01*
X150061Y215335D01*
X149146Y217132D01*
X147961Y218763D01*
X146535Y220189D01*
X144903Y221374D01*
X143107Y222290D01*
X141189Y222913D01*
X139197Y223228D01*
D02*
G37*
G36*
X581528Y222260D02*
X555905D01*
Y196638D01*
X581528D01*
Y222260D01*
D02*
G37*
G36*
X85866Y202701D02*
X83701D01*
X82559Y202589D01*
X81462Y202256D01*
X80450Y201715D01*
X79563Y200988D01*
X78836Y200101D01*
X78295Y199090D01*
X77962Y197992D01*
X77850Y196850D01*
X77962Y195709D01*
X78295Y194611D01*
X78836Y193600D01*
X79563Y192713D01*
X80450Y191985D01*
X81462Y191445D01*
X82559Y191112D01*
X83701Y190999D01*
X85866D01*
X87008Y191112D01*
X88105Y191445D01*
X89117Y191985D01*
X90003Y192713D01*
X90731Y193600D01*
X91272Y194611D01*
X91605Y195709D01*
X91717Y196850D01*
X91605Y197992D01*
X91272Y199090D01*
X90731Y200101D01*
X90003Y200988D01*
X89117Y201715D01*
X88105Y202256D01*
X87008Y202589D01*
X85866Y202701D01*
D02*
G37*
G36*
X32835D02*
X30669D01*
X29528Y202589D01*
X28430Y202256D01*
X27419Y201715D01*
X26532Y200988D01*
X25804Y200101D01*
X25264Y199090D01*
X24931Y197992D01*
X24818Y196850D01*
X24931Y195709D01*
X25264Y194611D01*
X25804Y193600D01*
X26532Y192713D01*
X27419Y191985D01*
X28430Y191445D01*
X29528Y191112D01*
X30669Y190999D01*
X32835D01*
X33976Y191112D01*
X35074Y191445D01*
X36085Y191985D01*
X36972Y192713D01*
X37700Y193600D01*
X38240Y194611D01*
X38573Y195709D01*
X38686Y196850D01*
X38573Y197992D01*
X38240Y199090D01*
X37700Y200101D01*
X36972Y200988D01*
X36085Y201715D01*
X35074Y202256D01*
X33976Y202589D01*
X32835Y202701D01*
D02*
G37*
G36*
X318610Y188736D02*
Y185539D01*
X321807D01*
X321558Y186468D01*
X321071Y187311D01*
X320382Y188000D01*
X319538Y188487D01*
X318610Y188736D01*
D02*
G37*
G36*
X317610D02*
X316682Y188487D01*
X315838Y188000D01*
X315149Y187311D01*
X314662Y186468D01*
X314414Y185539D01*
X317610D01*
Y188736D01*
D02*
G37*
G36*
X321807Y184539D02*
X318610D01*
Y181343D01*
X319538Y181591D01*
X320382Y182079D01*
X321071Y182767D01*
X321558Y183611D01*
X321807Y184539D01*
D02*
G37*
G36*
X317610D02*
X314414D01*
X314662Y183611D01*
X315149Y182767D01*
X315838Y182079D01*
X316682Y181591D01*
X317610Y181343D01*
Y184539D01*
D02*
G37*
G36*
X302125Y188739D02*
X294725D01*
Y181339D01*
X302125D01*
Y188739D01*
D02*
G37*
G36*
X252756Y192229D02*
X251614Y192116D01*
X250517Y191784D01*
X249505Y191243D01*
X248619Y190515D01*
X247891Y189629D01*
X247350Y188617D01*
X247017Y187519D01*
X246905Y186378D01*
Y184213D01*
X247017Y183071D01*
X247350Y181974D01*
X247891Y180962D01*
X248619Y180075D01*
X249505Y179348D01*
X250517Y178807D01*
X251614Y178474D01*
X252756Y178362D01*
X253897Y178474D01*
X254995Y178807D01*
X256007Y179348D01*
X256893Y180075D01*
X257621Y180962D01*
X258161Y181974D01*
X258494Y183071D01*
X258607Y184213D01*
Y186378D01*
X258494Y187519D01*
X258161Y188617D01*
X257621Y189629D01*
X256893Y190515D01*
X256007Y191243D01*
X254995Y191784D01*
X253897Y192116D01*
X252756Y192229D01*
D02*
G37*
G36*
X239370D02*
X238229Y192116D01*
X237131Y191784D01*
X236119Y191243D01*
X235233Y190515D01*
X234505Y189629D01*
X233964Y188617D01*
X233631Y187519D01*
X233519Y186378D01*
Y184213D01*
X233631Y183071D01*
X233964Y181974D01*
X234505Y180962D01*
X235233Y180075D01*
X236119Y179348D01*
X237131Y178807D01*
X238229Y178474D01*
X239370Y178362D01*
X240511Y178474D01*
X241609Y178807D01*
X242621Y179348D01*
X243507Y180075D01*
X244235Y180962D01*
X244776Y181974D01*
X245109Y183071D01*
X245221Y184213D01*
Y186378D01*
X245109Y187519D01*
X244776Y188617D01*
X244235Y189629D01*
X243507Y190515D01*
X242621Y191243D01*
X241609Y191784D01*
X240511Y192116D01*
X239370Y192229D01*
D02*
G37*
G36*
X612549Y181840D02*
X605793D01*
Y175084D01*
X612549D01*
Y181840D01*
D02*
G37*
G36*
X527953Y188686D02*
X526811Y188573D01*
X525714Y188240D01*
X524702Y187700D01*
X523815Y186972D01*
X523088Y186085D01*
X522547Y185074D01*
X522214Y183976D01*
X522102Y182835D01*
Y180669D01*
X522214Y179528D01*
X522547Y178430D01*
X523088Y177419D01*
X523815Y176532D01*
X524702Y175804D01*
X525714Y175264D01*
X526811Y174931D01*
X527953Y174818D01*
X529094Y174931D01*
X530192Y175264D01*
X531203Y175804D01*
X532090Y176532D01*
X532818Y177419D01*
X533358Y178430D01*
X533691Y179528D01*
X533804Y180669D01*
Y182835D01*
X533691Y183976D01*
X533358Y185074D01*
X532818Y186085D01*
X532090Y186972D01*
X531203Y187700D01*
X530192Y188240D01*
X529094Y188573D01*
X527953Y188686D01*
D02*
G37*
G36*
X514567D02*
X513425Y188573D01*
X512328Y188240D01*
X511316Y187700D01*
X510430Y186972D01*
X509702Y186085D01*
X509161Y185074D01*
X508828Y183976D01*
X508716Y182835D01*
Y180669D01*
X508828Y179528D01*
X509161Y178430D01*
X509702Y177419D01*
X510430Y176532D01*
X511316Y175804D01*
X512328Y175264D01*
X513425Y174931D01*
X514567Y174818D01*
X515708Y174931D01*
X516806Y175264D01*
X517818Y175804D01*
X518704Y176532D01*
X519432Y177419D01*
X519973Y178430D01*
X520305Y179528D01*
X520418Y180669D01*
Y182835D01*
X520305Y183976D01*
X519973Y185074D01*
X519432Y186085D01*
X518704Y186972D01*
X517818Y187700D01*
X516806Y188240D01*
X515708Y188573D01*
X514567Y188686D01*
D02*
G37*
G36*
X569725Y193913D02*
X567708D01*
X565717Y193598D01*
X563799Y192975D01*
X562002Y192059D01*
X560371Y190874D01*
X558945Y189448D01*
X557760Y187817D01*
X556844Y186020D01*
X556221Y184102D01*
X555905Y182111D01*
Y180094D01*
X556221Y178102D01*
X556844Y176185D01*
X557760Y174388D01*
X558945Y172757D01*
X560371Y171331D01*
X562002Y170145D01*
X563799Y169230D01*
X565717Y168607D01*
X567708Y168291D01*
X569725D01*
X571716Y168607D01*
X573634Y169230D01*
X575431Y170145D01*
X577062Y171331D01*
X578488Y172757D01*
X579673Y174388D01*
X580589Y176185D01*
X581212Y178102D01*
X581528Y180094D01*
Y182111D01*
X581212Y184102D01*
X580589Y186020D01*
X579673Y187817D01*
X578488Y189448D01*
X577062Y190874D01*
X575431Y192059D01*
X573634Y192975D01*
X571716Y193598D01*
X569725Y193913D01*
D02*
G37*
G36*
X609616Y171840D02*
X608727D01*
X607867Y171610D01*
X607097Y171165D01*
X606468Y170536D01*
X606024Y169766D01*
X605793Y168907D01*
Y168018D01*
X606024Y167158D01*
X606468Y166388D01*
X607097Y165759D01*
X607867Y165315D01*
X608727Y165084D01*
X609616D01*
X610475Y165315D01*
X611245Y165759D01*
X611874Y166388D01*
X612319Y167158D01*
X612549Y168018D01*
Y168907D01*
X612319Y169766D01*
X611874Y170536D01*
X611245Y171165D01*
X610475Y171610D01*
X609616Y171840D01*
D02*
G37*
G36*
X384902Y169504D02*
X384752D01*
Y165067D01*
X389189D01*
Y165217D01*
X388853Y166472D01*
X388203Y167598D01*
X387283Y168517D01*
X386158Y169167D01*
X384902Y169504D01*
D02*
G37*
G36*
X383752D02*
X383602D01*
X382346Y169167D01*
X381221Y168517D01*
X380301Y167598D01*
X379651Y166472D01*
X379315Y165217D01*
Y165067D01*
X383752D01*
Y169504D01*
D02*
G37*
G36*
X479009Y167591D02*
Y164744D01*
X481856D01*
X481642Y165542D01*
X481200Y166308D01*
X480574Y166935D01*
X479807Y167377D01*
X479009Y167591D01*
D02*
G37*
G36*
X478009D02*
X477212Y167377D01*
X476445Y166935D01*
X475819Y166308D01*
X475376Y165542D01*
X475163Y164744D01*
X478009D01*
Y167591D01*
D02*
G37*
G36*
X85866Y172780D02*
X83701D01*
X82559Y172668D01*
X81462Y172335D01*
X80450Y171794D01*
X79563Y171066D01*
X78836Y170180D01*
X78295Y169168D01*
X77962Y168071D01*
X77850Y166929D01*
X77962Y165788D01*
X78295Y164690D01*
X78836Y163679D01*
X79563Y162792D01*
X80450Y162064D01*
X81462Y161523D01*
X82559Y161191D01*
X83701Y161078D01*
X85866D01*
X87008Y161191D01*
X88105Y161523D01*
X89117Y162064D01*
X90003Y162792D01*
X90731Y163679D01*
X91272Y164690D01*
X91605Y165788D01*
X91717Y166929D01*
X91605Y168071D01*
X91272Y169168D01*
X90731Y170180D01*
X90003Y171066D01*
X89117Y171794D01*
X88105Y172335D01*
X87008Y172668D01*
X85866Y172780D01*
D02*
G37*
G36*
X32835D02*
X30669D01*
X29528Y172668D01*
X28430Y172335D01*
X27419Y171794D01*
X26532Y171066D01*
X25804Y170180D01*
X25264Y169168D01*
X24931Y168071D01*
X24818Y166929D01*
X24931Y165788D01*
X25264Y164690D01*
X25804Y163679D01*
X26532Y162792D01*
X27419Y162064D01*
X28430Y161523D01*
X29528Y161191D01*
X30669Y161078D01*
X32835D01*
X33976Y161191D01*
X35074Y161523D01*
X36085Y162064D01*
X36972Y162792D01*
X37700Y163679D01*
X38240Y164690D01*
X38573Y165788D01*
X38686Y166929D01*
X38573Y168071D01*
X38240Y169168D01*
X37700Y170180D01*
X36972Y171066D01*
X36085Y171794D01*
X35074Y172335D01*
X33976Y172668D01*
X32835Y172780D01*
D02*
G37*
G36*
X481856Y163744D02*
X479009D01*
Y160897D01*
X479807Y161111D01*
X480574Y161554D01*
X481200Y162180D01*
X481642Y162946D01*
X481856Y163744D01*
D02*
G37*
G36*
X478009D02*
X475163D01*
X475376Y162946D01*
X475819Y162180D01*
X476445Y161554D01*
X477212Y161111D01*
X478009Y160897D01*
Y163744D01*
D02*
G37*
G36*
X462186Y167606D02*
X455462D01*
Y160882D01*
X462186D01*
Y167606D01*
D02*
G37*
G36*
X409268Y169504D02*
X399394D01*
Y159630D01*
X409268D01*
Y169504D01*
D02*
G37*
G36*
X389189Y164067D02*
X384752D01*
Y159630D01*
X384902D01*
X386158Y159966D01*
X387283Y160616D01*
X388203Y161536D01*
X388853Y162661D01*
X389189Y163917D01*
Y164067D01*
D02*
G37*
G36*
X383752D02*
X379315D01*
Y163917D01*
X379651Y162661D01*
X380301Y161536D01*
X381221Y160616D01*
X382346Y159966D01*
X383602Y159630D01*
X383752D01*
Y164067D01*
D02*
G37*
G36*
X354981Y169504D02*
X353681D01*
X352425Y169167D01*
X351299Y168517D01*
X350380Y167598D01*
X349730Y166472D01*
X349394Y165217D01*
Y163917D01*
X349730Y162661D01*
X350380Y161536D01*
X351299Y160616D01*
X352425Y159966D01*
X353681Y159630D01*
X354981D01*
X356236Y159966D01*
X357362Y160616D01*
X358281Y161536D01*
X358931Y162661D01*
X359268Y163917D01*
Y165217D01*
X358931Y166472D01*
X358281Y167598D01*
X357362Y168517D01*
X356236Y169167D01*
X354981Y169504D01*
D02*
G37*
G36*
X178953Y180134D02*
X153331D01*
Y154512D01*
X178953D01*
Y180134D01*
D02*
G37*
G36*
X138804D02*
X136787D01*
X134795Y179818D01*
X132878Y179195D01*
X131081Y178280D01*
X129449Y177094D01*
X128024Y175669D01*
X126838Y174037D01*
X125923Y172241D01*
X125300Y170323D01*
X124984Y168331D01*
Y166315D01*
X125300Y164323D01*
X125923Y162405D01*
X126838Y160608D01*
X128024Y158977D01*
X129449Y157551D01*
X131081Y156366D01*
X132878Y155450D01*
X134795Y154827D01*
X136787Y154512D01*
X138804D01*
X140795Y154827D01*
X142713Y155450D01*
X144510Y156366D01*
X146141Y157551D01*
X147567Y158977D01*
X148752Y160608D01*
X149668Y162405D01*
X150291Y164323D01*
X150606Y166315D01*
Y168331D01*
X150291Y170323D01*
X149668Y172241D01*
X148752Y174037D01*
X147567Y175669D01*
X146141Y177094D01*
X144510Y178280D01*
X142713Y179195D01*
X140795Y179818D01*
X138804Y180134D01*
D02*
G37*
G36*
X85866Y159394D02*
X83701D01*
X82559Y159282D01*
X81462Y158949D01*
X80450Y158408D01*
X79563Y157681D01*
X78836Y156794D01*
X78295Y155782D01*
X77962Y154685D01*
X77850Y153543D01*
X77962Y152402D01*
X78295Y151304D01*
X78836Y150293D01*
X79563Y149406D01*
X80450Y148678D01*
X81462Y148138D01*
X82559Y147805D01*
X83701Y147692D01*
X85866D01*
X87008Y147805D01*
X88105Y148138D01*
X89117Y148678D01*
X90003Y149406D01*
X90731Y150293D01*
X91272Y151304D01*
X91605Y152402D01*
X91717Y153543D01*
X91605Y154685D01*
X91272Y155782D01*
X90731Y156794D01*
X90003Y157681D01*
X89117Y158408D01*
X88105Y158949D01*
X87008Y159282D01*
X85866Y159394D01*
D02*
G37*
G36*
X32835D02*
X30669D01*
X29528Y159282D01*
X28430Y158949D01*
X27419Y158408D01*
X26532Y157681D01*
X25804Y156794D01*
X25264Y155782D01*
X24931Y154685D01*
X24818Y153543D01*
X24931Y152402D01*
X25264Y151304D01*
X25804Y150293D01*
X26532Y149406D01*
X27419Y148678D01*
X28430Y148138D01*
X29528Y147805D01*
X30669Y147692D01*
X32835D01*
X33976Y147805D01*
X35074Y148138D01*
X36085Y148678D01*
X36972Y149406D01*
X37700Y150293D01*
X38240Y151304D01*
X38573Y152402D01*
X38686Y153543D01*
X38573Y154685D01*
X38240Y155782D01*
X37700Y156794D01*
X36972Y157681D01*
X36085Y158408D01*
X35074Y158949D01*
X33976Y159282D01*
X32835Y159394D01*
D02*
G37*
G36*
X85866Y128686D02*
X83701D01*
X82559Y128573D01*
X81462Y128240D01*
X80450Y127700D01*
X79563Y126972D01*
X78836Y126085D01*
X78295Y125074D01*
X77962Y123976D01*
X77850Y122835D01*
X77962Y121693D01*
X78295Y120596D01*
X78836Y119584D01*
X79563Y118697D01*
X80450Y117970D01*
X81462Y117429D01*
X82559Y117096D01*
X83701Y116984D01*
X85866D01*
X87008Y117096D01*
X88105Y117429D01*
X89117Y117970D01*
X90003Y118697D01*
X90731Y119584D01*
X91272Y120596D01*
X91605Y121693D01*
X91717Y122835D01*
X91605Y123976D01*
X91272Y125074D01*
X90731Y126085D01*
X90003Y126972D01*
X89117Y127700D01*
X88105Y128240D01*
X87008Y128573D01*
X85866Y128686D01*
D02*
G37*
G36*
X32835D02*
X30669D01*
X29528Y128573D01*
X28430Y128240D01*
X27419Y127700D01*
X26532Y126972D01*
X25804Y126085D01*
X25264Y125074D01*
X24931Y123976D01*
X24818Y122835D01*
X24931Y121693D01*
X25264Y120596D01*
X25804Y119584D01*
X26532Y118697D01*
X27419Y117970D01*
X28430Y117429D01*
X29528Y117096D01*
X30669Y116984D01*
X32835D01*
X33976Y117096D01*
X35074Y117429D01*
X36085Y117970D01*
X36972Y118697D01*
X37700Y119584D01*
X38240Y120596D01*
X38573Y121693D01*
X38686Y122835D01*
X38573Y123976D01*
X38240Y125074D01*
X37700Y126085D01*
X36972Y126972D01*
X36085Y127700D01*
X35074Y128240D01*
X33976Y128573D01*
X32835Y128686D01*
D02*
G37*
G36*
X178953Y135827D02*
X153331D01*
Y110205D01*
X178953D01*
Y135827D01*
D02*
G37*
G36*
X138804D02*
X136787D01*
X134795Y135511D01*
X132878Y134888D01*
X131081Y133973D01*
X129449Y132787D01*
X128024Y131362D01*
X126838Y129730D01*
X125923Y127934D01*
X125300Y126016D01*
X124984Y124024D01*
Y122008D01*
X125300Y120016D01*
X125923Y118098D01*
X126838Y116301D01*
X128024Y114670D01*
X129449Y113244D01*
X131081Y112059D01*
X132878Y111143D01*
X134795Y110520D01*
X136787Y110205D01*
X138804D01*
X140795Y110520D01*
X142713Y111143D01*
X144510Y112059D01*
X146141Y113244D01*
X147567Y114670D01*
X148752Y116301D01*
X149668Y118098D01*
X150291Y120016D01*
X150606Y122008D01*
Y124024D01*
X150291Y126016D01*
X149668Y127934D01*
X148752Y129730D01*
X147567Y131362D01*
X146141Y132787D01*
X144510Y133973D01*
X142713Y134888D01*
X140795Y135511D01*
X138804Y135827D01*
D02*
G37*
G36*
X85866Y115300D02*
X83701D01*
X82559Y115187D01*
X81462Y114854D01*
X80450Y114314D01*
X79563Y113586D01*
X78836Y112699D01*
X78295Y111688D01*
X77962Y110590D01*
X77850Y109449D01*
X77962Y108307D01*
X78295Y107210D01*
X78836Y106198D01*
X79563Y105312D01*
X80450Y104584D01*
X81462Y104043D01*
X82559Y103710D01*
X83701Y103598D01*
X85866D01*
X87008Y103710D01*
X88105Y104043D01*
X89117Y104584D01*
X90003Y105312D01*
X90731Y106198D01*
X91272Y107210D01*
X91605Y108307D01*
X91717Y109449D01*
X91605Y110590D01*
X91272Y111688D01*
X90731Y112699D01*
X90003Y113586D01*
X89117Y114314D01*
X88105Y114854D01*
X87008Y115187D01*
X85866Y115300D01*
D02*
G37*
G36*
X32835D02*
X30669D01*
X29528Y115187D01*
X28430Y114854D01*
X27419Y114314D01*
X26532Y113586D01*
X25804Y112699D01*
X25264Y111688D01*
X24931Y110590D01*
X24818Y109449D01*
X24931Y108307D01*
X25264Y107210D01*
X25804Y106198D01*
X26532Y105312D01*
X27419Y104584D01*
X28430Y104043D01*
X29528Y103710D01*
X30669Y103598D01*
X32835D01*
X33976Y103710D01*
X35074Y104043D01*
X36085Y104584D01*
X36972Y105312D01*
X37700Y106198D01*
X38240Y107210D01*
X38573Y108307D01*
X38686Y109449D01*
X38573Y110590D01*
X38240Y111688D01*
X37700Y112699D01*
X36972Y113586D01*
X36085Y114314D01*
X35074Y114854D01*
X33976Y115187D01*
X32835Y115300D01*
D02*
G37*
G36*
X578508Y108368D02*
X577079D01*
X575698Y107998D01*
X574460Y107283D01*
X573449Y106272D01*
X572734Y105034D01*
X572365Y103654D01*
Y102224D01*
X572734Y100843D01*
X573449Y99605D01*
X574460Y98594D01*
X575698Y97880D01*
X577079Y97510D01*
X578508D01*
X579889Y97880D01*
X581127Y98594D01*
X582138Y99605D01*
X582853Y100843D01*
X583223Y102224D01*
Y103654D01*
X582853Y105034D01*
X582138Y106272D01*
X581127Y107283D01*
X579889Y107998D01*
X578508Y108368D01*
D02*
G37*
G36*
X299477Y106623D02*
X298048D01*
X296667Y106253D01*
X295429Y105538D01*
X294418Y104527D01*
X293703Y103289D01*
X293333Y101908D01*
Y100479D01*
X293703Y99098D01*
X294418Y97860D01*
X295429Y96849D01*
X296667Y96135D01*
X298048Y95764D01*
X299477D01*
X300858Y96135D01*
X302096Y96849D01*
X303107Y97860D01*
X303822Y99098D01*
X304192Y100479D01*
Y101908D01*
X303822Y103289D01*
X303107Y104527D01*
X302096Y105538D01*
X300858Y106253D01*
X299477Y106623D01*
D02*
G37*
G36*
X659661Y120079D02*
X634039D01*
Y94457D01*
X659661D01*
Y120079D01*
D02*
G37*
G36*
X619512D02*
X617496D01*
X615504Y119763D01*
X613586Y119140D01*
X611790Y118225D01*
X610158Y117039D01*
X608732Y115613D01*
X607547Y113982D01*
X606632Y112185D01*
X606008Y110268D01*
X605693Y108276D01*
Y106260D01*
X606008Y104268D01*
X606632Y102350D01*
X607547Y100553D01*
X608732Y98922D01*
X610158Y97496D01*
X611790Y96311D01*
X613586Y95395D01*
X615504Y94772D01*
X617496Y94457D01*
X619512D01*
X621504Y94772D01*
X623422Y95395D01*
X625218Y96311D01*
X626850Y97496D01*
X628276Y98922D01*
X629461Y100553D01*
X630376Y102350D01*
X631000Y104268D01*
X631315Y106260D01*
Y108276D01*
X631000Y110268D01*
X630376Y112185D01*
X629461Y113982D01*
X628276Y115613D01*
X626850Y117039D01*
X625218Y118225D01*
X623422Y119140D01*
X621504Y119763D01*
X619512Y120079D01*
D02*
G37*
G36*
X379740D02*
X354118D01*
Y94457D01*
X379740D01*
Y120079D01*
D02*
G37*
G36*
X339591D02*
X337574D01*
X335583Y119763D01*
X333665Y119140D01*
X331868Y118225D01*
X330237Y117039D01*
X328811Y115613D01*
X327626Y113982D01*
X326710Y112185D01*
X326087Y110268D01*
X325772Y108276D01*
Y106260D01*
X326087Y104268D01*
X326710Y102350D01*
X327626Y100553D01*
X328811Y98922D01*
X330237Y97496D01*
X331868Y96311D01*
X333665Y95395D01*
X335583Y94772D01*
X337574Y94457D01*
X339591D01*
X341583Y94772D01*
X343500Y95395D01*
X345297Y96311D01*
X346929Y97496D01*
X348354Y98922D01*
X349540Y100553D01*
X350455Y102350D01*
X351078Y104268D01*
X351394Y106260D01*
Y108276D01*
X351078Y110268D01*
X350455Y112185D01*
X349540Y113982D01*
X348354Y115613D01*
X346929Y117039D01*
X345297Y118225D01*
X343500Y119140D01*
X341583Y119763D01*
X339591Y120079D01*
D02*
G37*
G36*
X472370Y82329D02*
X471563D01*
X470783Y82120D01*
X470083Y81716D01*
X469512Y81145D01*
X469108Y80446D01*
X468899Y79666D01*
Y78858D01*
X469108Y78078D01*
X469512Y77379D01*
X470083Y76808D01*
X470783Y76404D01*
X471563Y76195D01*
X472370D01*
X473150Y76404D01*
X473849Y76808D01*
X474420Y77379D01*
X474824Y78078D01*
X475033Y78858D01*
Y79666D01*
X474824Y80446D01*
X474420Y81145D01*
X473849Y81716D01*
X473150Y82120D01*
X472370Y82329D01*
D02*
G37*
G36*
X465191D02*
X459057D01*
Y76195D01*
X465191D01*
Y82329D01*
D02*
G37*
G36*
X503223Y78368D02*
X498294D01*
Y73439D01*
X503223D01*
Y78368D01*
D02*
G37*
G36*
X497294D02*
X492365D01*
Y73439D01*
X497294D01*
Y78368D01*
D02*
G37*
G36*
X224192Y76623D02*
X219263D01*
Y71694D01*
X224192D01*
Y76623D01*
D02*
G37*
G36*
X218263D02*
X213333D01*
Y71694D01*
X218263D01*
Y76623D01*
D02*
G37*
G36*
X422047Y81481D02*
X420906Y81368D01*
X419808Y81036D01*
X418797Y80495D01*
X417910Y79767D01*
X417182Y78881D01*
X416642Y77869D01*
X416309Y76771D01*
X416196Y75630D01*
Y73465D01*
X416309Y72323D01*
X416642Y71226D01*
X417182Y70214D01*
X417910Y69327D01*
X418797Y68600D01*
X419808Y68059D01*
X420906Y67726D01*
X422047Y67614D01*
X423189Y67726D01*
X424286Y68059D01*
X425298Y68600D01*
X426185Y69327D01*
X426912Y70214D01*
X427453Y71226D01*
X427786Y72323D01*
X427898Y73465D01*
Y75630D01*
X427786Y76771D01*
X427453Y77869D01*
X426912Y78881D01*
X426185Y79767D01*
X425298Y80495D01*
X424286Y81036D01*
X423189Y81368D01*
X422047Y81481D01*
D02*
G37*
G36*
X408661D02*
X407520Y81368D01*
X406422Y81036D01*
X405411Y80495D01*
X404524Y79767D01*
X403796Y78881D01*
X403256Y77869D01*
X402923Y76771D01*
X402810Y75630D01*
Y73465D01*
X402923Y72323D01*
X403256Y71226D01*
X403796Y70214D01*
X404524Y69327D01*
X405411Y68600D01*
X406422Y68059D01*
X407520Y67726D01*
X408661Y67614D01*
X409803Y67726D01*
X410900Y68059D01*
X411912Y68600D01*
X412799Y69327D01*
X413526Y70214D01*
X414067Y71226D01*
X414400Y72323D01*
X414512Y73465D01*
Y75630D01*
X414400Y76771D01*
X414067Y77869D01*
X413526Y78881D01*
X412799Y79767D01*
X411912Y80495D01*
X410900Y81036D01*
X409803Y81368D01*
X408661Y81481D01*
D02*
G37*
G36*
X503223Y72439D02*
X498294D01*
Y67510D01*
X503223D01*
Y72439D01*
D02*
G37*
G36*
X497294D02*
X492365D01*
Y67510D01*
X497294D01*
Y72439D01*
D02*
G37*
G36*
X152362Y81087D02*
X151221Y80975D01*
X150123Y80642D01*
X149112Y80101D01*
X148225Y79374D01*
X147497Y78487D01*
X146957Y77475D01*
X146624Y76378D01*
X146511Y75236D01*
Y73071D01*
X146624Y71929D01*
X146957Y70832D01*
X147497Y69820D01*
X148225Y68934D01*
X149112Y68206D01*
X150123Y67665D01*
X151221Y67332D01*
X152362Y67220D01*
X153504Y67332D01*
X154601Y67665D01*
X155613Y68206D01*
X156500Y68934D01*
X157227Y69820D01*
X157768Y70832D01*
X158101Y71929D01*
X158213Y73071D01*
Y75236D01*
X158101Y76378D01*
X157768Y77475D01*
X157227Y78487D01*
X156500Y79374D01*
X155613Y80101D01*
X154601Y80642D01*
X153504Y80975D01*
X152362Y81087D01*
D02*
G37*
G36*
X138976D02*
X137835Y80975D01*
X136737Y80642D01*
X135726Y80101D01*
X134839Y79374D01*
X134111Y78487D01*
X133571Y77475D01*
X133238Y76378D01*
X133125Y75236D01*
Y73071D01*
X133238Y71929D01*
X133571Y70832D01*
X134111Y69820D01*
X134839Y68934D01*
X135726Y68206D01*
X136737Y67665D01*
X137835Y67332D01*
X138976Y67220D01*
X140118Y67332D01*
X141216Y67665D01*
X142227Y68206D01*
X143114Y68934D01*
X143841Y69820D01*
X144382Y70832D01*
X144715Y71929D01*
X144827Y73071D01*
Y75236D01*
X144715Y76378D01*
X144382Y77475D01*
X143841Y78487D01*
X143114Y79374D01*
X142227Y80101D01*
X141216Y80642D01*
X140118Y80975D01*
X138976Y81087D01*
D02*
G37*
G36*
X224192Y70694D02*
X219263D01*
Y65764D01*
X224192D01*
Y70694D01*
D02*
G37*
G36*
X218263D02*
X213333D01*
Y65764D01*
X218263D01*
Y70694D01*
D02*
G37*
G36*
X59962Y71861D02*
X59046D01*
X58162Y71624D01*
X57369Y71167D01*
X56722Y70520D01*
X56265Y69727D01*
X56028Y68843D01*
Y67927D01*
X56265Y67043D01*
X56722Y66250D01*
X57369Y65603D01*
X58162Y65146D01*
X59046Y64909D01*
X59962D01*
X60846Y65146D01*
X61638Y65603D01*
X62286Y66250D01*
X62743Y67043D01*
X62980Y67927D01*
Y68843D01*
X62743Y69727D01*
X62286Y70520D01*
X61638Y71167D01*
X60846Y71624D01*
X59962Y71861D01*
D02*
G37*
G36*
X32403D02*
X31487D01*
X30603Y71624D01*
X29810Y71167D01*
X29163Y70520D01*
X28705Y69727D01*
X28468Y68843D01*
Y67927D01*
X28705Y67043D01*
X29163Y66250D01*
X29810Y65603D01*
X30603Y65146D01*
X31487Y64909D01*
X32403D01*
X33287Y65146D01*
X34080Y65603D01*
X34727Y66250D01*
X35184Y67043D01*
X35421Y67927D01*
Y68843D01*
X35184Y69727D01*
X34727Y70520D01*
X34080Y71167D01*
X33287Y71624D01*
X32403Y71861D01*
D02*
G37*
G36*
X107179Y71211D02*
X106290D01*
X105431Y70980D01*
X104660Y70536D01*
X104031Y69907D01*
X103587Y69137D01*
X103357Y68277D01*
Y67388D01*
X103587Y66529D01*
X104031Y65759D01*
X104660Y65130D01*
X105431Y64685D01*
X106290Y64455D01*
X107179D01*
X108038Y64685D01*
X108809Y65130D01*
X109438Y65759D01*
X109882Y66529D01*
X110112Y67388D01*
Y68277D01*
X109882Y69137D01*
X109438Y69907D01*
X108809Y70536D01*
X108038Y70980D01*
X107179Y71211D01*
D02*
G37*
G36*
X100112D02*
X93357D01*
Y64455D01*
X100112D01*
Y71211D01*
D02*
G37*
G36*
X192923Y68815D02*
X192116D01*
X191336Y68606D01*
X190637Y68202D01*
X190066Y67631D01*
X189662Y66932D01*
X189453Y66152D01*
Y65344D01*
X189662Y64564D01*
X190066Y63865D01*
X190637Y63294D01*
X191336Y62890D01*
X192116Y62681D01*
X192923D01*
X193703Y62890D01*
X194403Y63294D01*
X194974Y63865D01*
X195378Y64564D01*
X195587Y65344D01*
Y66152D01*
X195378Y66932D01*
X194974Y67631D01*
X194403Y68202D01*
X193703Y68606D01*
X192923Y68815D01*
D02*
G37*
G36*
X185744D02*
X179610D01*
Y62681D01*
X185744D01*
Y68815D01*
D02*
G37*
G36*
X659465Y82677D02*
X633843D01*
Y57055D01*
X659465D01*
Y82677D01*
D02*
G37*
G36*
X619315D02*
X617299D01*
X615307Y82362D01*
X613389Y81739D01*
X611593Y80823D01*
X609961Y79638D01*
X608535Y78212D01*
X607350Y76581D01*
X606435Y74784D01*
X605812Y72866D01*
X605496Y70874D01*
Y68858D01*
X605812Y66866D01*
X606435Y64948D01*
X607350Y63152D01*
X608535Y61520D01*
X609961Y60094D01*
X611593Y58909D01*
X613389Y57994D01*
X615307Y57371D01*
X617299Y57055D01*
X619315D01*
X621307Y57371D01*
X623225Y57994D01*
X625022Y58909D01*
X626653Y60094D01*
X628079Y61520D01*
X629264Y63152D01*
X630180Y64948D01*
X630803Y66866D01*
X631118Y68858D01*
Y70874D01*
X630803Y72866D01*
X630180Y74784D01*
X629264Y76581D01*
X628079Y78212D01*
X626653Y79638D01*
X625022Y80823D01*
X623225Y81739D01*
X621307Y82362D01*
X619315Y82677D01*
D02*
G37*
G36*
X379346D02*
X353724D01*
Y57055D01*
X379346D01*
Y82677D01*
D02*
G37*
G36*
X339197D02*
X337181D01*
X335189Y82362D01*
X333271Y81739D01*
X331474Y80823D01*
X329843Y79638D01*
X328417Y78212D01*
X327232Y76581D01*
X326316Y74784D01*
X325693Y72866D01*
X325378Y70874D01*
Y68858D01*
X325693Y66866D01*
X326316Y64948D01*
X327232Y63152D01*
X328417Y61520D01*
X329843Y60094D01*
X331474Y58909D01*
X333271Y57994D01*
X335189Y57371D01*
X337181Y57055D01*
X339197D01*
X341189Y57371D01*
X343107Y57994D01*
X344903Y58909D01*
X346535Y60094D01*
X347961Y61520D01*
X349146Y63152D01*
X350061Y64948D01*
X350684Y66866D01*
X351000Y68858D01*
Y70874D01*
X350684Y72866D01*
X350061Y74784D01*
X349146Y76581D01*
X347961Y78212D01*
X346535Y79638D01*
X344903Y80823D01*
X343107Y81739D01*
X341189Y82362D01*
X339197Y82677D01*
D02*
G37*
G36*
X498508Y58368D02*
X497079D01*
X495698Y57998D01*
X494460Y57283D01*
X493449Y56272D01*
X492734Y55034D01*
X492365Y53654D01*
Y52224D01*
X492734Y50843D01*
X493449Y49605D01*
X494460Y48594D01*
X495698Y47880D01*
X497079Y47510D01*
X498508D01*
X499889Y47880D01*
X501127Y48594D01*
X502138Y49605D01*
X502853Y50843D01*
X503223Y52224D01*
Y53654D01*
X502853Y55034D01*
X502138Y56272D01*
X501127Y57283D01*
X499889Y57998D01*
X498508Y58368D01*
D02*
G37*
G36*
X219477Y56623D02*
X218048D01*
X216667Y56253D01*
X215429Y55538D01*
X214418Y54527D01*
X213703Y53289D01*
X213333Y51908D01*
Y50479D01*
X213703Y49098D01*
X214418Y47860D01*
X215429Y46849D01*
X216667Y46134D01*
X218048Y45764D01*
X219477D01*
X220858Y46134D01*
X222096Y46849D01*
X223107Y47860D01*
X223822Y49098D01*
X224192Y50479D01*
Y51908D01*
X223822Y53289D01*
X223107Y54527D01*
X222096Y55538D01*
X220858Y56253D01*
X219477Y56623D01*
D02*
G37*
G36*
X477900Y44456D02*
Y41813D01*
X480543D01*
X480350Y42535D01*
X479933Y43257D01*
X479344Y43846D01*
X478622Y44263D01*
X477900Y44456D01*
D02*
G37*
G36*
X476900D02*
X476178Y44263D01*
X475456Y43846D01*
X474867Y43257D01*
X474450Y42535D01*
X474257Y41813D01*
X476900D01*
Y44456D01*
D02*
G37*
G36*
X197585Y40913D02*
Y38270D01*
X200228D01*
X200035Y38991D01*
X199618Y39713D01*
X199029Y40303D01*
X198307Y40719D01*
X197585Y40913D01*
D02*
G37*
G36*
X196585D02*
X195863Y40719D01*
X195141Y40303D01*
X194552Y39713D01*
X194135Y38991D01*
X193942Y38270D01*
X196585D01*
Y40913D01*
D02*
G37*
G36*
X480543Y40813D02*
X477900D01*
Y38170D01*
X478622Y38363D01*
X479344Y38780D01*
X479933Y39369D01*
X480350Y40091D01*
X480543Y40813D01*
D02*
G37*
G36*
X476900D02*
X474257D01*
X474450Y40091D01*
X474867Y39369D01*
X475456Y38780D01*
X476178Y38363D01*
X476900Y38170D01*
Y40813D01*
D02*
G37*
G36*
X460880Y44478D02*
X454550D01*
Y38148D01*
X460880D01*
Y44478D01*
D02*
G37*
G36*
X200228Y37270D02*
X197585D01*
Y34627D01*
X198307Y34820D01*
X199029Y35237D01*
X199618Y35826D01*
X200035Y36548D01*
X200228Y37270D01*
D02*
G37*
G36*
X196585D02*
X193942D01*
X194135Y36548D01*
X194552Y35826D01*
X195141Y35237D01*
X195863Y34820D01*
X196585Y34627D01*
Y37270D01*
D02*
G37*
G36*
X180565Y40935D02*
X174235D01*
Y34604D01*
X180565D01*
Y40935D01*
D02*
G37*
G36*
X578508Y28368D02*
X577079D01*
X575698Y27998D01*
X574460Y27283D01*
X573449Y26272D01*
X572734Y25034D01*
X572365Y23653D01*
Y22224D01*
X572734Y20843D01*
X573449Y19605D01*
X574460Y18594D01*
X575698Y17880D01*
X577079Y17510D01*
X578508D01*
X579889Y17880D01*
X581127Y18594D01*
X582138Y19605D01*
X582853Y20843D01*
X583223Y22224D01*
Y23653D01*
X582853Y25034D01*
X582138Y26272D01*
X581127Y27283D01*
X579889Y27998D01*
X578508Y28368D01*
D02*
G37*
G36*
X659268Y43126D02*
X633646D01*
Y17504D01*
X659268D01*
Y43126D01*
D02*
G37*
G36*
X619118D02*
X617102D01*
X615110Y42810D01*
X613193Y42187D01*
X611396Y41272D01*
X609764Y40087D01*
X608338Y38661D01*
X607153Y37029D01*
X606238Y35233D01*
X605615Y33315D01*
X605299Y31323D01*
Y29307D01*
X605615Y27315D01*
X606238Y25397D01*
X607153Y23600D01*
X608338Y21969D01*
X609764Y20543D01*
X611396Y19358D01*
X613193Y18442D01*
X615110Y17819D01*
X617102Y17504D01*
X619118D01*
X621110Y17819D01*
X623028Y18442D01*
X624825Y19358D01*
X626456Y20543D01*
X627882Y21969D01*
X629067Y23600D01*
X629983Y25397D01*
X630606Y27315D01*
X630921Y29307D01*
Y31323D01*
X630606Y33315D01*
X629983Y35233D01*
X629067Y37029D01*
X627882Y38661D01*
X626456Y40087D01*
X624825Y41272D01*
X623028Y42187D01*
X621110Y42810D01*
X619118Y43126D01*
D02*
G37*
G36*
X379740D02*
X354118D01*
Y17504D01*
X379740D01*
Y43126D01*
D02*
G37*
G36*
X339591D02*
X337574D01*
X335583Y42810D01*
X333665Y42187D01*
X331868Y41272D01*
X330237Y40087D01*
X328811Y38661D01*
X327626Y37029D01*
X326710Y35233D01*
X326087Y33315D01*
X325772Y31323D01*
Y29307D01*
X326087Y27315D01*
X326710Y25397D01*
X327626Y23600D01*
X328811Y21969D01*
X330237Y20543D01*
X331868Y19358D01*
X333665Y18442D01*
X335583Y17819D01*
X337574Y17504D01*
X339591D01*
X341583Y17819D01*
X343500Y18442D01*
X345297Y19358D01*
X346929Y20543D01*
X348354Y21969D01*
X349540Y23600D01*
X350455Y25397D01*
X351078Y27315D01*
X351394Y29307D01*
Y31323D01*
X351078Y33315D01*
X350455Y35233D01*
X349540Y37029D01*
X348354Y38661D01*
X346929Y40087D01*
X345297Y41272D01*
X343500Y42187D01*
X341583Y42810D01*
X339591Y43126D01*
D02*
G37*
G36*
X299477Y26623D02*
X298048D01*
X296667Y26253D01*
X295429Y25538D01*
X294418Y24527D01*
X293703Y23289D01*
X293333Y21908D01*
Y20479D01*
X293703Y19098D01*
X294418Y17860D01*
X295429Y16849D01*
X296667Y16135D01*
X298048Y15765D01*
X299477D01*
X300858Y16135D01*
X302096Y16849D01*
X303107Y17860D01*
X303822Y19098D01*
X304192Y20479D01*
Y21908D01*
X303822Y23289D01*
X303107Y24527D01*
X302096Y25538D01*
X300858Y26253D01*
X299477Y26623D01*
D02*
G37*
G36*
X422047Y28449D02*
X420906Y28337D01*
X419808Y28004D01*
X418797Y27463D01*
X417910Y26736D01*
X417182Y25849D01*
X416642Y24837D01*
X416309Y23740D01*
X416196Y22598D01*
Y20433D01*
X416309Y19292D01*
X416642Y18194D01*
X417182Y17182D01*
X417910Y16296D01*
X418797Y15568D01*
X419808Y15027D01*
X420906Y14694D01*
X422047Y14582D01*
X423189Y14694D01*
X424286Y15027D01*
X425298Y15568D01*
X426185Y16296D01*
X426912Y17182D01*
X427453Y18194D01*
X427786Y19292D01*
X427898Y20433D01*
Y22598D01*
X427786Y23740D01*
X427453Y24837D01*
X426912Y25849D01*
X426185Y26736D01*
X425298Y27463D01*
X424286Y28004D01*
X423189Y28337D01*
X422047Y28449D01*
D02*
G37*
G36*
X408661D02*
X407520Y28337D01*
X406422Y28004D01*
X405411Y27463D01*
X404524Y26736D01*
X403796Y25849D01*
X403256Y24837D01*
X402923Y23740D01*
X402810Y22598D01*
Y20433D01*
X402923Y19292D01*
X403256Y18194D01*
X403796Y17182D01*
X404524Y16296D01*
X405411Y15568D01*
X406422Y15027D01*
X407520Y14694D01*
X408661Y14582D01*
X409803Y14694D01*
X410900Y15027D01*
X411912Y15568D01*
X412799Y16296D01*
X413526Y17182D01*
X414067Y18194D01*
X414400Y19292D01*
X414512Y20433D01*
Y22598D01*
X414400Y23740D01*
X414067Y24837D01*
X413526Y25849D01*
X412799Y26736D01*
X411912Y27463D01*
X410900Y28004D01*
X409803Y28337D01*
X408661Y28449D01*
D02*
G37*
G36*
X152362Y28056D02*
X151221Y27943D01*
X150123Y27610D01*
X149112Y27070D01*
X148225Y26342D01*
X147497Y25455D01*
X146957Y24444D01*
X146624Y23346D01*
X146511Y22205D01*
Y20039D01*
X146624Y18898D01*
X146957Y17800D01*
X147497Y16789D01*
X148225Y15902D01*
X149112Y15174D01*
X150123Y14634D01*
X151221Y14301D01*
X152362Y14188D01*
X153504Y14301D01*
X154601Y14634D01*
X155613Y15174D01*
X156500Y15902D01*
X157227Y16789D01*
X157768Y17800D01*
X158101Y18898D01*
X158213Y20039D01*
Y22205D01*
X158101Y23346D01*
X157768Y24444D01*
X157227Y25455D01*
X156500Y26342D01*
X155613Y27070D01*
X154601Y27610D01*
X153504Y27943D01*
X152362Y28056D01*
D02*
G37*
G36*
X138976D02*
X137835Y27943D01*
X136737Y27610D01*
X135726Y27070D01*
X134839Y26342D01*
X134111Y25455D01*
X133571Y24444D01*
X133238Y23346D01*
X133125Y22205D01*
Y20039D01*
X133238Y18898D01*
X133571Y17800D01*
X134111Y16789D01*
X134839Y15902D01*
X135726Y15174D01*
X136737Y14634D01*
X137835Y14301D01*
X138976Y14188D01*
X140118Y14301D01*
X141216Y14634D01*
X142227Y15174D01*
X143114Y15902D01*
X143841Y16789D01*
X144382Y17800D01*
X144715Y18898D01*
X144827Y20039D01*
Y22205D01*
X144715Y23346D01*
X144382Y24444D01*
X143841Y25455D01*
X143114Y26342D01*
X142227Y27070D01*
X141216Y27610D01*
X140118Y27943D01*
X138976Y28056D01*
D02*
G37*
G36*
X690236Y35685D02*
X687717D01*
X685230Y35291D01*
X682834Y34513D01*
X680590Y33369D01*
X678553Y31889D01*
X676772Y30108D01*
X675292Y28071D01*
X674149Y25827D01*
X673370Y23432D01*
X672976Y20944D01*
Y18426D01*
X673370Y15938D01*
X674149Y13543D01*
X675292Y11299D01*
X676772Y9262D01*
X678553Y7481D01*
X680590Y6001D01*
X682834Y4857D01*
X685230Y4079D01*
X687717Y3685D01*
X690236D01*
X692723Y4079D01*
X695118Y4857D01*
X697362Y6001D01*
X699400Y7481D01*
X701181Y9262D01*
X702661Y11299D01*
X703804Y13543D01*
X704582Y15938D01*
X704976Y18426D01*
Y20944D01*
X704582Y23432D01*
X703804Y25827D01*
X702661Y28071D01*
X701181Y30108D01*
X699400Y31889D01*
X697362Y33369D01*
X695118Y34513D01*
X692723Y35291D01*
X690236Y35685D01*
D02*
G37*
G36*
X20944D02*
X18426D01*
X15938Y35291D01*
X13543Y34513D01*
X11299Y33369D01*
X9262Y31889D01*
X7481Y30108D01*
X6001Y28071D01*
X4857Y25827D01*
X4079Y23432D01*
X3685Y20944D01*
Y18426D01*
X4079Y15938D01*
X4857Y13543D01*
X6001Y11299D01*
X7481Y9262D01*
X9262Y7481D01*
X11299Y6001D01*
X13543Y4857D01*
X15938Y4079D01*
X18426Y3685D01*
X20944D01*
X23432Y4079D01*
X25827Y4857D01*
X28071Y6001D01*
X30108Y7481D01*
X31889Y9262D01*
X33369Y11299D01*
X34513Y13543D01*
X35291Y15938D01*
X35685Y18426D01*
Y20944D01*
X35291Y23432D01*
X34513Y25827D01*
X33369Y28071D01*
X31889Y30108D01*
X30108Y31889D01*
X28071Y33369D01*
X25827Y34513D01*
X23432Y35291D01*
X20944Y35685D01*
D02*
G37*
%LPD*%
D11*
X366929Y30315D02*
X367504Y29740D01*
D46*
X475854Y201587D02*
X475967Y201700D01*
X484771D01*
X489370Y206299D01*
Y230315D01*
X484517Y235168D02*
X489370Y230315D01*
X609627Y234687D02*
X609724Y234591D01*
X528049Y234687D02*
X609627D01*
X527953Y234784D02*
X528049Y234687D01*
X470392Y235168D02*
X484517D01*
X472704Y323241D02*
X472817Y323354D01*
X486739D01*
X490158Y326772D01*
Y355118D01*
X487008Y358268D02*
X490158Y355118D01*
X526772Y357874D02*
X526799Y357846D01*
X467717Y358268D02*
X487008D01*
X608515Y357846D02*
X608542Y357819D01*
X526799Y357846D02*
X608515D01*
D47*
X64961Y421894D02*
D03*
Y496303D02*
D03*
D48*
X101969Y437642D02*
D03*
D49*
Y480555D02*
D03*
D50*
X338583Y30315D02*
D03*
X568716Y305118D02*
D03*
X203756Y492126D02*
D03*
X248606Y520866D02*
D03*
X402756Y509630D02*
D03*
X403150Y470260D02*
D03*
X404331Y427347D02*
D03*
X584252Y509630D02*
D03*
X568716Y181102D02*
D03*
X584646Y470260D02*
D03*
X584252Y427347D02*
D03*
X40732Y342913D02*
D03*
X87614Y313779D02*
D03*
X137795Y252150D02*
D03*
X138189Y210417D02*
D03*
X338583Y107268D02*
D03*
X137795Y167323D02*
D03*
X338189Y69866D02*
D03*
X137795Y123016D02*
D03*
X618504Y107268D02*
D03*
X618307Y69866D02*
D03*
X618110Y30315D02*
D03*
D51*
X366929D02*
D03*
X431102Y509630D02*
D03*
X431496Y470260D02*
D03*
X432677Y427347D02*
D03*
X612598Y509630D02*
D03*
X612992Y470260D02*
D03*
X612598Y427347D02*
D03*
X166142Y252150D02*
D03*
X166535Y210417D02*
D03*
X366929Y107268D02*
D03*
X166142Y167323D02*
D03*
X366535Y69866D02*
D03*
X166142Y123016D02*
D03*
X646850Y107268D02*
D03*
X646654Y69866D02*
D03*
X646457Y30315D02*
D03*
D52*
X59504Y68385D02*
D03*
X31945D02*
D03*
X661692Y463331D02*
D03*
Y490890D02*
D03*
X608542Y357819D02*
D03*
Y330260D02*
D03*
X609724Y234591D02*
D03*
Y207031D02*
D03*
D53*
X142126Y298819D02*
D03*
X318110Y185039D02*
D03*
X316929Y304331D02*
D03*
X225197Y445669D02*
D03*
D54*
X122441Y298819D02*
D03*
X298425Y185039D02*
D03*
X297244Y304331D02*
D03*
X205512Y445669D02*
D03*
D55*
X96734Y67833D02*
D03*
D56*
X106735D02*
D03*
X661533Y427124D02*
D03*
X608384Y294053D02*
D03*
X609171Y168462D02*
D03*
D57*
X152362Y74154D02*
D03*
Y21122D02*
D03*
X138976Y74154D02*
D03*
Y21122D02*
D03*
X239370Y185295D02*
D03*
Y238327D02*
D03*
X252756Y185295D02*
D03*
Y238327D02*
D03*
X251181Y349350D02*
D03*
Y296319D02*
D03*
X237795Y349350D02*
D03*
Y296319D02*
D03*
X526772Y357874D02*
D03*
Y304842D02*
D03*
X513386Y357874D02*
D03*
Y304842D02*
D03*
X166929Y531102D02*
D03*
Y478071D02*
D03*
X153543Y531102D02*
D03*
Y478071D02*
D03*
X514567Y181752D02*
D03*
Y234784D02*
D03*
X527953Y181752D02*
D03*
Y234784D02*
D03*
X408661Y21516D02*
D03*
Y74547D02*
D03*
X422047Y21516D02*
D03*
Y74547D02*
D03*
D58*
X537146Y498032D02*
D03*
X484114D02*
D03*
X537146Y511417D02*
D03*
X484114D02*
D03*
X354075Y498032D02*
D03*
X301043D02*
D03*
X354075Y511417D02*
D03*
X301043D02*
D03*
X300650Y428346D02*
D03*
X353681D02*
D03*
X300650Y414961D02*
D03*
X353681D02*
D03*
X484508Y470866D02*
D03*
X537539D02*
D03*
X484508Y457480D02*
D03*
X537539D02*
D03*
X484114Y428346D02*
D03*
X537146D02*
D03*
X484114Y414961D02*
D03*
X537146D02*
D03*
X41201Y394094D02*
D03*
X94232D02*
D03*
X41201Y380709D02*
D03*
X94232D02*
D03*
X84784Y238976D02*
D03*
X31752D02*
D03*
X84784Y252362D02*
D03*
X31752D02*
D03*
X84784Y196850D02*
D03*
X31752D02*
D03*
X84784Y210236D02*
D03*
X31752D02*
D03*
X84784Y153543D02*
D03*
X31752D02*
D03*
X84784Y166929D02*
D03*
X31752D02*
D03*
X84784Y109449D02*
D03*
X31752D02*
D03*
X84784Y122835D02*
D03*
X31752D02*
D03*
X353681Y457480D02*
D03*
X300650D02*
D03*
X353681Y470866D02*
D03*
X300650D02*
D03*
D59*
X317114Y348273D02*
D03*
X297429D02*
D03*
X318689Y232525D02*
D03*
X299004D02*
D03*
D60*
X218763Y71194D02*
D03*
X497794Y72939D02*
D03*
D61*
X218763Y51194D02*
D03*
X298763Y21194D02*
D03*
Y101194D02*
D03*
X577794Y102939D02*
D03*
Y22939D02*
D03*
X497794Y52939D02*
D03*
D62*
X353287Y286449D02*
D03*
Y366370D02*
D03*
X393445D02*
D03*
X433602D02*
D03*
X383209Y286449D02*
D03*
X384252Y164567D02*
D03*
X434646Y244488D02*
D03*
X394488D02*
D03*
X354331D02*
D03*
Y164567D02*
D03*
D63*
X403287Y286449D02*
D03*
X404331Y164567D02*
D03*
D64*
X475360Y286291D02*
D03*
X478509Y164244D02*
D03*
D65*
X455675Y286291D02*
D03*
X458824Y164244D02*
D03*
D66*
X472704Y323241D02*
D03*
X453019D02*
D03*
X456169Y201587D02*
D03*
X475854D02*
D03*
D67*
X462124Y79262D02*
D03*
X460549Y235168D02*
D03*
X457874Y358268D02*
D03*
X182677Y65748D02*
D03*
D68*
X471966Y79262D02*
D03*
X470392Y235168D02*
D03*
X467717Y358268D02*
D03*
X192520Y65748D02*
D03*
D69*
X477400Y41313D02*
D03*
X197085Y37770D02*
D03*
D70*
X457715Y41313D02*
D03*
X177400Y37770D02*
D03*
D71*
X661533Y437124D02*
D03*
X608384Y304053D02*
D03*
X609171Y178462D02*
D03*
D72*
X568716Y333465D02*
D03*
X203756Y520472D02*
D03*
X248606Y492520D02*
D03*
X568716Y209449D02*
D03*
X40732Y314567D02*
D03*
X87614Y342126D02*
D03*
D73*
X19685Y19685D02*
D03*
Y531496D02*
D03*
X688976Y19685D02*
D03*
Y531496D02*
D03*
M02*
