M48
;Layer_Color=9474304
;FILE_FORMAT=2:5
INCH,LZ
;TYPE=PLATED
T2F00S00C0.02756
T3F00S00C0.02953
T4F00S00C0.03150
T5F00S00C0.03307
T6F00S00C0.03346
T7F00S00C0.03400
T9F00S00C0.05118
T10F00S00C0.05906
T11F00S00C0.15354
T12F00S00C0.15748
T13F00S00C0.17717
%
T02
X0609171Y0168462
Y0178462
X0471966Y0079262
X0462124
X019252Y0065748
X0182677
X0106735Y0067833
X0096734
X0460549Y0235168
X0470392
X0467717Y0358268
X0457874
X0608384Y0304053
Y0294053
X0661533Y0427124
Y0437124
T03
X01774Y003777
X0197085
X0457715Y0041313
X04774
X0609724Y0207031
X0059504Y0068385
X0031945
X0609724Y0234591
X0608542Y033026
Y0357819
X0661692Y0463331
Y049089
T04
X0456169Y0201587
X0475854
X0472704Y0323241
X0453019
T05
X0299004Y0232525
X0318689
X0317114Y0348273
X0297429
T06
X0458824Y0164244
X0478509
X047536Y0286291
X0455675
T07
X0298425Y0185039
X031811
X0142126Y0298819
X0122441
X0297244Y0304331
X0316929
X0225197Y0445669
X0205512
T09
X0384252Y0164567
X0404331
X0354331
Y0244488
X0353287Y0286449
Y036637
X0393445
X0433602
X0403287Y0286449
X0383209
X0394488Y0244488
X0434646
T10
X0218763Y0051194
X0298763Y0021194
X0497794Y0052939
X0577794Y0022939
Y0102939
X0497794Y0072939
X0298763Y0101194
X0218763Y0071194
T11
X0101969Y0437642
Y0480555
T12
X0019685Y0019685
X0688976
X0019685Y0531496
X0688976
T13
X0338583Y0030315
X0366929
X061811
X0646457
X0646654Y0069866
X0618307
X0618504Y0107268
X064685
X0568716Y0181102
Y0209449
X0366929Y0107268
X0338583
X0338189Y0069866
X0366535
X0166142Y0123016
X0137795
Y0167323
X0166142
X0166535Y0210417
X0138189
X0040732Y0314567
Y0342913
X0087614Y0342126
Y0313779
X0137795Y025215
X0166142
X0568716Y0305118
Y0333465
X0584252Y0427347
X0612598
X0612992Y047026
X0584646
X0584252Y050963
X0612598
X0431102
X0402756
X040315Y047026
X0431496
X0432677Y0427347
X0404331
X0248606Y049252
Y0520866
X0203756Y0520472
Y0492126
M30
