M48
;Layer_Color=9474304
;FILE_FORMAT=2:5
INCH,LZ
;TYPE=PLATED
T1F00S00C0.02362
T8F00S00C0.04724
%
G90
G05
T01
G00X0066929Y0421894
M15
G01X0062992
M16
G00X0066929Y0496303
M15
G01X0062992
M16
T08
G00X0138976Y0022303
M15
G01Y0019941
M16
G00X0152362Y0022303
M15
G01Y0019941
M16
G00X0408661Y0022697
M15
G01Y0020335
M16
G00X0422047Y0022697
M15
G01Y0020335
M16
G00X0527953Y0182933
M15
G01Y0180571
M16
G00X0514567Y0182933
M15
G01Y0180571
M16
G00X0422047Y0075728
M15
G01Y0073366
M16
G00X0408661Y0075728
M15
G01Y0073366
M16
G00X0252756Y0186476
M15
G01Y0184114
M16
G00X023937Y0186476
M15
G01Y0184114
M16
G00X0083602Y019685
M15
G01X0085965
M16
G00X0083602Y0210236
M15
G01X0085965
M16
G00X0083602Y0166929
M15
G01X0085965
M16
G00X0083602Y0153543
M15
G01X0085965
M16
G00X0083602Y0122835
M15
G01X0085965
M16
G00X0083602Y0109449
M15
G01X0085965
M16
G00X0138976Y0075335
M15
G01Y0072973
M16
G00X0152362Y0075335
M15
G01Y0072973
M16
G00X0030571Y0109449
M15
G01X0032933
M16
G00X0030571Y0122835
M15
G01X0032933
M16
G00X0030571Y0153543
M15
G01X0032933
M16
G00X0030571Y0166929
M15
G01X0032933
M16
G00X0030571Y019685
M15
G01X0032933
M16
G00X0030571Y0210236
M15
G01X0032933
M16
G00X0030571Y0238976
M15
G01X0032933
M16
G00X0030571Y0252362
M15
G01X0032933
M16
G00X0083602Y0252362
M15
G01X0085965
M16
G00X0083602Y0238976
M15
G01X0085965
M16
G00X023937Y0239508
M15
G01Y0237146
M16
G00X0252756Y0239508
M15
G01Y0237146
M16
G00X0251181Y02975
M15
G01Y0295138
M16
G00X0237795Y02975
M15
G01Y0295138
M16
G00X0237795Y0350532
M15
G01Y0348169
M16
G00X0251181Y0350532
M15
G01Y0348169
M16
G00X0513386Y0359055
M15
G01Y0356693
M16
G00X0513386Y0306024
M15
G01Y0303661
M16
G00X0514567Y0235965
M15
G01Y0233602
M16
G00X0527953Y0235965
M15
G01Y0233602
M16
G00X0526772Y0306024
M15
G01Y0303661
M16
G00X0526772Y0359055
M15
G01Y0356693
M16
G00X0535965Y0414961
M15
G01X0538327
M16
G00X0535965Y0428346
M15
G01X0538327
M16
G00X0536358Y045748
M15
G01X0538721
M16
G00X0536358Y0470866
M15
G01X0538721
M16
G00X0535965Y0498032
M15
G01X0538327
M16
G00X0535965Y0511417
M15
G01X0538327
M16
G00X0482933Y0511417
M15
G01X0485295
M16
G00X0482933Y0498032
M15
G01X0485295
M16
G00X0483327Y0470866
M15
G01X0485689
M16
G00X0483327Y045748
M15
G01X0485689
M16
G00X0482933Y0428346
M15
G01X0485295
M16
G00X0482933Y0414961
M15
G01X0485295
M16
G00X03525Y0414961
M15
G01X0354862
M16
G00X03525Y0428346
M15
G01X0354862
M16
G00X03525Y045748
M15
G01X0354862
M16
G00X03525Y0470866
M15
G01X0354862
M16
G00X0352894Y0498032
M15
G01X0355256
M16
G00X0352894Y0511417
M15
G01X0355256
M16
G00X0299862Y0511417
M15
G01X0302224
M16
G00X0299862Y0498032
M15
G01X0302224
M16
G00X0299468Y0470866
M15
G01X0301831
M16
G00X0299468Y045748
M15
G01X0301831
M16
G00X0299468Y0428346
M15
G01X0301831
M16
G00X0299468Y0414961
M15
G01X0301831
M16
G00X0166929Y0479252
M15
G01Y047689
M16
G00X0153543Y0479252
M15
G01Y047689
M16
G00X0095413Y0394094
M15
G01X0093051
M16
G00X0095413Y0380709
M15
G01X0093051
M16
G00X0042382Y0380709
M15
G01X004002
M16
G00X0042382Y0394094
M15
G01X004002
M16
G00X0153543Y0532283
M15
G01Y0529921
M16
G00X0166929Y0532283
M15
G01Y0529921
M16
M17
M30
