G04*
G04 #@! TF.GenerationSoftware,Altium Limited,Altium Designer,21.9.2 (33)*
G04*
G04 Layer_Physical_Order=1*
G04 Layer_Color=255*
%FSLAX25Y25*%
%MOIN*%
G70*
G04*
G04 #@! TF.SameCoordinates,B47FFC8E-61E7-446A-90B7-BF6068300CD5*
G04*
G04*
G04 #@! TF.FilePolarity,Positive*
G04*
G01*
G75*
%ADD11C,0.01000*%
%ADD43C,0.11811*%
%ADD44C,0.09843*%
%ADD45C,0.19685*%
%ADD46C,0.03937*%
%ADD47O,0.10236X0.05118*%
%ADD48C,0.24567*%
%ADD49R,0.24567X0.24567*%
%ADD50C,0.23622*%
%ADD51R,0.23622X0.23622*%
%ADD52C,0.04953*%
%ADD53C,0.05400*%
%ADD54R,0.05400X0.05400*%
%ADD55R,0.04756X0.04756*%
%ADD56C,0.04756*%
%ADD57O,0.09646X0.11811*%
%ADD58O,0.11811X0.09646*%
%ADD59C,0.04685*%
%ADD60R,0.08858X0.08858*%
%ADD61C,0.08858*%
%ADD62C,0.07874*%
%ADD63R,0.07874X0.07874*%
%ADD64C,0.04724*%
%ADD65R,0.04724X0.04724*%
%ADD66C,0.04528*%
%ADD67R,0.04134X0.04134*%
%ADD68C,0.04134*%
%ADD69C,0.04331*%
%ADD70R,0.04331X0.04331*%
%ADD71R,0.04756X0.04756*%
%ADD72R,0.23622X0.23622*%
%ADD73C,0.30000*%
G36*
X175197Y521654D02*
X143701D01*
Y541339D01*
X175197D01*
Y521654D01*
D02*
G37*
G36*
X551181Y488189D02*
X527559D01*
Y519685D01*
X551181D01*
Y488189D01*
D02*
G37*
G36*
X368110D02*
X344488D01*
Y519685D01*
X368110D01*
Y488189D01*
D02*
G37*
G36*
X175197Y468504D02*
X145669D01*
Y496063D01*
X175197D01*
Y468504D01*
D02*
G37*
G36*
X551181Y448819D02*
X527559D01*
Y480315D01*
X551181D01*
Y448819D01*
D02*
G37*
G36*
X368110D02*
X344488D01*
Y480315D01*
X368110D01*
Y448819D01*
D02*
G37*
G36*
X494095Y409449D02*
X488298D01*
X488173Y409949D01*
X488448Y410096D01*
X489334Y410823D01*
X490062Y411710D01*
X490602Y412722D01*
X490935Y413819D01*
X490999Y414461D01*
X477230D01*
X477293Y413819D01*
X477626Y412722D01*
X478167Y411710D01*
X478894Y410823D01*
X479781Y410096D01*
X480056Y409949D01*
X479930Y409449D01*
X474409D01*
Y519685D01*
X494095D01*
Y409449D01*
D02*
G37*
G36*
X551181Y405512D02*
X527559D01*
Y437008D01*
X551181D01*
Y405512D01*
D02*
G37*
G36*
X368110D02*
X344488D01*
Y437008D01*
X368110D01*
Y405512D01*
D02*
G37*
G36*
X311024D02*
X291339D01*
Y527559D01*
X311024D01*
Y405512D01*
D02*
G37*
G36*
X111811Y374016D02*
X84252D01*
Y400787D01*
X111811D01*
Y374016D01*
D02*
G37*
G36*
X51181Y362205D02*
X31496D01*
Y403543D01*
X51181D01*
Y362205D01*
D02*
G37*
G36*
X535433Y346457D02*
X505905D01*
Y368110D01*
X535433D01*
Y346457D01*
D02*
G37*
G36*
X259842Y340551D02*
X228346D01*
Y358268D01*
X259842D01*
Y340551D01*
D02*
G37*
G36*
X535433Y295276D02*
X503937D01*
Y314961D01*
X535433D01*
Y295276D01*
D02*
G37*
G36*
X261811Y287402D02*
X228346D01*
Y305118D01*
X261811D01*
Y287402D01*
D02*
G37*
G36*
X98425Y230315D02*
X74803D01*
Y259842D01*
X98425D01*
Y230315D01*
D02*
G37*
G36*
X261811Y228346D02*
X230315D01*
Y248031D01*
X261811D01*
Y228346D01*
D02*
G37*
G36*
X537402Y220472D02*
X505905D01*
Y246063D01*
X537402D01*
Y220472D01*
D02*
G37*
G36*
X98425Y188976D02*
X74803D01*
Y218504D01*
X98425D01*
Y188976D01*
D02*
G37*
G36*
X263779Y175197D02*
X230315D01*
Y194882D01*
X263779D01*
Y175197D01*
D02*
G37*
G36*
X537402Y171260D02*
X505905D01*
Y192913D01*
X537402D01*
Y171260D01*
D02*
G37*
G36*
X98425Y145669D02*
X74803D01*
Y175197D01*
X98425D01*
Y145669D01*
D02*
G37*
G36*
Y100394D02*
X74803D01*
Y131890D01*
X98425D01*
Y100394D01*
D02*
G37*
G36*
X41339Y98425D02*
X21654D01*
Y269685D01*
X41339D01*
Y98425D01*
D02*
G37*
G36*
X431102Y64961D02*
X399606D01*
Y84646D01*
X431102D01*
Y64961D01*
D02*
G37*
G36*
X161417Y62992D02*
X129921D01*
Y84646D01*
X161417D01*
Y62992D01*
D02*
G37*
G36*
X431102Y11811D02*
X399606D01*
Y31496D01*
X431102D01*
Y11811D01*
D02*
G37*
G36*
X161417Y9843D02*
X129921D01*
Y31496D01*
X161417D01*
Y9843D01*
D02*
G37*
%LPC*%
G36*
X154043Y537987D02*
Y531602D01*
X159394D01*
Y532185D01*
X159282Y533326D01*
X158949Y534424D01*
X158408Y535436D01*
X157681Y536322D01*
X156794Y537050D01*
X155782Y537591D01*
X154685Y537924D01*
X154043Y537987D01*
D02*
G37*
G36*
X153043D02*
X152402Y537924D01*
X151304Y537591D01*
X150293Y537050D01*
X149406Y536322D01*
X148678Y535436D01*
X148138Y534424D01*
X147805Y533326D01*
X147692Y532185D01*
Y531602D01*
X153043D01*
Y537987D01*
D02*
G37*
G36*
X167429D02*
Y531602D01*
X172780D01*
Y532185D01*
X172668Y533326D01*
X172335Y534424D01*
X171794Y535436D01*
X171066Y536322D01*
X170180Y537050D01*
X169168Y537591D01*
X168071Y537924D01*
X167429Y537987D01*
D02*
G37*
G36*
X166429D02*
X165788Y537924D01*
X164690Y537591D01*
X163679Y537050D01*
X162792Y536322D01*
X162064Y535436D01*
X161523Y534424D01*
X161191Y533326D01*
X161078Y532185D01*
Y531602D01*
X166429D01*
Y537987D01*
D02*
G37*
G36*
X159394Y530602D02*
X154043D01*
Y524218D01*
X154685Y524281D01*
X155782Y524614D01*
X156794Y525155D01*
X157681Y525882D01*
X158408Y526769D01*
X158949Y527781D01*
X159282Y528878D01*
X159394Y530020D01*
Y530602D01*
D02*
G37*
G36*
X166429Y530602D02*
X161078D01*
Y530020D01*
X161191Y528878D01*
X161523Y527781D01*
X162064Y526769D01*
X162792Y525882D01*
X163679Y525155D01*
X164690Y524614D01*
X165788Y524281D01*
X166429Y524218D01*
Y530602D01*
D02*
G37*
G36*
X172780D02*
X167429D01*
Y524218D01*
X168071Y524281D01*
X169168Y524614D01*
X170180Y525155D01*
X171066Y525882D01*
X171794Y526769D01*
X172335Y527781D01*
X172668Y528878D01*
X172780Y530020D01*
Y530602D01*
D02*
G37*
G36*
X153043Y530602D02*
X147692D01*
Y530020D01*
X147805Y528878D01*
X148138Y527781D01*
X148678Y526769D01*
X149406Y525882D01*
X150293Y525155D01*
X151304Y524614D01*
X152402Y524281D01*
X153043Y524218D01*
Y530602D01*
D02*
G37*
G36*
X537146Y517367D02*
X536141Y517268D01*
X536063D01*
X534922Y517156D01*
X533824Y516823D01*
X532812Y516282D01*
X531926Y515555D01*
X531198Y514668D01*
X530657Y513656D01*
X530324Y512559D01*
X530261Y511917D01*
X544030D01*
X543967Y512559D01*
X543634Y513656D01*
X543093Y514668D01*
X542366Y515555D01*
X541479Y516282D01*
X540467Y516823D01*
X539370Y517156D01*
X538228Y517268D01*
X538150D01*
X537146Y517367D01*
D02*
G37*
G36*
X544030Y510917D02*
X530261D01*
X530324Y510276D01*
X530657Y509178D01*
X531198Y508167D01*
X531926Y507280D01*
X532812Y506552D01*
X533824Y506012D01*
X534922Y505679D01*
X535688Y505603D01*
X536083Y505483D01*
X537244Y505369D01*
X538405Y505483D01*
X538895Y505632D01*
X539370Y505679D01*
X540467Y506012D01*
X541479Y506552D01*
X542366Y507280D01*
X543093Y508167D01*
X543634Y509178D01*
X543967Y510276D01*
X544030Y510917D01*
D02*
G37*
G36*
X538228Y503883D02*
X537646D01*
Y498531D01*
X544030D01*
X543967Y499173D01*
X543634Y500271D01*
X543093Y501282D01*
X542366Y502169D01*
X541479Y502896D01*
X540467Y503437D01*
X539370Y503770D01*
X538228Y503883D01*
D02*
G37*
G36*
X536646D02*
X536063D01*
X534922Y503770D01*
X533824Y503437D01*
X532812Y502896D01*
X531926Y502169D01*
X531198Y501282D01*
X530657Y500271D01*
X530324Y499173D01*
X530261Y498531D01*
X536646D01*
Y503883D01*
D02*
G37*
G36*
X544030Y497532D02*
X537646D01*
Y492180D01*
X538228D01*
X539370Y492293D01*
X540467Y492626D01*
X541479Y493167D01*
X542366Y493894D01*
X543093Y494781D01*
X543634Y495792D01*
X543967Y496890D01*
X544030Y497532D01*
D02*
G37*
G36*
X536646D02*
X530261D01*
X530324Y496890D01*
X530657Y495792D01*
X531198Y494781D01*
X531926Y493894D01*
X532812Y493167D01*
X533824Y492626D01*
X534922Y492293D01*
X536063Y492180D01*
X536646D01*
Y497532D01*
D02*
G37*
G36*
X354961Y517367D02*
X354075D01*
X353071Y517268D01*
X352992D01*
X351851Y517156D01*
X350753Y516823D01*
X349742Y516282D01*
X348855Y515555D01*
X348127Y514668D01*
X347586Y513656D01*
X347254Y512559D01*
X347190Y511917D01*
X360959D01*
X360896Y512559D01*
X360563Y513656D01*
X360022Y514668D01*
X359295Y515555D01*
X358408Y516282D01*
X358289Y516346D01*
X358266Y516364D01*
X357238Y516914D01*
X356121Y517253D01*
X354961Y517367D01*
D02*
G37*
G36*
X360959Y510917D02*
X347190D01*
X347254Y510276D01*
X347586Y509178D01*
X348127Y508167D01*
X348855Y507280D01*
X349742Y506552D01*
X350753Y506012D01*
X351851Y505679D01*
X352992Y505566D01*
X353071D01*
X354075Y505467D01*
X354961D01*
X356121Y505582D01*
X357238Y505920D01*
X358266Y506470D01*
X358289Y506489D01*
X358408Y506552D01*
X359295Y507280D01*
X360022Y508167D01*
X360563Y509178D01*
X360896Y510276D01*
X360959Y510917D01*
D02*
G37*
G36*
X355157Y503883D02*
X354575D01*
Y498531D01*
X360959D01*
X360896Y499173D01*
X360563Y500271D01*
X360022Y501282D01*
X359295Y502169D01*
X358408Y502896D01*
X357397Y503437D01*
X356299Y503770D01*
X355157Y503883D01*
D02*
G37*
G36*
X353575D02*
X352992D01*
X351851Y503770D01*
X350753Y503437D01*
X349742Y502896D01*
X348855Y502169D01*
X348127Y501282D01*
X347586Y500271D01*
X347254Y499173D01*
X347190Y498531D01*
X353575D01*
Y503883D01*
D02*
G37*
G36*
X360959Y497532D02*
X354575D01*
Y492180D01*
X355157D01*
X356299Y492293D01*
X357397Y492626D01*
X358408Y493167D01*
X359295Y493894D01*
X360022Y494781D01*
X360563Y495792D01*
X360896Y496890D01*
X360959Y497532D01*
D02*
G37*
G36*
X353575D02*
X347190D01*
X347254Y496890D01*
X347586Y495792D01*
X348127Y494781D01*
X348855Y493894D01*
X349742Y493167D01*
X350753Y492626D01*
X351851Y492293D01*
X352992Y492180D01*
X353575D01*
Y497532D01*
D02*
G37*
G36*
X154043Y484955D02*
Y478571D01*
X159394D01*
Y479153D01*
X159282Y480295D01*
X158949Y481393D01*
X158408Y482404D01*
X157681Y483291D01*
X156794Y484019D01*
X155782Y484559D01*
X154685Y484892D01*
X154043Y484955D01*
D02*
G37*
G36*
X153043D02*
X152402Y484892D01*
X151304Y484559D01*
X150293Y484019D01*
X149406Y483291D01*
X148678Y482404D01*
X148138Y481393D01*
X147805Y480295D01*
X147692Y479153D01*
Y478571D01*
X153043D01*
Y484955D01*
D02*
G37*
G36*
X167429Y484955D02*
Y478571D01*
X172780D01*
Y479153D01*
X172668Y480295D01*
X172335Y481393D01*
X171794Y482404D01*
X171066Y483291D01*
X170180Y484019D01*
X169168Y484559D01*
X168071Y484892D01*
X167429Y484955D01*
D02*
G37*
G36*
X166429Y484955D02*
X165788Y484892D01*
X164690Y484559D01*
X163679Y484019D01*
X162792Y483291D01*
X162064Y482404D01*
X161523Y481393D01*
X161191Y480295D01*
X161078Y479153D01*
Y478571D01*
X166429D01*
Y484955D01*
D02*
G37*
G36*
Y477571D02*
X161078D01*
Y476988D01*
X161191Y475847D01*
X161523Y474749D01*
X162064Y473737D01*
X162792Y472851D01*
X163679Y472123D01*
X164690Y471583D01*
X165788Y471250D01*
X166429Y471186D01*
Y477571D01*
D02*
G37*
G36*
X153043Y477571D02*
X147692D01*
Y476988D01*
X147805Y475847D01*
X148138Y474749D01*
X148678Y473737D01*
X149406Y472851D01*
X150293Y472123D01*
X151304Y471583D01*
X152402Y471250D01*
X153043Y471186D01*
Y477571D01*
D02*
G37*
G36*
X159394D02*
X154043D01*
Y471186D01*
X154685Y471250D01*
X155782Y471583D01*
X156794Y472123D01*
X157681Y472851D01*
X158408Y473737D01*
X158949Y474749D01*
X159282Y475847D01*
X159394Y476988D01*
Y477571D01*
D02*
G37*
G36*
X172780Y477571D02*
X167429D01*
Y471186D01*
X168071Y471250D01*
X169168Y471583D01*
X170180Y472123D01*
X171066Y472851D01*
X171794Y473737D01*
X172335Y474749D01*
X172668Y475847D01*
X172780Y476988D01*
Y477571D01*
D02*
G37*
G36*
X537539Y476816D02*
X536535Y476717D01*
X536457D01*
X535315Y476605D01*
X534218Y476272D01*
X533206Y475731D01*
X532319Y475003D01*
X531592Y474117D01*
X531051Y473105D01*
X530718Y472008D01*
X530655Y471366D01*
X544424D01*
X544361Y472008D01*
X544028Y473105D01*
X543487Y474117D01*
X542759Y475003D01*
X541873Y475731D01*
X540861Y476272D01*
X539763Y476605D01*
X538622Y476717D01*
X538544D01*
X537539Y476816D01*
D02*
G37*
G36*
X544424Y470366D02*
X530655D01*
X530718Y469725D01*
X531051Y468627D01*
X531592Y467616D01*
X532319Y466729D01*
X533206Y466001D01*
X534218Y465460D01*
X535315Y465128D01*
X536082Y465052D01*
X536477Y464932D01*
X537638Y464818D01*
X538799Y464932D01*
X539289Y465081D01*
X539763Y465128D01*
X540861Y465460D01*
X541873Y466001D01*
X542759Y466729D01*
X543487Y467616D01*
X544028Y468627D01*
X544361Y469725D01*
X544424Y470366D01*
D02*
G37*
G36*
X538622Y463331D02*
X538039D01*
Y457980D01*
X544424D01*
X544361Y458622D01*
X544028Y459719D01*
X543487Y460731D01*
X542759Y461618D01*
X541873Y462345D01*
X540861Y462886D01*
X539763Y463219D01*
X538622Y463331D01*
D02*
G37*
G36*
X537039D02*
X536457D01*
X535315Y463219D01*
X534218Y462886D01*
X533206Y462345D01*
X532319Y461618D01*
X531592Y460731D01*
X531051Y459719D01*
X530718Y458622D01*
X530655Y457980D01*
X537039D01*
Y463331D01*
D02*
G37*
G36*
X544424Y456980D02*
X538039D01*
Y451629D01*
X538622D01*
X539763Y451742D01*
X540861Y452075D01*
X541873Y452615D01*
X542759Y453343D01*
X543487Y454230D01*
X544028Y455241D01*
X544361Y456339D01*
X544424Y456980D01*
D02*
G37*
G36*
X537039D02*
X530655D01*
X530718Y456339D01*
X531051Y455241D01*
X531592Y454230D01*
X532319Y453343D01*
X533206Y452615D01*
X534218Y452075D01*
X535315Y451742D01*
X536457Y451629D01*
X537039D01*
Y456980D01*
D02*
G37*
G36*
X353681Y476816D02*
X352677Y476717D01*
X352598D01*
X351457Y476605D01*
X350359Y476272D01*
X349348Y475731D01*
X348461Y475003D01*
X347733Y474117D01*
X347193Y473105D01*
X346860Y472008D01*
X346797Y471366D01*
X360565D01*
X360502Y472008D01*
X360169Y473105D01*
X359629Y474117D01*
X358901Y475003D01*
X358014Y475731D01*
X357003Y476272D01*
X355905Y476605D01*
X354764Y476717D01*
X354685D01*
X353681Y476816D01*
D02*
G37*
G36*
X360565Y470366D02*
X346797D01*
X346860Y469725D01*
X347193Y468627D01*
X347733Y467616D01*
X348461Y466729D01*
X349348Y466001D01*
X350359Y465460D01*
X351457Y465128D01*
X352223Y465052D01*
X352619Y464932D01*
X353780Y464818D01*
X354940Y464932D01*
X355430Y465081D01*
X355905Y465128D01*
X357003Y465460D01*
X358014Y466001D01*
X358901Y466729D01*
X359629Y467616D01*
X360169Y468627D01*
X360502Y469725D01*
X360565Y470366D01*
D02*
G37*
G36*
X354764Y463331D02*
X354181D01*
Y457980D01*
X360565D01*
X360502Y458622D01*
X360169Y459719D01*
X359629Y460731D01*
X358901Y461618D01*
X358014Y462345D01*
X357003Y462886D01*
X355905Y463219D01*
X354764Y463331D01*
D02*
G37*
G36*
X353181D02*
X352598D01*
X351457Y463219D01*
X350359Y462886D01*
X349348Y462345D01*
X348461Y461618D01*
X347733Y460731D01*
X347193Y459719D01*
X346860Y458622D01*
X346797Y457980D01*
X353181D01*
Y463331D01*
D02*
G37*
G36*
X360565Y456980D02*
X354181D01*
Y451629D01*
X354764D01*
X355905Y451742D01*
X357003Y452075D01*
X358014Y452615D01*
X358901Y453343D01*
X359629Y454230D01*
X360169Y455241D01*
X360502Y456339D01*
X360565Y456980D01*
D02*
G37*
G36*
X353181D02*
X346797D01*
X346860Y456339D01*
X347193Y455241D01*
X347733Y454230D01*
X348461Y453343D01*
X349348Y452615D01*
X350359Y452075D01*
X351457Y451742D01*
X352598Y451629D01*
X353181D01*
Y456980D01*
D02*
G37*
G36*
X485197Y517268D02*
X484614D01*
Y511917D01*
X490999D01*
X490935Y512559D01*
X490602Y513656D01*
X490062Y514668D01*
X489334Y515555D01*
X488448Y516282D01*
X487436Y516823D01*
X486338Y517156D01*
X485197Y517268D01*
D02*
G37*
G36*
X483614D02*
X483032D01*
X481890Y517156D01*
X480792Y516823D01*
X479781Y516282D01*
X478894Y515555D01*
X478167Y514668D01*
X477626Y513656D01*
X477293Y512559D01*
X477230Y511917D01*
X483614D01*
Y517268D01*
D02*
G37*
G36*
X490999Y510917D02*
X484614D01*
Y505566D01*
X485197D01*
X486338Y505679D01*
X487436Y506012D01*
X488448Y506552D01*
X489334Y507280D01*
X490062Y508167D01*
X490602Y509178D01*
X490935Y510276D01*
X490999Y510917D01*
D02*
G37*
G36*
X483614D02*
X477230D01*
X477293Y510276D01*
X477626Y509178D01*
X478167Y508167D01*
X478894Y507280D01*
X479781Y506552D01*
X480792Y506012D01*
X481890Y505679D01*
X483032Y505566D01*
X483614D01*
Y510917D01*
D02*
G37*
G36*
X485197Y503883D02*
X484614D01*
Y498531D01*
X490999D01*
X490935Y499173D01*
X490602Y500271D01*
X490062Y501282D01*
X489334Y502169D01*
X488448Y502896D01*
X487436Y503437D01*
X486338Y503770D01*
X485197Y503883D01*
D02*
G37*
G36*
X483614D02*
X483032D01*
X481890Y503770D01*
X480792Y503437D01*
X479781Y502896D01*
X478894Y502169D01*
X478167Y501282D01*
X477626Y500271D01*
X477293Y499173D01*
X477230Y498531D01*
X483614D01*
Y503883D01*
D02*
G37*
G36*
X490999Y497532D02*
X484614D01*
Y492180D01*
X485197D01*
X486338Y492293D01*
X487436Y492626D01*
X488448Y493167D01*
X489334Y493894D01*
X490062Y494781D01*
X490602Y495792D01*
X490935Y496890D01*
X490999Y497532D01*
D02*
G37*
G36*
X483614D02*
X477230D01*
X477293Y496890D01*
X477626Y495792D01*
X478167Y494781D01*
X478894Y493894D01*
X479781Y493167D01*
X480792Y492626D01*
X481890Y492293D01*
X483032Y492180D01*
X483614D01*
Y497532D01*
D02*
G37*
G36*
X485591Y476717D02*
X485008D01*
Y471366D01*
X491392D01*
X491329Y472008D01*
X490996Y473105D01*
X490455Y474117D01*
X489728Y475003D01*
X488841Y475731D01*
X487830Y476272D01*
X486732Y476605D01*
X485591Y476717D01*
D02*
G37*
G36*
X484008D02*
X483425D01*
X482284Y476605D01*
X481186Y476272D01*
X480174Y475731D01*
X479288Y475003D01*
X478560Y474117D01*
X478020Y473105D01*
X477687Y472008D01*
X477623Y471366D01*
X484008D01*
Y476717D01*
D02*
G37*
G36*
X491392Y470366D02*
X485008D01*
Y465015D01*
X485591D01*
X486732Y465128D01*
X487830Y465460D01*
X488841Y466001D01*
X489728Y466729D01*
X490455Y467616D01*
X490996Y468627D01*
X491329Y469725D01*
X491392Y470366D01*
D02*
G37*
G36*
X484008D02*
X477623D01*
X477687Y469725D01*
X478020Y468627D01*
X478560Y467616D01*
X479288Y466729D01*
X480174Y466001D01*
X481186Y465460D01*
X482284Y465128D01*
X483425Y465015D01*
X484008D01*
Y470366D01*
D02*
G37*
G36*
X485591Y463331D02*
X485008D01*
Y457980D01*
X491392D01*
X491329Y458622D01*
X490996Y459719D01*
X490455Y460731D01*
X489728Y461618D01*
X488841Y462345D01*
X487830Y462886D01*
X486732Y463219D01*
X485591Y463331D01*
D02*
G37*
G36*
X484008D02*
X483425D01*
X482284Y463219D01*
X481186Y462886D01*
X480174Y462345D01*
X479288Y461618D01*
X478560Y460731D01*
X478020Y459719D01*
X477687Y458622D01*
X477623Y457980D01*
X484008D01*
Y463331D01*
D02*
G37*
G36*
X491392Y456980D02*
X485008D01*
Y451629D01*
X485591D01*
X486732Y451742D01*
X487830Y452075D01*
X488841Y452615D01*
X489728Y453343D01*
X490455Y454230D01*
X490996Y455241D01*
X491329Y456339D01*
X491392Y456980D01*
D02*
G37*
G36*
X484008D02*
X477623D01*
X477687Y456339D01*
X478020Y455241D01*
X478560Y454230D01*
X479288Y453343D01*
X480174Y452615D01*
X481186Y452075D01*
X482284Y451742D01*
X483425Y451629D01*
X484008D01*
Y456980D01*
D02*
G37*
G36*
X485197Y434198D02*
X484614D01*
Y428847D01*
X490999D01*
X490935Y429488D01*
X490602Y430585D01*
X490062Y431597D01*
X489334Y432484D01*
X488448Y433211D01*
X487436Y433752D01*
X486338Y434085D01*
X485197Y434198D01*
D02*
G37*
G36*
X483614D02*
X483032D01*
X481890Y434085D01*
X480792Y433752D01*
X479781Y433211D01*
X478894Y432484D01*
X478167Y431597D01*
X477626Y430585D01*
X477293Y429488D01*
X477230Y428847D01*
X483614D01*
Y434198D01*
D02*
G37*
G36*
X490999Y427846D02*
X484614D01*
Y422495D01*
X485197D01*
X486338Y422608D01*
X487436Y422941D01*
X488448Y423482D01*
X489334Y424209D01*
X490062Y425096D01*
X490602Y426107D01*
X490935Y427205D01*
X490999Y427846D01*
D02*
G37*
G36*
X483614D02*
X477230D01*
X477293Y427205D01*
X477626Y426107D01*
X478167Y425096D01*
X478894Y424209D01*
X479781Y423482D01*
X480792Y422941D01*
X481890Y422608D01*
X483032Y422495D01*
X483614D01*
Y427846D01*
D02*
G37*
G36*
X485197Y420812D02*
X484614D01*
Y415461D01*
X490999D01*
X490935Y416102D01*
X490602Y417200D01*
X490062Y418211D01*
X489334Y419098D01*
X488448Y419826D01*
X487436Y420366D01*
X486338Y420699D01*
X485197Y420812D01*
D02*
G37*
G36*
X483614D02*
X483032D01*
X481890Y420699D01*
X480792Y420366D01*
X479781Y419826D01*
X478894Y419098D01*
X478167Y418211D01*
X477626Y417200D01*
X477293Y416102D01*
X477230Y415461D01*
X483614D01*
Y420812D01*
D02*
G37*
G36*
X538031Y434296D02*
X537146D01*
X536141Y434198D01*
X536063D01*
X534922Y434085D01*
X533824Y433752D01*
X532812Y433211D01*
X531926Y432484D01*
X531198Y431597D01*
X530657Y430585D01*
X530324Y429488D01*
X530261Y428847D01*
X544030D01*
X543967Y429488D01*
X543634Y430585D01*
X543093Y431597D01*
X542366Y432484D01*
X541479Y433211D01*
X541359Y433275D01*
X541337Y433294D01*
X540308Y433844D01*
X539192Y434182D01*
X538031Y434296D01*
D02*
G37*
G36*
X544030Y427846D02*
X530261D01*
X530324Y427205D01*
X530657Y426107D01*
X531198Y425096D01*
X531926Y424209D01*
X532812Y423482D01*
X533824Y422941D01*
X534922Y422608D01*
X536063Y422495D01*
X536141D01*
X537146Y422397D01*
X538031D01*
X539192Y422511D01*
X540308Y422849D01*
X541337Y423399D01*
X541359Y423418D01*
X541479Y423482D01*
X542366Y424209D01*
X543093Y425096D01*
X543634Y426107D01*
X543967Y427205D01*
X544030Y427846D01*
D02*
G37*
G36*
X538228Y420812D02*
X537646D01*
Y415461D01*
X544030D01*
X543967Y416102D01*
X543634Y417200D01*
X543093Y418211D01*
X542366Y419098D01*
X541479Y419826D01*
X540467Y420366D01*
X539370Y420699D01*
X538228Y420812D01*
D02*
G37*
G36*
X536646D02*
X536063D01*
X534922Y420699D01*
X533824Y420366D01*
X532812Y419826D01*
X531926Y419098D01*
X531198Y418211D01*
X530657Y417200D01*
X530324Y416102D01*
X530261Y415461D01*
X536646D01*
Y420812D01*
D02*
G37*
G36*
X544030Y414461D02*
X537646D01*
Y409110D01*
X538228D01*
X539370Y409222D01*
X540467Y409555D01*
X541479Y410096D01*
X542366Y410823D01*
X543093Y411710D01*
X543634Y412722D01*
X543967Y413819D01*
X544030Y414461D01*
D02*
G37*
G36*
X536646D02*
X530261D01*
X530324Y413819D01*
X530657Y412722D01*
X531198Y411710D01*
X531926Y410823D01*
X532812Y410096D01*
X533824Y409555D01*
X534922Y409222D01*
X536063Y409110D01*
X536646D01*
Y414461D01*
D02*
G37*
G36*
X353681Y434296D02*
X352677Y434198D01*
X352598D01*
X351457Y434085D01*
X350359Y433752D01*
X349348Y433211D01*
X348461Y432484D01*
X347733Y431597D01*
X347193Y430585D01*
X346860Y429488D01*
X346797Y428847D01*
X360565D01*
X360502Y429488D01*
X360169Y430585D01*
X359629Y431597D01*
X358901Y432484D01*
X358014Y433211D01*
X357003Y433752D01*
X355905Y434085D01*
X354764Y434198D01*
X354685D01*
X353681Y434296D01*
D02*
G37*
G36*
X360565Y427846D02*
X346797D01*
X346860Y427205D01*
X347193Y426107D01*
X347733Y425096D01*
X348461Y424209D01*
X349348Y423482D01*
X350359Y422941D01*
X351457Y422608D01*
X352223Y422532D01*
X352619Y422412D01*
X353780Y422298D01*
X354940Y422412D01*
X355430Y422561D01*
X355905Y422608D01*
X357003Y422941D01*
X358014Y423482D01*
X358901Y424209D01*
X359629Y425096D01*
X360169Y426107D01*
X360502Y427205D01*
X360565Y427846D01*
D02*
G37*
G36*
X354764Y420812D02*
X354181D01*
Y415461D01*
X360565D01*
X360502Y416102D01*
X360169Y417200D01*
X359629Y418211D01*
X358901Y419098D01*
X358014Y419826D01*
X357003Y420366D01*
X355905Y420699D01*
X354764Y420812D01*
D02*
G37*
G36*
X353181D02*
X352598D01*
X351457Y420699D01*
X350359Y420366D01*
X349348Y419826D01*
X348461Y419098D01*
X347733Y418211D01*
X347193Y417200D01*
X346860Y416102D01*
X346797Y415461D01*
X353181D01*
Y420812D01*
D02*
G37*
G36*
X360565Y414461D02*
X354181D01*
Y409110D01*
X354764D01*
X355905Y409222D01*
X357003Y409555D01*
X358014Y410096D01*
X358901Y410823D01*
X359629Y411710D01*
X360169Y412722D01*
X360502Y413819D01*
X360565Y414461D01*
D02*
G37*
G36*
X353181D02*
X346797D01*
X346860Y413819D01*
X347193Y412722D01*
X347733Y411710D01*
X348461Y410823D01*
X349348Y410096D01*
X350359Y409555D01*
X351457Y409222D01*
X352598Y409110D01*
X353181D01*
Y414461D01*
D02*
G37*
G36*
X302126Y517268D02*
X301543D01*
Y511917D01*
X307928D01*
X307865Y512559D01*
X307532Y513656D01*
X306991Y514668D01*
X306263Y515555D01*
X305377Y516282D01*
X304365Y516823D01*
X303268Y517156D01*
X302126Y517268D01*
D02*
G37*
G36*
X300543D02*
X299961D01*
X298819Y517156D01*
X297722Y516823D01*
X296710Y516282D01*
X295823Y515555D01*
X295096Y514668D01*
X294555Y513656D01*
X294222Y512559D01*
X294159Y511917D01*
X300543D01*
Y517268D01*
D02*
G37*
G36*
X307928Y510917D02*
X301543D01*
Y505566D01*
X302126D01*
X303268Y505679D01*
X304365Y506012D01*
X305377Y506552D01*
X306263Y507280D01*
X306991Y508167D01*
X307532Y509178D01*
X307865Y510276D01*
X307928Y510917D01*
D02*
G37*
G36*
X300543D02*
X294159D01*
X294222Y510276D01*
X294555Y509178D01*
X295096Y508167D01*
X295823Y507280D01*
X296710Y506552D01*
X297722Y506012D01*
X298819Y505679D01*
X299961Y505566D01*
X300543D01*
Y510917D01*
D02*
G37*
G36*
X302126Y503883D02*
X301543D01*
Y498531D01*
X307928D01*
X307865Y499173D01*
X307532Y500271D01*
X306991Y501282D01*
X306263Y502169D01*
X305377Y502896D01*
X304365Y503437D01*
X303268Y503770D01*
X302126Y503883D01*
D02*
G37*
G36*
X300543D02*
X299961D01*
X298819Y503770D01*
X297722Y503437D01*
X296710Y502896D01*
X295823Y502169D01*
X295096Y501282D01*
X294555Y500271D01*
X294222Y499173D01*
X294159Y498531D01*
X300543D01*
Y503883D01*
D02*
G37*
G36*
X307928Y497532D02*
X301543D01*
Y492180D01*
X302126D01*
X303268Y492293D01*
X304365Y492626D01*
X305377Y493167D01*
X306263Y493894D01*
X306991Y494781D01*
X307532Y495792D01*
X307865Y496890D01*
X307928Y497532D01*
D02*
G37*
G36*
X300543D02*
X294159D01*
X294222Y496890D01*
X294555Y495792D01*
X295096Y494781D01*
X295823Y493894D01*
X296710Y493167D01*
X297722Y492626D01*
X298819Y492293D01*
X299961Y492180D01*
X300543D01*
Y497532D01*
D02*
G37*
G36*
X301043Y476915D02*
X299883Y476800D01*
X299609Y476717D01*
X299567D01*
X298426Y476605D01*
X297328Y476272D01*
X296316Y475731D01*
X295430Y475003D01*
X294702Y474117D01*
X294161Y473105D01*
X293828Y472008D01*
X293765Y471366D01*
X307534D01*
X307471Y472008D01*
X307138Y473105D01*
X306597Y474117D01*
X305870Y475003D01*
X304983Y475731D01*
X303971Y476272D01*
X302874Y476605D01*
X302836Y476608D01*
X302204Y476800D01*
X301043Y476915D01*
D02*
G37*
G36*
X307534Y470366D02*
X293765D01*
X293828Y469725D01*
X294161Y468627D01*
X294702Y467616D01*
X295430Y466729D01*
X296316Y466001D01*
X297328Y465460D01*
X298426Y465128D01*
X299567Y465015D01*
X299645D01*
X300650Y464916D01*
X300945D01*
X302106Y465031D01*
X302210Y465062D01*
X302874Y465128D01*
X303971Y465460D01*
X304983Y466001D01*
X305870Y466729D01*
X306597Y467616D01*
X307138Y468627D01*
X307471Y469725D01*
X307534Y470366D01*
D02*
G37*
G36*
X301732Y463331D02*
X301150D01*
Y457980D01*
X307534D01*
X307471Y458622D01*
X307138Y459719D01*
X306597Y460731D01*
X305870Y461618D01*
X304983Y462345D01*
X303971Y462886D01*
X302874Y463219D01*
X301732Y463331D01*
D02*
G37*
G36*
X300150D02*
X299567D01*
X298426Y463219D01*
X297328Y462886D01*
X296316Y462345D01*
X295430Y461618D01*
X294702Y460731D01*
X294161Y459719D01*
X293828Y458622D01*
X293765Y457980D01*
X300150D01*
Y463331D01*
D02*
G37*
G36*
X307534Y456980D02*
X301150D01*
Y451629D01*
X301732D01*
X302874Y451742D01*
X303971Y452075D01*
X304983Y452615D01*
X305870Y453343D01*
X306597Y454230D01*
X307138Y455241D01*
X307471Y456339D01*
X307534Y456980D01*
D02*
G37*
G36*
X300150D02*
X293765D01*
X293828Y456339D01*
X294161Y455241D01*
X294702Y454230D01*
X295430Y453343D01*
X296316Y452615D01*
X297328Y452075D01*
X298426Y451742D01*
X299567Y451629D01*
X300150D01*
Y456980D01*
D02*
G37*
G36*
X301732Y434198D02*
X301150D01*
Y428847D01*
X307534D01*
X307471Y429488D01*
X307138Y430585D01*
X306597Y431597D01*
X305870Y432484D01*
X304983Y433211D01*
X303971Y433752D01*
X302874Y434085D01*
X301732Y434198D01*
D02*
G37*
G36*
X300150D02*
X299567D01*
X298426Y434085D01*
X297328Y433752D01*
X296316Y433211D01*
X295430Y432484D01*
X294702Y431597D01*
X294161Y430585D01*
X293828Y429488D01*
X293765Y428847D01*
X300150D01*
Y434198D01*
D02*
G37*
G36*
X307534Y427846D02*
X301150D01*
Y422495D01*
X301732D01*
X302874Y422608D01*
X303971Y422941D01*
X304983Y423482D01*
X305870Y424209D01*
X306597Y425096D01*
X307138Y426107D01*
X307471Y427205D01*
X307534Y427846D01*
D02*
G37*
G36*
X300150D02*
X293765D01*
X293828Y427205D01*
X294161Y426107D01*
X294702Y425096D01*
X295430Y424209D01*
X296316Y423482D01*
X297328Y422941D01*
X298426Y422608D01*
X299567Y422495D01*
X300150D01*
Y427846D01*
D02*
G37*
G36*
X301732Y420812D02*
X301150D01*
Y415461D01*
X307534D01*
X307471Y416102D01*
X307138Y417200D01*
X306597Y418211D01*
X305870Y419098D01*
X304983Y419826D01*
X303971Y420366D01*
X302874Y420699D01*
X301732Y420812D01*
D02*
G37*
G36*
X300150D02*
X299567D01*
X298426Y420699D01*
X297328Y420366D01*
X296316Y419826D01*
X295430Y419098D01*
X294702Y418211D01*
X294161Y417200D01*
X293828Y416102D01*
X293765Y415461D01*
X300150D01*
Y420812D01*
D02*
G37*
G36*
X307534Y414461D02*
X301150D01*
Y409110D01*
X301732D01*
X302874Y409222D01*
X303971Y409555D01*
X304983Y410096D01*
X305870Y410823D01*
X306597Y411710D01*
X307138Y412722D01*
X307471Y413819D01*
X307534Y414461D01*
D02*
G37*
G36*
X300150D02*
X293765D01*
X293828Y413819D01*
X294161Y412722D01*
X294702Y411710D01*
X295430Y410823D01*
X296316Y410096D01*
X297328Y409555D01*
X298426Y409222D01*
X299567Y409110D01*
X300150D01*
Y414461D01*
D02*
G37*
G36*
X95315Y399945D02*
X94732D01*
Y394595D01*
X101117D01*
X101054Y395236D01*
X100721Y396334D01*
X100180Y397345D01*
X99452Y398232D01*
X98566Y398959D01*
X97554Y399500D01*
X96456Y399833D01*
X95315Y399945D01*
D02*
G37*
G36*
X93732D02*
X93150D01*
X92008Y399833D01*
X90911Y399500D01*
X89899Y398959D01*
X89012Y398232D01*
X88285Y397345D01*
X87744Y396334D01*
X87411Y395236D01*
X87348Y394595D01*
X93732D01*
Y399945D01*
D02*
G37*
G36*
X101117Y393595D02*
X94732D01*
Y388244D01*
X95315D01*
X96456Y388356D01*
X97554Y388689D01*
X98566Y389230D01*
X99452Y389957D01*
X100180Y390844D01*
X100721Y391855D01*
X101054Y392953D01*
X101117Y393595D01*
D02*
G37*
G36*
X93732D02*
X87348D01*
X87411Y392953D01*
X87744Y391855D01*
X88285Y390844D01*
X89012Y389957D01*
X89899Y389230D01*
X90911Y388689D01*
X92008Y388356D01*
X93150Y388244D01*
X93732D01*
Y393595D01*
D02*
G37*
G36*
X95315Y386560D02*
X94732D01*
Y381209D01*
X101117D01*
X101054Y381850D01*
X100721Y382948D01*
X100180Y383959D01*
X99452Y384846D01*
X98566Y385574D01*
X97554Y386114D01*
X96456Y386447D01*
X95315Y386560D01*
D02*
G37*
G36*
X93732D02*
X93150D01*
X92008Y386447D01*
X90911Y386114D01*
X89899Y385574D01*
X89012Y384846D01*
X88285Y383959D01*
X87744Y382948D01*
X87411Y381850D01*
X87348Y381209D01*
X93732D01*
Y386560D01*
D02*
G37*
G36*
X101117Y380209D02*
X94732D01*
Y374858D01*
X95315D01*
X96456Y374970D01*
X97554Y375303D01*
X98566Y375844D01*
X99452Y376571D01*
X100180Y377458D01*
X100721Y378470D01*
X101054Y379567D01*
X101117Y380209D01*
D02*
G37*
G36*
X93732D02*
X87348D01*
X87411Y379567D01*
X87744Y378470D01*
X88285Y377458D01*
X89012Y376571D01*
X89899Y375844D01*
X90911Y375303D01*
X92008Y374970D01*
X93150Y374858D01*
X93732D01*
Y380209D01*
D02*
G37*
G36*
X42283Y399945D02*
X41701D01*
Y394595D01*
X48085D01*
X48022Y395236D01*
X47689Y396334D01*
X47148Y397345D01*
X46421Y398232D01*
X45534Y398959D01*
X44523Y399500D01*
X43425Y399833D01*
X42283Y399945D01*
D02*
G37*
G36*
X40701D02*
X40118D01*
X38977Y399833D01*
X37879Y399500D01*
X36867Y398959D01*
X35981Y398232D01*
X35253Y397345D01*
X34712Y396334D01*
X34380Y395236D01*
X34316Y394595D01*
X40701D01*
Y399945D01*
D02*
G37*
G36*
X48085Y393595D02*
X41701D01*
Y388244D01*
X42283D01*
X43425Y388356D01*
X44523Y388689D01*
X45534Y389230D01*
X46421Y389957D01*
X47148Y390844D01*
X47689Y391855D01*
X48022Y392953D01*
X48085Y393595D01*
D02*
G37*
G36*
X40701D02*
X34316D01*
X34380Y392953D01*
X34712Y391855D01*
X35253Y390844D01*
X35981Y389957D01*
X36867Y389230D01*
X37879Y388689D01*
X38977Y388356D01*
X40118Y388244D01*
X40701D01*
Y393595D01*
D02*
G37*
G36*
X42283Y386560D02*
X41701D01*
Y381209D01*
X48085D01*
X48022Y381850D01*
X47689Y382948D01*
X47148Y383959D01*
X46421Y384846D01*
X45534Y385574D01*
X44523Y386114D01*
X43425Y386447D01*
X42283Y386560D01*
D02*
G37*
G36*
X40701D02*
X40118D01*
X38977Y386447D01*
X37879Y386114D01*
X36867Y385574D01*
X35981Y384846D01*
X35253Y383959D01*
X34712Y382948D01*
X34380Y381850D01*
X34316Y381209D01*
X40701D01*
Y386560D01*
D02*
G37*
G36*
X48085Y380209D02*
X41701D01*
Y374858D01*
X42283D01*
X43425Y374970D01*
X44523Y375303D01*
X45534Y375844D01*
X46421Y376571D01*
X47148Y377458D01*
X47689Y378470D01*
X48022Y379567D01*
X48085Y380209D01*
D02*
G37*
G36*
X40701D02*
X34316D01*
X34380Y379567D01*
X34712Y378470D01*
X35253Y377458D01*
X35981Y376571D01*
X36867Y375844D01*
X37879Y375303D01*
X38977Y374970D01*
X40118Y374858D01*
X40701D01*
Y380209D01*
D02*
G37*
G36*
X513886Y364758D02*
Y358374D01*
X519237D01*
Y358957D01*
X519124Y360098D01*
X518791Y361196D01*
X518251Y362207D01*
X517523Y363094D01*
X516637Y363822D01*
X515625Y364362D01*
X514527Y364695D01*
X513886Y364758D01*
D02*
G37*
G36*
X512886Y364758D02*
X512244Y364695D01*
X511147Y364362D01*
X510135Y363822D01*
X509248Y363094D01*
X508521Y362207D01*
X507980Y361196D01*
X507647Y360098D01*
X507535Y358957D01*
Y358374D01*
X512886D01*
Y364758D01*
D02*
G37*
G36*
X527272Y364758D02*
Y358374D01*
X532623D01*
Y358957D01*
X532510Y360098D01*
X532177Y361196D01*
X531637Y362207D01*
X530909Y363094D01*
X530022Y363822D01*
X529011Y364362D01*
X527913Y364695D01*
X527272Y364758D01*
D02*
G37*
G36*
X526272D02*
X525630Y364695D01*
X524533Y364362D01*
X523521Y363822D01*
X522634Y363094D01*
X521907Y362207D01*
X521366Y361196D01*
X521033Y360098D01*
X520921Y358957D01*
Y358374D01*
X526272D01*
Y364758D01*
D02*
G37*
G36*
X519237Y357374D02*
X513886D01*
Y350990D01*
X514527Y351053D01*
X515625Y351386D01*
X516637Y351926D01*
X517523Y352654D01*
X518251Y353541D01*
X518791Y354552D01*
X519124Y355650D01*
X519237Y356791D01*
Y357374D01*
D02*
G37*
G36*
X532623Y357374D02*
X527272D01*
Y350990D01*
X527913Y351053D01*
X529011Y351386D01*
X530022Y351926D01*
X530909Y352654D01*
X531637Y353541D01*
X532177Y354552D01*
X532510Y355650D01*
X532623Y356791D01*
Y357374D01*
D02*
G37*
G36*
X526272D02*
X520921D01*
Y356791D01*
X521033Y355650D01*
X521366Y354552D01*
X521907Y353541D01*
X522634Y352654D01*
X523521Y351926D01*
X524533Y351386D01*
X525630Y351053D01*
X526272Y350990D01*
Y357374D01*
D02*
G37*
G36*
X512886Y357374D02*
X507535D01*
Y356791D01*
X507647Y355650D01*
X507980Y354552D01*
X508521Y353541D01*
X509248Y352654D01*
X510135Y351926D01*
X511147Y351386D01*
X512244Y351053D01*
X512886Y350990D01*
Y357374D01*
D02*
G37*
G36*
X251681Y356235D02*
Y349850D01*
X257032D01*
Y350433D01*
X256920Y351574D01*
X256587Y352672D01*
X256046Y353684D01*
X255318Y354570D01*
X254432Y355298D01*
X253420Y355839D01*
X252323Y356172D01*
X251681Y356235D01*
D02*
G37*
G36*
X250681D02*
X250040Y356172D01*
X248942Y355839D01*
X247931Y355298D01*
X247044Y354570D01*
X246316Y353684D01*
X245776Y352672D01*
X245443Y351574D01*
X245330Y350433D01*
Y349850D01*
X250681D01*
Y356235D01*
D02*
G37*
G36*
X238295D02*
Y349850D01*
X243646D01*
Y350433D01*
X243534Y351574D01*
X243201Y352672D01*
X242660Y353684D01*
X241933Y354570D01*
X241046Y355298D01*
X240034Y355839D01*
X238937Y356172D01*
X238295Y356235D01*
D02*
G37*
G36*
X237295D02*
X236654Y356172D01*
X235556Y355839D01*
X234545Y355298D01*
X233658Y354570D01*
X232930Y353684D01*
X232390Y352672D01*
X232057Y351574D01*
X231944Y350433D01*
Y349850D01*
X237295D01*
Y356235D01*
D02*
G37*
G36*
X257032Y348850D02*
X251681D01*
Y342466D01*
X252323Y342529D01*
X253420Y342862D01*
X254432Y343403D01*
X255318Y344130D01*
X256046Y345017D01*
X256587Y346029D01*
X256920Y347126D01*
X257032Y348268D01*
Y348850D01*
D02*
G37*
G36*
X243646Y348850D02*
X238295D01*
Y342466D01*
X238937Y342529D01*
X240034Y342862D01*
X241046Y343403D01*
X241933Y344130D01*
X242660Y345017D01*
X243201Y346029D01*
X243534Y347126D01*
X243646Y348268D01*
Y348850D01*
D02*
G37*
G36*
X237295D02*
X231944D01*
Y348268D01*
X232057Y347126D01*
X232390Y346029D01*
X232930Y345017D01*
X233658Y344130D01*
X234545Y343403D01*
X235556Y342862D01*
X236654Y342529D01*
X237295Y342466D01*
Y348850D01*
D02*
G37*
G36*
X250681Y348850D02*
X245330D01*
Y348268D01*
X245443Y347126D01*
X245776Y346029D01*
X246316Y345017D01*
X247044Y344130D01*
X247931Y343403D01*
X248942Y342862D01*
X250040Y342529D01*
X250681Y342466D01*
Y348850D01*
D02*
G37*
G36*
X513886Y311727D02*
Y305343D01*
X519237D01*
Y305925D01*
X519124Y307067D01*
X518791Y308164D01*
X518251Y309176D01*
X517523Y310063D01*
X516637Y310790D01*
X515625Y311331D01*
X514527Y311664D01*
X513886Y311727D01*
D02*
G37*
G36*
X512886D02*
X512244Y311664D01*
X511147Y311331D01*
X510135Y310790D01*
X509248Y310063D01*
X508521Y309176D01*
X507980Y308164D01*
X507647Y307067D01*
X507535Y305925D01*
Y305343D01*
X512886D01*
Y311727D01*
D02*
G37*
G36*
X527272D02*
Y305343D01*
X532623D01*
Y305925D01*
X532510Y307067D01*
X532177Y308164D01*
X531637Y309176D01*
X530909Y310063D01*
X530022Y310790D01*
X529011Y311331D01*
X527913Y311664D01*
X527272Y311727D01*
D02*
G37*
G36*
X526272D02*
X525630Y311664D01*
X524533Y311331D01*
X523521Y310790D01*
X522634Y310063D01*
X521907Y309176D01*
X521366Y308164D01*
X521033Y307067D01*
X520921Y305925D01*
Y305343D01*
X526272D01*
Y311727D01*
D02*
G37*
G36*
X519237Y304343D02*
X513886D01*
Y297958D01*
X514527Y298021D01*
X515625Y298354D01*
X516637Y298895D01*
X517523Y299623D01*
X518251Y300509D01*
X518791Y301521D01*
X519124Y302618D01*
X519237Y303760D01*
Y304343D01*
D02*
G37*
G36*
X526272Y304343D02*
X520921D01*
Y303760D01*
X521033Y302618D01*
X521366Y301521D01*
X521907Y300509D01*
X522634Y299623D01*
X523521Y298895D01*
X524533Y298354D01*
X525630Y298021D01*
X526272Y297958D01*
Y304343D01*
D02*
G37*
G36*
X532623D02*
X527272D01*
Y297958D01*
X527913Y298021D01*
X529011Y298354D01*
X530022Y298895D01*
X530909Y299623D01*
X531637Y300509D01*
X532177Y301521D01*
X532510Y302618D01*
X532623Y303760D01*
Y304343D01*
D02*
G37*
G36*
X512886Y304343D02*
X507535D01*
Y303760D01*
X507647Y302618D01*
X507980Y301521D01*
X508521Y300509D01*
X509248Y299623D01*
X510135Y298895D01*
X511147Y298354D01*
X512244Y298021D01*
X512886Y297958D01*
Y304343D01*
D02*
G37*
G36*
X251681Y303203D02*
Y296819D01*
X257032D01*
Y297402D01*
X256920Y298543D01*
X256587Y299641D01*
X256046Y300652D01*
X255318Y301539D01*
X254432Y302267D01*
X253420Y302807D01*
X252323Y303140D01*
X251681Y303203D01*
D02*
G37*
G36*
X250681Y303203D02*
X250040Y303140D01*
X248942Y302807D01*
X247931Y302267D01*
X247044Y301539D01*
X246316Y300652D01*
X245776Y299641D01*
X245443Y298543D01*
X245330Y297402D01*
Y296819D01*
X250681D01*
Y303203D01*
D02*
G37*
G36*
X238295Y303203D02*
Y296819D01*
X243646D01*
Y297402D01*
X243534Y298543D01*
X243201Y299641D01*
X242660Y300652D01*
X241933Y301539D01*
X241046Y302267D01*
X240034Y302807D01*
X238937Y303140D01*
X238295Y303203D01*
D02*
G37*
G36*
X237295D02*
X236654Y303140D01*
X235556Y302807D01*
X234545Y302267D01*
X233658Y301539D01*
X232930Y300652D01*
X232390Y299641D01*
X232057Y298543D01*
X231944Y297402D01*
Y296819D01*
X237295D01*
Y303203D01*
D02*
G37*
G36*
X257032Y295819D02*
X251681D01*
Y289435D01*
X252323Y289498D01*
X253420Y289831D01*
X254432Y290371D01*
X255318Y291099D01*
X256046Y291986D01*
X256587Y292997D01*
X256920Y294095D01*
X257032Y295236D01*
Y295819D01*
D02*
G37*
G36*
X243646Y295819D02*
X238295D01*
Y289435D01*
X238937Y289498D01*
X240034Y289831D01*
X241046Y290371D01*
X241933Y291099D01*
X242660Y291986D01*
X243201Y292997D01*
X243534Y294095D01*
X243646Y295236D01*
Y295819D01*
D02*
G37*
G36*
X237295D02*
X231944D01*
Y295236D01*
X232057Y294095D01*
X232390Y292997D01*
X232930Y291986D01*
X233658Y291099D01*
X234545Y290371D01*
X235556Y289831D01*
X236654Y289498D01*
X237295Y289435D01*
Y295819D01*
D02*
G37*
G36*
X250681Y295819D02*
X245330D01*
Y295236D01*
X245443Y294095D01*
X245776Y292997D01*
X246316Y291986D01*
X247044Y291099D01*
X247931Y290371D01*
X248942Y289831D01*
X250040Y289498D01*
X250681Y289435D01*
Y295819D01*
D02*
G37*
G36*
X84390Y258312D02*
X83229Y258198D01*
X83077Y258152D01*
X82559Y258101D01*
X81462Y257768D01*
X80450Y257227D01*
X79563Y256500D01*
X78836Y255613D01*
X78295Y254601D01*
X77962Y253504D01*
X77899Y252862D01*
X91668D01*
X91605Y253504D01*
X91272Y254601D01*
X90731Y255613D01*
X90003Y256500D01*
X89117Y257227D01*
X88105Y257768D01*
X87008Y258101D01*
X85866Y258213D01*
X85394D01*
X84390Y258312D01*
D02*
G37*
G36*
X91668Y251862D02*
X77899D01*
X77962Y251221D01*
X78295Y250123D01*
X78836Y249112D01*
X79563Y248225D01*
X80450Y247497D01*
X81462Y246957D01*
X82559Y246624D01*
X82743Y246606D01*
X83327Y246428D01*
X84488Y246314D01*
X85649Y246428D01*
X85950Y246519D01*
X87008Y246624D01*
X88105Y246957D01*
X89117Y247497D01*
X90003Y248225D01*
X90731Y249112D01*
X91272Y250123D01*
X91605Y251221D01*
X91668Y251862D01*
D02*
G37*
G36*
X85866Y244827D02*
X85283D01*
Y239476D01*
X91668D01*
X91605Y240118D01*
X91272Y241215D01*
X90731Y242227D01*
X90003Y243114D01*
X89117Y243841D01*
X88105Y244382D01*
X87008Y244715D01*
X85866Y244827D01*
D02*
G37*
G36*
X84284D02*
X83701D01*
X82559Y244715D01*
X81462Y244382D01*
X80450Y243841D01*
X79563Y243114D01*
X78836Y242227D01*
X78295Y241215D01*
X77962Y240118D01*
X77899Y239476D01*
X84284D01*
Y244827D01*
D02*
G37*
G36*
X91668Y238476D02*
X85283D01*
Y233125D01*
X85866D01*
X87008Y233238D01*
X88105Y233571D01*
X89117Y234111D01*
X90003Y234839D01*
X90731Y235726D01*
X91272Y236737D01*
X91605Y237835D01*
X91668Y238476D01*
D02*
G37*
G36*
X84284D02*
X77899D01*
X77962Y237835D01*
X78295Y236737D01*
X78836Y235726D01*
X79563Y234839D01*
X80450Y234111D01*
X81462Y233571D01*
X82559Y233238D01*
X83701Y233125D01*
X84284D01*
Y238476D01*
D02*
G37*
G36*
X253256Y245211D02*
Y238827D01*
X258607D01*
Y239409D01*
X258494Y240551D01*
X258161Y241649D01*
X257621Y242660D01*
X256893Y243547D01*
X256007Y244274D01*
X254995Y244815D01*
X253897Y245148D01*
X253256Y245211D01*
D02*
G37*
G36*
X252256D02*
X251614Y245148D01*
X250517Y244815D01*
X249505Y244274D01*
X248619Y243547D01*
X247891Y242660D01*
X247350Y241649D01*
X247017Y240551D01*
X246905Y239409D01*
Y238827D01*
X252256D01*
Y245211D01*
D02*
G37*
G36*
X239870D02*
Y238827D01*
X245221D01*
Y239409D01*
X245109Y240551D01*
X244776Y241649D01*
X244235Y242660D01*
X243507Y243547D01*
X242621Y244274D01*
X241609Y244815D01*
X240511Y245148D01*
X239870Y245211D01*
D02*
G37*
G36*
X238870D02*
X238229Y245148D01*
X237131Y244815D01*
X236119Y244274D01*
X235233Y243547D01*
X234505Y242660D01*
X233964Y241649D01*
X233631Y240551D01*
X233519Y239409D01*
Y238827D01*
X238870D01*
Y245211D01*
D02*
G37*
G36*
Y237827D02*
X233519D01*
Y237244D01*
X233631Y236103D01*
X233964Y235005D01*
X234505Y233994D01*
X235233Y233107D01*
X236119Y232379D01*
X237131Y231838D01*
X238229Y231505D01*
X238870Y231442D01*
Y237827D01*
D02*
G37*
G36*
X258607Y237827D02*
X253256D01*
Y231442D01*
X253897Y231505D01*
X254995Y231838D01*
X256007Y232379D01*
X256893Y233107D01*
X257621Y233994D01*
X258161Y235005D01*
X258494Y236103D01*
X258607Y237244D01*
Y237827D01*
D02*
G37*
G36*
X252256D02*
X246905D01*
Y237244D01*
X247017Y236103D01*
X247350Y235005D01*
X247891Y233994D01*
X248619Y233107D01*
X249505Y232379D01*
X250517Y231838D01*
X251614Y231505D01*
X252256Y231442D01*
Y237827D01*
D02*
G37*
G36*
X245221Y237827D02*
X239870D01*
Y231442D01*
X240511Y231505D01*
X241609Y231838D01*
X242621Y232379D01*
X243507Y233107D01*
X244235Y233994D01*
X244776Y235005D01*
X245109Y236103D01*
X245221Y237244D01*
Y237827D01*
D02*
G37*
G36*
X528453Y241668D02*
Y235283D01*
X533804D01*
Y235866D01*
X533691Y237008D01*
X533358Y238105D01*
X532818Y239117D01*
X532090Y240003D01*
X531203Y240731D01*
X530192Y241272D01*
X529094Y241605D01*
X528453Y241668D01*
D02*
G37*
G36*
X527453D02*
X526811Y241605D01*
X525714Y241272D01*
X524702Y240731D01*
X523815Y240003D01*
X523088Y239117D01*
X522547Y238105D01*
X522214Y237008D01*
X522102Y235866D01*
Y235283D01*
X527453D01*
Y241668D01*
D02*
G37*
G36*
X515067D02*
Y235283D01*
X520418D01*
Y235866D01*
X520305Y237008D01*
X519973Y238105D01*
X519432Y239117D01*
X518704Y240003D01*
X517818Y240731D01*
X516806Y241272D01*
X515708Y241605D01*
X515067Y241668D01*
D02*
G37*
G36*
X514067D02*
X513425Y241605D01*
X512328Y241272D01*
X511316Y240731D01*
X510430Y240003D01*
X509702Y239117D01*
X509161Y238105D01*
X508828Y237008D01*
X508716Y235866D01*
Y235283D01*
X514067D01*
Y241668D01*
D02*
G37*
G36*
Y234283D02*
X508716D01*
Y233701D01*
X508828Y232559D01*
X509161Y231462D01*
X509702Y230450D01*
X510430Y229563D01*
X511316Y228836D01*
X512328Y228295D01*
X513425Y227962D01*
X514067Y227899D01*
Y234283D01*
D02*
G37*
G36*
X533804Y234283D02*
X528453D01*
Y227899D01*
X529094Y227962D01*
X530192Y228295D01*
X531203Y228836D01*
X532090Y229563D01*
X532818Y230450D01*
X533358Y231462D01*
X533691Y232559D01*
X533804Y233701D01*
Y234283D01*
D02*
G37*
G36*
X527453D02*
X522102D01*
Y233701D01*
X522214Y232559D01*
X522547Y231462D01*
X523088Y230450D01*
X523815Y229563D01*
X524702Y228836D01*
X525714Y228295D01*
X526811Y227962D01*
X527453Y227899D01*
Y234283D01*
D02*
G37*
G36*
X520418Y234283D02*
X515067D01*
Y227899D01*
X515708Y227962D01*
X516806Y228295D01*
X517818Y228836D01*
X518704Y229563D01*
X519432Y230450D01*
X519973Y231462D01*
X520305Y232559D01*
X520418Y233701D01*
Y234283D01*
D02*
G37*
G36*
X86244Y216367D02*
X85083Y216253D01*
X84712Y216140D01*
X84173Y216087D01*
X83701D01*
X82559Y215975D01*
X81462Y215642D01*
X80450Y215101D01*
X79563Y214373D01*
X78836Y213487D01*
X78295Y212475D01*
X77962Y211378D01*
X77899Y210736D01*
X84784D01*
Y209736D01*
X77899D01*
X77962Y209095D01*
X78295Y207997D01*
X78836Y206986D01*
X79563Y206099D01*
X80450Y205371D01*
X81462Y204831D01*
X82559Y204498D01*
X83701Y204385D01*
X84173D01*
X85177Y204286D01*
X86063D01*
X87224Y204401D01*
X88340Y204739D01*
X89369Y205289D01*
X90270Y206029D01*
X90451Y206210D01*
X91191Y207112D01*
X91741Y208140D01*
X92080Y209257D01*
X92194Y210417D01*
X92080Y211578D01*
X91741Y212694D01*
X91191Y213723D01*
X90451Y214625D01*
X89550Y215365D01*
X88521Y215914D01*
X87405Y216253D01*
X86244Y216367D01*
D02*
G37*
G36*
X85866Y202701D02*
X85283D01*
Y197350D01*
X91668D01*
X91605Y197992D01*
X91272Y199090D01*
X90731Y200101D01*
X90003Y200988D01*
X89117Y201715D01*
X88105Y202256D01*
X87008Y202589D01*
X85866Y202701D01*
D02*
G37*
G36*
X84284D02*
X83701D01*
X82559Y202589D01*
X81462Y202256D01*
X80450Y201715D01*
X79563Y200988D01*
X78836Y200101D01*
X78295Y199090D01*
X77962Y197992D01*
X77899Y197350D01*
X84284D01*
Y202701D01*
D02*
G37*
G36*
X91668Y196350D02*
X85283D01*
Y190999D01*
X85866D01*
X87008Y191112D01*
X88105Y191445D01*
X89117Y191985D01*
X90003Y192713D01*
X90731Y193600D01*
X91272Y194611D01*
X91605Y195709D01*
X91668Y196350D01*
D02*
G37*
G36*
X84284D02*
X77899D01*
X77962Y195709D01*
X78295Y194611D01*
X78836Y193600D01*
X79563Y192713D01*
X80450Y191985D01*
X81462Y191445D01*
X82559Y191112D01*
X83701Y190999D01*
X84284D01*
Y196350D01*
D02*
G37*
G36*
X253256Y192180D02*
Y185795D01*
X258607D01*
Y186378D01*
X258494Y187519D01*
X258161Y188617D01*
X257621Y189629D01*
X256893Y190515D01*
X256007Y191243D01*
X254995Y191784D01*
X253897Y192116D01*
X253256Y192180D01*
D02*
G37*
G36*
X252256D02*
X251614Y192116D01*
X250517Y191784D01*
X249505Y191243D01*
X248619Y190515D01*
X247891Y189629D01*
X247350Y188617D01*
X247017Y187519D01*
X246905Y186378D01*
Y185795D01*
X252256D01*
Y192180D01*
D02*
G37*
G36*
X239870D02*
Y185795D01*
X245221D01*
Y186378D01*
X245109Y187519D01*
X244776Y188617D01*
X244235Y189629D01*
X243507Y190515D01*
X242621Y191243D01*
X241609Y191784D01*
X240511Y192116D01*
X239870Y192180D01*
D02*
G37*
G36*
X238870D02*
X238229Y192116D01*
X237131Y191784D01*
X236119Y191243D01*
X235233Y190515D01*
X234505Y189629D01*
X233964Y188617D01*
X233631Y187519D01*
X233519Y186378D01*
Y185795D01*
X238870D01*
Y192180D01*
D02*
G37*
G36*
X258607Y184795D02*
X253256D01*
Y178411D01*
X253897Y178474D01*
X254995Y178807D01*
X256007Y179348D01*
X256893Y180075D01*
X257621Y180962D01*
X258161Y181974D01*
X258494Y183071D01*
X258607Y184213D01*
Y184795D01*
D02*
G37*
G36*
X245221Y184795D02*
X239870D01*
Y178411D01*
X240511Y178474D01*
X241609Y178807D01*
X242621Y179348D01*
X243507Y180075D01*
X244235Y180962D01*
X244776Y181974D01*
X245109Y183071D01*
X245221Y184213D01*
Y184795D01*
D02*
G37*
G36*
X238870D02*
X233519D01*
Y184213D01*
X233631Y183071D01*
X233964Y181974D01*
X234505Y180962D01*
X235233Y180075D01*
X236119Y179348D01*
X237131Y178807D01*
X238229Y178474D01*
X238870Y178411D01*
Y184795D01*
D02*
G37*
G36*
X252256Y184795D02*
X246905D01*
Y184213D01*
X247017Y183071D01*
X247350Y181974D01*
X247891Y180962D01*
X248619Y180075D01*
X249505Y179348D01*
X250517Y178807D01*
X251614Y178474D01*
X252256Y178411D01*
Y184795D01*
D02*
G37*
G36*
X528453Y188636D02*
Y182252D01*
X533804D01*
Y182835D01*
X533691Y183976D01*
X533358Y185074D01*
X532818Y186085D01*
X532090Y186972D01*
X531203Y187700D01*
X530192Y188240D01*
X529094Y188573D01*
X528453Y188636D01*
D02*
G37*
G36*
X527453D02*
X526811Y188573D01*
X525714Y188240D01*
X524702Y187700D01*
X523815Y186972D01*
X523088Y186085D01*
X522547Y185074D01*
X522214Y183976D01*
X522102Y182835D01*
Y182252D01*
X527453D01*
Y188636D01*
D02*
G37*
G36*
X515067D02*
Y182252D01*
X520418D01*
Y182835D01*
X520305Y183976D01*
X519973Y185074D01*
X519432Y186085D01*
X518704Y186972D01*
X517818Y187700D01*
X516806Y188240D01*
X515708Y188573D01*
X515067Y188636D01*
D02*
G37*
G36*
X514067D02*
X513425Y188573D01*
X512328Y188240D01*
X511316Y187700D01*
X510430Y186972D01*
X509702Y186085D01*
X509161Y185074D01*
X508828Y183976D01*
X508716Y182835D01*
Y182252D01*
X514067D01*
Y188636D01*
D02*
G37*
G36*
X533804Y181252D02*
X528453D01*
Y174867D01*
X529094Y174931D01*
X530192Y175264D01*
X531203Y175804D01*
X532090Y176532D01*
X532818Y177419D01*
X533358Y178430D01*
X533691Y179528D01*
X533804Y180669D01*
Y181252D01*
D02*
G37*
G36*
X520418Y181252D02*
X515067D01*
Y174867D01*
X515708Y174931D01*
X516806Y175264D01*
X517818Y175804D01*
X518704Y176532D01*
X519432Y177419D01*
X519973Y178430D01*
X520305Y179528D01*
X520418Y180669D01*
Y181252D01*
D02*
G37*
G36*
X514067D02*
X508716D01*
Y180669D01*
X508828Y179528D01*
X509161Y178430D01*
X509702Y177419D01*
X510430Y176532D01*
X511316Y175804D01*
X512328Y175264D01*
X513425Y174931D01*
X514067Y174867D01*
Y181252D01*
D02*
G37*
G36*
X527453Y181252D02*
X522102D01*
Y180669D01*
X522214Y179528D01*
X522547Y178430D01*
X523088Y177419D01*
X523815Y176532D01*
X524702Y175804D01*
X525714Y175264D01*
X526811Y174931D01*
X527453Y174867D01*
Y181252D01*
D02*
G37*
G36*
X85020Y172977D02*
X83859Y172863D01*
X83530Y172763D01*
X82559Y172668D01*
X81462Y172335D01*
X80450Y171794D01*
X79563Y171066D01*
X78836Y170180D01*
X78295Y169168D01*
X77962Y168071D01*
X77899Y167429D01*
X91668D01*
X91605Y168071D01*
X91272Y169168D01*
X90731Y170180D01*
X90003Y171066D01*
X89117Y171794D01*
X88105Y172335D01*
X87008Y172668D01*
X86737Y172694D01*
X86180Y172863D01*
X85020Y172977D01*
D02*
G37*
G36*
X91668Y166429D02*
X77899D01*
X77962Y165788D01*
X78295Y164690D01*
X78836Y163679D01*
X79563Y162792D01*
X80450Y162064D01*
X81462Y161523D01*
X82559Y161191D01*
X83701Y161078D01*
X83917D01*
X84921Y160979D01*
X86082Y161094D01*
X86111Y161102D01*
X87008Y161191D01*
X88105Y161523D01*
X89117Y162064D01*
X90003Y162792D01*
X90731Y163679D01*
X91272Y164690D01*
X91605Y165788D01*
X91668Y166429D01*
D02*
G37*
G36*
X85866Y159394D02*
X85283D01*
Y154043D01*
X91668D01*
X91605Y154685D01*
X91272Y155782D01*
X90731Y156794D01*
X90003Y157681D01*
X89117Y158408D01*
X88105Y158949D01*
X87008Y159282D01*
X85866Y159394D01*
D02*
G37*
G36*
X84284D02*
X83701D01*
X82559Y159282D01*
X81462Y158949D01*
X80450Y158408D01*
X79563Y157681D01*
X78836Y156794D01*
X78295Y155782D01*
X77962Y154685D01*
X77899Y154043D01*
X84284D01*
Y159394D01*
D02*
G37*
G36*
X91668Y153043D02*
X85283D01*
Y147692D01*
X85866D01*
X87008Y147805D01*
X88105Y148138D01*
X89117Y148678D01*
X90003Y149406D01*
X90731Y150293D01*
X91272Y151304D01*
X91605Y152402D01*
X91668Y153043D01*
D02*
G37*
G36*
X84284D02*
X77899D01*
X77962Y152402D01*
X78295Y151304D01*
X78836Y150293D01*
X79563Y149406D01*
X80450Y148678D01*
X81462Y148138D01*
X82559Y147805D01*
X83701Y147692D01*
X84284D01*
Y153043D01*
D02*
G37*
G36*
X86244Y128966D02*
X85083Y128851D01*
X84712Y128739D01*
X84173Y128686D01*
X83701D01*
X82559Y128573D01*
X81462Y128240D01*
X80450Y127700D01*
X79563Y126972D01*
X78836Y126085D01*
X78295Y125074D01*
X77962Y123976D01*
X77899Y123335D01*
X84784D01*
Y122335D01*
X77899D01*
X77962Y121693D01*
X78295Y120596D01*
X78836Y119584D01*
X79563Y118697D01*
X80450Y117970D01*
X81462Y117429D01*
X82559Y117096D01*
X83701Y116984D01*
X84173D01*
X85177Y116885D01*
X86063D01*
X87224Y116999D01*
X88340Y117338D01*
X89369Y117887D01*
X90270Y118627D01*
X90451Y118808D01*
X91191Y119710D01*
X91741Y120739D01*
X92080Y121855D01*
X92194Y123016D01*
X92080Y124177D01*
X91741Y125293D01*
X91191Y126321D01*
X90451Y127223D01*
X89550Y127963D01*
X88521Y128513D01*
X87405Y128851D01*
X86244Y128966D01*
D02*
G37*
G36*
X85866Y115300D02*
X85283D01*
Y109949D01*
X91668D01*
X91605Y110590D01*
X91272Y111688D01*
X90731Y112699D01*
X90003Y113586D01*
X89117Y114314D01*
X88105Y114854D01*
X87008Y115187D01*
X85866Y115300D01*
D02*
G37*
G36*
X84284D02*
X83701D01*
X82559Y115187D01*
X81462Y114854D01*
X80450Y114314D01*
X79563Y113586D01*
X78836Y112699D01*
X78295Y111688D01*
X77962Y110590D01*
X77899Y109949D01*
X84284D01*
Y115300D01*
D02*
G37*
G36*
X91668Y108949D02*
X85283D01*
Y103598D01*
X85866D01*
X87008Y103710D01*
X88105Y104043D01*
X89117Y104584D01*
X90003Y105312D01*
X90731Y106198D01*
X91272Y107210D01*
X91605Y108307D01*
X91668Y108949D01*
D02*
G37*
G36*
X84284D02*
X77899D01*
X77962Y108307D01*
X78295Y107210D01*
X78836Y106198D01*
X79563Y105312D01*
X80450Y104584D01*
X81462Y104043D01*
X82559Y103710D01*
X83701Y103598D01*
X84284D01*
Y108949D01*
D02*
G37*
G36*
X32835Y258213D02*
X32252D01*
Y252862D01*
X38636D01*
X38573Y253504D01*
X38240Y254601D01*
X37700Y255613D01*
X36972Y256500D01*
X36085Y257227D01*
X35074Y257768D01*
X33976Y258101D01*
X32835Y258213D01*
D02*
G37*
G36*
X31252D02*
X30669D01*
X29528Y258101D01*
X28430Y257768D01*
X27419Y257227D01*
X26532Y256500D01*
X25804Y255613D01*
X25264Y254601D01*
X24931Y253504D01*
X24868Y252862D01*
X31252D01*
Y258213D01*
D02*
G37*
G36*
X38636Y251862D02*
X32252D01*
Y246511D01*
X32835D01*
X33976Y246624D01*
X35074Y246957D01*
X36085Y247497D01*
X36972Y248225D01*
X37700Y249112D01*
X38240Y250123D01*
X38573Y251221D01*
X38636Y251862D01*
D02*
G37*
G36*
X31252D02*
X24868D01*
X24931Y251221D01*
X25264Y250123D01*
X25804Y249112D01*
X26532Y248225D01*
X27419Y247497D01*
X28430Y246957D01*
X29528Y246624D01*
X30669Y246511D01*
X31252D01*
Y251862D01*
D02*
G37*
G36*
X32835Y244827D02*
X32252D01*
Y239476D01*
X38636D01*
X38573Y240118D01*
X38240Y241215D01*
X37700Y242227D01*
X36972Y243114D01*
X36085Y243841D01*
X35074Y244382D01*
X33976Y244715D01*
X32835Y244827D01*
D02*
G37*
G36*
X31252D02*
X30669D01*
X29528Y244715D01*
X28430Y244382D01*
X27419Y243841D01*
X26532Y243114D01*
X25804Y242227D01*
X25264Y241215D01*
X24931Y240118D01*
X24868Y239476D01*
X31252D01*
Y244827D01*
D02*
G37*
G36*
X38636Y238476D02*
X32252D01*
Y233125D01*
X32835D01*
X33976Y233238D01*
X35074Y233571D01*
X36085Y234111D01*
X36972Y234839D01*
X37700Y235726D01*
X38240Y236737D01*
X38573Y237835D01*
X38636Y238476D01*
D02*
G37*
G36*
X31252D02*
X24868D01*
X24931Y237835D01*
X25264Y236737D01*
X25804Y235726D01*
X26532Y234839D01*
X27419Y234111D01*
X28430Y233571D01*
X29528Y233238D01*
X30669Y233125D01*
X31252D01*
Y238476D01*
D02*
G37*
G36*
X32835Y216087D02*
X32252D01*
Y210736D01*
X38636D01*
X38573Y211378D01*
X38240Y212475D01*
X37700Y213487D01*
X36972Y214373D01*
X36085Y215101D01*
X35074Y215642D01*
X33976Y215975D01*
X32835Y216087D01*
D02*
G37*
G36*
X31252D02*
X30669D01*
X29528Y215975D01*
X28430Y215642D01*
X27419Y215101D01*
X26532Y214373D01*
X25804Y213487D01*
X25264Y212475D01*
X24931Y211378D01*
X24868Y210736D01*
X31252D01*
Y216087D01*
D02*
G37*
G36*
X38636Y209736D02*
X32252D01*
Y204385D01*
X32835D01*
X33976Y204498D01*
X35074Y204831D01*
X36085Y205371D01*
X36972Y206099D01*
X37700Y206986D01*
X38240Y207997D01*
X38573Y209095D01*
X38636Y209736D01*
D02*
G37*
G36*
X31252D02*
X24868D01*
X24931Y209095D01*
X25264Y207997D01*
X25804Y206986D01*
X26532Y206099D01*
X27419Y205371D01*
X28430Y204831D01*
X29528Y204498D01*
X30669Y204385D01*
X31252D01*
Y209736D01*
D02*
G37*
G36*
X32835Y202701D02*
X32252D01*
Y197350D01*
X38636D01*
X38573Y197992D01*
X38240Y199090D01*
X37700Y200101D01*
X36972Y200988D01*
X36085Y201715D01*
X35074Y202256D01*
X33976Y202589D01*
X32835Y202701D01*
D02*
G37*
G36*
X31252D02*
X30669D01*
X29528Y202589D01*
X28430Y202256D01*
X27419Y201715D01*
X26532Y200988D01*
X25804Y200101D01*
X25264Y199090D01*
X24931Y197992D01*
X24868Y197350D01*
X31252D01*
Y202701D01*
D02*
G37*
G36*
X38636Y196350D02*
X32252D01*
Y190999D01*
X32835D01*
X33976Y191112D01*
X35074Y191445D01*
X36085Y191985D01*
X36972Y192713D01*
X37700Y193600D01*
X38240Y194611D01*
X38573Y195709D01*
X38636Y196350D01*
D02*
G37*
G36*
X31252D02*
X24868D01*
X24931Y195709D01*
X25264Y194611D01*
X25804Y193600D01*
X26532Y192713D01*
X27419Y191985D01*
X28430Y191445D01*
X29528Y191112D01*
X30669Y190999D01*
X31252D01*
Y196350D01*
D02*
G37*
G36*
X32835Y172780D02*
X32252D01*
Y167429D01*
X38636D01*
X38573Y168071D01*
X38240Y169168D01*
X37700Y170180D01*
X36972Y171066D01*
X36085Y171794D01*
X35074Y172335D01*
X33976Y172668D01*
X32835Y172780D01*
D02*
G37*
G36*
X31252D02*
X30669D01*
X29528Y172668D01*
X28430Y172335D01*
X27419Y171794D01*
X26532Y171066D01*
X25804Y170180D01*
X25264Y169168D01*
X24931Y168071D01*
X24868Y167429D01*
X31252D01*
Y172780D01*
D02*
G37*
G36*
X38636Y166429D02*
X32252D01*
Y161078D01*
X32835D01*
X33976Y161191D01*
X35074Y161523D01*
X36085Y162064D01*
X36972Y162792D01*
X37700Y163679D01*
X38240Y164690D01*
X38573Y165788D01*
X38636Y166429D01*
D02*
G37*
G36*
X31252D02*
X24868D01*
X24931Y165788D01*
X25264Y164690D01*
X25804Y163679D01*
X26532Y162792D01*
X27419Y162064D01*
X28430Y161523D01*
X29528Y161191D01*
X30669Y161078D01*
X31252D01*
Y166429D01*
D02*
G37*
G36*
X32835Y159394D02*
X32252D01*
Y154043D01*
X38636D01*
X38573Y154685D01*
X38240Y155782D01*
X37700Y156794D01*
X36972Y157681D01*
X36085Y158408D01*
X35074Y158949D01*
X33976Y159282D01*
X32835Y159394D01*
D02*
G37*
G36*
X31252D02*
X30669D01*
X29528Y159282D01*
X28430Y158949D01*
X27419Y158408D01*
X26532Y157681D01*
X25804Y156794D01*
X25264Y155782D01*
X24931Y154685D01*
X24868Y154043D01*
X31252D01*
Y159394D01*
D02*
G37*
G36*
X38636Y153043D02*
X32252D01*
Y147692D01*
X32835D01*
X33976Y147805D01*
X35074Y148138D01*
X36085Y148678D01*
X36972Y149406D01*
X37700Y150293D01*
X38240Y151304D01*
X38573Y152402D01*
X38636Y153043D01*
D02*
G37*
G36*
X31252D02*
X24868D01*
X24931Y152402D01*
X25264Y151304D01*
X25804Y150293D01*
X26532Y149406D01*
X27419Y148678D01*
X28430Y148138D01*
X29528Y147805D01*
X30669Y147692D01*
X31252D01*
Y153043D01*
D02*
G37*
G36*
X32835Y128686D02*
X32252D01*
Y123335D01*
X38636D01*
X38573Y123976D01*
X38240Y125074D01*
X37700Y126085D01*
X36972Y126972D01*
X36085Y127700D01*
X35074Y128240D01*
X33976Y128573D01*
X32835Y128686D01*
D02*
G37*
G36*
X31252D02*
X30669D01*
X29528Y128573D01*
X28430Y128240D01*
X27419Y127700D01*
X26532Y126972D01*
X25804Y126085D01*
X25264Y125074D01*
X24931Y123976D01*
X24868Y123335D01*
X31252D01*
Y128686D01*
D02*
G37*
G36*
X38636Y122335D02*
X32252D01*
Y116984D01*
X32835D01*
X33976Y117096D01*
X35074Y117429D01*
X36085Y117970D01*
X36972Y118697D01*
X37700Y119584D01*
X38240Y120596D01*
X38573Y121693D01*
X38636Y122335D01*
D02*
G37*
G36*
X31252D02*
X24868D01*
X24931Y121693D01*
X25264Y120596D01*
X25804Y119584D01*
X26532Y118697D01*
X27419Y117970D01*
X28430Y117429D01*
X29528Y117096D01*
X30669Y116984D01*
X31252D01*
Y122335D01*
D02*
G37*
G36*
X32835Y115300D02*
X32252D01*
Y109949D01*
X38636D01*
X38573Y110590D01*
X38240Y111688D01*
X37700Y112699D01*
X36972Y113586D01*
X36085Y114314D01*
X35074Y114854D01*
X33976Y115187D01*
X32835Y115300D01*
D02*
G37*
G36*
X31252D02*
X30669D01*
X29528Y115187D01*
X28430Y114854D01*
X27419Y114314D01*
X26532Y113586D01*
X25804Y112699D01*
X25264Y111688D01*
X24931Y110590D01*
X24868Y109949D01*
X31252D01*
Y115300D01*
D02*
G37*
G36*
X38636Y108949D02*
X32252D01*
Y103598D01*
X32835D01*
X33976Y103710D01*
X35074Y104043D01*
X36085Y104584D01*
X36972Y105312D01*
X37700Y106198D01*
X38240Y107210D01*
X38573Y108307D01*
X38636Y108949D01*
D02*
G37*
G36*
X31252D02*
X24868D01*
X24931Y108307D01*
X25264Y107210D01*
X25804Y106198D01*
X26532Y105312D01*
X27419Y104584D01*
X28430Y104043D01*
X29528Y103710D01*
X30669Y103598D01*
X31252D01*
Y108949D01*
D02*
G37*
G36*
X409162Y81432D02*
Y75047D01*
X414512D01*
Y75630D01*
X414400Y76771D01*
X414067Y77869D01*
X413526Y78881D01*
X412799Y79767D01*
X411912Y80495D01*
X410900Y81036D01*
X409803Y81368D01*
X409162Y81432D01*
D02*
G37*
G36*
X408161Y81432D02*
X407520Y81368D01*
X406422Y81036D01*
X405411Y80495D01*
X404524Y79767D01*
X403796Y78881D01*
X403256Y77869D01*
X402923Y76771D01*
X402810Y75630D01*
Y75047D01*
X408161D01*
Y81432D01*
D02*
G37*
G36*
X422547Y81432D02*
Y75047D01*
X427898D01*
Y75630D01*
X427786Y76771D01*
X427453Y77869D01*
X426912Y78881D01*
X426185Y79767D01*
X425298Y80495D01*
X424286Y81036D01*
X423189Y81368D01*
X422547Y81432D01*
D02*
G37*
G36*
X421547D02*
X420906Y81368D01*
X419808Y81036D01*
X418797Y80495D01*
X417910Y79767D01*
X417182Y78881D01*
X416642Y77869D01*
X416309Y76771D01*
X416196Y75630D01*
Y75047D01*
X421547D01*
Y81432D01*
D02*
G37*
G36*
X414512Y74047D02*
X409162D01*
Y67663D01*
X409803Y67726D01*
X410900Y68059D01*
X411912Y68600D01*
X412799Y69327D01*
X413526Y70214D01*
X414067Y71226D01*
X414400Y72323D01*
X414512Y73465D01*
Y74047D01*
D02*
G37*
G36*
X427898Y74047D02*
X422547D01*
Y67663D01*
X423189Y67726D01*
X424286Y68059D01*
X425298Y68600D01*
X426185Y69327D01*
X426912Y70214D01*
X427453Y71226D01*
X427786Y72323D01*
X427898Y73465D01*
Y74047D01*
D02*
G37*
G36*
X421547D02*
X416196D01*
Y73465D01*
X416309Y72323D01*
X416642Y71226D01*
X417182Y70214D01*
X417910Y69327D01*
X418797Y68600D01*
X419808Y68059D01*
X420906Y67726D01*
X421547Y67663D01*
Y74047D01*
D02*
G37*
G36*
X408161Y74047D02*
X402810D01*
Y73465D01*
X402923Y72323D01*
X403256Y71226D01*
X403796Y70214D01*
X404524Y69327D01*
X405411Y68600D01*
X406422Y68059D01*
X407520Y67726D01*
X408161Y67663D01*
Y74047D01*
D02*
G37*
G36*
X152862Y81038D02*
Y74654D01*
X158213D01*
Y75236D01*
X158101Y76378D01*
X157768Y77475D01*
X157227Y78487D01*
X156500Y79374D01*
X155613Y80101D01*
X154601Y80642D01*
X153504Y80975D01*
X152862Y81038D01*
D02*
G37*
G36*
X139476D02*
Y74654D01*
X144827D01*
Y75236D01*
X144715Y76378D01*
X144382Y77475D01*
X143841Y78487D01*
X143114Y79374D01*
X142227Y80101D01*
X141216Y80642D01*
X140118Y80975D01*
X139476Y81038D01*
D02*
G37*
G36*
X151862D02*
X151221Y80975D01*
X150123Y80642D01*
X149112Y80101D01*
X148225Y79374D01*
X147497Y78487D01*
X146957Y77475D01*
X146624Y76378D01*
X146511Y75236D01*
Y74654D01*
X151862D01*
Y81038D01*
D02*
G37*
G36*
X138476D02*
X137835Y80975D01*
X136737Y80642D01*
X135726Y80101D01*
X134839Y79374D01*
X134111Y78487D01*
X133571Y77475D01*
X133238Y76378D01*
X133125Y75236D01*
Y74654D01*
X138476D01*
Y81038D01*
D02*
G37*
G36*
X151862Y73654D02*
X146511D01*
Y73071D01*
X146624Y71929D01*
X146957Y70832D01*
X147497Y69820D01*
X148225Y68934D01*
X149112Y68206D01*
X150123Y67665D01*
X151221Y67332D01*
X151862Y67269D01*
Y73654D01*
D02*
G37*
G36*
X138476D02*
X133125D01*
Y73071D01*
X133238Y71929D01*
X133571Y70832D01*
X134111Y69820D01*
X134839Y68934D01*
X135726Y68206D01*
X136737Y67665D01*
X137835Y67332D01*
X138476Y67269D01*
Y73654D01*
D02*
G37*
G36*
X158213D02*
X152862D01*
Y67269D01*
X153504Y67332D01*
X154601Y67665D01*
X155613Y68206D01*
X156500Y68934D01*
X157227Y69820D01*
X157768Y70832D01*
X158101Y71929D01*
X158213Y73071D01*
Y73654D01*
D02*
G37*
G36*
X144827D02*
X139476D01*
Y67269D01*
X140118Y67332D01*
X141216Y67665D01*
X142227Y68206D01*
X143114Y68934D01*
X143841Y69820D01*
X144382Y70832D01*
X144715Y71929D01*
X144827Y73071D01*
Y73654D01*
D02*
G37*
G36*
X409161Y28400D02*
Y22016D01*
X414512D01*
Y22598D01*
X414400Y23740D01*
X414067Y24837D01*
X413526Y25849D01*
X412799Y26736D01*
X411912Y27463D01*
X410900Y28004D01*
X409803Y28337D01*
X409161Y28400D01*
D02*
G37*
G36*
X408161D02*
X407520Y28337D01*
X406422Y28004D01*
X405411Y27463D01*
X404524Y26736D01*
X403796Y25849D01*
X403256Y24837D01*
X402923Y23740D01*
X402810Y22598D01*
Y22016D01*
X408161D01*
Y28400D01*
D02*
G37*
G36*
X422547D02*
Y22016D01*
X427898D01*
Y22598D01*
X427786Y23740D01*
X427453Y24837D01*
X426912Y25849D01*
X426185Y26736D01*
X425298Y27463D01*
X424286Y28004D01*
X423189Y28337D01*
X422547Y28400D01*
D02*
G37*
G36*
X421547D02*
X420906Y28337D01*
X419808Y28004D01*
X418797Y27463D01*
X417910Y26736D01*
X417182Y25849D01*
X416642Y24837D01*
X416309Y23740D01*
X416196Y22598D01*
Y22016D01*
X421547D01*
Y28400D01*
D02*
G37*
G36*
X414512Y21016D02*
X409161D01*
Y14631D01*
X409803Y14694D01*
X410900Y15027D01*
X411912Y15568D01*
X412799Y16296D01*
X413526Y17182D01*
X414067Y18194D01*
X414400Y19292D01*
X414512Y20433D01*
Y21016D01*
D02*
G37*
G36*
X427898Y21016D02*
X422547D01*
Y14631D01*
X423189Y14694D01*
X424286Y15027D01*
X425298Y15568D01*
X426185Y16296D01*
X426912Y17182D01*
X427453Y18194D01*
X427786Y19292D01*
X427898Y20433D01*
Y21016D01*
D02*
G37*
G36*
X421547D02*
X416196D01*
Y20433D01*
X416309Y19292D01*
X416642Y18194D01*
X417182Y17182D01*
X417910Y16296D01*
X418797Y15568D01*
X419808Y15027D01*
X420906Y14694D01*
X421547Y14631D01*
Y21016D01*
D02*
G37*
G36*
X408161Y21016D02*
X402810D01*
Y20433D01*
X402923Y19292D01*
X403256Y18194D01*
X403796Y17182D01*
X404524Y16296D01*
X405411Y15568D01*
X406422Y15027D01*
X407520Y14694D01*
X408161Y14631D01*
Y21016D01*
D02*
G37*
G36*
X152862Y28007D02*
Y21622D01*
X158213D01*
Y22205D01*
X158101Y23346D01*
X157768Y24444D01*
X157227Y25455D01*
X156500Y26342D01*
X155613Y27070D01*
X154601Y27610D01*
X153504Y27943D01*
X152862Y28007D01*
D02*
G37*
G36*
X139476D02*
Y21622D01*
X144827D01*
Y22205D01*
X144715Y23346D01*
X144382Y24444D01*
X143841Y25455D01*
X143114Y26342D01*
X142227Y27070D01*
X141216Y27610D01*
X140118Y27943D01*
X139476Y28007D01*
D02*
G37*
G36*
X151862D02*
X151221Y27943D01*
X150123Y27610D01*
X149112Y27070D01*
X148225Y26342D01*
X147497Y25455D01*
X146957Y24444D01*
X146624Y23346D01*
X146511Y22205D01*
Y21622D01*
X151862D01*
Y28007D01*
D02*
G37*
G36*
X138476D02*
X137835Y27943D01*
X136737Y27610D01*
X135726Y27070D01*
X134839Y26342D01*
X134111Y25455D01*
X133571Y24444D01*
X133238Y23346D01*
X133125Y22205D01*
Y21622D01*
X138476D01*
Y28007D01*
D02*
G37*
G36*
X158213Y20622D02*
X152862D01*
Y14238D01*
X153504Y14301D01*
X154601Y14634D01*
X155613Y15174D01*
X156500Y15902D01*
X157227Y16789D01*
X157768Y17800D01*
X158101Y18898D01*
X158213Y20039D01*
Y20622D01*
D02*
G37*
G36*
X144827D02*
X139476D01*
Y14238D01*
X140118Y14301D01*
X141216Y14634D01*
X142227Y15174D01*
X143114Y15902D01*
X143841Y16789D01*
X144382Y17800D01*
X144715Y18898D01*
X144827Y20039D01*
Y20622D01*
D02*
G37*
G36*
X151862D02*
X146511D01*
Y20039D01*
X146624Y18898D01*
X146957Y17800D01*
X147497Y16789D01*
X148225Y15902D01*
X149112Y15174D01*
X150123Y14634D01*
X151221Y14301D01*
X151862Y14238D01*
Y20622D01*
D02*
G37*
G36*
X138476D02*
X133125D01*
Y20039D01*
X133238Y18898D01*
X133571Y17800D01*
X134111Y16789D01*
X134839Y15902D01*
X135726Y15174D01*
X136737Y14634D01*
X137835Y14301D01*
X138476Y14238D01*
Y20622D01*
D02*
G37*
%LPD*%
D11*
X580813Y424984D02*
X586614D01*
X581496Y470260D02*
X584646Y467110D01*
X537146Y472835D02*
X538800Y471180D01*
X86827Y311811D02*
X88829D01*
X31890Y153543D02*
X32018Y153415D01*
X31890Y166929D02*
X32018Y167057D01*
Y122963D02*
X32146Y122835D01*
X134119Y126692D02*
X137795Y123016D01*
X31358Y238976D02*
X31752Y238583D01*
Y210630D02*
X32146Y210236D01*
X32018Y196722D02*
X32146Y196850D01*
X338583Y107268D02*
X338779Y107071D01*
X451968Y322584D02*
X452626Y323241D01*
X483858Y431496D02*
X483986Y431624D01*
D43*
X98425Y251969D02*
X137614D01*
X137795Y252150D01*
X98912Y210417D02*
X138189D01*
X99518Y165354D02*
X135827D01*
X136827Y122047D02*
X137795Y123016D01*
X99808Y122047D02*
X136827D01*
X135827Y165354D02*
X137795Y167323D01*
D44*
X137681Y252264D02*
X137795Y252150D01*
X368110Y427165D02*
X368291Y427347D01*
X403429Y428248D02*
X404331Y427347D01*
X368291D02*
X404331D01*
X171495Y490945D02*
X202575D01*
X203756Y492126D01*
X476772Y539764D02*
X484114Y532421D01*
X256285Y395669D02*
X431102D01*
X248606Y403348D02*
X256285Y395669D01*
X248606Y403348D02*
Y445669D01*
X551362Y427347D02*
X584252D01*
X551181Y427165D02*
X551362Y427347D01*
X584433Y470472D02*
X584646Y470260D01*
X551181Y470472D02*
X584433D01*
X549425Y509630D02*
X584252D01*
X549213Y509842D02*
X549425Y509630D01*
X366354Y470260D02*
X403150D01*
X366142Y470472D02*
X366354Y470260D01*
X368110Y509842D02*
X368323Y509630D01*
X402756D01*
X301181Y525591D02*
Y539764D01*
X354075Y511417D02*
X354961D01*
X254978Y539764D02*
X301181D01*
X463386D01*
X484114Y517768D02*
X484614Y517268D01*
X484114Y517768D02*
Y532421D01*
X431102Y395669D02*
X606833D01*
X432677Y397244D02*
Y427347D01*
X431102Y395669D02*
X432677Y397244D01*
X584071Y427165D02*
X584252Y427347D01*
X581496Y470260D02*
X584646D01*
X582563Y511319D02*
X584252Y509630D01*
X402642Y470768D02*
X403150Y470260D01*
X612598Y401435D02*
Y427347D01*
X606833Y395669D02*
X612598Y401435D01*
X84921Y166929D02*
X85020Y167027D01*
X85177Y122835D02*
X86063D01*
X86244Y123016D01*
X84390Y252362D02*
X84488Y252264D01*
X85177Y210236D02*
X86063D01*
X86244Y210417D01*
X246638Y518898D02*
X248606Y520866D01*
Y445669D02*
Y492520D01*
Y520866D02*
X249213Y521472D01*
Y533998D01*
X254978Y539764D01*
X300650Y470866D02*
X300945D01*
X301043Y470964D01*
X432087Y427937D02*
X432677Y427347D01*
X353681Y428346D02*
X353780Y428248D01*
X432087Y427937D02*
Y469669D01*
X431496Y470260D02*
X432087Y469669D01*
X431299Y470457D02*
X431496Y470260D01*
X353681Y470866D02*
X353780Y470768D01*
X431299Y470457D02*
Y509433D01*
X431102Y509630D02*
X431299Y509433D01*
X612598Y427347D02*
X612795Y427543D01*
X537146Y428346D02*
X538031D01*
X612795Y427543D02*
Y470063D01*
X463386Y539764D02*
X476772D01*
X537146Y511417D02*
X537244Y511319D01*
X537539Y470866D02*
X537638Y470768D01*
X612795Y470063D02*
X612992Y470260D01*
X612795Y470457D02*
X612992Y470260D01*
X612795Y470457D02*
Y509433D01*
X612598Y509630D02*
X612795Y509433D01*
D45*
X31890Y270079D02*
X43307Y281496D01*
X31890Y268898D02*
Y270079D01*
X108593Y383790D02*
X130315Y405512D01*
Y481496D01*
X102909D02*
X130315D01*
Y518110D01*
X143701Y531496D01*
X166142Y167323D02*
Y252150D01*
X148311Y342126D02*
X166142Y324296D01*
X87614Y342126D02*
X148311D01*
X43307Y281496D02*
X73902D01*
X86221Y293815D01*
X40732Y342913D02*
X41339Y343520D01*
Y362205D01*
X86221Y293815D02*
Y311320D01*
X87614Y312714D02*
Y313779D01*
X86221Y311320D02*
X87614Y312714D01*
X166142Y123016D02*
Y167323D01*
Y252150D02*
Y298425D01*
Y324296D01*
D46*
X31945Y68385D02*
Y101520D01*
X31890Y101575D02*
X31945Y101520D01*
X408268Y138583D02*
X415354Y131496D01*
Y83948D02*
Y131496D01*
X203937Y139370D02*
Y237008D01*
Y102362D02*
Y139370D01*
X204724Y138583D01*
X408268D01*
X196850Y95276D02*
X203937Y102362D01*
X148819Y95276D02*
X196850D01*
X145276Y91732D02*
X148819Y95276D01*
X145276Y83071D02*
Y91732D01*
X661692Y490890D02*
Y531946D01*
X482283Y534252D02*
X659386D01*
X661692Y531946D01*
X464961Y541339D02*
X476772D01*
X128740Y403937D02*
X198425D01*
X203937Y348819D02*
Y398425D01*
X198425Y403937D02*
X203937Y398425D01*
Y237008D02*
Y348819D01*
X203937Y237008D02*
X231890D01*
X203937Y237008D02*
X203937Y237008D01*
X203937Y348819D02*
X204468Y349350D01*
X237795D01*
X109843Y103937D02*
X164173D01*
X166535Y106299D01*
Y122622D01*
X106735Y100829D02*
X109843Y103937D01*
X192520Y75984D02*
X200787Y84252D01*
X294094D01*
X298763Y88920D01*
X192520Y65748D02*
Y75984D01*
X185082Y58661D02*
X295669D01*
X182776Y60968D02*
Y65650D01*
X298819Y21250D02*
Y55512D01*
X182677Y65748D02*
X182776Y65650D01*
Y60968D02*
X185082Y58661D01*
X295669D02*
X298819Y55512D01*
X106735Y67833D02*
Y100829D01*
X161415Y21122D02*
X172835D01*
X462598Y382677D02*
X564173D01*
X568898Y372016D02*
Y377953D01*
X564173Y382677D02*
X568898Y377953D01*
X457874Y350731D02*
X460180Y348425D01*
X507660D01*
X457874Y350731D02*
Y363442D01*
X535433Y305118D02*
X568716D01*
X592913Y298425D02*
Y326378D01*
X571866Y330315D02*
X588976D01*
X592913Y326378D01*
X568716Y209449D02*
X587795D01*
X592520Y204724D01*
Y173228D02*
Y204724D01*
Y173228D02*
X597286Y168462D01*
X609171D01*
X537402Y181102D02*
X568716D01*
X497638Y23822D02*
Y52783D01*
X454724Y21516D02*
X495331D01*
X497638Y23822D01*
X431240Y21516D02*
X454724D01*
X431102Y21654D02*
X431240Y21516D01*
X454724D02*
X457715Y24506D01*
Y41313D01*
X261811Y185039D02*
X298425D01*
X261811Y185039D02*
X261811Y185039D01*
X252756Y185295D02*
X252884Y185167D01*
X296513Y303599D02*
X297244Y304331D01*
X259842Y297244D02*
X291339D01*
X296513Y302418D02*
Y303599D01*
X291339Y297244D02*
X296513Y302418D01*
X87614Y313779D02*
X88008Y313386D01*
X86221Y293815D02*
X91225Y298819D01*
X59504Y68385D02*
X59583Y68306D01*
X59504Y68385D02*
X96182D01*
X96734Y67833D01*
X172835Y21122D02*
X177400Y25688D01*
Y37770D01*
X172835Y21122D02*
X216004D01*
X196784Y37362D02*
X197085Y37663D01*
Y37770D01*
X216004Y21122D02*
X218898Y24016D01*
X218418Y50849D02*
X218763Y51194D01*
X218898Y51059D01*
Y24016D02*
Y51059D01*
X166142Y123016D02*
X166535Y122622D01*
X91225Y298819D02*
X122441D01*
X142126D02*
X165748D01*
X166142Y298425D01*
X205512Y445669D02*
Y468560D01*
X207818Y470866D01*
X224072D01*
X226378Y473172D01*
Y537008D01*
X231890Y542520D01*
X225197Y445669D02*
X248606D01*
X231890Y542520D02*
X252222D01*
X298763Y21194D02*
X324135D01*
X298763D02*
X298819Y21250D01*
X324135Y21194D02*
X333256Y30315D01*
X338583D01*
X338386Y30512D02*
X338583Y30315D01*
X338386Y30512D02*
Y69669D01*
X366535Y69866D02*
X366929Y69472D01*
X338189Y69866D02*
X338386Y69669D01*
X338189Y69866D02*
X338386Y70063D01*
Y107071D01*
X298763Y88920D02*
Y101194D01*
X338386Y107071D02*
X338583Y107268D01*
X298763Y101194D02*
Y129077D01*
X364567Y131496D02*
X367323Y128740D01*
X298763Y129077D02*
X301181Y131496D01*
X364567D01*
X366929Y30315D02*
Y69472D01*
X462124Y65829D02*
X465354Y62598D01*
X366535Y69866D02*
X366929Y70260D01*
X462124Y65829D02*
Y79262D01*
X366929Y70260D02*
Y107268D01*
X367323Y107661D01*
Y128740D01*
X458663Y164406D02*
X458824Y164244D01*
X404492Y164406D02*
X458663D01*
X404331Y164567D02*
X404492Y164406D01*
X403937Y164961D02*
X404331Y164567D01*
X298425Y185039D02*
Y231744D01*
X299004Y232323D01*
X319460Y232283D02*
X398425D01*
X319361Y232382D02*
X319460Y232283D01*
X319035Y232382D02*
X319361D01*
X299004Y232323D02*
Y232525D01*
X354331Y244488D02*
X354387Y244544D01*
X354331Y244488D02*
Y257480D01*
X357874Y261024D01*
X377165Y304331D02*
X383209Y298287D01*
X316929Y304331D02*
X377165D01*
X297244D02*
Y348088D01*
X403937Y164961D02*
Y226772D01*
X438964Y201587D02*
X456169D01*
X434646Y205906D02*
X438964Y201587D01*
X434646Y205906D02*
Y244488D01*
X460549Y228427D02*
X466535Y222441D01*
X398425Y232283D02*
X403937Y226772D01*
X460549Y228427D02*
Y235168D01*
X460532Y235185D02*
X460549Y235168D01*
X460532Y235185D02*
Y241437D01*
X457480Y244488D02*
X460532Y241437D01*
X434646Y244488D02*
X457480D01*
X357874Y261024D02*
X464173D01*
X383209Y286449D02*
X383465Y286193D01*
X455596Y286370D02*
X455675Y286291D01*
X403366Y286370D02*
X455596D01*
X403287Y286449D02*
X403366Y286370D01*
X383209Y286449D02*
Y298287D01*
X403287Y286449D02*
Y341595D01*
X438964Y323241D02*
X453019D01*
X434252Y327953D02*
X438964Y323241D01*
X577794Y22939D02*
X605407D01*
X577794D02*
X577953Y23098D01*
X578423Y23568D01*
X605407Y22939D02*
X612783Y30315D01*
X618110D01*
X577953Y23098D02*
Y58268D01*
X497638Y52783D02*
X497794Y52939D01*
X573622Y62598D02*
X577953Y58268D01*
X465354Y62598D02*
X573622D01*
X471966Y79262D02*
Y99525D01*
X475380Y102939D01*
X577794D01*
Y126219D01*
X582283Y130709D01*
X642913D01*
X609055Y168346D02*
X609171Y168462D01*
X617481Y23568D02*
X618209Y24295D01*
X646457Y24197D02*
X646654Y24394D01*
X646063Y24591D02*
X646457Y24197D01*
X618110Y30315D02*
X618209Y30413D01*
X646457Y30315D02*
X646654Y30512D01*
X618209Y30413D02*
Y65059D01*
X646654Y30512D02*
Y65158D01*
X618209Y65059D02*
X618405Y65256D01*
X646654Y65158D02*
X646850Y65354D01*
X618209Y65059D02*
Y69768D01*
X646654Y65158D02*
Y69866D01*
X618209Y69768D02*
X618307Y69866D01*
X618405Y69965D01*
X646654Y69866D02*
Y106890D01*
X618405Y69965D02*
Y107169D01*
X646654Y106890D02*
Y107071D01*
X646850Y107268D01*
X618405Y107169D02*
X618504Y107268D01*
X645669Y107874D02*
X646654Y106890D01*
X645669Y108449D02*
X646850Y107268D01*
X645669Y108449D02*
Y127953D01*
X642913Y130709D02*
X645669Y127953D01*
X527953Y181752D02*
X528277Y181427D01*
X466535Y222441D02*
X509842D01*
X513475Y233691D02*
X514567Y234784D01*
X470392Y235168D02*
Y254805D01*
X562205Y261024D02*
X568716Y254512D01*
X464173Y261024D02*
X470392Y254805D01*
X464173Y261024D02*
X562205D01*
X475209Y286141D02*
X475360Y286291D01*
X526772Y304842D02*
X526909Y304980D01*
X609171Y178462D02*
X609724Y179015D01*
Y207031D01*
X568716Y209449D02*
Y254512D01*
X597286Y294053D02*
X608384D01*
X592913Y298425D02*
X597286Y294053D01*
X608384Y304053D02*
X608463Y304132D01*
Y330181D01*
X608542Y330260D01*
X568716Y333465D02*
X571866Y330315D01*
X353287Y366370D02*
X354041Y367123D01*
Y378450D01*
X358268Y382677D01*
X317114Y348273D02*
X396608D01*
X403287Y341595D01*
X358268Y382677D02*
X462598D01*
X433602Y366370D02*
X434252Y365721D01*
Y327953D02*
Y365721D01*
X433602Y366370D02*
X454946D01*
X457874Y363442D01*
X462598Y382677D02*
X467717Y377559D01*
X252222Y542520D02*
X254978Y539764D01*
X463386D02*
X464961Y541339D01*
X467717Y358268D02*
Y377559D01*
X512293Y356782D02*
X513386Y357874D01*
X568716Y333465D02*
Y371835D01*
X568898Y372016D01*
X612821Y427124D02*
X661533D01*
X612598Y427347D02*
X612821Y427124D01*
X661533Y437124D02*
X661613Y437203D01*
Y463251D01*
X661692Y463331D01*
D47*
X64961Y421894D02*
D03*
Y496303D02*
D03*
D48*
X101969Y437642D02*
D03*
D49*
Y480555D02*
D03*
D50*
X338583Y30315D02*
D03*
X568716Y305118D02*
D03*
X203756Y492126D02*
D03*
X248606Y520866D02*
D03*
X402756Y509630D02*
D03*
X403150Y470260D02*
D03*
X404331Y427347D02*
D03*
X584252Y509630D02*
D03*
X568716Y181102D02*
D03*
X584646Y470260D02*
D03*
X584252Y427347D02*
D03*
X40732Y342913D02*
D03*
X87614Y313779D02*
D03*
X137795Y252150D02*
D03*
X138189Y210417D02*
D03*
X338583Y107268D02*
D03*
X137795Y167323D02*
D03*
X338189Y69866D02*
D03*
X137795Y123016D02*
D03*
X618504Y107268D02*
D03*
X618307Y69866D02*
D03*
X618110Y30315D02*
D03*
D51*
X366929D02*
D03*
X431102Y509630D02*
D03*
X431496Y470260D02*
D03*
X432677Y427347D02*
D03*
X612598Y509630D02*
D03*
X612992Y470260D02*
D03*
X612598Y427347D02*
D03*
X166142Y252150D02*
D03*
X166535Y210417D02*
D03*
X366929Y107268D02*
D03*
X166142Y167323D02*
D03*
X366535Y69866D02*
D03*
X166142Y123016D02*
D03*
X646850Y107268D02*
D03*
X646654Y69866D02*
D03*
X646457Y30315D02*
D03*
D52*
X59504Y68385D02*
D03*
X31945D02*
D03*
X661692Y463331D02*
D03*
Y490890D02*
D03*
X608542Y357819D02*
D03*
Y330260D02*
D03*
X609724Y234591D02*
D03*
Y207031D02*
D03*
D53*
X142126Y298819D02*
D03*
X318110Y185039D02*
D03*
X316929Y304331D02*
D03*
X225197Y445669D02*
D03*
D54*
X122441Y298819D02*
D03*
X298425Y185039D02*
D03*
X297244Y304331D02*
D03*
X205512Y445669D02*
D03*
D55*
X96734Y67833D02*
D03*
D56*
X106735D02*
D03*
X661533Y427124D02*
D03*
X608384Y294053D02*
D03*
X609171Y168462D02*
D03*
D57*
X152362Y74154D02*
D03*
Y21122D02*
D03*
X138976Y74154D02*
D03*
Y21122D02*
D03*
X239370Y185295D02*
D03*
Y238327D02*
D03*
X252756Y185295D02*
D03*
Y238327D02*
D03*
X251181Y349350D02*
D03*
Y296319D02*
D03*
X237795Y349350D02*
D03*
Y296319D02*
D03*
X526772Y357874D02*
D03*
Y304842D02*
D03*
X513386Y357874D02*
D03*
Y304842D02*
D03*
X166929Y531102D02*
D03*
Y478071D02*
D03*
X153543Y531102D02*
D03*
Y478071D02*
D03*
X514567Y181752D02*
D03*
Y234784D02*
D03*
X527953Y181752D02*
D03*
Y234784D02*
D03*
X408661Y21516D02*
D03*
Y74547D02*
D03*
X422047Y21516D02*
D03*
Y74547D02*
D03*
D58*
X537146Y498032D02*
D03*
X484114D02*
D03*
X537146Y511417D02*
D03*
X484114D02*
D03*
X354075Y498032D02*
D03*
X301043D02*
D03*
X354075Y511417D02*
D03*
X301043D02*
D03*
X300650Y428346D02*
D03*
X353681D02*
D03*
X300650Y414961D02*
D03*
X353681D02*
D03*
X484508Y470866D02*
D03*
X537539D02*
D03*
X484508Y457480D02*
D03*
X537539D02*
D03*
X484114Y428346D02*
D03*
X537146D02*
D03*
X484114Y414961D02*
D03*
X537146D02*
D03*
X41201Y394094D02*
D03*
X94232D02*
D03*
X41201Y380709D02*
D03*
X94232D02*
D03*
X84784Y238976D02*
D03*
X31752D02*
D03*
X84784Y252362D02*
D03*
X31752D02*
D03*
X84784Y196850D02*
D03*
X31752D02*
D03*
X84784Y210236D02*
D03*
X31752D02*
D03*
X84784Y153543D02*
D03*
X31752D02*
D03*
X84784Y166929D02*
D03*
X31752D02*
D03*
X84784Y109449D02*
D03*
X31752D02*
D03*
X84784Y122835D02*
D03*
X31752D02*
D03*
X353681Y457480D02*
D03*
X300650D02*
D03*
X353681Y470866D02*
D03*
X300650D02*
D03*
D59*
X317114Y348273D02*
D03*
X297429D02*
D03*
X318689Y232525D02*
D03*
X299004D02*
D03*
D60*
X218763Y71194D02*
D03*
X497794Y72939D02*
D03*
D61*
X218763Y51194D02*
D03*
X298763Y21194D02*
D03*
Y101194D02*
D03*
X577794Y102939D02*
D03*
Y22939D02*
D03*
X497794Y52939D02*
D03*
D62*
X353287Y286449D02*
D03*
Y366370D02*
D03*
X393445D02*
D03*
X433602D02*
D03*
X383209Y286449D02*
D03*
X384252Y164567D02*
D03*
X434646Y244488D02*
D03*
X394488D02*
D03*
X354331D02*
D03*
Y164567D02*
D03*
D63*
X403287Y286449D02*
D03*
X404331Y164567D02*
D03*
D64*
X475360Y286291D02*
D03*
X478509Y164244D02*
D03*
D65*
X455675Y286291D02*
D03*
X458824Y164244D02*
D03*
D66*
X472704Y323241D02*
D03*
X453019D02*
D03*
X456169Y201587D02*
D03*
X475854D02*
D03*
D67*
X462124Y79262D02*
D03*
X460549Y235168D02*
D03*
X457874Y358268D02*
D03*
X182677Y65748D02*
D03*
D68*
X471966Y79262D02*
D03*
X470392Y235168D02*
D03*
X467717Y358268D02*
D03*
X192520Y65748D02*
D03*
D69*
X477400Y41313D02*
D03*
X197085Y37770D02*
D03*
D70*
X457715Y41313D02*
D03*
X177400Y37770D02*
D03*
D71*
X661533Y437124D02*
D03*
X608384Y304053D02*
D03*
X609171Y178462D02*
D03*
D72*
X568716Y333465D02*
D03*
X203756Y520472D02*
D03*
X248606Y492520D02*
D03*
X568716Y209449D02*
D03*
X40732Y314567D02*
D03*
X87614Y342126D02*
D03*
D73*
X19685Y19685D02*
D03*
Y531496D02*
D03*
X688976Y19685D02*
D03*
Y531496D02*
D03*
M02*
