G04*
G04 #@! TF.GenerationSoftware,Altium Limited,Altium Designer,21.9.2 (33)*
G04*
G04 Layer_Color=8388736*
%FSLAX25Y25*%
%MOIN*%
G70*
G04*
G04 #@! TF.SameCoordinates,B47FFC8E-61E7-446A-90B7-BF6068300CD5*
G04*
G04*
G04 #@! TF.FilePolarity,Negative*
G04*
G01*
G75*
%ADD16O,0.11036X0.05918*%
%ADD17C,0.25367*%
%ADD18R,0.25367X0.25367*%
%ADD19C,0.24422*%
%ADD20R,0.24422X0.24422*%
%ADD21C,0.05753*%
%ADD22C,0.06200*%
%ADD23R,0.06200X0.06200*%
%ADD24R,0.05556X0.05556*%
%ADD25C,0.05556*%
%ADD26O,0.10446X0.12611*%
%ADD27O,0.12611X0.10446*%
%ADD28C,0.05485*%
%ADD29R,0.09658X0.09658*%
%ADD30C,0.09658*%
%ADD31C,0.08674*%
%ADD32R,0.08674X0.08674*%
%ADD33C,0.05524*%
%ADD34R,0.05524X0.05524*%
%ADD35C,0.05328*%
%ADD36R,0.04934X0.04934*%
%ADD37C,0.04934*%
%ADD38C,0.05131*%
%ADD39R,0.05131X0.05131*%
%ADD40R,0.05556X0.05556*%
%ADD41R,0.24422X0.24422*%
%ADD42C,0.30800*%
D16*
X64961Y421894D02*
D03*
Y496303D02*
D03*
D17*
X101969Y437642D02*
D03*
D18*
Y480555D02*
D03*
D19*
X338583Y30315D02*
D03*
X568716Y305118D02*
D03*
X203756Y492126D02*
D03*
X248606Y520866D02*
D03*
X402756Y509630D02*
D03*
X403150Y470260D02*
D03*
X404331Y427347D02*
D03*
X584252Y509630D02*
D03*
X568716Y181102D02*
D03*
X584646Y470260D02*
D03*
X584252Y427347D02*
D03*
X40732Y342913D02*
D03*
X87614Y313779D02*
D03*
X137795Y252150D02*
D03*
X138189Y210417D02*
D03*
X338583Y107268D02*
D03*
X137795Y167323D02*
D03*
X338189Y69866D02*
D03*
X137795Y123016D02*
D03*
X618504Y107268D02*
D03*
X618307Y69866D02*
D03*
X618110Y30315D02*
D03*
D20*
X366929D02*
D03*
X431102Y509630D02*
D03*
X431496Y470260D02*
D03*
X432677Y427347D02*
D03*
X612598Y509630D02*
D03*
X612992Y470260D02*
D03*
X612598Y427347D02*
D03*
X166142Y252150D02*
D03*
X166535Y210417D02*
D03*
X366929Y107268D02*
D03*
X166142Y167323D02*
D03*
X366535Y69866D02*
D03*
X166142Y123016D02*
D03*
X646850Y107268D02*
D03*
X646654Y69866D02*
D03*
X646457Y30315D02*
D03*
D21*
X59504Y68385D02*
D03*
X31945D02*
D03*
X661692Y463331D02*
D03*
Y490890D02*
D03*
X608542Y357819D02*
D03*
Y330260D02*
D03*
X609724Y234591D02*
D03*
Y207031D02*
D03*
D22*
X142126Y298819D02*
D03*
X318110Y185039D02*
D03*
X316929Y304331D02*
D03*
X225197Y445669D02*
D03*
D23*
X122441Y298819D02*
D03*
X298425Y185039D02*
D03*
X297244Y304331D02*
D03*
X205512Y445669D02*
D03*
D24*
X96734Y67833D02*
D03*
D25*
X106735D02*
D03*
X661533Y427124D02*
D03*
X608384Y294053D02*
D03*
X609171Y168462D02*
D03*
D26*
X152362Y74154D02*
D03*
Y21122D02*
D03*
X138976Y74154D02*
D03*
Y21122D02*
D03*
X239370Y185295D02*
D03*
Y238327D02*
D03*
X252756Y185295D02*
D03*
Y238327D02*
D03*
X251181Y349350D02*
D03*
Y296319D02*
D03*
X237795Y349350D02*
D03*
Y296319D02*
D03*
X526772Y357874D02*
D03*
Y304842D02*
D03*
X513386Y357874D02*
D03*
Y304842D02*
D03*
X166929Y531102D02*
D03*
Y478071D02*
D03*
X153543Y531102D02*
D03*
Y478071D02*
D03*
X514567Y181752D02*
D03*
Y234784D02*
D03*
X527953Y181752D02*
D03*
Y234784D02*
D03*
X408661Y21516D02*
D03*
Y74547D02*
D03*
X422047Y21516D02*
D03*
Y74547D02*
D03*
D27*
X537146Y498032D02*
D03*
X484114D02*
D03*
X537146Y511417D02*
D03*
X484114D02*
D03*
X354075Y498032D02*
D03*
X301043D02*
D03*
X354075Y511417D02*
D03*
X301043D02*
D03*
X300650Y428346D02*
D03*
X353681D02*
D03*
X300650Y414961D02*
D03*
X353681D02*
D03*
X484508Y470866D02*
D03*
X537539D02*
D03*
X484508Y457480D02*
D03*
X537539D02*
D03*
X484114Y428346D02*
D03*
X537146D02*
D03*
X484114Y414961D02*
D03*
X537146D02*
D03*
X41201Y394094D02*
D03*
X94232D02*
D03*
X41201Y380709D02*
D03*
X94232D02*
D03*
X84784Y238976D02*
D03*
X31752D02*
D03*
X84784Y252362D02*
D03*
X31752D02*
D03*
X84784Y196850D02*
D03*
X31752D02*
D03*
X84784Y210236D02*
D03*
X31752D02*
D03*
X84784Y153543D02*
D03*
X31752D02*
D03*
X84784Y166929D02*
D03*
X31752D02*
D03*
X84784Y109449D02*
D03*
X31752D02*
D03*
X84784Y122835D02*
D03*
X31752D02*
D03*
X353681Y457480D02*
D03*
X300650D02*
D03*
X353681Y470866D02*
D03*
X300650D02*
D03*
D28*
X317114Y348273D02*
D03*
X297429D02*
D03*
X318689Y232525D02*
D03*
X299004D02*
D03*
D29*
X218763Y71194D02*
D03*
X497794Y72939D02*
D03*
D30*
X218763Y51194D02*
D03*
X298763Y21194D02*
D03*
Y101194D02*
D03*
X577794Y102939D02*
D03*
Y22939D02*
D03*
X497794Y52939D02*
D03*
D31*
X353287Y286449D02*
D03*
Y366370D02*
D03*
X393445D02*
D03*
X433602D02*
D03*
X383209Y286449D02*
D03*
X384252Y164567D02*
D03*
X434646Y244488D02*
D03*
X394488D02*
D03*
X354331D02*
D03*
Y164567D02*
D03*
D32*
X403287Y286449D02*
D03*
X404331Y164567D02*
D03*
D33*
X475360Y286291D02*
D03*
X478509Y164244D02*
D03*
D34*
X455675Y286291D02*
D03*
X458824Y164244D02*
D03*
D35*
X472704Y323241D02*
D03*
X453019D02*
D03*
X456169Y201587D02*
D03*
X475854D02*
D03*
D36*
X462124Y79262D02*
D03*
X460549Y235168D02*
D03*
X457874Y358268D02*
D03*
X182677Y65748D02*
D03*
D37*
X471966Y79262D02*
D03*
X470392Y235168D02*
D03*
X467717Y358268D02*
D03*
X192520Y65748D02*
D03*
D38*
X477400Y41313D02*
D03*
X197085Y37770D02*
D03*
D39*
X457715Y41313D02*
D03*
X177400Y37770D02*
D03*
D40*
X661533Y437124D02*
D03*
X608384Y304053D02*
D03*
X609171Y178462D02*
D03*
D41*
X568716Y333465D02*
D03*
X203756Y520472D02*
D03*
X248606Y492520D02*
D03*
X568716Y209449D02*
D03*
X40732Y314567D02*
D03*
X87614Y342126D02*
D03*
D42*
X19685Y19685D02*
D03*
Y531496D02*
D03*
X688976Y19685D02*
D03*
Y531496D02*
D03*
M02*
